<?xml version="1.0" encoding="utf-8"?>
<!-- Generator: Adobe Illustrator 22.1.0, SVG Export Plug-In . SVG Version: 6.00 Build 0)  -->
<svg version="1.1" id="Layer_1" xmlns="http://www.w3.org/2000/svg" xmlns:xlink="http://www.w3.org/1999/xlink" x="0px" y="0px"
	 viewBox="0 0 150 46" style="enable-background:new 0 0 150 46;" xml:space="preserve">
<style type="text/css">
	.st0{fill:#FFFFFF;}
	.st1{fill:#1E90FF;}
</style>
<path class="st0" d="M9.1,4.7c0.9,0.4,1.6,1,2.1,1.8c0.5,0.7,0.8,1.6,1,2.6c0.1,0.6,0.1,1.4,0.1,2.5h-9c0.1,1.2,0.5,2.1,1.3,2.6
	c0.5,0.3,1.1,0.5,1.8,0.5s1.3-0.2,1.8-0.6c0.3-0.2,0.5-0.5,0.7-0.9h3.3c-0.1,0.7-0.5,1.5-1.2,2.2c-1.1,1.2-2.7,1.8-4.7,1.8
	c-1.7,0-3.1-0.5-4.4-1.5S0,13,0,10.7c0-2.2,0.6-3.8,1.7-5C2.8,4.6,4.3,4,6.1,4C7.2,4.2,8.2,4.3,9.1,4.7z M4.2,7.5
	C3.8,8,3.5,8.7,3.4,9.5H9C8.9,8.6,8.7,8,8.1,7.5C7.6,7.1,6.9,6.8,6.2,6.8C5.3,6.8,4.7,7.1,4.2,7.5z"/>
<path class="st0" d="M24,5.2c0.8,0.7,1.2,1.8,1.2,3.3v8.4h-3.3V9.4c0-0.7-0.1-1.2-0.3-1.5c-0.3-0.6-0.9-1-1.8-1
	c-1.1,0-1.8,0.5-2.3,1.4c-0.2,0.5-0.3,1.1-0.3,1.9v6.7H14V4.5h3.1v1.8c0.4-0.6,0.8-1.1,1.2-1.4c0.7-0.5,1.5-0.8,2.5-0.8
	C22.1,4.2,23.2,4.5,24,5.2z"/>
<path class="st0" d="M26.8,19.3c0.2,0,0.3,0,0.4,0s0.1,0,0.2,0c0.3,0,0.6-0.1,0.7-0.2c0.2-0.2,0.2-0.5,0.2-0.9V4.5h3.3v13.7
	c0,1.3-0.2,2.2-0.7,2.8s-1.5,0.9-2.9,0.9c-0.1,0-0.2,0-0.4,0c-0.2,0-0.4,0-0.7,0v-2.6H26.8z M31.6,3h-3.3V0h3.3V3z"/>
<path class="st0" d="M45.1,15.4c-1,1.3-2.6,1.9-4.8,1.9s-3.7-0.6-4.8-1.9c-1-1.3-1.6-2.9-1.6-4.7s0.5-3.3,1.6-4.7c1-1.3,2.6-2,4.8-2
	s3.7,0.7,4.8,2s1.6,2.9,1.6,4.7C46.7,12.5,46.1,14.1,45.1,15.4z M42.5,13.6c0.5-0.7,0.8-1.6,0.8-2.9S43,8.5,42.5,7.8s-1.2-1-2.2-1
	s-1.7,0.3-2.2,1s-0.8,1.6-0.8,2.9s0.3,2.2,0.8,2.9s1.2,1,2.2,1S42,14.3,42.5,13.6z"/>
<path class="st0" d="M49.5,19.3h0.4c0.3,0,0.6,0,0.9,0c0.3,0,0.5-0.1,0.7-0.3c0.2-0.1,0.4-0.4,0.5-0.8c0.2-0.4,0.2-0.7,0.2-0.8
	l-4.6-13h3.6l2.7,9.2l2.6-9.2H60l-4.3,12.2c-0.8,2.4-1.5,3.8-2,4.4s-1.4,0.8-2.9,0.8c-0.3,0-0.5,0-0.7,0s-0.4,0-0.8,0v-2.5
	C49.3,19.3,49.5,19.3,49.5,19.3z"/>
<path class="st1" d="M60.2,13.5h3.5v3.4h-3.5V13.5z"/>
<path class="st0" d="M70.1,3h-3.3V0h3.3V3z M66.8,4.5h3.3v12.4h-3.3V4.5z"/>
<path class="st0" d="M83.3,5.2c0.8,0.7,1.2,1.8,1.2,3.3v8.4h-3.3V9.4c0-0.7-0.1-1.2-0.3-1.5c-0.3-0.6-0.9-1-1.8-1
	c-1.1,0-1.8,0.5-2.3,1.4c-0.2,0.5-0.3,1.1-0.3,1.9v6.7h-3.3V4.5h3.1v1.8c0.4-0.6,0.8-1.1,1.2-1.4C78.2,4.4,79,4.1,80,4.1
	C81.4,4.2,82.5,4.5,83.3,5.2z"/>
<path class="st0" d="M93.7,4.5c0.8,0.3,1.4,0.9,1.9,1.8V4.5h3.2v11.8c0,1.6-0.3,2.8-0.8,3.6c-1,1.4-2.8,2.1-5.4,2.1
	c-1.6,0-2.9-0.3-3.9-0.9s-1.6-1.6-1.7-2.8h3.5c0.1,0.4,0.2,0.7,0.4,0.8c0.3,0.3,0.9,0.4,1.8,0.4c1.2,0,2-0.4,2.3-1.2
	c0.3-0.5,0.4-1.3,0.4-2.5V15c-0.3,0.5-0.6,0.9-1,1.2C93.9,16.7,93,17,92,17c-1.6,0-2.9-0.6-3.8-1.7s-1.4-2.6-1.4-4.6
	c0-1.8,0.5-3.4,1.4-4.7C89,4.8,90.3,4.2,92,4.2C92.7,4.2,93.2,4.3,93.7,4.5z M94.8,13.4c0.5-0.6,0.8-1.5,0.8-2.7S95.4,8.6,94.9,8
	c-0.5-0.6-1.2-0.9-2-0.9c-1.1,0-1.9,0.5-2.4,1.6c-0.2,0.6-0.3,1.3-0.3,2.1c0,0.7,0.1,1.4,0.4,1.9c0.4,1,1.2,1.6,2.4,1.6
	C93.6,14.2,94.2,14,94.8,13.4z"/>
<path class="st0" d="M6,41.1c-0.2,0-0.4,0.1-0.7,0.2s-0.6,0.1-0.9,0.1c-0.7,0-1.2-0.2-1.6-0.5s-0.5-1-0.5-1.9v-8.9H0.6v-1.2h1.7
	v-3.4h1.4v3.4H6v1.2H3.7v8.3c0,0.3,0,0.6,0,0.8s0.1,0.4,0.1,0.5C3.9,39.9,4,40,4.2,40s0.4,0.1,0.7,0.1c0.2,0,0.4,0,0.6,0
	C5.7,40,5.8,40,6,40V41.1z"/>
<path class="st0" d="M8.4,26.3v-2.1H10v2.1H8.4z M8.5,41V28.9h1.4V41H8.5z"/>
<path class="st0" d="M14.7,41h-1.4V28.9h1.4v1.8l0,0c0.4-0.7,0.9-1.2,1.5-1.6c0.7-0.4,1.4-0.5,2.2-0.5c0.6,0,1,0.1,1.4,0.2
	s0.7,0.3,1,0.5s0.5,0.5,0.7,0.7c0.2,0.3,0.3,0.6,0.5,0.9c0.4-0.8,0.9-1.4,1.6-1.8s1.5-0.6,2.3-0.6s1.5,0.1,2,0.4s0.9,0.6,1.1,1.1
	c0.3,0.4,0.4,1,0.5,1.5s0.1,1.2,0.1,1.8V41h-1.4v-8.4c0-0.9-0.2-1.6-0.5-2.1s-1-0.7-2-0.7c-0.5,0-1,0.1-1.5,0.3s-0.9,0.6-1.2,1
	c-0.2,0.2-0.3,0.4-0.4,0.7s-0.2,0.6-0.2,0.9c-0.1,0.3-0.1,0.6-0.1,0.9c0,0.3,0,0.6,0,0.8V41h-1.4v-8.4c0-0.9-0.2-1.6-0.5-2.1
	s-1-0.7-2-0.7c-0.5,0-1,0.1-1.5,0.3s-0.9,0.6-1.2,1c-0.2,0.2-0.3,0.4-0.4,0.7c-0.1,0.3-0.2,0.6-0.2,0.9C15,33,15,33.3,15,33.6
	c0,0.3,0,0.6,0,0.8V41H14.7z"/>
<path class="st0" d="M33.8,35.3c0,0.7,0.1,1.3,0.3,1.9s0.4,1.1,0.8,1.5c0.3,0.4,0.8,0.8,1.3,1c0.5,0.3,1.1,0.4,1.8,0.4
	c0.9,0,1.7-0.2,2.4-0.7s1.1-1.2,1.3-2.1h1.6c-0.2,0.6-0.4,1.1-0.7,1.6s-0.6,0.9-1.1,1.3c-0.4,0.4-0.9,0.7-1.5,0.9s-1.2,0.3-2,0.3
	c-1,0-1.8-0.2-2.5-0.5s-1.3-0.8-1.7-1.3c-0.5-0.6-0.8-1.2-1-2s-0.3-1.6-0.3-2.5s0.1-1.7,0.4-2.5c0.3-0.8,0.6-1.5,1.1-2
	s1.1-1,1.7-1.4c0.7-0.3,1.5-0.5,2.3-0.5c1.7,0,3,0.6,3.9,1.7s1.4,2.8,1.4,5h-9.5V35.3z M41.7,34.2c0-0.6-0.1-1.1-0.2-1.7
	s-0.4-1-0.7-1.4s-0.7-0.7-1.2-0.9c-0.5-0.2-1-0.3-1.7-0.3s-1.2,0.1-1.6,0.4c-0.5,0.2-0.9,0.5-1.2,0.9s-0.6,0.8-0.8,1.4
	c-0.2,0.5-0.3,1.1-0.4,1.6H41.7z"/>
<path class="st0" d="M53.6,41h-1.4V28.9h1.4v1.8l0,0c0.4-0.7,0.9-1.2,1.5-1.6c0.7-0.4,1.4-0.5,2.2-0.5c0.6,0,1,0.1,1.4,0.2
	s0.7,0.3,1,0.5s0.5,0.5,0.7,0.7c0.2,0.3,0.3,0.6,0.5,0.9c0.4-0.8,0.9-1.4,1.6-1.8c0.7-0.4,1.5-0.6,2.3-0.6s1.5,0.1,2,0.4
	s0.9,0.6,1.1,1.1c0.3,0.4,0.4,1,0.5,1.5s0.1,1.2,0.1,1.8V41h-1.4v-8.4c0-0.9-0.2-1.6-0.5-2.1s-1-0.7-2-0.7c-0.5,0-1,0.1-1.5,0.3
	s-0.9,0.6-1.2,1c-0.2,0.2-0.3,0.4-0.4,0.7c-0.1,0.3-0.2,0.6-0.2,0.9c-0.1,0.3-0.1,0.6-0.1,0.9c0,0.3,0,0.6,0,0.8V41h-1.4v-8.4
	c0-0.9-0.2-1.6-0.5-2.1s-1-0.7-2-0.7c-0.5,0-1,0.1-1.5,0.3s-0.9,0.6-1.2,1c-0.2,0.2-0.3,0.4-0.4,0.7c-0.1,0.3-0.2,0.6-0.2,0.9
	c-0.1,0.3-0.1,0.6-0.1,0.9c0,0.3,0,0.6,0,0.8V41H53.6z"/>
<path class="st0" d="M77.4,34c0.3,0,0.6-0.1,0.9-0.1c0.4-0.1,0.7-0.1,0.9-0.3s0.4-0.3,0.4-0.5c0.1-0.3,0.1-0.5,0.1-0.7
	c0-0.7-0.2-1.3-0.7-1.8s-1.2-0.7-2.3-0.7c-0.5,0-0.9,0-1.3,0.1s-0.8,0.2-1.1,0.4c-0.3,0.2-0.6,0.5-0.7,0.8c-0.2,0.3-0.3,0.8-0.4,1.3
	h-1.4c0-0.7,0.2-1.3,0.5-1.8s0.6-0.9,1.1-1.2c0.4-0.3,1-0.6,1.5-0.7c0.6-0.1,1.2-0.2,1.9-0.2c0.6,0,1.2,0.1,1.7,0.2s1,0.3,1.4,0.6
	c0.4,0.3,0.7,0.7,0.9,1.2s0.3,1.1,0.3,1.8V39c0,0.5,0.1,0.9,0.3,1c0.2,0.1,0.6,0.1,1.2-0.1V41c-0.1,0-0.3,0.1-0.5,0.1
	c-0.2,0.1-0.4,0.1-0.6,0.1s-0.4,0-0.6-0.1c-0.2,0-0.4-0.1-0.6-0.2c-0.1-0.1-0.3-0.3-0.3-0.4c-0.1-0.2-0.1-0.3-0.2-0.5
	c0-0.2,0-0.4,0-0.6c-0.6,0.7-1.3,1.2-2,1.5s-1.6,0.5-2.5,0.5c-0.5,0-1-0.1-1.5-0.2c-0.5-0.1-0.9-0.4-1.3-0.7s-0.7-0.7-0.9-1.1
	c-0.2-0.4-0.3-0.9-0.3-1.5c0-2.1,1.4-3.3,4.2-3.6L77.4,34z M79.8,34.7c-0.6,0.2-1.2,0.4-1.8,0.5c-0.6,0.1-1.2,0.1-1.8,0.2
	c-1.1,0.1-1.9,0.3-2.5,0.7s-0.9,1-0.9,1.8c0,0.4,0.1,0.7,0.2,1s0.3,0.5,0.6,0.7c0.2,0.2,0.5,0.3,0.8,0.4s0.6,0.1,1,0.1
	c0.6,0,1.1-0.1,1.6-0.2s1-0.4,1.4-0.6c0.4-0.3,0.7-0.7,1-1.1s0.4-1,0.4-1.6C79.8,36.6,79.8,34.7,79.8,34.7z"/>
<path class="st0" d="M86.2,41h-1.4V28.9h1.4v1.7c0.6-0.6,1.1-1.1,1.7-1.4c0.6-0.4,1.3-0.6,2.2-0.6c0.7,0,1.4,0.1,2.1,0.4
	s1.2,0.7,1.6,1.3c0.3,0.4,0.5,0.9,0.5,1.3c0.1,0.5,0.1,0.9,0.1,1.4v8H93v-7.9c0-1.1-0.2-1.9-0.7-2.5c-0.5-0.5-1.3-0.8-2.4-0.8
	c-0.4,0-0.8,0.1-1.2,0.2s-0.7,0.3-1,0.5S87.2,31,87,31.2c-0.2,0.3-0.4,0.6-0.5,0.9c-0.1,0.4-0.2,0.8-0.3,1.1c0,0.4,0,0.7,0,1.2
	C86.2,34.4,86.2,41,86.2,41z"/>
<path class="st0" d="M103.4,34c0.3,0,0.6-0.1,0.9-0.1c0.4-0.1,0.7-0.1,0.9-0.3s0.4-0.3,0.4-0.5c0.1-0.3,0.1-0.5,0.1-0.7
	c0-0.7-0.2-1.3-0.7-1.8s-1.2-0.7-2.3-0.7c-0.5,0-0.9,0-1.3,0.1s-0.8,0.2-1.1,0.4c-0.3,0.2-0.6,0.5-0.7,0.8c-0.2,0.3-0.3,0.8-0.4,1.3
	h-1.4c0-0.7,0.2-1.3,0.5-1.8s0.6-0.9,1.1-1.2c0.4-0.3,1-0.6,1.5-0.7c0.6-0.1,1.2-0.2,1.9-0.2c0.6,0,1.2,0.1,1.7,0.2s1,0.3,1.4,0.6
	c0.4,0.3,0.7,0.7,0.9,1.2s0.3,1.1,0.3,1.8V39c0,0.5,0.1,0.9,0.3,1c0.2,0.1,0.6,0.1,1.2-0.1V41c-0.1,0-0.3,0.1-0.5,0.1
	c-0.2,0.1-0.4,0.1-0.6,0.1s-0.4,0-0.6-0.1c-0.2,0-0.4-0.1-0.6-0.2c-0.1-0.1-0.3-0.3-0.3-0.4c-0.1-0.2-0.1-0.3-0.2-0.5
	c0-0.2,0-0.4,0-0.6c-0.6,0.7-1.3,1.2-2,1.5s-1.6,0.5-2.5,0.5c-0.5,0-1-0.1-1.5-0.2c-0.5-0.1-0.9-0.4-1.3-0.7s-0.7-0.7-0.9-1.1
	c-0.2-0.4-0.3-0.9-0.3-1.5c0-2.1,1.4-3.3,4.2-3.6L103.4,34z M105.7,34.7c-0.6,0.2-1.2,0.4-1.8,0.5c-0.6,0.1-1.2,0.1-1.8,0.2
	c-1.1,0.1-1.9,0.3-2.5,0.7s-0.9,1-0.9,1.8c0,0.4,0.1,0.7,0.2,1s0.3,0.5,0.6,0.7c0.2,0.2,0.5,0.3,0.8,0.4s0.6,0.1,1,0.1
	c0.6,0,1.1-0.1,1.6-0.2s1-0.4,1.4-0.6c0.4-0.3,0.7-0.7,1-1.1s0.4-1,0.4-1.6C105.7,36.6,105.7,34.7,105.7,34.7z"/>
<path class="st0" d="M120.2,28.9h1.4v10.9c0,0.8-0.1,1.6-0.2,2.3c-0.2,0.7-0.5,1.4-0.9,1.9c-0.4,0.6-1,1-1.7,1.3s-1.7,0.5-2.8,0.5
	c-0.9,0-1.7-0.1-2.3-0.3c-0.6-0.2-1.2-0.5-1.6-0.9c-0.4-0.3-0.7-0.7-0.9-1.1s-0.3-0.8-0.3-1.2h1.5c0.1,0.5,0.3,0.8,0.5,1.1
	s0.5,0.5,0.8,0.7s0.7,0.3,1.1,0.3c0.4,0.1,0.8,0.1,1.2,0.1c1,0,1.7-0.2,2.3-0.5c0.6-0.3,1-0.8,1.3-1.3s0.5-1.1,0.6-1.8
	s0.1-1.4,0.1-2.1c-0.5,0.7-1.1,1.3-1.9,1.7s-1.6,0.6-2.5,0.6s-1.7-0.2-2.4-0.5c-0.7-0.3-1.2-0.8-1.7-1.4c-0.4-0.6-0.8-1.3-1-2
	c-0.2-0.8-0.3-1.6-0.3-2.4c0-0.9,0.1-1.7,0.3-2.5s0.5-1.5,1-2c0.4-0.6,1-1,1.7-1.3s1.5-0.5,2.5-0.5c0.4,0,0.8,0.1,1.2,0.2
	c0.4,0.1,0.8,0.3,1.2,0.5c0.4,0.2,0.7,0.5,1.1,0.8c0.3,0.3,0.6,0.7,0.8,1.1l0,0L120.2,28.9L120.2,28.9z M120.2,35
	c0-0.7-0.1-1.4-0.3-2s-0.4-1.2-0.8-1.6c-0.3-0.5-0.8-0.8-1.3-1.1c-0.5-0.3-1.1-0.4-1.8-0.4c-0.6,0-1.1,0.1-1.6,0.3s-0.9,0.5-1.3,0.9
	s-0.7,0.9-0.9,1.5c-0.2,0.6-0.3,1.3-0.3,2c0,0.8,0,1.5,0.2,2.1c0.2,0.7,0.4,1.2,0.7,1.7c0.3,0.5,0.8,0.9,1.3,1.2s1.2,0.4,1.9,0.4
	c0.6,0,1.2-0.1,1.7-0.4c0.5-0.3,0.9-0.6,1.3-1.1s0.6-1,0.8-1.6S120.2,35.7,120.2,35z"/>
<path class="st0" d="M125.9,35.3c0,0.7,0.1,1.3,0.3,1.9c0.2,0.6,0.4,1.1,0.8,1.5s0.8,0.8,1.3,1c0.5,0.3,1.1,0.4,1.8,0.4
	c0.9,0,1.7-0.2,2.4-0.7s1.1-1.2,1.3-2.1h1.6c-0.2,0.6-0.4,1.1-0.7,1.6s-0.6,0.9-1.1,1.3c-0.4,0.4-0.9,0.7-1.5,0.9s-1.2,0.3-2,0.3
	c-1,0-1.8-0.2-2.5-0.5s-1.3-0.8-1.7-1.3c-0.5-0.6-0.8-1.2-1-2s-0.3-1.6-0.3-2.5s0.1-1.7,0.4-2.5s0.6-1.5,1.1-2
	c0.5-0.6,1.1-1,1.7-1.4c0.7-0.3,1.5-0.5,2.3-0.5c1.7,0,3,0.6,3.9,1.7s1.4,2.8,1.4,5h-9.5V35.3z M133.8,34.2c0-0.6-0.1-1.1-0.2-1.7
	s-0.4-1-0.7-1.4s-0.7-0.7-1.2-0.9c-0.5-0.2-1-0.3-1.7-0.3c-0.6,0-1.2,0.1-1.6,0.4c-0.5,0.2-0.9,0.5-1.2,0.9
	c-0.3,0.4-0.6,0.8-0.8,1.4c-0.2,0.5-0.3,1.1-0.4,1.6H133.8z"/>
<path class="st0" d="M139.5,41h-1.4V28.9h1.4v2.3l0,0c0.4-1,0.9-1.6,1.5-2s1.4-0.6,2.4-0.6v1.5c-0.8,0-1.4,0.1-2,0.4
	c-0.5,0.3-0.9,0.6-1.2,1.1s-0.5,1-0.6,1.6s-0.2,1.3-0.2,1.9V41H139.5z"/>
</svg>
