<?xml version="1.0" encoding="utf-8"?>
<!-- Generator: Adobe Illustrator 22.1.0, SVG Export Plug-In . SVG Version: 6.00 Build 0)  -->
<svg version="1.1" id="Layer_1" xmlns="http://www.w3.org/2000/svg" xmlns:xlink="http://www.w3.org/1999/xlink" x="0px" y="0px"
	 viewBox="0 0 150 46" style="enable-background:new 0 0 150 46;" xml:space="preserve">
<style type="text/css">
	.st0{fill:#FFFFFF;}
	.st1{fill:#1E90FF;}
</style>
<g>
	<path class="st0" d="M9.1,113.2c0.9,0.4,1.6,1,2.1,1.8c0.5,0.7,0.8,1.6,1,2.6c0.1,0.6,0.1,1.4,0.1,2.5H3.3c0.1,1.2,0.5,2.1,1.3,2.6
		c0.5,0.3,1.1,0.5,1.8,0.5c0.7,0,1.3-0.2,1.8-0.6c0.3-0.2,0.5-0.5,0.7-0.9h3.3c-0.1,0.7-0.5,1.5-1.2,2.2c-1.1,1.2-2.7,1.8-4.7,1.8
		c-1.7,0-3.1-0.5-4.4-1.5c-1.3-1-1.9-2.7-1.9-5c0-2.2,0.6-3.8,1.7-5c1.1-1.1,2.6-1.7,4.4-1.7C7.2,112.7,8.2,112.8,9.1,113.2z
		 M4.2,116c-0.5,0.5-0.7,1.1-0.9,1.9H9c-0.1-0.9-0.3-1.5-0.9-2c-0.5-0.4-1.2-0.7-1.9-0.7C5.3,115.3,4.7,115.6,4.2,116z"/>
	<path class="st0" d="M24,113.7c0.8,0.7,1.2,1.8,1.2,3.3v8.4h-3.3v-7.6c0-0.7-0.1-1.2-0.3-1.5c-0.3-0.6-0.9-1-1.8-1
		c-1.1,0-1.8,0.5-2.3,1.4c-0.2,0.5-0.3,1.1-0.3,1.9v6.7H14V113h3.1v1.8c0.4-0.6,0.8-1.1,1.2-1.4c0.7-0.5,1.5-0.8,2.5-0.8
		C22.1,112.7,23.2,113,24,113.7z"/>
	<path class="st0" d="M26.8,127.8c0.2,0,0.3,0,0.4,0s0.1,0,0.2,0c0.3,0,0.6-0.1,0.7-0.2c0.2-0.2,0.2-0.5,0.2-0.9V113h3.3v13.7
		c0,1.3-0.2,2.2-0.7,2.8c-0.5,0.6-1.5,0.9-2.9,0.9c-0.1,0-0.2,0-0.4,0c-0.2,0-0.4,0-0.7,0V127.8z M31.6,111.5h-3.3v-3h3.3V111.5z"/>
	<path class="st0" d="M45.1,123.9c-1,1.3-2.6,1.9-4.8,1.9s-3.7-0.6-4.8-1.9c-1-1.3-1.6-2.9-1.6-4.7c0-1.8,0.5-3.3,1.6-4.7
		c1-1.3,2.6-2,4.8-2s3.7,0.7,4.8,2c1,1.3,1.6,2.9,1.6,4.7C46.7,121,46.1,122.6,45.1,123.9z M42.5,122.1c0.5-0.7,0.8-1.6,0.8-2.9
		s-0.3-2.2-0.8-2.9s-1.2-1-2.2-1s-1.7,0.3-2.2,1s-0.8,1.6-0.8,2.9s0.3,2.2,0.8,2.9c0.5,0.7,1.2,1,2.2,1S42,122.8,42.5,122.1z"/>
	<path class="st0" d="M49.5,127.8l0.4,0c0.3,0,0.6,0,0.9,0c0.3,0,0.5-0.1,0.7-0.3c0.2-0.1,0.4-0.4,0.5-0.8c0.2-0.4,0.2-0.7,0.2-0.8
		l-4.6-13h3.6l2.7,9.2l2.6-9.2h3.5l-4.3,12.2c-0.8,2.4-1.5,3.8-2,4.4c-0.5,0.6-1.4,0.8-2.9,0.8c-0.3,0-0.5,0-0.7,0
		c-0.2,0-0.4,0-0.8,0V127.8z"/>
	<path class="st1" d="M60.2,122h3.5v3.4h-3.5V122z"/>
	<path class="st0" d="M70.1,111.5h-3.3v-3h3.3V111.5z M66.8,113h3.3v12.4h-3.3V113z"/>
	<path class="st0" d="M83.3,113.7c0.8,0.7,1.2,1.8,1.2,3.3v8.4h-3.3v-7.6c0-0.7-0.1-1.2-0.3-1.5c-0.3-0.6-0.9-1-1.8-1
		c-1.1,0-1.8,0.5-2.3,1.4c-0.2,0.5-0.3,1.1-0.3,1.9v6.7h-3.3V113h3.1v1.8c0.4-0.6,0.8-1.1,1.2-1.4c0.7-0.5,1.5-0.8,2.5-0.8
		C81.4,112.7,82.5,113,83.3,113.7z"/>
	<path class="st0" d="M93.7,113c0.8,0.3,1.4,0.9,1.9,1.8V113h3.2v11.8c0,1.6-0.3,2.8-0.8,3.6c-0.9,1.4-2.7,2.1-5.3,2.1
		c-1.6,0-2.9-0.3-3.9-0.9c-1-0.6-1.6-1.6-1.7-2.8h3.5c0.1,0.4,0.2,0.7,0.4,0.8c0.3,0.3,0.9,0.4,1.8,0.4c1.2,0,2-0.4,2.3-1.2
		c0.3-0.5,0.4-1.3,0.4-2.5v-0.8c-0.3,0.5-0.6,0.9-1,1.2c-0.6,0.5-1.5,0.7-2.5,0.7c-1.6,0-2.9-0.6-3.8-1.7c-1-1.1-1.4-2.6-1.4-4.6
		c0-1.8,0.5-3.4,1.4-4.7c0.9-1.3,2.2-1.9,3.9-1.9C92.7,112.7,93.2,112.8,93.7,113z M94.8,121.9c0.5-0.6,0.8-1.5,0.8-2.7
		c0-1.2-0.2-2.1-0.7-2.7c-0.5-0.6-1.2-0.9-2-0.9c-1.1,0-1.9,0.5-2.4,1.6c-0.2,0.6-0.3,1.3-0.3,2.1c0,0.7,0.1,1.4,0.4,1.9
		c0.4,1,1.2,1.6,2.4,1.6C93.6,122.7,94.2,122.5,94.8,121.9z"/>
</g>
<path class="st0" d="M112.7,125.5c-0.2,0-0.4,0.1-0.7,0.2c-0.3,0.1-0.6,0.1-0.9,0.1c-0.7,0-1.2-0.2-1.6-0.5c-0.4-0.4-0.5-1-0.5-1.9
	v-8.9h-1.7v-1.2h1.7V110h1.4v3.4h2.3v1.2h-2.3v8.3c0,0.3,0,0.6,0,0.8c0,0.2,0.1,0.4,0.1,0.5c0.1,0.1,0.2,0.2,0.4,0.3
	c0.2,0.1,0.4,0.1,0.7,0.1c0.2,0,0.4,0,0.6,0c0.2,0,0.4-0.1,0.6-0.1V125.5z"/>
<path class="st0" d="M115.8,119.7c0,0.7,0.1,1.3,0.3,1.9c0.2,0.6,0.4,1.1,0.8,1.5c0.3,0.4,0.8,0.8,1.3,1c0.5,0.3,1.1,0.4,1.8,0.4
	c0.9,0,1.7-0.2,2.4-0.7c0.7-0.5,1.1-1.2,1.3-2.1h1.6c-0.2,0.6-0.4,1.1-0.7,1.6c-0.3,0.5-0.6,0.9-1.1,1.3c-0.4,0.4-0.9,0.7-1.5,0.9
	c-0.6,0.2-1.2,0.3-2,0.3c-1,0-1.8-0.2-2.5-0.5c-0.7-0.3-1.3-0.8-1.7-1.3c-0.5-0.6-0.8-1.2-1-2c-0.2-0.8-0.3-1.6-0.3-2.5
	c0-0.9,0.1-1.7,0.4-2.5c0.3-0.8,0.6-1.5,1.1-2c0.5-0.6,1.1-1,1.7-1.4c0.7-0.3,1.5-0.5,2.3-0.5c1.7,0,3,0.6,3.9,1.7
	c0.9,1.1,1.4,2.8,1.4,5H115.8z M123.7,118.5c0-0.6-0.1-1.1-0.2-1.7c-0.2-0.5-0.4-1-0.7-1.4c-0.3-0.4-0.7-0.7-1.2-0.9
	c-0.5-0.2-1-0.3-1.7-0.3s-1.2,0.1-1.6,0.4c-0.5,0.2-0.9,0.5-1.2,0.9c-0.3,0.4-0.6,0.8-0.8,1.4c-0.2,0.5-0.3,1.1-0.4,1.6H123.7z"/>
<path class="st0" d="M133.5,118.4c0.3,0,0.6-0.1,0.9-0.1c0.4-0.1,0.7-0.1,0.9-0.3c0.2-0.1,0.4-0.3,0.4-0.5c0.1-0.3,0.1-0.5,0.1-0.7
	c0-0.7-0.2-1.3-0.7-1.8c-0.5-0.5-1.2-0.7-2.3-0.7c-0.5,0-0.9,0-1.3,0.1c-0.4,0.1-0.8,0.2-1.1,0.4c-0.3,0.2-0.6,0.5-0.7,0.8
	c-0.2,0.4-0.3,0.8-0.4,1.3h-1.4c0-0.7,0.2-1.3,0.5-1.8c0.3-0.5,0.6-0.9,1.1-1.2c0.4-0.3,1-0.6,1.5-0.7s1.2-0.2,1.9-0.2
	c0.6,0,1.2,0.1,1.7,0.2c0.5,0.1,1,0.3,1.4,0.6c0.4,0.3,0.7,0.7,0.9,1.2c0.2,0.5,0.3,1.1,0.3,1.8v6.6c0,0.5,0.1,0.9,0.3,1
	c0.2,0.1,0.6,0.1,1.2-0.1v1.1c-0.1,0-0.3,0.1-0.5,0.1c-0.2,0.1-0.4,0.1-0.6,0.1c-0.2,0-0.4,0-0.6-0.1c-0.2,0-0.4-0.1-0.6-0.2
	c-0.1-0.1-0.3-0.3-0.3-0.4c-0.1-0.2-0.1-0.3-0.2-0.5c0-0.2,0-0.4,0-0.6c-0.6,0.7-1.3,1.2-2,1.5c-0.8,0.3-1.6,0.5-2.5,0.5
	c-0.5,0-1-0.1-1.5-0.2c-0.5-0.1-0.9-0.4-1.3-0.7c-0.4-0.3-0.7-0.7-0.9-1.1c-0.2-0.4-0.3-0.9-0.3-1.5c0-2.1,1.4-3.3,4.2-3.6
	L133.5,118.4z M135.8,119.1c-0.6,0.2-1.2,0.4-1.8,0.5c-0.6,0.1-1.2,0.1-1.8,0.2c-1.1,0.1-1.9,0.3-2.5,0.7c-0.6,0.4-0.9,1-0.9,1.8
	c0,0.4,0.1,0.7,0.2,1c0.1,0.3,0.3,0.5,0.6,0.7c0.2,0.2,0.5,0.3,0.8,0.4c0.3,0.1,0.6,0.1,1,0.1c0.6,0,1.1-0.1,1.6-0.2
	c0.5-0.1,1-0.4,1.4-0.6c0.4-0.3,0.7-0.7,1-1.1c0.2-0.4,0.4-1,0.4-1.6V119.1z"/>
<path class="st0" d="M142.1,125.4h-1.4v-12.1h1.4v1.8h0c0.4-0.7,0.9-1.2,1.5-1.6c0.7-0.4,1.4-0.5,2.2-0.5c0.6,0,1,0.1,1.4,0.2
	c0.4,0.1,0.7,0.3,1,0.5c0.3,0.2,0.5,0.5,0.7,0.7c0.2,0.3,0.3,0.6,0.5,0.9c0.4-0.8,0.9-1.4,1.6-1.8c0.7-0.4,1.5-0.6,2.3-0.6
	c0.8,0,1.5,0.1,2,0.4c0.5,0.3,0.9,0.6,1.1,1.1c0.3,0.4,0.4,1,0.5,1.5c0.1,0.6,0.1,1.2,0.1,1.8v7.6h-1.4v-8.4c0-0.9-0.2-1.6-0.5-2.1
	c-0.4-0.5-1-0.7-2-0.7c-0.5,0-1,0.1-1.5,0.3c-0.5,0.2-0.9,0.6-1.2,1c-0.2,0.2-0.3,0.4-0.4,0.7c-0.1,0.3-0.2,0.6-0.2,0.9
	c-0.1,0.3-0.1,0.6-0.1,0.9c0,0.3,0,0.6,0,0.8v6.5h-1.4v-8.4c0-0.9-0.2-1.6-0.5-2.1c-0.4-0.5-1-0.7-2-0.7c-0.5,0-1,0.1-1.5,0.3
	c-0.5,0.2-0.9,0.6-1.2,1c-0.2,0.2-0.3,0.4-0.4,0.7c-0.1,0.3-0.2,0.6-0.2,0.9c-0.1,0.3-0.1,0.6-0.1,0.9c0,0.3,0,0.6,0,0.8V125.4z"/>
<path class="st0" d="M168.1,125.4h-1.4v-12.1h1.4v1.8h0c0.4-0.7,0.9-1.2,1.5-1.6c0.7-0.4,1.4-0.5,2.2-0.5c0.6,0,1,0.1,1.4,0.2
	c0.4,0.1,0.7,0.3,1,0.5c0.3,0.2,0.5,0.5,0.7,0.7c0.2,0.3,0.3,0.6,0.5,0.9c0.4-0.8,0.9-1.4,1.6-1.8c0.7-0.4,1.5-0.6,2.3-0.6
	c0.8,0,1.5,0.1,2,0.4c0.5,0.3,0.9,0.6,1.1,1.1c0.3,0.4,0.4,1,0.5,1.5c0.1,0.6,0.1,1.2,0.1,1.8v7.6h-1.4v-8.4c0-0.9-0.2-1.6-0.5-2.1
	c-0.4-0.5-1-0.7-2-0.7c-0.5,0-1,0.1-1.5,0.3c-0.5,0.2-0.9,0.6-1.2,1c-0.2,0.2-0.3,0.4-0.4,0.7c-0.1,0.3-0.2,0.6-0.2,0.9
	c-0.1,0.3-0.1,0.6-0.1,0.9c0,0.3,0,0.6,0,0.8v6.5h-1.4v-8.4c0-0.9-0.2-1.6-0.5-2.1c-0.4-0.5-1-0.7-2-0.7c-0.5,0-1,0.1-1.5,0.3
	s-0.9,0.6-1.2,1c-0.2,0.2-0.3,0.4-0.4,0.7c-0.1,0.3-0.2,0.6-0.2,0.9c-0.1,0.3-0.1,0.6-0.1,0.9c0,0.3,0,0.6,0,0.8V125.4z"/>
<path class="st0" d="M191.9,118.4c0.3,0,0.6-0.1,0.9-0.1c0.4-0.1,0.7-0.1,0.9-0.3c0.2-0.1,0.4-0.3,0.4-0.5c0.1-0.3,0.1-0.5,0.1-0.7
	c0-0.7-0.2-1.3-0.7-1.8c-0.5-0.5-1.2-0.7-2.3-0.7c-0.5,0-0.9,0-1.3,0.1c-0.4,0.1-0.8,0.2-1.1,0.4c-0.3,0.2-0.6,0.5-0.7,0.8
	c-0.2,0.4-0.3,0.8-0.4,1.3h-1.4c0-0.7,0.2-1.3,0.5-1.8c0.3-0.5,0.6-0.9,1.1-1.2c0.4-0.3,1-0.6,1.5-0.7c0.6-0.1,1.2-0.2,1.9-0.2
	c0.6,0,1.2,0.1,1.7,0.2c0.5,0.1,1,0.3,1.4,0.6c0.4,0.3,0.7,0.7,0.9,1.2c0.2,0.5,0.3,1.1,0.3,1.8v6.6c0,0.5,0.1,0.9,0.3,1
	c0.2,0.1,0.6,0.1,1.2-0.1v1.1c-0.1,0-0.3,0.1-0.5,0.1s-0.4,0.1-0.6,0.1c-0.2,0-0.4,0-0.6-0.1c-0.2,0-0.4-0.1-0.6-0.2
	c-0.1-0.1-0.3-0.3-0.3-0.4c-0.1-0.2-0.1-0.3-0.2-0.5c0-0.2,0-0.4,0-0.6c-0.6,0.7-1.3,1.2-2,1.5c-0.8,0.3-1.6,0.5-2.5,0.5
	c-0.5,0-1-0.1-1.5-0.2c-0.5-0.1-0.9-0.4-1.3-0.7c-0.4-0.3-0.7-0.7-0.9-1.1c-0.2-0.4-0.3-0.9-0.3-1.5c0-2.1,1.4-3.3,4.2-3.6
	L191.9,118.4z M194.2,119.1c-0.6,0.2-1.2,0.4-1.8,0.5c-0.6,0.1-1.2,0.1-1.8,0.2c-1.1,0.1-1.9,0.3-2.5,0.7c-0.6,0.4-0.9,1-0.9,1.8
	c0,0.4,0.1,0.7,0.2,1c0.1,0.3,0.3,0.5,0.6,0.7c0.2,0.2,0.5,0.3,0.8,0.4c0.3,0.1,0.6,0.1,1,0.1c0.6,0,1.1-0.1,1.6-0.2
	c0.5-0.1,1-0.4,1.4-0.6c0.4-0.3,0.7-0.7,1-1.1c0.2-0.4,0.4-1,0.4-1.6V119.1z"/>
<path class="st0" d="M200.7,125.4h-1.4v-12.1h1.4v1.7c0.6-0.6,1.1-1.1,1.7-1.4c0.6-0.4,1.3-0.6,2.2-0.6c0.7,0,1.4,0.1,2.1,0.4
	c0.6,0.3,1.2,0.7,1.6,1.3c0.3,0.4,0.5,0.9,0.5,1.3c0.1,0.5,0.1,0.9,0.1,1.4v7.9h-1.4v-7.9c0-1.1-0.2-1.9-0.7-2.5
	c-0.5-0.5-1.3-0.8-2.4-0.8c-0.4,0-0.8,0.1-1.2,0.2c-0.4,0.1-0.7,0.3-1,0.5c-0.3,0.2-0.5,0.5-0.7,0.7c-0.2,0.3-0.4,0.6-0.5,0.9
	c-0.1,0.4-0.2,0.8-0.3,1.1c0,0.4,0,0.7,0,1.2V125.4z"/>
<path class="st0" d="M217.8,118.4c0.3,0,0.6-0.1,0.9-0.1c0.4-0.1,0.7-0.1,0.9-0.3c0.2-0.1,0.4-0.3,0.4-0.5c0.1-0.3,0.1-0.5,0.1-0.7
	c0-0.7-0.2-1.3-0.7-1.8c-0.5-0.5-1.2-0.7-2.3-0.7c-0.5,0-0.9,0-1.3,0.1c-0.4,0.1-0.8,0.2-1.1,0.4c-0.3,0.2-0.6,0.5-0.7,0.8
	c-0.2,0.4-0.3,0.8-0.4,1.3h-1.4c0-0.7,0.2-1.3,0.5-1.8c0.3-0.5,0.6-0.9,1.1-1.2c0.4-0.3,1-0.6,1.5-0.7c0.6-0.1,1.2-0.2,1.9-0.2
	c0.6,0,1.2,0.1,1.7,0.2c0.5,0.1,1,0.3,1.4,0.6c0.4,0.3,0.7,0.7,0.9,1.2c0.2,0.5,0.3,1.1,0.3,1.8v6.6c0,0.5,0.1,0.9,0.3,1
	c0.2,0.1,0.6,0.1,1.2-0.1v1.1c-0.1,0-0.3,0.1-0.5,0.1c-0.2,0.1-0.4,0.1-0.6,0.1c-0.2,0-0.4,0-0.6-0.1c-0.2,0-0.4-0.1-0.6-0.2
	c-0.1-0.1-0.3-0.3-0.3-0.4c-0.1-0.2-0.1-0.3-0.2-0.5c0-0.2,0-0.4,0-0.6c-0.6,0.7-1.3,1.2-2,1.5c-0.8,0.3-1.6,0.5-2.5,0.5
	c-0.5,0-1-0.1-1.5-0.2c-0.5-0.1-0.9-0.4-1.3-0.7c-0.4-0.3-0.7-0.7-0.9-1.1c-0.2-0.4-0.3-0.9-0.3-1.5c0-2.1,1.4-3.3,4.2-3.6
	L217.8,118.4z M220.2,119.1c-0.6,0.2-1.2,0.4-1.8,0.5c-0.6,0.1-1.2,0.1-1.8,0.2c-1.1,0.1-1.9,0.3-2.5,0.7c-0.6,0.4-0.9,1-0.9,1.8
	c0,0.4,0.1,0.7,0.2,1c0.1,0.3,0.3,0.5,0.6,0.7c0.2,0.2,0.5,0.3,0.8,0.4c0.3,0.1,0.6,0.1,1,0.1c0.6,0,1.1-0.1,1.6-0.2
	c0.5-0.1,1-0.4,1.4-0.6c0.4-0.3,0.7-0.7,1-1.1c0.2-0.4,0.4-1,0.4-1.6V119.1z"/>
<path class="st0" d="M234.6,113.3h1.4v10.9c0,0.8-0.1,1.6-0.2,2.3c-0.2,0.7-0.5,1.4-0.9,2c-0.4,0.6-1,1-1.7,1.3
	c-0.7,0.3-1.7,0.5-2.8,0.5c-0.9,0-1.7-0.1-2.3-0.3c-0.6-0.2-1.2-0.5-1.6-0.9c-0.4-0.3-0.7-0.7-0.9-1.1c-0.2-0.4-0.3-0.8-0.3-1.2h1.5
	c0.1,0.5,0.3,0.8,0.5,1.1c0.2,0.3,0.5,0.5,0.8,0.7c0.3,0.2,0.7,0.3,1.1,0.3c0.4,0.1,0.8,0.1,1.2,0.1c0.9,0,1.7-0.2,2.3-0.5
	c0.6-0.3,1-0.8,1.3-1.3s0.5-1.1,0.6-1.8c0.1-0.7,0.1-1.4,0.1-2.1c-0.5,0.7-1.1,1.3-1.9,1.7c-0.8,0.4-1.6,0.6-2.5,0.6
	c-0.9,0-1.7-0.2-2.4-0.5c-0.7-0.4-1.2-0.8-1.7-1.4c-0.4-0.6-0.8-1.3-1-2c-0.2-0.8-0.3-1.6-0.3-2.4c0-0.9,0.1-1.7,0.3-2.5
	c0.2-0.8,0.5-1.5,1-2c0.4-0.6,1-1,1.7-1.3c0.7-0.3,1.5-0.5,2.5-0.5c0.4,0,0.8,0.1,1.2,0.2c0.4,0.1,0.8,0.3,1.2,0.5
	c0.4,0.2,0.7,0.5,1.1,0.8c0.3,0.3,0.6,0.7,0.8,1.1h0V113.3z M234.6,119.4c0-0.7-0.1-1.4-0.3-2c-0.2-0.6-0.4-1.2-0.8-1.6
	c-0.3-0.5-0.8-0.8-1.3-1.1c-0.5-0.3-1.1-0.4-1.8-0.4c-0.6,0-1.1,0.1-1.6,0.3c-0.5,0.2-0.9,0.5-1.3,0.9c-0.4,0.4-0.7,0.9-0.9,1.5
	c-0.2,0.6-0.3,1.3-0.3,2c0,0.8,0,1.5,0.2,2.1c0.2,0.7,0.4,1.2,0.7,1.7c0.3,0.5,0.8,0.9,1.3,1.2c0.5,0.3,1.2,0.4,1.9,0.4
	c0.6,0,1.2-0.1,1.7-0.4c0.5-0.3,0.9-0.6,1.3-1.1c0.4-0.5,0.6-1,0.8-1.6C234.5,120.7,234.6,120.1,234.6,119.4z"/>
<path class="st0" d="M240.4,119.7c0,0.7,0.1,1.3,0.3,1.9c0.2,0.6,0.4,1.1,0.8,1.5s0.8,0.8,1.3,1c0.5,0.3,1.1,0.4,1.8,0.4
	c0.9,0,1.7-0.2,2.4-0.7c0.7-0.5,1.1-1.2,1.3-2.1h1.6c-0.2,0.6-0.4,1.1-0.7,1.6c-0.3,0.5-0.6,0.9-1.1,1.3c-0.4,0.4-0.9,0.7-1.5,0.9
	s-1.2,0.3-2,0.3c-1,0-1.8-0.2-2.5-0.5c-0.7-0.3-1.3-0.8-1.7-1.3s-0.8-1.2-1-2c-0.2-0.8-0.3-1.6-0.3-2.5c0-0.9,0.1-1.7,0.4-2.5
	c0.3-0.8,0.6-1.5,1.1-2c0.5-0.6,1.1-1,1.7-1.4c0.7-0.3,1.5-0.5,2.3-0.5c1.7,0,3,0.6,3.9,1.7c1,1.1,1.4,2.8,1.4,5H240.4z
	 M248.3,118.5c0-0.6-0.1-1.1-0.2-1.7c-0.2-0.5-0.4-1-0.7-1.4c-0.3-0.4-0.7-0.7-1.2-0.9s-1-0.3-1.7-0.3c-0.6,0-1.2,0.1-1.6,0.4
	c-0.5,0.2-0.9,0.5-1.2,0.9c-0.3,0.4-0.6,0.8-0.8,1.4s-0.3,1.1-0.4,1.6H248.3z"/>
<path class="st0" d="M254,125.4h-1.4v-12.1h1.4v2.3h0c0.4-1,0.9-1.6,1.5-2c0.6-0.4,1.4-0.6,2.4-0.6v1.5c-0.8,0-1.4,0.1-2,0.4
	c-0.5,0.3-0.9,0.6-1.2,1.1c-0.3,0.5-0.5,1-0.6,1.6s-0.2,1.3-0.2,1.9V125.4z"/>
<path class="st0" d="M9.1,4.7c0.9,0.4,1.6,1,2.1,1.8c0.5,0.7,0.8,1.6,1,2.6c0.1,0.6,0.1,1.4,0.1,2.5H3.3c0.1,1.2,0.5,2.1,1.3,2.6
	c0.5,0.3,1.1,0.5,1.8,0.5c0.7,0,1.3-0.2,1.8-0.6c0.3-0.2,0.5-0.5,0.7-0.9h3.3c-0.1,0.7-0.5,1.5-1.2,2.2c-1.1,1.2-2.7,1.8-4.7,1.8
	c-1.7,0-3.1-0.5-4.4-1.5c-1.3-1-1.9-2.7-1.9-5c0-2.2,0.6-3.8,1.7-5c1.1-1.1,2.6-1.7,4.4-1.7C7.2,4.2,8.2,4.3,9.1,4.7z M4.2,7.5
	C3.8,8,3.5,8.7,3.4,9.5H9c-0.1-0.9-0.3-1.5-0.9-2C7.6,7.1,6.9,6.8,6.2,6.8C5.3,6.8,4.7,7.1,4.2,7.5z"/>
<path class="st0" d="M24,5.2c0.8,0.7,1.2,1.8,1.2,3.3v8.4h-3.3V9.4c0-0.7-0.1-1.2-0.3-1.5c-0.3-0.6-0.9-1-1.8-1
	c-1.1,0-1.8,0.5-2.3,1.4c-0.2,0.5-0.3,1.1-0.3,1.9v6.7H14V4.5h3.1v1.8c0.4-0.6,0.8-1.1,1.2-1.4c0.7-0.5,1.5-0.8,2.5-0.8
	C22.1,4.2,23.2,4.5,24,5.2z"/>
<path class="st0" d="M26.8,19.3c0.2,0,0.3,0,0.4,0s0.1,0,0.2,0c0.3,0,0.6-0.1,0.7-0.2c0.2-0.2,0.2-0.5,0.2-0.9V4.5h3.3v13.7
	c0,1.3-0.2,2.2-0.7,2.8s-1.5,0.9-2.9,0.9c-0.1,0-0.2,0-0.4,0c-0.2,0-0.4,0-0.7,0V19.3z M31.6,3h-3.3V0h3.3V3z"/>
<path class="st0" d="M45.1,15.4c-1,1.3-2.6,1.9-4.8,1.9s-3.7-0.6-4.8-1.9c-1-1.3-1.6-2.9-1.6-4.7c0-1.8,0.5-3.3,1.6-4.7
	c1-1.3,2.6-2,4.8-2s3.7,0.7,4.8,2s1.6,2.9,1.6,4.7C46.7,12.5,46.1,14.1,45.1,15.4z M42.5,13.6c0.5-0.7,0.8-1.6,0.8-2.9
	S43,8.5,42.5,7.8s-1.2-1-2.2-1s-1.7,0.3-2.2,1s-0.8,1.6-0.8,2.9s0.3,2.2,0.8,2.9c0.5,0.7,1.2,1,2.2,1S42,14.3,42.5,13.6z"/>
<path class="st0" d="M49.5,19.3l0.4,0c0.3,0,0.6,0,0.9,0c0.3,0,0.5-0.1,0.7-0.3c0.2-0.1,0.4-0.4,0.5-0.8c0.2-0.4,0.2-0.7,0.2-0.8
	l-4.6-13h3.6l2.7,9.2l2.6-9.2h3.5l-4.3,12.2c-0.8,2.4-1.5,3.8-2,4.4c-0.5,0.6-1.4,0.8-2.9,0.8c-0.3,0-0.5,0-0.7,0
	c-0.2,0-0.4,0-0.8,0V19.3z"/>
<path class="st1" d="M60.2,13.5h3.5v3.4h-3.5V13.5z"/>
<path class="st0" d="M70.1,3h-3.3V0h3.3V3z M66.8,4.5h3.3v12.4h-3.3V4.5z"/>
<path class="st0" d="M83.3,5.2c0.8,0.7,1.2,1.8,1.2,3.3v8.4h-3.3V9.4c0-0.7-0.1-1.2-0.3-1.5c-0.3-0.6-0.9-1-1.8-1
	c-1.1,0-1.8,0.5-2.3,1.4c-0.2,0.5-0.3,1.1-0.3,1.9v6.7h-3.3V4.5h3.1v1.8c0.4-0.6,0.8-1.1,1.2-1.4c0.7-0.5,1.5-0.8,2.5-0.8
	C81.4,4.2,82.5,4.5,83.3,5.2z"/>
<path class="st0" d="M93.7,4.5c0.8,0.3,1.4,0.9,1.9,1.8V4.5h3.2v11.8c0,1.6-0.3,2.8-0.8,3.6C97,21.3,95.2,22,92.6,22
	c-1.6,0-2.9-0.3-3.9-0.9c-1-0.6-1.6-1.6-1.7-2.8h3.5c0.1,0.4,0.2,0.7,0.4,0.8c0.3,0.3,0.9,0.4,1.8,0.4c1.2,0,2-0.4,2.3-1.2
	c0.3-0.5,0.4-1.3,0.4-2.5V15c-0.3,0.5-0.6,0.9-1,1.2C93.9,16.7,93,17,92,17c-1.6,0-2.9-0.6-3.8-1.7s-1.4-2.6-1.4-4.6
	c0-1.8,0.5-3.4,1.4-4.7C89,4.8,90.3,4.2,92,4.2C92.7,4.2,93.2,4.3,93.7,4.5z M94.8,13.4c0.5-0.6,0.8-1.5,0.8-2.7
	c0-1.2-0.2-2.1-0.7-2.7c-0.5-0.6-1.2-0.9-2-0.9c-1.1,0-1.9,0.5-2.4,1.6c-0.2,0.6-0.3,1.3-0.3,2.1c0,0.7,0.1,1.4,0.4,1.9
	c0.4,1,1.2,1.6,2.4,1.6C93.6,14.2,94.2,14,94.8,13.4z"/>
<g>
	<path class="st0" d="M5.5,41.1c-0.2,0-0.4,0.1-0.7,0.2c-0.3,0.1-0.6,0.1-0.9,0.1c-0.7,0-1.2-0.2-1.6-0.5c-0.4-0.4-0.5-1-0.5-1.9
		v-8.9H0v-1.2h1.7v-3.4h1.4v3.4h2.3v1.2H3.1v8.3c0,0.3,0,0.6,0,0.8c0,0.2,0.1,0.4,0.1,0.5C3.3,39.9,3.5,40,3.6,40
		c0.2,0.1,0.4,0.1,0.7,0.1c0.2,0,0.4,0,0.6,0C5.1,40,5.3,40,5.5,40V41.1z"/>
	<path class="st0" d="M8.6,35.3c0,0.7,0.1,1.3,0.3,1.9c0.2,0.6,0.4,1.1,0.8,1.5c0.3,0.4,0.8,0.8,1.3,1c0.5,0.3,1.1,0.4,1.8,0.4
		c0.9,0,1.7-0.2,2.4-0.7c0.7-0.5,1.1-1.2,1.3-2.1h1.6c-0.2,0.6-0.4,1.1-0.7,1.6c-0.3,0.5-0.6,0.9-1.1,1.3c-0.4,0.4-0.9,0.7-1.5,0.9
		c-0.6,0.2-1.2,0.3-2,0.3c-1,0-1.8-0.2-2.5-0.5c-0.7-0.3-1.3-0.8-1.7-1.3c-0.5-0.6-0.8-1.2-1-2S7.1,35.9,7.1,35
		c0-0.9,0.1-1.7,0.4-2.5c0.3-0.8,0.6-1.5,1.1-2c0.5-0.6,1.1-1,1.7-1.4c0.7-0.3,1.5-0.5,2.3-0.5c1.7,0,3,0.6,3.9,1.7
		c0.9,1.1,1.4,2.8,1.4,5H8.6z M16.5,34.2c0-0.6-0.1-1.1-0.2-1.7c-0.2-0.5-0.4-1-0.7-1.4c-0.3-0.4-0.7-0.7-1.2-0.9s-1-0.3-1.7-0.3
		c-0.6,0-1.2,0.1-1.6,0.4c-0.5,0.2-0.9,0.5-1.2,0.9C9.4,31.6,9.2,32,9,32.5c-0.2,0.5-0.3,1.1-0.4,1.6H16.5z"/>
	<path class="st0" d="M26.3,34c0.3,0,0.6-0.1,0.9-0.1c0.4-0.1,0.7-0.1,0.9-0.3c0.2-0.1,0.4-0.3,0.4-0.5c0.1-0.3,0.1-0.5,0.1-0.7
		c0-0.7-0.2-1.3-0.7-1.8c-0.5-0.5-1.2-0.7-2.3-0.7c-0.5,0-0.9,0-1.3,0.1c-0.4,0.1-0.8,0.2-1.1,0.4c-0.3,0.2-0.6,0.5-0.7,0.8
		c-0.2,0.4-0.3,0.8-0.4,1.3h-1.4c0-0.7,0.2-1.3,0.5-1.8c0.3-0.5,0.6-0.9,1.1-1.2c0.4-0.3,1-0.6,1.5-0.7c0.6-0.1,1.2-0.2,1.9-0.2
		c0.6,0,1.2,0.1,1.7,0.2c0.5,0.1,1,0.3,1.4,0.6c0.4,0.3,0.7,0.7,0.9,1.2c0.2,0.5,0.3,1.1,0.3,1.8V39c0,0.5,0.1,0.9,0.3,1
		c0.2,0.1,0.6,0.1,1.2-0.1V41c-0.1,0-0.3,0.1-0.5,0.1c-0.2,0.1-0.4,0.1-0.6,0.1c-0.2,0-0.4,0-0.6-0.1c-0.2,0-0.4-0.1-0.6-0.2
		c-0.1-0.1-0.3-0.3-0.3-0.4c-0.1-0.2-0.1-0.3-0.2-0.5c0-0.2,0-0.4,0-0.6c-0.6,0.7-1.3,1.2-2,1.5c-0.8,0.3-1.6,0.5-2.5,0.5
		c-0.5,0-1-0.1-1.5-0.2c-0.5-0.1-0.9-0.4-1.3-0.7c-0.4-0.3-0.7-0.7-0.9-1.1c-0.2-0.4-0.3-0.9-0.3-1.5c0-2.1,1.4-3.3,4.2-3.6L26.3,34
		z M28.6,34.7c-0.6,0.2-1.2,0.4-1.8,0.5c-0.6,0.1-1.2,0.1-1.8,0.2c-1.1,0.1-1.9,0.3-2.5,0.7c-0.6,0.4-0.9,1-0.9,1.8
		c0,0.4,0.1,0.7,0.2,1c0.1,0.3,0.3,0.5,0.6,0.7c0.2,0.2,0.5,0.3,0.8,0.4c0.3,0.1,0.6,0.1,1,0.1c0.6,0,1.1-0.1,1.6-0.2
		c0.5-0.1,1-0.4,1.4-0.6c0.4-0.3,0.7-0.7,1-1.1c0.2-0.4,0.4-1,0.4-1.6V34.7z"/>
	<path class="st0" d="M34.9,41h-1.4V28.9h1.4v1.8h0c0.4-0.7,0.9-1.2,1.5-1.6c0.7-0.4,1.4-0.5,2.2-0.5c0.6,0,1,0.1,1.4,0.2
		c0.4,0.1,0.7,0.3,1,0.5c0.3,0.2,0.5,0.5,0.7,0.7c0.2,0.3,0.3,0.6,0.5,0.9c0.4-0.8,0.9-1.4,1.6-1.8c0.7-0.4,1.5-0.6,2.3-0.6
		c0.8,0,1.5,0.1,2,0.4s0.9,0.6,1.1,1.1c0.3,0.4,0.4,1,0.5,1.5c0.1,0.6,0.1,1.2,0.1,1.8V41h-1.4v-8.4c0-0.9-0.2-1.6-0.5-2.1
		c-0.4-0.5-1-0.7-2-0.7c-0.5,0-1,0.1-1.5,0.3s-0.9,0.6-1.2,1c-0.2,0.2-0.3,0.4-0.4,0.7c-0.1,0.3-0.2,0.6-0.2,0.9
		c-0.1,0.3-0.1,0.6-0.1,0.9c0,0.3,0,0.6,0,0.8V41H41v-8.4c0-0.9-0.2-1.6-0.5-2.1c-0.4-0.5-1-0.7-2-0.7c-0.5,0-1,0.1-1.5,0.3
		c-0.5,0.2-0.9,0.6-1.2,1c-0.2,0.2-0.3,0.4-0.4,0.7c-0.1,0.3-0.2,0.6-0.2,0.9c-0.1,0.3-0.1,0.6-0.1,0.9c0,0.3,0,0.6,0,0.8V41z"/>
	<path class="st0" d="M59.8,41h-1.4V28.9h1.4v1.8h0c0.4-0.7,0.9-1.2,1.5-1.6c0.7-0.4,1.4-0.5,2.2-0.5c0.6,0,1,0.1,1.4,0.2
		c0.4,0.1,0.7,0.3,1,0.5c0.3,0.2,0.5,0.5,0.7,0.7c0.2,0.3,0.3,0.6,0.5,0.9c0.4-0.8,0.9-1.4,1.6-1.8c0.7-0.4,1.5-0.6,2.3-0.6
		c0.8,0,1.5,0.1,2,0.4s0.9,0.6,1.1,1.1c0.3,0.4,0.4,1,0.5,1.5c0.1,0.6,0.1,1.2,0.1,1.8V41h-1.4v-8.4c0-0.9-0.2-1.6-0.5-2.1
		c-0.4-0.5-1-0.7-2-0.7c-0.5,0-1,0.1-1.5,0.3c-0.5,0.2-0.9,0.6-1.2,1c-0.2,0.2-0.3,0.4-0.4,0.7c-0.1,0.3-0.2,0.6-0.2,0.9
		c-0.1,0.3-0.1,0.6-0.1,0.9c0,0.3,0,0.6,0,0.8V41H66v-8.4c0-0.9-0.2-1.6-0.5-2.1c-0.4-0.5-1-0.7-2-0.7c-0.5,0-1,0.1-1.5,0.3
		s-0.9,0.6-1.2,1c-0.2,0.2-0.3,0.4-0.4,0.7c-0.1,0.3-0.2,0.6-0.2,0.9c-0.1,0.3-0.1,0.6-0.1,0.9c0,0.3,0,0.6,0,0.8V41z"/>
	<path class="st0" d="M83.6,34c0.3,0,0.6-0.1,0.9-0.1c0.4-0.1,0.7-0.1,0.9-0.3c0.2-0.1,0.4-0.3,0.4-0.5c0.1-0.3,0.1-0.5,0.1-0.7
		c0-0.7-0.2-1.3-0.7-1.8c-0.5-0.5-1.2-0.7-2.3-0.7c-0.5,0-0.9,0-1.3,0.1c-0.4,0.1-0.8,0.2-1.1,0.4c-0.3,0.2-0.6,0.5-0.7,0.8
		c-0.2,0.4-0.3,0.8-0.4,1.3H78c0-0.7,0.2-1.3,0.5-1.8c0.3-0.5,0.6-0.9,1.1-1.2c0.4-0.3,1-0.6,1.5-0.7c0.6-0.1,1.2-0.2,1.9-0.2
		c0.6,0,1.2,0.1,1.7,0.2c0.5,0.1,1,0.3,1.4,0.6c0.4,0.3,0.7,0.7,0.9,1.2c0.2,0.5,0.3,1.1,0.3,1.8V39c0,0.5,0.1,0.9,0.3,1
		c0.2,0.1,0.6,0.1,1.2-0.1V41c-0.1,0-0.3,0.1-0.5,0.1c-0.2,0.1-0.4,0.1-0.6,0.1c-0.2,0-0.4,0-0.6-0.1c-0.2,0-0.4-0.1-0.6-0.2
		c-0.1-0.1-0.3-0.3-0.3-0.4c-0.1-0.2-0.1-0.3-0.2-0.5c0-0.2,0-0.4,0-0.6c-0.6,0.7-1.3,1.2-2,1.5c-0.8,0.3-1.6,0.5-2.5,0.5
		c-0.5,0-1-0.1-1.5-0.2c-0.5-0.1-0.9-0.4-1.3-0.7c-0.4-0.3-0.7-0.7-0.9-1.1c-0.2-0.4-0.3-0.9-0.3-1.5c0-2.1,1.4-3.3,4.2-3.6L83.6,34
		z M86,34.7c-0.6,0.2-1.2,0.4-1.8,0.5c-0.6,0.1-1.2,0.1-1.8,0.2c-1.1,0.1-1.9,0.3-2.5,0.7c-0.6,0.4-0.9,1-0.9,1.8
		c0,0.4,0.1,0.7,0.2,1c0.1,0.3,0.3,0.5,0.6,0.7c0.2,0.2,0.5,0.3,0.8,0.4c0.3,0.1,0.6,0.1,1,0.1c0.6,0,1.1-0.1,1.6-0.2
		c0.5-0.1,1-0.4,1.4-0.6c0.4-0.3,0.7-0.7,1-1.1c0.2-0.4,0.4-1,0.4-1.6V34.7z"/>
	<path class="st0" d="M92.5,41h-1.4V28.9h1.4v1.7c0.6-0.6,1.1-1.1,1.7-1.4c0.6-0.4,1.3-0.6,2.2-0.6c0.7,0,1.4,0.1,2.1,0.4
		c0.6,0.3,1.2,0.7,1.6,1.3c0.3,0.4,0.5,0.9,0.5,1.3c0.1,0.5,0.1,0.9,0.1,1.4V41h-1.4v-7.9c0-1.1-0.2-1.9-0.7-2.5
		c-0.5-0.5-1.3-0.8-2.4-0.8c-0.4,0-0.8,0.1-1.2,0.2c-0.4,0.1-0.7,0.3-1,0.5c-0.3,0.2-0.5,0.5-0.7,0.7c-0.2,0.3-0.4,0.6-0.5,0.9
		c-0.1,0.4-0.2,0.8-0.3,1.1c0,0.4,0,0.7,0,1.2V41z"/>
	<path class="st0" d="M109.6,34c0.3,0,0.6-0.1,0.9-0.1c0.4-0.1,0.7-0.1,0.9-0.3c0.2-0.1,0.4-0.3,0.4-0.5c0.1-0.3,0.1-0.5,0.1-0.7
		c0-0.7-0.2-1.3-0.7-1.8c-0.5-0.5-1.2-0.7-2.3-0.7c-0.5,0-0.9,0-1.3,0.1c-0.4,0.1-0.8,0.2-1.1,0.4c-0.3,0.2-0.6,0.5-0.7,0.8
		c-0.2,0.4-0.3,0.8-0.4,1.3H104c0-0.7,0.2-1.3,0.5-1.8c0.3-0.5,0.6-0.9,1.1-1.2c0.4-0.3,1-0.6,1.5-0.7c0.6-0.1,1.2-0.2,1.9-0.2
		c0.6,0,1.2,0.1,1.7,0.2c0.5,0.1,1,0.3,1.4,0.6c0.4,0.3,0.7,0.7,0.9,1.2c0.2,0.5,0.3,1.1,0.3,1.8V39c0,0.5,0.1,0.9,0.3,1
		c0.2,0.1,0.6,0.1,1.2-0.1V41c-0.1,0-0.3,0.1-0.5,0.1c-0.2,0.1-0.4,0.1-0.6,0.1c-0.2,0-0.4,0-0.6-0.1c-0.2,0-0.4-0.1-0.6-0.2
		c-0.1-0.1-0.3-0.3-0.3-0.4c-0.1-0.2-0.1-0.3-0.2-0.5c0-0.2,0-0.4,0-0.6c-0.6,0.7-1.3,1.2-2,1.5c-0.8,0.3-1.6,0.5-2.5,0.5
		c-0.5,0-1-0.1-1.5-0.2c-0.5-0.1-0.9-0.4-1.3-0.7c-0.4-0.3-0.7-0.7-0.9-1.1c-0.2-0.4-0.3-0.9-0.3-1.5c0-2.1,1.4-3.3,4.2-3.6
		L109.6,34z M112,34.7c-0.6,0.2-1.2,0.4-1.8,0.5c-0.6,0.1-1.2,0.1-1.8,0.2c-1.1,0.1-1.9,0.3-2.5,0.7s-0.9,1-0.9,1.8
		c0,0.4,0.1,0.7,0.2,1c0.1,0.3,0.3,0.5,0.6,0.7c0.2,0.2,0.5,0.3,0.8,0.4c0.3,0.1,0.6,0.1,1,0.1c0.6,0,1.1-0.1,1.6-0.2
		c0.5-0.1,1-0.4,1.4-0.6c0.4-0.3,0.7-0.7,1-1.1c0.2-0.4,0.4-1,0.4-1.6V34.7z"/>
	<path class="st0" d="M126.4,28.9h1.4v10.9c0,0.8-0.1,1.6-0.2,2.3c-0.2,0.7-0.5,1.4-0.9,2c-0.4,0.6-1,1-1.7,1.3
		c-0.7,0.3-1.7,0.5-2.8,0.5c-0.9,0-1.7-0.1-2.3-0.3c-0.6-0.2-1.2-0.5-1.6-0.9c-0.4-0.3-0.7-0.7-0.9-1.1c-0.2-0.4-0.3-0.8-0.3-1.2
		h1.5c0.1,0.5,0.3,0.8,0.5,1.1c0.2,0.3,0.5,0.5,0.8,0.7c0.3,0.2,0.7,0.3,1.1,0.3c0.4,0.1,0.8,0.1,1.2,0.1c0.9,0,1.7-0.2,2.3-0.5
		c0.6-0.3,1-0.8,1.3-1.3c0.3-0.5,0.5-1.1,0.6-1.8c0.1-0.7,0.1-1.4,0.1-2.1c-0.5,0.7-1.1,1.3-1.9,1.7c-0.8,0.4-1.6,0.6-2.5,0.6
		c-0.9,0-1.7-0.2-2.4-0.5c-0.7-0.4-1.2-0.8-1.7-1.4c-0.4-0.6-0.8-1.3-1-2c-0.2-0.8-0.3-1.6-0.3-2.4c0-0.9,0.1-1.7,0.3-2.5
		c0.2-0.8,0.5-1.5,1-2c0.4-0.6,1-1,1.7-1.3c0.7-0.3,1.5-0.5,2.5-0.5c0.4,0,0.8,0.1,1.2,0.2c0.4,0.1,0.8,0.3,1.2,0.5
		c0.4,0.2,0.7,0.5,1.1,0.8c0.3,0.3,0.6,0.7,0.8,1.1h0V28.9z M126.4,35c0-0.7-0.1-1.4-0.3-2c-0.2-0.6-0.4-1.2-0.8-1.6
		c-0.3-0.5-0.8-0.8-1.3-1.1c-0.5-0.3-1.1-0.4-1.8-0.4c-0.6,0-1.1,0.1-1.6,0.3c-0.5,0.2-0.9,0.5-1.3,0.9c-0.4,0.4-0.7,0.9-0.9,1.5
		c-0.2,0.6-0.3,1.3-0.3,2c0,0.8,0,1.5,0.2,2.1c0.2,0.7,0.4,1.2,0.7,1.7c0.3,0.5,0.8,0.9,1.3,1.2c0.5,0.3,1.2,0.4,1.9,0.4
		c0.6,0,1.2-0.1,1.7-0.4c0.5-0.3,0.9-0.6,1.3-1.1c0.4-0.5,0.6-1,0.8-1.6C126.3,36.4,126.4,35.7,126.4,35z"/>
	<path class="st0" d="M132.2,35.3c0,0.7,0.1,1.3,0.3,1.9c0.2,0.6,0.4,1.1,0.8,1.5c0.3,0.4,0.8,0.8,1.3,1c0.5,0.3,1.1,0.4,1.8,0.4
		c0.9,0,1.7-0.2,2.4-0.7c0.7-0.5,1.1-1.2,1.3-2.1h1.6c-0.2,0.6-0.4,1.1-0.7,1.6c-0.3,0.5-0.6,0.9-1.1,1.3c-0.4,0.4-0.9,0.7-1.5,0.9
		c-0.6,0.2-1.2,0.3-2,0.3c-1,0-1.8-0.2-2.5-0.5c-0.7-0.3-1.3-0.8-1.7-1.3c-0.5-0.6-0.8-1.2-1-2c-0.2-0.8-0.3-1.6-0.3-2.5
		c0-0.9,0.1-1.7,0.4-2.5c0.3-0.8,0.6-1.5,1.1-2c0.5-0.6,1.1-1,1.7-1.4c0.7-0.3,1.5-0.5,2.3-0.5c1.7,0,3,0.6,3.9,1.7
		c1,1.1,1.4,2.8,1.4,5H132.2z M140.1,34.2c0-0.6-0.1-1.1-0.2-1.7c-0.2-0.5-0.4-1-0.7-1.4c-0.3-0.4-0.7-0.7-1.2-0.9s-1-0.3-1.7-0.3
		c-0.6,0-1.2,0.1-1.6,0.4c-0.5,0.2-0.9,0.5-1.2,0.9c-0.3,0.4-0.6,0.8-0.8,1.4c-0.2,0.5-0.3,1.1-0.4,1.6H140.1z"/>
	<path class="st0" d="M145.8,41h-1.4V28.9h1.4v2.3h0c0.4-1,0.9-1.6,1.5-2c0.6-0.4,1.4-0.6,2.4-0.6v1.5c-0.8,0-1.4,0.1-2,0.4
		c-0.5,0.3-0.9,0.6-1.2,1.1c-0.3,0.5-0.5,1-0.6,1.6s-0.2,1.3-0.2,1.9V41z"/>
</g>
</svg>
