<?xml version="1.0" encoding="utf-8"?>
<!-- Generator: Adobe Illustrator 22.1.0, SVG Export Plug-In . SVG Version: 6.00 Build 0)  -->
<svg version="1.1" id="Layer_1" xmlns="http://www.w3.org/2000/svg" xmlns:xlink="http://www.w3.org/1999/xlink" x="0px" y="0px"
	 viewBox="0 0 24 24" style="enable-background:new 0 0 24 24;" xml:space="preserve">
<g>
	<path d="M12,2c1.8,0,3.5,0.5,5,1.4c1.5,0.9,2.7,2.1,3.6,3.6c0.9,1.5,1.4,3.2,1.4,5s-0.5,3.5-1.4,5c-0.9,1.5-2.1,2.7-3.6,3.6
		c-1.5,0.9-3.2,1.4-5,1.4s-3.5-0.5-5-1.4c-1.5-0.9-2.7-2.1-3.6-3.6S2,13.8,2,12s0.5-3.5,1.4-5C4.3,5.5,5.5,4.3,7,3.4
		C8.5,2.5,10.2,2,12,2z M12,20.1c1.5,0,2.8-0.4,4-1.1c1.2-0.7,2.2-1.7,2.9-2.9s1.1-2.6,1.1-4S19.7,9.2,19,8C18.2,6.7,17.3,5.8,16,5
		c-1.2-0.7-2.6-1.1-4-1.1S9.2,4.3,8,5C6.7,5.8,5.8,6.7,5,8c-0.7,1.2-1.1,2.6-1.1,4s0.4,2.8,1.1,4S6.7,18.2,8,19
		C9.2,19.7,10.5,20.1,12,20.1z M14.5,15.9c0.1,0.1,0.2,0.1,0.4,0.1c0.1,0,0.2-0.1,0.3-0.2l0.7-1c0.1-0.1,0.1-0.2,0.1-0.4
		c0-0.1-0.1-0.2-0.2-0.3l-2.7-1.9V6.4c0-0.1,0-0.2-0.1-0.3c-0.1-0.1-0.2-0.1-0.3-0.1h-1.3c-0.1,0-0.2,0-0.3,0.1
		c-0.1,0.1-0.1,0.2-0.1,0.3V13c0,0.2,0.1,0.3,0.2,0.4L14.5,15.9z"/>
</g>
</svg>
