<?xml version="1.0" encoding="utf-8"?>
<!-- Generator: Adobe Illustrator 22.1.0, SVG Export Plug-In . SVG Version: 6.00 Build 0)  -->
<svg version="1.1" id="Layer_1" xmlns="http://www.w3.org/2000/svg" xmlns:xlink="http://www.w3.org/1999/xlink" x="0px" y="0px"
	 viewBox="0 0 24 24" style="enable-background:new 0 0 24 24;" xml:space="preserve">
<g>
	<path d="M18.9,4.5c0.5,0,1,0.2,1.3,0.5s0.5,0.8,0.5,1.3v13.7c0,0.5-0.2,1-0.5,1.3S19.4,22,18.9,22H5.1c-0.5,0-1-0.2-1.3-0.5
		s-0.5-0.8-0.5-1.3V6.4c0-0.5,0.2-1,0.5-1.3s0.8-0.5,1.3-0.5H7v-2c0-0.1,0-0.2,0.1-0.3C7.2,2,7.3,2,7.5,2H9c0.1,0,0.2,0,0.3,0.1
		c0.1,0.1,0.1,0.2,0.1,0.3v2h5v-2c0-0.1,0-0.2,0.1-0.3C14.7,2,14.8,2,15,2h1.6c0.1,0,0.2,0,0.3,0.1C17,2.2,17,2.3,17,2.5v2H18.9z
		 M18.6,20.1c0.1,0,0.1,0,0.2-0.1c0.1-0.1,0.1-0.1,0.1-0.2V8.2H5.1v11.6c0,0.1,0,0.1,0.1,0.2c0.1,0.1,0.1,0.1,0.2,0.1H18.6z"/>
</g>
</svg>
