<?xml version="1.0" encoding="utf-8"?>
<!-- Generator: Adobe Illustrator 22.1.0, SVG Export Plug-In . SVG Version: 6.00 Build 0)  -->
<svg version="1.1" id="Layer_1" xmlns="http://www.w3.org/2000/svg" xmlns:xlink="http://www.w3.org/1999/xlink" x="0px" y="0px"
	 viewBox="0 0 32 32" style="enable-background:new 0 0 32 32;" xml:space="preserve">
<style type="text/css">
	.st0{fill:#DFDFDF;}
	.st1{fill:#ED6B61;}
	.st2{fill:#ABABA8;}
	.st3{fill:#C3C3C1;}
</style>
<g>
	<path class="st0" d="M0,28c0,2.2,1.8,4,4,4h24c2.2,0,4-1.8,4-4V12.5H0V28z"/>
	<path class="st1" d="M28,4.5H4c-2.2,0-4,1.8-4,4v4h32v-4C32,6.3,30.2,4.5,28,4.5z M8,10c-1.1,0-2-0.9-2-2s0.9-2,2-2
		c1.1,0,2,0.9,2,2S9.1,10,8,10z M24,10c-1.1,0-2-0.9-2-2s0.9-2,2-2c1.1,0,2,0.9,2,2S25.1,10,24,10z"/>
	<g>
		<path class="st2" d="M8,0L8,0v9l0,0c0.6,0,1-0.4,1-1V1C9,0.4,8.6,0,8,0z"/>
		<path class="st3" d="M7,1v7c0,0.5,0.5,1,1,1V0C7.5,0,7,0.5,7,1z"/>
	</g>
	<g>
		<path class="st2" d="M24,0L24,0v9l0,0c0.6,0,1-0.4,1-1V1C25,0.4,24.6,0,24,0z"/>
		<path class="st3" d="M23,1v7c0,0.5,0.5,1,1,1V0C23.5,0,23,0.5,23,1z"/>
	</g>
</g>
</svg>
