<?xml version="1.0" encoding="utf-8"?>
<!-- Generator: Adobe Illustrator 24.0.1, SVG Export Plug-In . SVG Version: 6.00 Build 0)  -->
<svg version="1.1" id="Layer_1" xmlns="http://www.w3.org/2000/svg" xmlns:xlink="http://www.w3.org/1999/xlink" x="0px" y="0px"
	 viewBox="0 0 640 220" style="enable-background:new 0 0 640 220;" xml:space="preserve">
<style type="text/css">
	.st0{fill:#B33932;}
	.st1{fill:#484848;}
	.st2{fill:#362A1F;}
</style>
<title>logo-</title>
<path class="st0" d="M172,185.4c1.3-2.9,2.3-5.9,3.5-8.8c1.5-3.8,2.9-7.6,4.4-11.4c0.4-1.2,0.4-1.2-0.8-1.1c-4,0.3-7.9,0.7-11.9,1.1
	c-0.7,0-1.4,0.4-1.8,1.1c-1.3,1.9-2.7,3.8-4,5.7c-0.2,0.4-0.7,0.7-1.2,0.7c-1.4,0-2.7,0-4.1,0c1.1-2.6,2.2-5.1,3.4-7.6
	c0.4-0.7,0.4-1.6-0.1-2.4c-1.2-2.3-2.4-4.6-3.5-6.9c-0.1-0.3-0.3-0.6-0.4-1c1.8,0.2,3.4,0.4,5.1,0.6c0.4,0,0.6,0.4,0.8,0.7
	c1,1.5,2.1,3,3.1,4.5c0.2,0.4,0.7,0.6,1.2,0.6c4.3-0.4,8.7-0.8,13-1.2c1.2-0.1,1.2-0.2,0.7-1.2c-3.2-6.1-6.3-12.3-9.5-18.4
	c-0.4-0.8-0.3-0.9,0.6-1.2c2-0.7,3.2-0.1,4.6,1.4c5.2,5.6,10.6,10.9,15.9,16.4c1.1,1.3,2.8,2,4.4,1.8c3.3-0.3,6.7-0.3,10-0.1
	c0.3,0,0.7,0.1,1,0.2c0.6,0.2,1.5,0.4,1.5,1.2s-0.8,1-1.4,1.3c-2,0.7-4.1,1.2-6.2,1.4c-2.1,0.3-4.3,0.6-6.4,0.9
	c-0.6,0-1.2,0.4-1.6,0.9c-4.6,6.2-9.2,12.4-13.8,18.7c-0.5,0.7-1.2,1.2-2.1,1.4c-1.1,0.2-2.2,0.5-3.4,0.8c-0.2,0-0.4,0-0.3,0.3
	L172,185.4z"/>
<path class="st1" d="M378.5,47.1c-0.2,0.1-0.4,0-0.5-0.1c0,0,0-0.1,0-0.1c-0.4,0.1-1.1-0.4-1,0.5h-0.6c-0.5-0.3-1-0.7-1.2,0.2h-0.8
	c-0.4-0.5-0.9-0.5-1.2,0c-0.8,0.5-1.5,0-2.3,0c-3.9-0.2-7.7,0.6-11.5,1.2l-2.2,0.3c-0.4,0-0.7,0-0.6,0.5h-0.6c0-0.1,0.1-0.3-0.1-0.3
	s-0.2,0.1-0.1,0.3c-3.5,0.5-7,0.7-10.5,1c-7.2,0.6-14.4,1.7-21.5,2.8c-8.1,1.3-16.2,2.5-24.4,3.6c-11.3,1.6-22.6,3.4-33.9,5.4
	c-18.2,3.3-36.3,7.1-54.3,11.3c-16.8,4-33.6,7.9-50,13.2c-12,3.8-23.8,8-35.1,13.5c-0.2,0.1-0.7,0.1-0.7,0.5l0,0
	c-0.7,0.1-1.4,0.3-1.9,0.8c-3.4,1.7-6.7,3.4-10,5.3c-5.4,3-10.4,6.7-15,10.8c-3.1,2.7-5.6,6.1-7.4,9.9c-1.4,3-1.5,6.3-0.5,9.4
	c1.2,2.9,3,5.4,5.4,7.4c0.2,0.2,0.4,0.4,0.6,0.1l0.1,0.1c-0.2,0.3,0,0.3,0.3,0.3l0,0c0,0.1,0.1,0.2,0.2,0.2l0,0
	c0,0.1,0.1,0.2,0.2,0.2l0,0c0,0.1,0.1,0.2,0.2,0.2l0,0c0,0.1,0.1,0.2,0.2,0.2c0,0,0,0,0,0c3.6,2.9,7.6,5.1,12,6.5c0.1,0,0.3,0,0.4,0
	l0,0c0.9,0.6,2,0.9,3.1,0.9c0.5,0,0.9,0.1,1.3,0.4c9.4,3.6,19.2,5.9,29.2,6.9c3.5,0.4,7,1,10.4,1.7c0.7,0.2,1.4,0.4,2,0.7
	c0.3,0.1,0.8,0.3,0.7,0.8s-0.4,0.5-0.8,0.6c-1.2,0.3-2.4,0.5-3.7,0.6c-7.4,0.8-14.6-0.2-21.8-1.5c-8.4-1.3-16.6-3.6-24.4-6.9
	c-5.3-2.2-10.2-5.3-14.5-9.2c-3.7-3.5-6.3-7.6-6.9-12.7c-0.5-4.3,0.5-8.6,2.9-12.3c2.8-4.5,6.5-8.5,10.8-11.8
	c6.3-5,13.3-8.9,20.5-12.5c14.6-7.1,29.7-13,45.3-17.4c18-5.3,36.4-9.5,54.8-13.4c11.8-2.5,23.6-4.9,35.5-7
	c10.9-2,21.9-3.8,32.9-5.4c10-1.5,20-2.8,30-4c7.3-0.9,14.6-1.8,22-2.3c2-0.2,4.1-0.1,6.2-0.2c0.5,0,1.1-0.1,1.6-0.3
	c-0.4-0.2-0.8,0-1.1-0.3c7.8-0.9,15.7-1.6,23.5-2.1c6-0.4,11.9-1.2,17.9-1.5c4-0.2,7.9-0.5,11.9-0.8c3.8-0.2,7.6-0.7,11.4-1
	c5.1-0.4,10.2-0.8,15.4-1.1l6-0.4c0.2,0,0.5-0.1,0.8,0.1l-3.4,0.4l0,0.1h6.7v-0.4c-0.8-0.6-1.9,0.3-2.7-0.3c2.4-0.3,4.8-0.4,7.2-0.2
	l0,0l-0.8,0.1c-0.4,0.1-1.1-0.4-1,0.5c-8.6,0.9-17.3,1.9-25.9,2.8c-3.7,0.4-7.5,0.4-11.2,0.6c-4.3,0.2-8.4,1.1-12.6,1.7
	c-1.4,0.2-2.8-0.1-4.1,0c-1.8,0.2-3.6,0.4-5.4,0.7C379.2,46.8,378.6,46.4,378.5,47.1z M426.7,41.4c0.7,0.2,1.5,0.1,2.1-0.2
	C428.1,41.1,427.4,41.2,426.7,41.4z"/>
<path class="st0" d="M96.5,144.6c-0.2,0.2-0.4,0.1-0.6-0.1c-2.4-2-4.2-4.5-5.4-7.4c-1-3.1-0.9-6.4,0.5-9.4c1.7-3.8,4.3-7.2,7.4-9.9
	c4.6-4.2,9.6-7.8,15-10.8c3.2-1.9,6.6-3.6,10-5.3c0.7-0.1,1.4-0.3,1.9-0.8l0,0c1.7-0.6,3.4-1.2,5.1-2c7.1-2.9,14.3-5.5,21.6-7.8
	c7.6-2.5,15.4-4.6,23.2-6.5c7.4-1.8,14.8-3.6,22.3-5.2c8.2-1.8,16.5-3.5,24.8-5.1c5.1-1,10.3-2.1,15.4-3c6-1.1,12.1-2.1,18.2-3.1
	c5-0.8,10.1-1.6,15.1-2.4c3.7-0.6,7.4-1,11.1-1.5s7.4-1,11-1.5c2.7-0.3,5.5-0.7,8.2-1c3.7-0.4,7.4-0.9,11.1-1.3
	c2.4-0.3,4.7-0.4,7.1-0.7s4.9-0.5,7.3-0.8c0.5,0,1.1,0.1,1.6,0.2c1.7,0.1,3.4,0,5-0.5c1.4-0.4,2.9-0.6,4.4-0.7
	c3.5-0.4,6.9-0.6,10.4-0.9c3.3-0.2,6.6-0.4,9.8-0.7c4.3-0.4,8.6-0.8,12.9-1.1s8.3-0.5,12.5-0.9c7.6-0.7,15.2-1.1,22.7-1.7
	c1.9-0.2,3.8-0.2,5.9-0.4c-0.4,0.3-0.9,0.4-1.4,0.3h8.1v0.1l-3.7,0.4c-6.2,0.7-12.5,1.4-18.8,2c-3.5,0.3-7.1,0.4-10.6,0.5
	s-6.8,0.8-10.1,1.3c-1.7,0.3-3.5,0.5-5.2,0.3c-1.9-0.2-3.9,0.4-5.9,0.8l1.7,0.1v-0.1l-12.1,1.4c1-0.6,2-0.2,2.9-0.7
	c-2.7-0.4-8.7,0.2-13.5,1.4c2,0.1,4-0.4,6-0.3l-5.2,0.5l-10.7,1c-2.4,0.2-4.8,0.4-7.1,0.6c-3.4,0.3-6.7,0.8-10,1.3
	c-3,0.4-5.9,0.9-8.9,1.3c-4.5,0.7-9,1.4-13.6,2c-2.8,0.4-5.5,0.7-8.3,1.1c-3.1,0.4-6.2,0.9-9.4,1.3c-3.6,0.6-7.2,1.1-10.9,1.7
	c-5.4,0.9-10.7,1.7-16.1,2.7c-7.2,1.3-14.4,2.8-21.7,4.2c-5.5,1.1-11,2.3-16.5,3.5c-6.5,1.4-13,2.9-19.4,4.5
	c-8.6,2.2-17.1,4-25.5,6.5c-4.8,1.4-9.6,2.9-14.3,4.3c-5.6,1.7-11.1,3.7-16.6,5.9c-3.2,1.3-6.4,2.8-9.6,4.2
	c-2.2,1.1-4.5,2.1-6.7,3.3c-5.5,2.8-10.8,6.1-15.7,9.8c-3.8,3-7.5,6.3-9.6,10.9c-2,4.3-1.6,8.4,1.4,12.1L96.5,144.6z"/>
<path class="st1" d="M379.8,129.2c-1.6,2.6-4.2,2.6-6.6,2.6c-4.9,0.1-9.8,0.1-14.6,0.1c-0.8,0-1.5-0.1-2.3-0.2
	c-3.2-0.6-4.8-2.2-5.3-5.5c-0.3-1.9-0.3-3.8,0-5.7c0.4-2.8,2.2-4.3,5.6-4.8c1.8-0.3,3.6-0.4,5.4-0.4c4.1,0.1,8.2-0.2,12.3,0.2
	c2.2,0.2,4.2,0.8,5.6,3.1c0-2,0.1-3.6,0-5.3c-0.2-3.1-1.3-4.5-4.4-4.8c-5.1-0.5-10.3-0.6-15.4-0.1c-2.5,0.2-3.2,1.1-3.4,3.6
	c0,0.5-0.2,0.6-0.7,0.6c-1,0-2.1,0-3.1,0c-0.6,0-0.7-0.2-0.7-0.8c-0.1-4.3,1.8-6.5,6.3-7.1c2-0.3,4-0.4,6.1-0.3
	c3.9,0.1,7.7-0.2,11.6,0.3c0.6,0.1,1.1,0.2,1.7,0.3c4.6,1.1,6.7,3.7,6.7,8.4c0,5.7,0,11.4,0,17.1c0,0.8-0.2,1-1,0.9
	c-0.9-0.1-1.8-0.1-2.7,0c-0.7,0.1-1-0.2-0.9-0.9C379.8,130.2,379.8,129.7,379.8,129.2z M367.2,128.2c3,0.1,6.1-0.1,9.1-0.5
	c3-0.6,3.7-1.8,3.5-4.8c0-1.6-1.1-2.9-2.6-3.3c-0.5-0.2-1-0.3-1.6-0.3c-5.2-0.4-10.3-0.5-15.5-0.2c-3.7,0.1-4.7,1.2-4.7,4.9
	c0,2.4,0.8,3.4,3.1,3.8C361.4,128.5,364.4,128.2,367.2,128.2L367.2,128.2z"/>
<path class="st1" d="M289.5,129.3c-1.6,2.5-4.1,2.6-6.5,2.6c-5,0.1-10,0.1-14.9,0.1c-0.7,0-1.3-0.1-2-0.2c-3.3-0.6-5-2.4-5.4-5.8
	c-0.2-1.5-0.2-3.1-0.1-4.7c0.2-3.3,2-5,5.7-5.5c1.2-0.2,2.5-0.3,3.7-0.3c4.4-0.1,8.9-0.2,13.3,0.1c2.4,0.1,4.6,0.6,6.2,2.8
	c0-2.2,0.4-4.5-0.2-6.7s-2.5-3-4.5-3.2c-3.7-0.5-7.4-0.2-11-0.2c-1.3-0.1-2.7,0-4,0.2c-0.3,0.1-0.7,0.1-1,0.2
	c-1.5,0.2-2.5,1.6-2.3,3.1c0,0.8-0.2,1-1,1c-0.9-0.1-1.9-0.1-2.8,0c-0.6,0-0.8-0.1-0.8-0.8c-0.1-4.3,1.8-6.4,6.3-7.1
	c1.5-0.2,3-0.3,4.4-0.3c4.4,0.1,8.9-0.2,13.3,0.3c1,0.1,2.1,0.4,3.1,0.7c3.1,0.9,5.3,3.7,5.2,7c0.1,6.2,0,12.4,0.1,18.6
	c0,0.5-0.2,0.6-0.6,0.6c-1,0-2.1-0.1-3.1,0c-0.7,0-0.8-0.2-0.8-0.8S289.5,129.8,289.5,129.3z M276.5,119c-2.6,0.1-5.5-0.2-8.3,0.3
	c-2.2,0.4-2.9,1.3-3.1,3.4c-0.3,3.7,0.8,5,4.5,5.3c4.2,0.2,8.4,0.2,12.7,0c1.7,0,3.3-0.2,4.9-0.7c1.2-0.3,2.2-1.3,2.3-2.5
	c0.1-0.9,0.1-1.8,0-2.6c-0.2-1.1-0.9-2-2-2.4c-0.7-0.3-1.4-0.5-2.1-0.6C282.4,119,279.5,118.9,276.5,119L276.5,119z"/>
<path class="st1" d="M454.6,132c-3.6,0-7.2,0.1-10.7-0.8c-4.5-1.2-6.9-4-7.2-8.5c-0.2-3-0.2-6,0-8.9c0.4-4.9,3.2-7.8,8.3-8.8
	c1.8-0.4,3.7-0.5,5.5-0.5c4.1,0.1,8.2-0.2,12.2,0.3c1.3,0.2,2.7,0.5,3.9,1c3.1,1,5.3,3.8,5.6,7.1c0.4,3.5,0.4,7,0,10.5
	c-0.4,4.2-3,6.7-7,7.8c-2.9,0.7-5.9,1-9,0.8C455.8,132,455.2,132,454.6,132z M453.8,128.3c2.4,0,4.3,0,6.2,0c0.6,0,1.2-0.1,1.8-0.1
	c3.5-0.3,5.6-2.2,6-5.3c0.4-3.1,0.4-6.2,0-9.3c-0.2-2.4-1.9-4.4-4.3-4.9c-1.1-0.3-2.3-0.5-3.5-0.4h-10.9c-0.9,0-1.8,0.1-2.7,0.2
	c-2.9,0.3-5.1,2.7-5.2,5.6c-0.3,2.8-0.3,5.6,0,8.4c0.1,2.8,2.2,5.2,5,5.5C448.7,128.3,451.2,128.4,453.8,128.3L453.8,128.3z"/>
<path class="st0" d="M202,108.9c1.8-3.2,4.7-4.2,8-4.4c3.9-0.2,7.8-0.2,11.8,0c1.8,0.1,3.6,0.7,5.1,1.7c2.2,1.4,3.5,3.9,3.4,6.6
	c0,6,0,12,0,18c0,0.6-0.2,0.8-0.8,0.8c-0.9-0.1-1.8-0.1-2.6,0c-0.9,0.1-1.1-0.1-1.1-1.1c0.1-5.3,0-10.6,0-15.8
	c0-0.5-0.1-1.1-0.1-1.6c-0.1-2.1-1.7-3.8-3.7-4.2c-1-0.3-2-0.5-3-0.5c-3.9-0.2-7.8-0.3-11.7,0.5c-3.5,0.8-5.2,2.8-5.2,6.3
	c-0.1,5.1-0.1,10.2,0,15.3c0,0.9-0.2,1.2-1.1,1.1c-1.1-0.1-2.6,0.5-3.3-0.2s-0.2-2.1-0.2-3.2c0-11.1,0-22.2,0-33.3
	c0-1,0.3-1.3,1.2-1.2c0.8,0.1,1.6,0.1,2.4,0c0.8-0.1,1,0.2,1,1c0,4.4,0,8.8,0,13.2L202,108.9z"/>
<path class="st0" d="M173.9,132c-2.6-0.1-5.4,0.2-8.1-0.2c-4.6-0.4-8.1-4.2-8.3-8.8c-0.2-3.1-0.2-6.3,0-9.4c0.4-5,3-8,8-8.7
	c5.7-0.8,11.5-0.8,17.2,0c4.2,0.6,6.6,3,7.2,6.8c0.4,2.6,0.4,2.6-2.2,2.6h-0.1c-1.7,0-1.7,0-1.9-1.7c-0.1-1.8-1.3-3.4-3.1-3.9
	c-0.9-0.3-1.9-0.5-2.9-0.5c-3.7,0-7.4,0-11.2,0c-0.7,0-1.4,0.1-2.1,0.3c-2.9,0.6-4.2,2.6-4.4,5.3c-0.3,2.8-0.3,5.7,0,8.5
	c0.4,3.6,2.5,5.5,6.3,5.8c4.1,0.3,8.2,0.3,12.3,0c2.9-0.2,4.8-1.6,5.4-3.8c0.1-0.6,0.2-1.3,0.1-1.9c0-0.4,0.1-0.6,0.6-0.6
	c1.1,0,2.1,0,3.1,0c0.5,0,0.6,0.2,0.6,0.7c0.3,5.3-2.6,8.8-7.9,9.3C179.8,132.1,176.9,131.9,173.9,132z"/>
<path class="st1" d="M408.1,104.8c2.7,0,5.3,0,8,0c0.6,0,1,0.1,0.9,0.9s0.4,2.2-0.2,2.7s-1.7,0.2-2.6,0.2c-4.7,0-9.4,0-14.1,0
	c-0.7,0-0.9,0.2-0.9,0.9c0,4.4,0,8.7,0,13.1c0,0.7,0.1,1.4,0.2,2.1c0.3,1.8,1.8,3.2,3.6,3.4c2.6,0.4,5.3,0.4,7.9-0.1
	c1.5-0.2,2.7-1.5,2.9-3c0.2-1.5,0.3-3.1,0.2-4.7c0-0.6,0.1-1,0.8-0.9c0.9,0.1,2.2-0.4,2.7,0.2s0.2,1.8,0.2,2.7
	c0.1,1.4,0,2.8-0.3,4.1c-0.3,2.2-1.9,4-4,4.7c-1.1,0.4-2.3,0.6-3.5,0.7c-3,0.3-6,0.2-8.9-0.3c-4.4-0.9-6.5-3.5-6.5-8
	c0-4.7,0-9.3,0-14c0-0.8-0.2-1.1-1-1c-1.4,0.1-2.8,0-4.2,0c-0.5,0-0.7-0.2-0.6-0.6c0-0.8,0-1.6,0-2.4c0-0.6,0.2-0.7,0.7-0.7
	c1.4,0,2.7,0,4.1,0c0.8,0,1.1-0.2,1.1-1c-0.1-1.5,0-3,0-4.6c0-0.6,0.2-0.8,0.8-0.8c1,0,2,0,3,0c0.6,0,0.8,0.1,0.8,0.7
	c0,1.6,0,3.2,0,4.9c0,0.6,0.2,0.8,0.8,0.8C402.7,104.8,405.4,104.8,408.1,104.8z"/>
<path class="st1" d="M484.3,109.1c1.9-3.8,5.4-4.5,9.1-4.6s7.1-0.2,10.6,0.1c1.2,0.1,2.4,0.3,3.5,0.8c3.3,1.1,5.4,4.2,5.4,7.6
	c0,6,0,11.9,0,17.9c0,0.7-0.2,0.8-0.9,0.8c-0.9,0-1.9,0-2.8,0c-0.7,0-0.8-0.2-0.8-0.8c0-5.2,0-10.5,0-15.7c0-0.3,0-0.5,0-0.8
	c-0.1-3.3-1.4-4.9-4.6-5.6c-3.6-0.8-7.2-0.5-10.8-0.3c-1.1,0.1-2.2,0.2-3.3,0.5c-3.3,0.8-4.9,2.7-5,6.1c-0.1,2.5-0.1,5.1-0.1,7.6
	c0,2.8,0,5.5,0,8.3c0,0.6-0.2,0.8-0.7,0.7c-1,0-2-0.1-3,0c-0.6,0-0.8-0.2-0.8-0.8c0-1.7,0-3.4,0-5.1c0-6.6,0-13.3,0-19.9
	c0-0.8,0.2-1,0.9-1c0.9,0.1,1.8,0.1,2.6,0c0.5,0,0.7,0.2,0.7,0.7C484.3,106.7,484.3,107.9,484.3,109.1z"/>
<path class="st1" d="M315.8,127.8l6.6-11.8c2-3.5,3.9-6.9,5.9-10.4c0.2-0.5,0.7-0.9,1.3-0.8c1.2,0.1,2.5,0,3.7,0
	c0.2,0.4-0.1,0.7-0.3,0.9c-4.7,8.3-9.4,16.7-14.1,25c-0.2,0.6-0.8,0.9-1.4,0.8c-0.8-0.1-1.7-0.1-2.5,0c-1.4,0.2-2.2-0.4-2.9-1.6
	c-4.5-8.1-9.1-16.1-13.6-24.2c-0.1-0.3-0.3-0.5-0.5-0.9h4.4c0.6,0,0.6,0.5,0.9,0.9c3.9,6.9,7.8,13.7,11.7,20.7
	C315.2,126.8,315.5,127.2,315.8,127.8z"/>
<path class="st1" d="M423.9,118.2c0-4.1,0-8.1,0-12.2c0-1,0.3-1.2,1.2-1.1c0.8,0.1,1.6,0.1,2.4,0c0.8-0.1,1,0.2,1,1
	c0,4.8,0,9.5,0,14.3c0,3.5,0,7,0,10.6c0,0.7-0.1,1-0.9,0.9c-0.9-0.1-1.8-0.1-2.7,0c-0.8,0.1-1-0.1-1-0.9
	C423.9,126.5,423.9,122.3,423.9,118.2z"/>
<path class="st1" d="M338.6,118.2c0-4.2,0-8.3,0-12.5c0-0.7,0.1-1,0.9-0.9c0.9,0.1,1.8,0.1,2.7,0c0.7,0,1,0.1,1,0.9
	c0,4.4,0,8.8,0,13.2c0,3.9,0,7.8,0,11.8c0,0.6-0.1,0.9-0.8,0.9c-1-0.1-2-0.1-2.9,0c-0.7,0.1-0.8-0.2-0.8-0.9
	C338.7,126.5,338.6,122.4,338.6,118.2z"/>
<path class="st1" d="M428.4,96.2c0,2.4,0,2.4-2.5,2.4c-2.1,0-2.1,0-2.1-2.1c0-0.7,0-1.4,0-2.1s0.2-0.8,0.8-0.8c1,0,2,0,3,0
	c0.6,0,0.9,0.2,0.8,0.8C428.4,95,428.4,95.6,428.4,96.2z"/>
<path class="st1" d="M343.2,96.2c0,2.4,0,2.4-2.5,2.4c-2.1,0-2.1,0-2.1-2.1c0-0.9-0.3-2.1,0.2-2.7s1.7-0.2,2.6-0.2
	c1.8,0,1.8,0,1.8,1.8L343.2,96.2z"/>
<path class="st1" d="M461.9,40.2l-31.2,2.6v-0.4c4.7-0.5,9.4-1.5,14.2-1.3c3.5,0,7-0.3,10.5-0.8c1.5-0.2,3-0.3,4.4-0.5
	C460.5,39.6,461.3,39.8,461.9,40.2z"/>
<path class="st0" d="M446.1,51.4c-11.6,1.5-23.3,2.3-35,3.1c1.7-0.5,3.4-0.8,5.1-1c3.4-0.5,6.9-0.7,10.4-0.7c3.8,0,7.6-0.7,11.4-1.1
	c0.9-0.2,1.7-0.1,2.6,0.1c1.1,0.3,2.1-0.2,3.2-0.2C444.6,51.7,445.4,51.6,446.1,51.4z"/>
<path class="st0" d="M492.9,47.3l-15.9,0.9c5.2-1,10.6-0.8,15.8-1.3L492.9,47.3z"/>
<path class="st1" d="M517.5,34.6c-5.2,0.8-10.5,0.6-15.7,1.1C507,34.8,512.2,35.1,517.5,34.6z"/>
<path class="st0" d="M447.1,51.4c4.1-0.8,8.2-1.2,12.4-1C455.3,50.6,451.2,51.2,447.1,51.4z"/>
<path class="st0" d="M424.2,52.2c-3.8,0.8-7.7-0.1-11.6,0.4C416.5,52,420.4,51.8,424.2,52.2z"/>
<path class="st1" d="M476.9,38.6l-4.6,0.5c-1.7,0.2-3.4,0.3-5.1,0.4C470.6,39.2,473.9,37.9,476.9,38.6z"/>
<path class="st2" d="M440.7,40.3L440.7,40.3c0.6-0.1,1.2-0.1,1.7,0c0,0,0,0.1,0,0.2c0,0,0,0,0,0c-1.1,0.6-2.4,0.3-3.5,0.5
	c-0.1-0.9,0.7-0.4,1-0.5c0.5,0.4,1,0.2,1.6,0.1C441.3,40,440.9,40.4,440.7,40.3z"/>
<path class="st0" d="M450.2,49.3c1.3-0.3,2.7-0.1,4.1-0.3C453,49.6,451.5,49.3,450.2,49.3z"/>
<path class="st1" d="M482.4,38.2c-1.5,0-2.9,0.1-4.4,0.2C479.5,38.2,481,38.1,482.4,38.2z"/>
<path class="st0" d="M345.9,47.5c0.3,0.3,0.7,0.1,1.1,0.3c-0.5,0.2-1.1,0.3-1.6,0.3c-0.7-0.4-1.5,0-2.4-0.3L345.9,47.5z"/>
<path class="st0" d="M378.5,47.1c0.1-0.8,0.6-0.4,1-0.5c0.8,0.6,1.7,0.2,2.5,0.1C380.9,47,379.7,47.1,378.5,47.1z"/>
<path class="st0" d="M356.5,49.6c-0.1-0.5,0.2-0.5,0.6-0.5c0.9,0.5,1.8,0,2.8,0C358.8,49.4,357.6,49.6,356.5,49.6z"/>
<path class="st0" d="M363.5,48.8c-1.1,0.5-2.3,0.2-3.4,0.5C361.3,49,362.4,48.8,363.5,48.8z"/>
<path class="st0" d="M110,152.3c0.2,0-0.5-0.8,0.3-0.4c0.5,0.1,1,0.4,1.4,0.7C111,152.7,110.5,152.1,110,152.3L110,152.3z"/>
<path class="st2" d="M442.4,40.4c0,0,0-0.1,0-0.2c0,0,0,0,0,0c0.7-0.1,1.4-0.1,2.1,0C443.8,40.2,443.2,40.7,442.4,40.4z"/>
<path class="st0" d="M373.1,47.6c0.4-0.5,0.8-0.5,1.2,0C373.9,48.1,373.5,47.7,373.1,47.6z"/>
<path class="st0" d="M375.1,47.6c0.3-1,0.8-0.6,1.2-0.2C376,47.6,375.6,47.6,375.1,47.6z"/>
<path class="st0" d="M377,47.4c0-0.9,0.7-0.4,1-0.5C377.9,47.5,377.4,47.4,377,47.4z"/>
<path class="st0" d="M331,58.8c0.4-0.2,0.9-0.2,1.4-0.1C332,58.9,331.5,58.9,331,58.8z"/>
<path class="st0" d="M355.6,49.7c-0.1-0.2,0-0.3,0.1-0.3s0.1,0.2,0.1,0.3L355.6,49.7z"/>
<path class="st0" d="M109.5,151.6h-0.2h-0.1H109.5C109.4,151.6,109.5,151.6,109.5,151.6z"/>
<path class="st0" d="M96.8,145c-0.2,0-0.4,0-0.3-0.3C96.7,144.7,96.8,144.8,96.8,145z"/>
<path class="st2" d="M340.1,48.1l0.2,0.1c-0.1,0.1-0.2,0.1-0.2,0.1c0,0-0.1-0.1-0.1-0.1L340.1,48.1z"/>
<path class="st0" d="M97.6,145.8c-0.1,0-0.2-0.1-0.2-0.2c0,0,0,0,0,0C97.5,145.6,97.6,145.6,97.6,145.8
	C97.6,145.8,97.6,145.8,97.6,145.8z"/>
<path class="st0" d="M97.4,145.6c-0.1,0-0.2-0.1-0.2-0.2S97.4,145.4,97.4,145.6z"/>
<path class="st0" d="M97.2,145.4c-0.1,0-0.2-0.1-0.2-0.2S97.2,145.2,97.2,145.4z"/>
<path class="st0" d="M97,145.2c-0.1,0-0.2-0.1-0.2-0.2S97,145,97,145.2z"/>
<path class="st2" d="M426.7,41.4c0.7-0.2,1.4-0.3,2.1-0.2C428.2,41.5,427.4,41.6,426.7,41.4z"/>
<path class="st2" d="M125.2,100.9c-0.5,0.5-1.2,0.8-1.9,0.8C123.9,101.2,124.6,100.9,125.2,100.9z"/>
<path class="st2" d="M440.7,40.3c0.2,0.1,0.6-0.3,0.8,0.2c-0.6,0-1.1,0.3-1.6-0.1L440.7,40.3z"/>
</svg>
