<?xml version="1.0" encoding="utf-8"?>
<!-- Generator: Adobe Illustrator 24.0.3, SVG Export Plug-In . SVG Version: 6.00 Build 0)  -->
<svg version="1.1" id="Layer_1" xmlns="http://www.w3.org/2000/svg" xmlns:xlink="http://www.w3.org/1999/xlink" x="0px" y="0px"
	 viewBox="0 0 413.3 95.6" style="enable-background:new 0 0 413.3 95.6;" xml:space="preserve">
<style type="text/css">
	.st0{fill:#1EB2E7;}
	.st1{clip-path:url(#SVGID_2_);}
	.st2{fill:url(#SVGID_3_);}
	.st3{fill:#044F94;}
	.st4{fill:#FFFFFF;}
	.st5{fill:#FDEE19;}
</style>
<title>logo-</title>
<path class="st0" d="M210.2,74.7c-1.6,7.1-2.3,11.4-2.3,11.5c0.7-0.5,1.4-1.1,2.1-1.7l0.8,1.2c-1.2,1-2.9,2.7-4.5,2.7
	c-1,0-1.1-0.8-1.1-1.6c0-0.8,0.1-1.6,0.3-2.4c-1.2,1.9-3.6,3.9-5.2,3.9c-1.4,0-2.5-1.3-2.5-3.4c0-1.9,0.5-3.8,1.4-5.5
	c1.9-3.7,5.4-4.6,8.4-4.6c0.7-3.2,1.2-5.3,1.2-6l-0.4-0.2h-0.1c-0.3,0-1.2,0.4-1.9,0.4c0.1-0.2,0.2-0.4,0.2-0.6
	c0.2-0.4,1.2-0.8,1.6-0.9l0,0l2.7-1c1,0,0.9,0.4,0.9,0.6C211.8,67.3,211.2,70.3,210.2,74.7 M205.1,76.2c-2.7,0-4.3,4.5-4.3,8.1
	c0,1.1,0.3,2,0.5,2c1,0,3-1.7,3.6-2.8s0.9-1.2,2.1-6.6c0-0.1,0-0.2,0.1-0.4C206.4,76.3,205.8,76.2,205.1,76.2"/>
<path class="st0" d="M215.3,83.4c0,1.1,0.4,3.1,1.5,3.1c1.4,0,2.7-1.2,3.8-2.4l1.2,1.2c-1.5,1.9-3.8,3.1-6.2,3.2
	c-2.6,0-3.3-2.3-3.3-4.3c0-3.7,3.1-9.4,7.6-9.4c1.7,0,3.1,0.9,3.1,2.5c0,3.2-4.9,4.6-7.6,5.2L215.3,83.4z M215.4,81.3
	c1.6-0.5,4.4-1.7,4.4-3.5c0-0.8-0.4-1.4-0.9-1.4C217.1,76.3,215.8,79.2,215.4,81.3"/>
<path class="st0" d="M232.8,74.7c1,0,1.7,0.5,1.7,1.3c-0.1,0.9-0.9,1.6-1.9,1.6c0,0-0.7-0.4-1.1-0.1s-0.4,0.4-0.6,0.6l-1.7,2.7
	c-0.6,2-1.1,4-1.5,6.1c-0.1,0.6-0.2,1.2-0.4,1.6l-3-0.3c0.1-0.4,0.2-0.7,0.3-1.1c0.6-2.7,2.3-9.2,2.1-9.5c0.1-0.3,0-0.4,0.1-0.5
	c-0.7,0.5-1.4,1.1-2,1.7l-0.7-1.2c0.2-0.1,0.3-0.3,0.5-0.4c1.1-0.8,2.9-2.3,4.1-2.3c1,0,1.2,0.5,1.2,1.1c0,1-0.1,2-0.4,3
	c1.2-2,1.6-3.6,3.1-4.1h0.2L232.8,74.7z"/>
<path class="st0" d="M254.3,69.9c0,0-0.2,3.7-0.2,4.4l-1.5-0.1v-0.7c-0.2-1.9-0.8-3.2-3-3.3c-1.6-0.1-2.6,1.2-2.6,2.9
	c0.1,1.5,1,2.9,2.3,3.6c2.7,2,4.2,3.7,4.2,6.1c0,1.4-1.3,5.4-6.4,5.4c-1,0.1-2.1-0.1-3-0.6l-0.4-0.2c-0.7-0.3-1.3-0.6-1.9-1.1
	c0.1-0.8,0.4-3,0.4-4.2v-0.3l1.4,0.1c0,2.7,1.5,5,4.1,5c1.4-0.1,2.9-1,2.9-3.4c0-1.4-0.7-2.8-1.9-3.6c-1.7-1.3-4.3-3-4.3-5.9
	c0-2.5,2.1-5.2,6-5.2c1.4,0.1,2.7,0.4,4,0.9L254.3,69.9z"/>
<path class="st0" d="M259.7,88.4c-2.9,0-3.9-2.6-3.9-4.8c0-1.8,0.5-3.5,1.3-5l0,0c1.2-1.9,3.4-3.9,6-3.9c3.1,0,3.9,2.2,3.9,4.6
	C266.9,83.2,264.2,88.4,259.7,88.4 M262.3,76.2c-2.6,0-3.4,4.8-3.4,7c0,1.4,0.1,3.6,1.6,3.6c2.6,0,3.4-5.2,3.4-7.3
	C263.8,78.3,263.7,76.2,262.3,76.2"/>
<path class="st0" d="M279.3,74.7c1-0.1,1.9,0.7,1.9,1.7c0,0,0,0,0,0c0,2.1-1,5.1-1.5,7.2c0-0.1-0.3,1.2-0.5,2.3
	c-0.1,0.8,1.3-0.9,1.8-1.2l0.8,1.2c-0.8,0.8-3.2,2.7-4.3,2.7c-0.7,0-1.3-0.5-1.3-1.2c0-0.1,0-0.1,0-0.2c0.1-1.1,0.3-2.2,0.7-3.3
	c0.5-2.3,1.9-5.9,1.2-6.1c-1.2-0.6-3.7,2.3-4.6,3.6c-0.6,1.8-1,3.7-1.4,5.6c-0.1,0.6-0.2,1.2-0.3,1.5l-3-0.3
	c0.1-0.4,0.2-0.7,0.3-1.1c0.6-2.7,2.3-9.2,2.1-9.5c0.1-0.3,0-0.4,0.1-0.5c-0.7,0.5-1.4,1.1-2,1.7l-0.7-1.2c0.2-0.1,0.3-0.3,0.5-0.4
	c1.1-0.8,3-2.4,4.2-2.4c1,0,1.2,0.5,1.2,1.1c0,0.7-0.2,1.5-0.4,2.2c-0.1,0.5-0.2,0.3-0.3,0.9C275.2,77.2,277.7,74.7,279.3,74.7"/>
<path class="st0" d="M294.4,74.7c1-0.1,1.9,0.7,1.9,1.7c0,0,0,0,0,0c0,2.1-1,5.1-1.5,7.2c0-0.1-0.3,1.2-0.5,2.3
	c-0.1,0.8,1.3-0.9,1.8-1.2l0.8,1.2c-0.8,0.8-3.2,2.7-4.3,2.7c-0.7,0-1.3-0.5-1.3-1.2c0-0.1,0-0.1,0-0.2c0.1-1.1,0.3-2.2,0.7-3.3
	c0.5-2.3,1.9-5.9,1.2-6.1c-1.2-0.6-3.6,2.3-4.6,3.6c-0.3,0.6-1,3.6-1.4,5.6c-0.1,0.6-0.2,1.2-0.3,1.5l-3-0.3
	c0.1-0.4,0.2-0.7,0.3-1.1c0.6-2.7,2.3-9.2,2.1-9.5c0.1-0.3,0-0.4,0.1-0.5c-0.7,0.5-1.4,1.1-2,1.7l-0.7-1.2c0.2-0.1,0.3-0.3,0.5-0.4
	c1.1-0.8,3-2.4,4.2-2.4c1,0,1.1,0.5,1.1,1.1c-0.1,0.7-0.2,1.5-0.4,2.2c-0.1,0.5-0.2,0.3-0.3,0.9C290.3,77.2,292.7,74.7,294.4,74.7"
	/>
<path class="st0" d="M301.5,83.4c0,1.1,0.4,3.1,1.5,3.1c1.4,0,2.7-1.2,3.8-2.4l1.2,1.2c-1.5,1.9-3.8,3.1-6.2,3.2
	c-2.6,0-3.2-2.3-3.2-4.3c0-3.7,3.1-9.4,7.6-9.4c1.7,0,3.1,0.9,3.1,2.5c0,3.2-4.9,4.6-7.6,5.2L301.5,83.4z M301.7,81.3
	c1.6-0.5,4.4-1.7,4.4-3.5c0-0.8-0.3-1.4-0.9-1.4C303.3,76.3,302,79.2,301.7,81.3"/>
<path class="st0" d="M320.4,83.4c0,1.1,0.4,3.1,1.5,3.1c1.4,0,2.7-1.2,3.8-2.4l1.2,1.2c-1.5,1.9-3.8,3.1-6.2,3.2
	c-2.6,0-3.3-2.3-3.3-4.3c0-3.7,3.1-9.4,7.6-9.4c1.7,0,3.1,0.9,3.1,2.5c0,3.2-4.9,4.6-7.6,5.2L320.4,83.4z M320.5,81.3
	c1.6-0.5,4.4-1.7,4.4-3.5c0-0.8-0.3-1.4-0.9-1.4C322.2,76.3,320.8,79.2,320.5,81.3"/>
<path class="st0" d="M340.1,74.7c1-0.1,1.9,0.7,1.9,1.7c0,0,0,0,0,0c0,2.1-1,5.1-1.5,7.2c0-0.1-0.3,1.2-0.5,2.3
	c-0.1,0.8,1.3-0.9,1.8-1.2l0.8,1.2c-0.8,0.8-3.2,2.7-4.3,2.7c-0.7,0-1.3-0.5-1.3-1.2c0-0.1,0-0.1,0-0.2c0-1.1,0.3-2.2,0.6-3.3
	c0.5-2.3,1.9-5.9,1.2-6.1c-1.2-0.6-3.7,2.3-4.6,3.6c-0.3,0.6-1,3.6-1.4,5.6c-0.1,0.6-0.2,1.2-0.4,1.5l-3-0.3
	c0.1-0.4,0.2-0.7,0.3-1.1c0.6-2.7,2.3-9.2,2.1-9.5c0.1-0.3,0-0.4,0.1-0.5c-0.7,0.5-1.4,1.1-2,1.7l-0.7-1.2c0.2-0.1,0.3-0.3,0.5-0.4
	c1.1-0.8,3-2.4,4.2-2.4c1,0,1.2,0.5,1.2,1.1c-0.1,0.7-0.2,1.5-0.4,2.2c-0.1,0.5-0.2,0.3-0.3,0.9C336,77.3,338.4,74.8,340.1,74.7"/>
<path class="st0" d="M352.3,76.6h-2.7c-0.6,2.3-1,4.2-1.5,6.8c-0.3,0.9-0.4,1.9-0.3,2.8c0.4,0.3,1.9-1.3,2.3-1.8l0.8,1
	c-0.9,1-3.2,2.9-4.8,2.9c-1.2,0-1.2-1.3-1.2-1.9c0-0.9,0.1-1.8,0.3-2.7l1.6-7.2h-2l0.5-1.2c0.9-0.1,1.9-0.3,1.9-0.3
	c0.1-0.6,0.3-1.2,0.5-1.9c0.3-0.3,0.7-0.6,1.2-1l0,0c0.4-0.2,0.8-0.6,1-1h1.2l-1,3.6h3L352.3,76.6z"/>
<path class="st0" d="M365.2,76.7h-2.8c0.3,0.6,0.5,1.3,0.5,2c0,4.1-3.2,5.4-5,6.3c-0.8,0.3-1.1,0.3-1.1,1c0,1.7,5.4,3,5.4,6
	c0,2.7-4.3,3.6-6.5,3.6s-6.1-0.4-6.1-3.2c0-1.9,3.1-3.6,4.8-4.4c-0.4-0.3-0.7-0.7-0.8-1.2c0-0.6,1.2-1.4,1.9-1.8
	c-1.7-0.4-2.9-2.1-2.7-3.9c0-1,0.3-2,0.8-2.9c1-1.7,3.5-3.5,5.6-3.5c0.9,0,1.8,0.2,2.5,0.6c0.8-0.1,1.8,0,2.5,0
	c0.5,0,1.2-0.1,2.1-0.1l-0.6,1.5L365.2,76.7z M355.7,88.7c-1.2,0.6-2.8,1.6-2.8,3.2s2.1,2.3,3.2,2.3s3.3-0.4,3.3-1.9
	S356.9,89.3,355.7,88.7 M358.6,76.1c-2.1,0-2.8,2.9-2.8,4.8c0,1,0.3,3,1.2,3c2.1,0,3-3.1,3-5C360,77.7,359.7,76.1,358.6,76.1"/>
<path class="st0" d="M367.5,83.4c0,1.1,0.4,3.1,1.5,3.1c1.4,0,2.7-1.2,3.8-2.4l1.2,1.2c-1.5,1.9-3.8,3.1-6.2,3.2
	c-2.6,0-3.3-2.3-3.3-4.3c0-3.7,3.1-9.4,7.6-9.4c1.7,0,3.1,0.9,3.1,2.5c0,3.2-4.9,4.6-7.6,5.2L367.5,83.4z M367.6,81.3
	c1.7-0.5,4.4-1.7,4.4-3.5c0-0.8-0.3-1.4-0.9-1.4C369.3,76.3,367.9,79.2,367.6,81.3"/>
<path class="st0" d="M388.8,76.7H386c0.3,0.6,0.5,1.3,0.5,2c0,4.1-3.2,5.4-5,6.3c-0.8,0.3-1.1,0.3-1.1,1c0,1.7,5.4,3,5.4,6
	c0,2.7-4.3,3.6-6.5,3.6s-6.1-0.4-6.1-3.2c0-1.9,3.1-3.6,4.8-4.4c-0.4-0.3-0.7-0.7-0.8-1.2c0-0.6,1.2-1.4,1.9-1.8
	c-1.7-0.4-2.9-2.1-2.7-3.9c0-1,0.3-2,0.8-2.9c1-1.7,3.4-3.5,5.6-3.5c0.9,0,1.8,0.2,2.5,0.6c0.8-0.1,1.8,0,2.5,0
	c0.5,0,1.2-0.1,2.1-0.1l-0.6,1.5L388.8,76.7z M379.2,88.7c-1.2,0.6-2.8,1.6-2.8,3.2s2.1,2.3,3.2,2.3s3.3-0.4,3.3-1.9
	S380.5,89.3,379.2,88.7 M382.2,76.1c-2.1,0-2.8,2.9-2.8,4.8c0,1,0.3,3,1.2,3c2.1,0,3-3.1,3-5C383.6,77.7,383.3,76.1,382.2,76.1"/>
<path class="st0" d="M391.1,83.4c0,1.1,0.4,3.1,1.5,3.1c1.4,0,2.7-1.2,3.8-2.4l1.2,1.2c-1.5,1.9-3.8,3.1-6.2,3.2
	c-2.6,0-3.2-2.3-3.2-4.3c0-3.7,3.1-9.4,7.6-9.4c1.7,0,3.1,0.9,3.1,2.5c0,3.2-4.9,4.6-7.6,5.2L391.1,83.4z M391.2,81.3
	c1.6-0.5,4.4-1.7,4.4-3.5c0-0.8-0.3-1.4-0.9-1.4C392.9,76.3,391.5,79.2,391.2,81.3"/>
<path class="st0" d="M410.8,74.7c1-0.1,1.9,0.7,1.9,1.7c0,0,0,0,0,0c0,2.1-1,5.1-1.5,7.2c0-0.1-0.3,1.2-0.5,2.3
	c-0.1,0.8,1.3-0.9,1.8-1.2l0.8,1.2c-0.8,0.8-3.2,2.7-4.3,2.7c-0.7,0-1.3-0.5-1.3-1.2c0-0.1,0-0.1,0-0.2c0.1-1.1,0.3-2.2,0.7-3.3
	c0.5-2.3,1.9-5.9,1.2-6.1c-1.2-0.6-3.7,2.3-4.6,3.6c-0.3,0.6-1,3.6-1.4,5.6c-0.1,0.6-0.2,1.2-0.3,1.5l-3-0.3
	c0.1-0.4,0.2-0.7,0.3-1.1c0.6-2.7,2.3-9.2,2.1-9.5c0.1-0.3,0-0.4,0.1-0.5c-0.7,0.5-1.4,1.1-2,1.7l-0.7-1.2c0.2-0.1,0.3-0.3,0.5-0.4
	c1.1-0.8,3-2.4,4.2-2.4c1,0,1.2,0.5,1.2,1.1c0,0.7-0.2,1.5-0.4,2.2c-0.1,0.3-0.2,0.6-0.3,0.9C406.7,77.2,409.1,74.7,410.8,74.7"/>
<g>
	<defs>
		<path id="SVGID_1_" d="M35.7,0c-14.4,0-22.4,6.3-25,19.9L0,75.1h40.3c14.4,0,22.4-6.3,25-19.9L76,0L35.7,0z"/>
	</defs>
	<clipPath id="SVGID_2_">
		<use xlink:href="#SVGID_1_"  style="overflow:visible;"/>
	</clipPath>
	<g class="st1">
		
			<linearGradient id="SVGID_3_" gradientUnits="userSpaceOnUse" x1="6000.9307" y1="-6135.4819" x2="6003.3003" y2="-6135.4819" gradientTransform="matrix(1.942902e-15 31.73 31.73 -1.942902e-15 194716.8438 -190435.1406)">
			<stop  offset="0" style="stop-color:#E53D25"/>
			<stop  offset="0.53" style="stop-color:#E43C25"/>
			<stop  offset="0.75" style="stop-color:#DD3A26"/>
			<stop  offset="0.92" style="stop-color:#D03827"/>
			<stop  offset="1" style="stop-color:#C83327"/>
		</linearGradient>
		<rect x="0" y="0" class="st2" width="76" height="75.1"/>
	</g>
</g>
<polygon class="st3" points="49.8,30.8 50.2,30.1 50.6,29.5 51,28.9 51.2,28.5 51.3,28 51.5,27.6 51.7,27.1 51.8,26.5 51.8,26 
	51.7,25.5 51.5,25.1 51.3,24.7 50.9,24.5 50.5,24.3 50,24.3 49.5,24.3 49.1,24.3 48.6,24.5 48.1,24.7 47.7,24.8 47.2,25 45.9,25.8 
	44.7,26.6 43.6,27.6 43.6,26.6 43.6,25.6 43.6,24.7 43.6,23.6 43.6,22.7 43.5,21.7 43.3,20.7 43.2,19.7 43,18.7 42.7,17.8 
	42.4,16.9 42,16.1 41.6,15.2 41.1,14.4 40.5,13.7 40.2,13.4 39.8,13.1 39.4,12.8 39,12.7 38.5,12.5 38.1,12.5 37.7,12.7 37.3,12.8 
	36.9,13.1 36.7,13.4 36.5,13.8 36.2,14.2 36.1,14.6 36,15 36,15.4 36,16.6 36,17.6 36,18.6 36,19.5 36,20.3 36,21.2 35.9,21.9 
	35.8,22.7 35.7,23.5 35.6,24.3 35.3,25.2 35.1,26.1 34.9,27.1 34.4,26.7 33.9,26.2 33.4,25.7 32.9,25.2 32.3,24.7 31.7,24.3 
	31.1,23.8 30.5,23.4 29.9,23 29.3,22.7 28.7,22.3 28.1,22.1 27.6,22 27,21.9 26.5,21.9 26.1,22.1 25.7,22.3 25.4,22.5 25.2,22.7 
	25.1,23.2 24.9,23.5 25,24 25.2,24.5 25.4,24.9 25.9,25.8 26.5,26.7 27.1,27.7 27.8,28.7 28.5,30 27.9,29.8 27.4,29.6 26.9,29.6 
	26.3,29.6 25.8,29.6 25.3,29.6 24.8,29.7 24.4,29.8 23.8,29.8 23.2,30 22.5,30.1 21.9,30.2 21.4,30.3 20.8,30.5 20.3,30.6 
	19.7,30.7 19.2,30.8 18.8,30.9 18.4,30.9 18.1,31.1 17.6,31.1 17.2,31.2 16.8,31.4 16.3,31.5 15.9,31.6 15.4,31.7 15,31.8 14.6,32 
	14.2,32.2 13.9,32.5 13.5,32.9 13.3,33.3 13.2,33.8 13.2,34.3 13.3,34.8 13.5,35.2 13.9,35.6 14.3,35.8 14.7,36 15.2,36.2 
	15.6,36.4 16.1,36.5 16.6,36.7 17.1,36.8 17.5,36.9 18,37 18.5,37.1 19.4,37.3 20.2,37.6 21,37.8 21.6,38 22.4,38.3 23.1,38.5 
	23.8,38.7 24.6,38.9 25.4,39.1 26.2,39.3 25.5,39.6 24.8,40 24.1,40.4 23.4,40.7 22.8,41.2 22.3,41.7 21.8,42.2 21.6,42.7 
	21.5,43.2 21.5,43.7 21.6,44.2 21.8,44.6 22.2,44.9 22.5,45.2 23,45.4 23.6,45.5 24.4,45.7 25.2,45.7 26.1,45.8 27.1,45.7 
	28.1,45.7 27.4,46.7 26.8,47.8 26.4,49 26,50.1 25.6,51.1 25.3,51.9 24.9,52.8 24.4,53.8 23.8,54.8 23.3,55.7 22.6,56.7 22.4,57 
	22.3,57.5 22.3,57.9 22.3,58.3 22.5,58.6 22.8,58.9 23,59.1 23.4,59.3 23.8,59.4 24.1,59.5 24.5,59.4 24.9,59.3 25.3,59.3 
	25.6,59.1 26.1,58.9 27.7,58.1 29.3,57 30.8,56 32.2,54.8 33.6,53.5 34.8,52.2 36,50.7 36.1,51.3 36.2,51.9 36.5,52.5 36.7,53 
	37,53.6 37.3,53.9 37.6,54.2 38,54.3 38.4,54.4 38.9,54.3 39.3,54.2 39.6,53.9 40,53.6 40,53.7 40.4,53 40.7,52.4 40.9,51.8 
	41.1,51 41.7,51.8 42.4,52.6 43.1,53.4 43.8,54.2 44.6,55 45.5,55.7 46.4,56.4 47.3,57 48.2,57.6 49.1,58.1 50,58.6 50.9,58.9 
	51.8,59.1 52.6,59.3 53.3,59.3 53.8,59.3 54.3,59.1 54.7,59 55.1,58.8 55.3,58.5 55.5,58.2 55.7,57.9 55.8,57.5 55.9,57.1 
	55.9,56.7 55.7,56.3 55.6,55.8 55.4,55.4 55.1,55 54.3,54.1 53.6,53.3 52.9,52.4 52.3,51.7 51.8,51 51.2,50.3 50.7,49.5 50.2,48.8 
	49.8,48 49.3,47.2 48.9,46.3 49.3,46.5 49.8,46.6 50.2,46.8 50.7,46.9 51.2,46.9 51.7,46.9 52.2,46.9 52.6,46.9 53.1,46.7 
	53.6,46.6 54.2,46.3 54.5,45.9 54.8,45.5 55,44.9 55.1,44.4 54.9,43.8 54.6,43.2 54.5,42.9 54.4,42.7 54.2,42.6 54.2,42.4 54,42.2 
	53.9,42.1 53.8,41.9 53.5,41.8 53.3,41.5 53.2,41.4 53,41.2 52.8,41.1 52.6,40.9 52.4,40.8 52.2,40.7 52.1,40.6 51.9,40.4 
	51.8,40.4 51.6,40.2 51.4,40.2 52.3,40 53.3,39.9 54.3,39.7 55.5,39.4 56.2,39.1 56.8,38.9 57.6,38.7 58.4,38.3 59.2,38 59.9,37.6 
	60.7,37.2 61.4,36.8 62.1,36.4 62.6,36 63.1,35.6 63.3,35.4 63.7,35.1 63.9,34.7 64.2,34.3 64.4,34 64.6,33.6 64.6,33.1 64.6,32.7 
	64.6,32.4 64.4,32 64.1,31.8 63.9,31.5 63.5,31.3 63.2,31.1 62.8,31 62.4,31 61.5,31 60.7,31 59.9,30.9 59.1,30.9 58.2,30.9 
	57.4,30.8 56.7,30.7 56,30.7 55.4,30.6 54.9,30.5 54.4,30.5 53.9,30.5 53.4,30.5 52.8,30.5 52.2,30.5 51.5,30.5 50.7,30.6 "/>
<path class="st4" d="M43.2,51.5l-0.5-0.7l-0.5-0.8l-0.4-0.7l-0.3-0.7c-0.1-0.3-0.4-0.5-0.8-0.4c-0.3,0.1-0.5,0.3-0.6,0.6L40,49.4
	L39.9,50l-0.1,0.6l-0.1,0.6l-0.2,0.6l-0.2,0.5l-0.3,0.4l-0.1,0.1l-0.1,0.1l-0.1,0.1h-0.3l-0.1-0.1L38,52.7l-0.1-0.1l-0.1-0.2
	l-0.1-0.2l0-0.3l-0.1-0.3l-0.1-0.3l-0.1-0.3l-0.1-0.3l-0.1-0.3l-0.1-0.3l-0.1-0.3l-0.1-0.3L37,49.2L37,48.8
	c-0.1-0.3-0.3-0.5-0.6-0.6c-0.3-0.1-0.5,0.1-0.7,0.3l-1,1.4l-1.1,1.4l-1.2,1.3l-1.3,1.2l-1.4,1.1l-1.4,1l-1.5,0.9l-1.6,0.8l-0.1,0.1
	h-1.4l-0.1-0.1l-0.1-0.1l-0.1-0.1v-0.3l0.7-1l0.7-1l0.6-1l0.5-1l0.4-1l0.3-0.9l0.4-1.1l0.4-1.2l0.5-1.2l0.6-1.1l0.8-1l0.8-0.9
	c0.2-0.2,0.3-0.6,0.1-0.8c-0.1-0.3-0.5-0.4-0.8-0.3l-0.9,0.3l-0.9,0.1l-0.9,0.1h-1.7l-0.7-0.1l-0.6,0.1l-0.5-0.1l-0.3-0.1L23,43.9
	l-0.1-0.3v-0.3L23,43l0.3-0.4l0.4-0.4l0.5-0.3l0.6-0.3l0.6-0.3l0.7-0.3l0.7-0.3l0.7-0.3l0.7-0.2l0.7-0.2l0.6-0.1l0.3,0.6l0.4,0.5
	l0.3,0.4l0.4,0.3l0.5,0.2l0.6,0.1l-0.2,0.5l-0.1,0.6v0.6l0.1,0.6l0.1,0.5L32,45l0.3,0.5l0.4,0.4l0.4,0.3l0.5,0.3l0.6,0.3l0.6,0.2
	l0.6,0.1l0.6,0.1l0.6-0.1l0.6-0.1l0.6-0.2l0.5-0.3l0.4-0.3l0.4-0.5l0.4,0.4l0.5,0.3l0.5,0.3l0.6,0.1l0.6,0.1l0.6-0.1l0.6-0.1
	l0.6-0.2l0.6-0.3l0.6-0.4l0.5-0.5l0.4-0.6l0.3-0.6l0.1-0.6V43l-0.1-0.6l-0.2-0.6l0.6-0.3l0.6-0.3l0.4-0.5l0.4-0.6l0.3-0.6l0.2-0.6
	l0.1-0.6l0.1-0.6v-0.6l-0.1-0.6l-0.1-0.6l-0.2-0.6l-0.3-0.5l-0.4-0.4l-0.4-0.3l-0.5-0.3L45.2,34l0.2-0.6l0.1-0.6l-0.1-0.6l-0.2-0.6
	l-0.3-0.6l-0.4-0.5L44,30l-0.6-0.3l0.8-0.8l0.8-0.8l0.9-0.7l0.9-0.6l1-0.5l0.1-0.1l0.1-0.1l0.1-0.1l0.1-0.1l0.1-0.1l0.1-0.1l0.2-0.1
	l0.2-0.1l0.2-0.1l0.2-0.1l0.2-0.1h0.5l0.1,0.1l0.1,0.1l0.1,0.1l0.1,0.1v0.6l-0.1,0.2l-0.1,0.2l-0.1,0.2l-0.1,0.2l-0.1,0.2L50,27.6
	l-0.1,0.1v0.1l-0.2,0.5l-0.3,0.6l-0.4,0.6L48.7,30l-0.6,0.6l-0.7,0.6l-0.2,0.1L47,31.6l-0.4,0.2c-0.2,0.2-0.3,0.6-0.1,0.9
	c0.2,0.3,0.5,0.4,0.8,0.3l0.5-0.2l0.4-0.2l0.5-0.1l0.4-0.1l0.4-0.1l0.4-0.1l0.4-0.1l0.4-0.1l0.4-0.1l0.4-0.1h2.2l0.5,0.1h0.5
	l0.6,0.1l0.6,0.1l0.6,0.1l0.8,0.1l0.8,0.1l0.8,0.1l0.9,0.1h2.8l0.1,0.1l0.1,0.1l0.1,0.1l0.1,0.1l0.1,0.1v0.6l-0.1,0.1l-0.1,0.1
	L63,33.7l-0.1,0.1l-0.1,0.1L62.8,34l-0.1,0.1l-0.1,0.1l-0.1,0.1l-0.1,0.1l-0.1,0.1l-0.1,0.1l-0.1,0.1l-0.1,0.1L61.8,35l-0.5,0.3
	l-0.6,0.3l-0.6,0.3l-0.7,0.3l-0.8,0.3L58,37.1l-0.8,0.3l-0.8,0.3L55.8,38l-0.6,0.2l-0.8,0.2l-0.8,0.2l-0.9,0.1l-0.8,0.1L51,39
	L50.2,39l-0.7,0.1l-0.6,0.2c-0.2,0.1-0.4,0.4-0.4,0.6c0,0.2,0.1,0.5,0.4,0.6l0.1,0.1l0.3,0.1l0.3,0.1l0.6,0.2l0.6,0.3l0.6,0.3
	l0.6,0.5l0.6,0.6l0.5,0.6l0.4,0.6l0.1,0.2l0.1,0.2v0.4L53.5,45l-0.1,0.1l-0.1,0.2L53,45.5l-0.3,0.1l-0.3,0.1l-0.4,0.1h-0.7L51,45.6
	l-0.3-0.1l-0.4-0.1L50,45.4l-0.4-0.1l-0.3-0.1L48.9,45l-0.3-0.1l-0.3-0.1l-0.3-0.1l-0.2-0.1c-0.3-0.1-0.7,0-0.9,0.4
	c-0.1,0.2-0.1,0.4,0,0.5l0.5,1.2l0.5,1l0.6,1l0.5,0.9l0.6,0.8l0.6,0.8l0.6,0.8l0.6,0.8l0.6,0.8l0.7,0.8l0.8,0.9l0.8,1l0.1,0.2
	l0.1,0.2l0.1,0.2l0.1,0.2l0.1,0.2v0.3l-0.1,0.1l-0.1,0.1l-0.1,0.1l-0.1,0.1l-0.2,0.1l-0.2,0.1h-1l-0.8-0.1l-0.8-0.2l-0.8-0.3
	l-0.8-0.4l-0.9-0.5l-0.8-0.6l-0.8-0.6L46,54.8l-0.8-0.7l-0.8-0.8l-0.7-0.8L43.2,51.5"/>
<path class="st4" d="M37.4,15.5v-0.3l0.1-0.3l0.1-0.2l0.1-0.2l0.1-0.1l0.1-0.1l0.1-0.1l0.1-0.1l0.1-0.1h0.3l0.1,0.1l0.2,0.1l0.2,0.1
	l0.2,0.1l0.2,0.1l0.1,0.1l0.6,0.7l0.5,0.8l0.4,0.9l0.4,1l0.3,1l0.2,1.1l0.2,1.2l0.1,1.2l0.1,1.2l0.1,1.3v1.3l-0.1,1.3l-0.1,1.4h-0.5
	l-0.6,0.1l-0.6,0.1l-0.5,0.3L39.6,30l-0.4,0.4l-0.3,0.5l-0.2-0.5L38.4,30l-0.4-0.3l-0.5-0.2L37,29.3l-0.6-0.1l-0.6,0.1l-0.6,0.1
	l-0.5,0.2l-0.5,0.2L34,30.1l-0.5,0.3l-0.4,0.4l-0.3,0.5l-0.3,0.5l-0.2,0.5l-0.1,0.6L32,33.4l0.1,0.5l0.1,0.5h-0.6l-0.5,0.1l-0.4,0.2
	L30.4,35L30,35.3l-0.3,0.5l-0.3,0.5l-0.2,0.6L29,37.4L29,37.9v0.6l-1-0.1l-1-0.1l-0.9-0.1l-0.8-0.2l-0.8-0.2l-0.8-0.2L23,37.3
	l-0.7-0.2l-0.7-0.2L21,36.6l-0.8-0.3l-0.8-0.2l-0.9-0.2l-0.9-0.2l-0.8-0.2l-0.7-0.2l-0.6-0.2L15,34.9l-0.3-0.2l-0.3-0.2l-0.1-0.1V34
	l0.1-0.1l0.1-0.1l0.1-0.1l0.1-0.1l0.1-0.1l0.1-0.1l0.1-0.1l0.3-0.1l0.3-0.1l0.4-0.1l0.3-0.1l0.4-0.1l0.3-0.1l0.3-0.1l0.3-0.1
	l0.3-0.1l0.3-0.1l0.2-0.1l0.3-0.1l0.3-0.1l0.3-0.1l0.3-0.1l0.4-0.1l0.4-0.1l0.5-0.1l0.5-0.1l0.6-0.1l0.6-0.1l0.6-0.1l0.6-0.1
	l0.6-0.1l0.5-0.1l0.4-0.1l0.5-0.1l0.6-0.1h0.6l0.6,0.1l0.6,0.2l0.6,0.3l0.6,0.4l0.6,0.6c0.2,0.3,0.7,0.3,1,0.1
	c0.2-0.2,0.3-0.5,0.2-0.8L30,30.3L29.3,29l-0.7-1.2l-0.6-1l-0.6-1l-0.6-0.9l-0.5-0.8l-0.1-0.1L26.2,24l-0.1-0.1v-0.3l0,0l0.1-0.1
	l0.1-0.1l0.1-0.1h0.7l0.4,0.1l0.4,0.1l0.4,0.2l0.4,0.2l0.4,0.3l0.4,0.3l0.4,0.3l0.4,0.3l0.4,0.3l0.4,0.3l0.4,0.3l0.4,0.3l0.4,0.3
	l0.4,0.3l0.4,0.3l0.3,0.3l0.4,0.3l0.3,0.2l0.4,0.1h0.3l0.4-0.1l0.3-0.1l0.3-0.2l0.1-0.3l0.3-1.1l0.3-1l0.2-1l0.1-0.9L37,23l0.1-0.8
	l0.1-0.8l0.1-0.8v-3.9L37.4,15.5z"/>
<polygon class="st5" points="40,44.8 39.8,44.4 39.7,44 39.8,43.5 39.9,43.1 40,42.8 40.3,42.4 40.6,42.1 40.9,41.9 41.3,41.7 
	41.7,41.5 42.1,41.5 42.4,41.4 42.9,41.5 43.2,41.6 43.6,41.8 43.8,42.2 44,42.5 44,43 44,43.4 43.9,43.8 43.7,44.2 43.5,44.5 
	43.1,44.8 42.9,45.1 42.4,45.3 42.1,45.4 41.7,45.5 41.3,45.5 40.9,45.5 40.5,45.3 40.2,45.1 "/>
<polygon class="st5" points="37.8,44.8 37.6,45.1 37.3,45.3 37,45.5 36.6,45.7 36.2,45.7 35.8,45.7 35.4,45.7 35,45.6 34.7,45.5 
	34.3,45.3 34,45.1 33.6,44.9 33.4,44.5 33.1,44.2 33,43.9 32.9,43.5 32.9,43.1 33,42.8 33.2,42.4 33.5,42.2 33.8,42 34.2,41.8 
	34.5,41.8 34.9,41.8 35.3,41.8 35.8,41.9 36.1,42 36.5,42.2 36.8,42.4 37.1,42.7 37.4,43 37.6,43.3 37.8,43.7 37.8,44 37.9,44.4 "/>
<polygon class="st5" points="32.2,40.6 31.9,40.5 31.6,40.4 31.4,40.2 31.1,39.9 30.9,39.6 30.8,39.3 30.7,39 30.6,38.7 30.5,38.4 
	30.5,38.2 30.5,38 30.5,37.7 30.5,37.4 30.6,37.1 30.7,36.8 30.9,36.4 31.1,36.2 31.3,35.9 31.6,35.8 31.9,35.7 32.2,35.7 
	32.5,35.8 32.8,36 33,36.3 33.2,36.6 33.4,36.9 33.5,37.2 33.6,37.5 33.6,37.8 33.6,38 33.6,38.2 33.6,38.5 33.6,38.8 33.6,39.1 
	33.4,39.5 33.3,39.8 33.1,40 32.9,40.3 32.6,40.5 "/>
<polygon class="st5" points="44.1,33.2 44.2,32.8 44.2,32.5 44.1,32 43.9,31.7 43.6,31.4 43.3,31.1 43,30.9 42.7,30.7 42.2,30.6 
	41.9,30.5 41.5,30.6 41.1,30.7 40.7,30.8 40.4,31 40.2,31.3 40,31.6 39.9,32 39.9,32.4 40,32.8 40.2,33.1 40.4,33.4 40.7,33.7 
	41.1,34 41.5,34.1 41.8,34.2 42.2,34.2 42.7,34.2 43,34.2 43.3,34 43.7,33.8 44,33.6 "/>
<polygon class="st5" points="44.1,40.4 43.8,40.4 43.5,40.2 43.2,39.9 43,39.6 42.9,39.3 42.8,38.9 42.7,38.5 42.7,38.2 42.7,37.8 
	42.7,37.6 42.8,37.2 42.9,36.9 43,36.6 43.2,36.2 43.4,35.9 43.6,35.6 43.9,35.4 44.2,35.3 44.5,35.1 44.9,35.1 45.3,35.3 
	45.6,35.5 45.8,35.8 46,36 46.1,36.4 46.2,36.7 46.3,37.1 46.3,37.5 46.3,37.8 46.3,38.1 46.2,38.4 46.1,38.7 46,39.1 45.8,39.4 
	45.6,39.7 45.3,40 45.1,40.2 44.8,40.4 44.4,40.4 "/>
<polygon class="st5" points="37.3,41.1 36.7,40.8 36.2,40.4 35.8,40 35.4,39.5 35.1,38.9 35.1,38.2 35.1,37.6 35.2,36.9 35.5,36.2 
	35.8,35.7 36.2,35.2 36.8,34.9 37.3,34.6 38,34.5 38.7,34.5 39.3,34.6 39.9,34.8 40.4,35.2 40.9,35.6 41.2,36.2 41.5,36.8 
	41.6,37.4 41.6,38.1 41.4,38.8 41.2,39.4 40.8,40 40.4,40.4 39.8,40.8 39.3,41.1 38.7,41.2 38,41.2 "/>
<polygon class="st5" points="33.5,33.8 33.7,34 34,34.2 34.2,34.2 34.5,34.2 34.8,34.2 35.1,34.2 35.4,34.1 35.7,34 36,33.8 
	36.2,33.7 36.5,33.5 36.7,33.3 36.9,33.1 37.1,32.8 37.3,32.5 37.4,32.2 37.5,32 37.6,31.6 37.5,31.4 37.3,31 37.1,30.8 36.9,30.7 
	36.7,30.6 36.4,30.6 36,30.6 35.8,30.7 35.5,30.7 35.2,30.9 34.9,31 34.7,31.1 34.4,31.4 34.2,31.6 34,31.8 33.8,32 33.6,32.3 
	33.5,32.6 33.4,32.9 33.4,33.2 33.4,33.5 "/>
<path class="st3" d="M363.6,37.3c7.3,0.8,12.7,2.9,12.7,8.5c-0.1,6.9-8.1,10.4-18,10.4c-7.2,0-12.9-2-15.4-5.9
	c-0.3-0.7,0.1-0.8,0.9-1l5.6-2.5c0.7-0.1,0.9,0.1,1.1,0.3c1.2,1.5,4.1,2.4,7.1,2.4c2.7,0,4.7-0.8,4.7-2.4s-2-2-5.8-2.3
	c-0.3-0.1-0.4-0.1-1-0.1c-5.2-0.8-12.2-1.8-12.8-8c-0.7-6.5,6.5-10.7,17.3-10.7c6,0,12.3,1.6,14.3,5.4c0.3,0.5,0.1,0.7-0.5,0.8
	l-6.3,2.8c-0.4,0.1-0.6,0.1-1-0.3c-1.9-1.4-4.2-2.2-6.5-2.1c-2,0-4.3,0.8-4.3,2.1s1.9,1.9,6.3,2.3L363.6,37.3z"/>
<path class="st3" d="M400.6,37.3c7.4,0.8,12.7,2.9,12.7,8.5c-0.1,6.9-8.1,10.4-18,10.4c-7.2,0-12.9-2-15.4-5.9
	c-0.3-0.7,0.1-0.8,0.9-1l5.6-2.5c0.7-0.1,0.9,0.1,1.1,0.3c1.2,1.5,4.1,2.4,7.1,2.4c2.7,0,4.7-0.8,4.7-2.4s-2-2-5.8-2.3
	c-0.3-0.1-0.7-0.1-1-0.1c-5.2-0.8-12.2-1.8-12.8-8c-0.7-6.5,6.5-10.7,17.4-10.7c6,0,12.3,1.6,14.3,5.4c0.3,0.5,0.1,0.7-0.5,0.8
	l-6.3,2.8c-0.4,0.1-0.6,0.1-1-0.3c-1.9-1.5-4.2-2.2-6.5-2.1c-2,0-4.3,0.8-4.3,2.1s1.9,1.9,6.3,2.3L400.6,37.3z"/>
<path class="st3" d="M117.3,42.8c-0.1,0.6-0.4,0.6-1.6,0.6H93.5c0.3,2.5,2.3,3.9,6.6,3.9c2.6,0,5.2-0.4,7.7-1.2
	c0.6-0.2,0.7-0.2,1,0.2c1.4,1.9,2.7,3.9,3.7,6.1c0.3,0.6,0.3,0.8-0.5,1.2c-3.6,1.8-7.6,2.7-11.6,2.5c-14.1,0-19.8-6.8-19.8-15.3
	S87.8,26,99.7,26C110.7,26,118.1,31.7,117.3,42.8 M105.2,38.2c-0.1-3.3-2.3-5-5.8-5c-3.6,0-5.6,2.1-6,5H105.2z"/>
<path class="st3" d="M201.4,42.8c-0.1,0.6-0.4,0.6-1.6,0.6h-22.3c0.3,2.5,2.3,3.9,6.5,3.9c2.6,0,5.2-0.4,7.7-1.2
	c0.5-0.2,0.7-0.2,1,0.2c1.4,1.9,2.7,3.9,3.7,6.1c0.3,0.6,0.3,0.8-0.5,1.2c-3.6,1.8-7.6,2.7-11.6,2.5c-14,0-19.8-6.8-19.8-15.3
	S171.9,26,183.8,26C194.7,26,202.1,31.7,201.4,42.8 M189.3,38.1c-0.1-3.3-2.3-5-5.8-5c-3.6,0-5.6,2.1-6,5H189.3z"/>
<path class="st3" d="M316.6,42.8c-0.1,0.6-0.3,0.6-1.6,0.6h-22.3c0.3,2.5,2.3,3.9,6.5,3.9c2.6,0,5.2-0.4,7.7-1.2
	c0.6-0.2,0.7-0.2,1,0.2c1.4,1.9,2.7,3.9,3.7,6.1c0.3,0.6,0.3,0.8-0.5,1.2c-3.6,1.8-7.6,2.7-11.6,2.6c-14,0-19.8-6.8-19.8-15.3
	S287.1,26,299,26C309.9,26,317.4,31.7,316.6,42.8 M304.6,38.2c-0.1-3.3-2.4-5-5.8-5c-3.7,0-5.6,2.1-6,5H304.6z"/>
<path class="st3" d="M146.8,18.5c0-0.6,0.1-0.7,0.6-0.7H160c0.5,0,0.6,0,0.6,0.8v36.3c0,0.6,0,0.7-0.6,0.7h-12.3
	c-0.5,0-0.7-0.1-0.7-0.7v-2.3c-2.4,2.9-6.6,3.7-8.9,3.7c-9.8,0-17.1-5.2-17.1-14.5c0-8.6,6.8-15.6,16.4-15.6c3.2,0,7.6,1.2,9.2,2.9
	V18.5z M134.7,41.1c0,3.3,3,5.1,6.9,5.1c3.2,0,5.9-2,5.9-5.1c0-2.9-2.8-5-5.9-5C137.3,36,134.7,38.1,134.7,41.1"/>
<path class="st3" d="M220.9,54.8c0,0.5-0.1,0.6-0.6,0.6h-14.1c-0.5,0-0.6,0-0.6-0.8V18.5c0-0.6,0-0.7,0.5-0.7h14.1
	c0.5,0,0.7,0.1,0.7,0.7V54.8z"/>
<path class="st3" d="M223.9,28.7c-0.2-0.3-0.1-0.7,0.8-0.7h14.8c0.6,0,0.8,0.1,0.9,0.3l5.4,8.7l5.5-8.6c0.3-0.3,0.5-0.4,1.1-0.4
	s0.9,0,1.1,0.4l5.4,8.3l5.5-8.5c0.2-0.3,0.7-0.3,1-0.3h13.9c0.6,0,0.8,0.4,0.5,0.8l-17.2,26.9c-0.5,0.8-1.4,0.8-2.1,0l-8.3-11.4
	l-7.9,11.4c-0.4,0.6-1.2,0.7-1.8,0.3c-0.1-0.1-0.3-0.2-0.3-0.3L223.9,28.7z"/>
<path class="st3" d="M337.1,54.8c0,0.5-0.1,0.6-0.7,0.6H322c-0.5,0-0.6,0-0.6-0.8v-26c0-0.6,0-0.6,0.5-0.6h14.4
	c0.5,0,0.7,0.1,0.7,0.6V54.8z M337.1,24.1c0,0.5-0.1,0.6-0.7,0.6H322c-0.5,0-0.6-0.4-0.6-0.7v-5.8c0-0.3,0-0.7,0.5-0.7h14.4
	c0.5,0,0.7,0.1,0.7,0.7V24.1z"/>
</svg>
