<svg id="Layer_1" data-name="Layer 1" xmlns="http://www.w3.org/2000/svg" viewBox="0 0 640 220"><defs><style>.cls-1{fill:#493e39;}.cls-2{fill:#a62864;}.cls-3{fill:#838383;}.cls-4{fill:#35b4a1;}.cls-5{fill:#d42728;}.cls-6{fill:none;}</style></defs><title>logo-</title><path class="cls-1" d="M514,163.57c-.94,1.88-1.62,3.88-3.16,5.43-3.11,3.13-7,4.37-11.22,5A28.77,28.77,0,0,1,483,171.93a18.76,18.76,0,0,1-8.35-7.27c-.58-.94-.45-1.39.55-1.71a1.26,1.26,0,0,0,.43-.22c1.34-1.06,2.08-.64,3.06.74,3.24,4.51,8,6.48,13.32,7.12a22.6,22.6,0,0,0,12.7-1.85,8.91,8.91,0,0,0,5.16-10.44,7.75,7.75,0,0,0-4.17-5c-3.38-1.86-7.14-2.5-10.85-3.25a64.85,64.85,0,0,1-11.64-2.93c-3.51-1.4-6.42-3.49-7.38-7.42a11.78,11.78,0,0,1,5.49-13.12c4.41-2.71,9.29-3.35,14.34-3.26,4.52.08,8.84.8,12.56,3.64a21.27,21.27,0,0,1,3.79,3.91c.5.64.54,1-.25,1.49-2.17,1.34-2.14,1.38-3.78-.55a12,12,0,0,0-6-3.84,25.28,25.28,0,0,0-15.32.27c-3.14,1.08-5.77,2.84-6.79,6.27a6.77,6.77,0,0,0,3.54,8.52c3.56,1.89,7.51,2.4,11.37,3.21,2.35.49,4.71,1,7.05,1.52,5.56,1.34,10.35,3.68,12.17,9.72Z"/><path class="cls-2" d="M221.57,19.13a4.4,4.4,0,0,1,1.6,4.05c-.13,1.54,0,3.1,0,4.65a2.55,2.55,0,0,1-2.71,2.74c-2,.05-4,.05-5.94,0a2.56,2.56,0,0,1-2.75-2.86c0-1.45.09-2.9,0-4.33a4.78,4.78,0,0,1,1.51-4.25Z"/><path class="cls-3" d="M136.66,173.5l-.34,0V124h.32Q136.66,148.75,136.66,173.5Z"/><path class="cls-1" d="M312.31,85.7c-1.6,0-2.94-.83-4.34-1.41-3.7-1.53-7.37-3.13-11.43-3.51a15.45,15.45,0,0,0-9.15,1.76c-6.15,3.47-10.61,8.3-11.63,15.6-.55,3.93.53,7.64,2,11.23,2.63,6.33,6.67,11.81,10.48,17.43,3.34,4.92,6.53,9.9,8,15.76a25.43,25.43,0,0,1-22.54,31.68c-15.51,1.29-28.73-11.52-27.64-26.77a25.56,25.56,0,0,1,23.2-24,2.44,2.44,0,0,1,2.81,1.36c1.67,3,3.56,5.83,5.49,8.93-1.28-.28-2.38-.57-3.49-.74a16.11,16.11,0,0,0-5.22,31.8c12.34,1.94,22.11-9.68,17.77-21.92a43.12,43.12,0,0,0-5.12-9.23c-3.78-5.76-7.69-11.45-10.24-17.92a50.59,50.59,0,0,1-3-11.6,10.27,10.27,0,0,0-6.12-8.41,29.23,29.23,0,0,0-24.11-.75,9.22,9.22,0,0,0-3.95,2.93,11.61,11.61,0,0,1-4.34,3.23,7.86,7.86,0,0,0-3.41,2.49c0-3.44,3.85-3.62,4.52-6.18-.07-.07-.17-.21-.22-.19C225,99.1,219,98.59,213.24,99.79c-5.18,1.09-9.13,3.76-11.52,8.56.2-5.36,4.12-7.71,8.51-10a21.14,21.14,0,0,0-9.9-1.24c-3.58.33-7,1.49-10.56,1.88-2.58.28-5.14-.23-6.34-2.07,3.81.63,7.47.66,11-1-.65-1.06-2.3-1-2.41-2.51l0,0c4,2,8.29,1.09,12.44,1.58,2.39.28,4.65,1.26,7.08,1.33,1.94.06,2.06-.12,1.29-1.92a6.7,6.7,0,0,0-1.94-2.51c-.7-.57-1.38-1.17-2.13-1.81,1.94-.17,3.72.57,6.31,2.89a9.6,9.6,0,0,0,7.78,2.68,26.43,26.43,0,0,0,3.95-.64c6.19-1.66,12.26-3.7,18.44-5.85A6.71,6.71,0,0,0,242,87.65a18.14,18.14,0,0,1-6.23-2.86,32.18,32.18,0,0,0-20.7-7.51,21.88,21.88,0,0,1,12.62-.12c.72.19,1.42.44,2.13.69,1.87.65,1.8.66,1.61-1.25a8,8,0,0,0-4.83-6.85,13.34,13.34,0,0,1-4.72-3.33l3.38.85c.72.17,1-.08,1.14-.87.23-1.79.65-3.57-.27-5.73a3.46,3.46,0,0,1,1.78,3c-.08,3.31,1.3,5.62,3.94,7.58,1.83,1.36,2.7,3.67,3.11,5.87,1.09,5.92,5.24,8,10.5,8.59,5.51.66,11.08.83,16.45,2.54,2.5.8,5,1.45,7.27,3.43,0-4.24.49-8.22-.61-12.14a6.2,6.2,0,0,0-4.06-4.41,16.82,16.82,0,0,1-5.8-3.35c-3.06-2.82-6.64-3.19-10.5-2.66-.69.1-1.38.16-2.37.28a8.1,8.1,0,0,1,5.68-3c3.12-.45,3.2-.56,1.41-3.15a19.06,19.06,0,0,0-5.08-4.64A14.56,14.56,0,0,1,246,57.19a15.62,15.62,0,0,1,10.34,6c1,1.31,1.94,2.69,2.94,4a10.86,10.86,0,0,0,6.91,4.31c1.18.22,1.67.06,1.27-1.32-.9-3.13-2.25-6.13-2.89-9.34-.33-1.68-.58-3.37-1-5a13.09,13.09,0,0,0-5.85-8.39c2.88,0,4.59,1.45,6.27,3.71,1.8-4.78,3.52-9.29,6.7-12.9,0,2.18-1.13,4.09-1.95,6.11a26.53,26.53,0,0,0-2,12.24l6.15-5.26c.26.71-.2,1.15-.45,1.62a9.06,9.06,0,0,1-2.16,2.78c-3.19,2.69-3.45,6-1.92,9.56,1,2.41,2,4.85,3.15,7.19a29.6,29.6,0,0,1,2.8,11.61c.05.9.17,1.8.29,3.08,1.65-2.12,3.25-3.9,4.53-5.88a4.45,4.45,0,0,0-.48-5.26,9.41,9.41,0,0,1-1.73-6c1,1.17,1.22,2.56,2.38,3.34,1.7,1.13,2.13,1,2.38-1,.35-2.91-.37-5.7-1-8.51a8.64,8.64,0,0,1,2.92,7c-.1,2.59-.42,5.18-.42,7.83,6.84-5.85,8.08-13.95,8.95-22.53a17.5,17.5,0,0,1,1,7.5,44,44,0,0,1-3.08,12.89c-.52,1.37-.22,1.78,1.22,1.77a33.57,33.57,0,0,0,7.36-.44,15,15,0,0,0,9-5.82,21.68,21.68,0,0,1,1.95-2.33c-1,4.18-3.7,7.2-6.94,10a29.4,29.4,0,0,1,9.68,6Z"/><path class="cls-1" d="M164.63,140.33v2c0,9.92,0,19.84,0,29.75,0,1.18-.23,1.57-1.47,1.51-2.3-.12-4.61-.07-6.91,0-.86,0-1.07-.25-1.07-1.08q0-23.73,0-47.44c0-1,.35-1.16,1.21-1.13,2.09.06,4.37-.48,6.21.2s2.68,2.93,3.93,4.51q9.49,12,18.93,24l1.16,1.42c.5-.54.28-1.15.28-1.69,0-8.84.06-17.69,0-26.53,0-1.62.47-2,2-1.89,2.13.13,4.29.07,6.43,0,.91,0,1.18.26,1.18,1.18q0,23.64,0,47.28c0,.85-.15,1.19-1.11,1.21-4.74.12-4.73.14-7.63-3.59C180.13,160.22,172.52,150.46,164.63,140.33Z"/><path class="cls-1" d="M204.88,148.73c0-7.72,0-15.44,0-23.16,0-1.31.39-1.57,1.62-1.56q16.32.06,32.64,0c1.24,0,1.54.34,1.48,1.52a59.61,59.61,0,0,0,0,6.27c.07,1.27-.4,1.47-1.54,1.47-7.67,0-15.34,0-23-.06-1.31,0-1.73.28-1.69,1.65.11,3.43.08,6.86,0,10.29,0,1.14.3,1.41,1.41,1.41,7.29-.06,14.58,0,21.87-.06,1.15,0,1.62.19,1.55,1.47a53.68,53.68,0,0,0,0,5.95c.06,1.18-.39,1.4-1.47,1.4-7.18,0-14.36,0-21.54-.06-1.55,0-1.84.47-1.82,1.88.08,5,0,10.07.06,15.11,0,1.07-.3,1.37-1.35,1.33-2.31-.08-4.62-.09-6.92,0-1.1.05-1.3-.36-1.3-1.36C204.89,164.38,204.88,156.56,204.88,148.73Z"/><path class="cls-1" d="M328.49,152.68c6-9.23,11.86-18.29,17.76-27.35.33-.51.47-1.33,1.22-1.37a23.21,23.21,0,0,1,4.17.06c.58.07.29.93.29,1.43q0,16.23,0,32.48c0,4.71,0,9.43,0,14.15,0,1.19-.27,1.69-1.49,1.47a3.09,3.09,0,0,0-1,0c-1.16.19-1.53-.2-1.52-1.45.07-7.66,0-15.33,0-23V129.83c-2,3-3.72,5.64-5.45,8.29L330,157.47c-1.12,1.71-1.72,1.7-2.88-.07q-8.37-12.74-16.75-25.47c-.37-.55-.6-1.24-1.28-1.6-.41.55-.21,1.16-.21,1.72q0,20,0,40c0,.49.42,1.36-.48,1.42a6.79,6.79,0,0,1-3.29-.18c-.15-.07-.11-.59-.11-.91,0-15.75,0-31.51,0-47.27,0-1,.36-1.13,1.28-1.26,2.46-.35,3.9.57,5.25,2.72,5,8,10.26,15.79,15.42,23.66C327.35,151,327.87,151.76,328.49,152.68Z"/><path class="cls-1" d="M426.82,148.74c0-7.77,0-15.54,0-23.3,0-1.11.14-1.58,1.44-1.55,5.73.1,11.46,0,17.19.13,13.23.41,22.85,10.13,23.3,23.39.25,7.5-1.74,14.18-7.2,19.55a22.87,22.87,0,0,1-15.78,6.53c-5.94.2-11.89,0-17.84.09-1.21,0-1.09-.61-1.09-1.38Q426.83,160.47,426.82,148.74Zm3.86,0c0,6.59,0,13.18,0,19.77,0,.91.11,1.32,1.19,1.3,3.86-.07,7.72,0,11.58,0,6.44,0,12.18-1.85,16.42-6.95,4.45-5.36,5.68-11.61,4.6-18.39a19.64,19.64,0,0,0-18-16.62c-4.87-.38-9.74-.07-14.61-.23-1.17,0-1.14.54-1.14,1.37C430.69,135.55,430.68,142.14,430.68,148.74Z"/><path class="cls-1" d="M381.43,132.86v2c0,12.33,0,24.66,0,37,0,1.4-.3,1.84-1.74,1.75-2.19-.13-2.2,0-2.2-2.2q0-22.92,0-45.84c0-.52-.37-1.29.35-1.55s1.46.08,2.05.8q15.68,19.36,31.41,38.68c.25.32.51.63,1,1.26v-2.09c0-12.38.05-24.77-.05-37.15,0-2.06,1.19-1.44,2.25-1.58,1.32-.18,1.67.26,1.67,1.62-.06,15.44,0,30.88-.06,46.32,0,.55.45,1.37-.38,1.66s-1.45-.26-2-.94q-13.08-16.08-26.19-32.14C385.64,138,383.68,135.62,381.43,132.86Z"/><path class="cls-1" d="M136.66,173.5q0-24.75,0-49.49c2.73,0,5.45,0,8.18-.1.88,0,1.15.33,1.05,1.13,0,.21,0,.43,0,.65,0,15.36,0,30.73,0,46.09,0,1.53-.45,1.87-1.86,1.8C141.59,173.45,139.12,173.51,136.66,173.5Z"/><path class="cls-4" d="M247.35,43.3c0,1.76,0,3.53,0,5.29a4.68,4.68,0,0,1-4.65,4.92c-3.74.1-7.49.1-11.23,0a4.82,4.82,0,0,1-4.74-4.9c0-3.64-.06-7.28,0-10.92a4.69,4.69,0,0,1,4.94-4.77q5.46,0,10.92,0a4.59,4.59,0,0,1,4.75,4.76C247.37,39.55,247.35,41.42,247.35,43.3Z"/><path class="cls-5" d="M301.58,28.72c1.39,0,2.79,0,4.18,0A3.48,3.48,0,0,1,309.45,32a55.66,55.66,0,0,1,0,9.31,3.48,3.48,0,0,1-3.7,3.27q-4.19.06-8.36,0a3.6,3.6,0,0,1-3.75-3.75q0-4.19,0-8.36a3.63,3.63,0,0,1,3.76-3.75C298.79,28.69,300.18,28.72,301.58,28.72Z"/><path class="cls-1" d="M362.8,148.77c0-7.82,0-15.65,0-23.47,0-1.13.29-1.44,1.42-1.4,2.92.1,2.43-.2,2.43,1.82q0,23.07,0,46.14c0,.55.35,1.46-.28,1.58a9.55,9.55,0,0,1-3.33,0c-.43-.07-.19-.86-.19-1.32C362.79,164.32,362.8,156.54,362.8,148.77Z"/><path class="cls-5" d="M181,85c0,1.07,0,2.14,0,3.21a3.26,3.26,0,0,1-3.42,3.58c-2.3,0-4.6.06-6.89,0a3.2,3.2,0,0,1-3.37-3.46q0-3.45,0-6.89A3.18,3.18,0,0,1,170.77,78c2.3,0,4.59-.05,6.89,0A3.2,3.2,0,0,1,181,81.45C181.06,82.63,181,83.8,181,85Z"/><path class="cls-4" d="M211.4,73.83c0,1,0,1.93,0,2.89a2.76,2.76,0,0,1-2.74,3q-3.19.15-6.41,0a2.9,2.9,0,0,1-2.8-3.12q-.12-2.8,0-5.61a3.1,3.1,0,0,1,3.29-3.19c1.77,0,3.53,0,5.3,0,2.24,0,3.33,1.14,3.37,3.36C211.41,72,211.4,72.92,211.4,73.83Z"/><path class="cls-5" d="M204.27,52.44c0-5.36.11-5.48,5.45-5.48h1.92c2.66,0,3.6.89,3.64,3.5a45.18,45.18,0,0,1-.08,4.8A2.63,2.63,0,0,1,212.26,58c-1.66,0-3.32,0-5,0-2,0-3-1.08-3-3.12C204.25,54,204.27,53.24,204.27,52.44Z"/><path class="cls-4" d="M265.6,25.83c0,5.11,0,5-5.05,5.13-4.69.11-5.14-.53-5.06-5.05.09-5,.08-5.08,5.13-5.08S265.6,20.83,265.6,25.83Z"/><path class="cls-5" d="M234.53,64c0-1,0-2,0-3a1.57,1.57,0,0,1,1.71-1.84c2.13,0,4.27,0,6.41,0a1.42,1.42,0,0,1,1.56,1.47c.06,2.24.06,4.49,0,6.73,0,1-.68,1.51-1.69,1.51h-6.25a1.55,1.55,0,0,1-1.76-1.77C234.54,66,234.53,65,234.53,64Z"/><path class="cls-5" d="M283.15,60c-4.76,0-5-.21-5-4.94s.19-5,4.92-5,5,.26,5,4.95S287.87,60,283.15,60Z"/><path class="cls-4" d="M308.48,62.81c0,4.67-.23,4.89-4.84,4.89-4.85,0-5.07-.21-5.07-5.05,0-4.59.33-4.92,4.9-4.92C308.27,57.73,308.48,57.94,308.48,62.81Z"/><path class="cls-4" d="M223.49,86.27c0,4.1-.09,4.18-4.23,4.18h-1.44c-2,0-2.65-.69-2.67-2.7,0-1.07,0-2.14,0-3.2,0-1.89.71-2.56,2.63-2.6,1,0,1.93,0,2.89,0,2.2,0,2.81.65,2.82,2.88Z"/><path class="cls-2" d="M321.3,70.81c0,.59,0,1.18,0,1.77a2,2,0,0,1-2.08,2.16h-.16c-5.4.3-5.79-.1-5.49-5.52a2,2,0,0,1,2.2-2.21c.9,0,1.81,0,2.72,0,2.3,0,2.81.53,2.81,2.85Z"/><path class="cls-2" d="M191.34,89.57c0,3-.21,3.19-3.34,3.18-2.81,0-3.06-.28-3.06-3.48,0-2.71.26-2.91,3.6-2.91C191.1,86.36,191.34,86.63,191.34,89.57Z"/><path class="cls-2" d="M216.55,60.89c2.93,0,3,.12,3,3.23,0,2.81-.34,3.14-3.26,3.14s-3.14-.33-3.14-3.42C213.21,61,213.33,60.89,216.55,60.89Z"/><path class="cls-4" d="M319,80.72c0,2.68-.05,2.73-2.83,2.73s-2.82-.09-2.82-2.94c0-2.39.35-2.74,2.8-2.74C318.83,77.77,319,77.94,319,80.72Z"/><path class="cls-5" d="M246.69,77.36c-2.77,0-2.77,0-2.77-2.8,0-2.53,0-2.53,3.05-2.53,2.33,0,2.33,0,2.33,3.22C249.3,77.36,249.3,77.36,246.69,77.36Z"/><path class="cls-4" d="M277.28,62.28c0,2.81,0,2.81-2.77,2.81s-2.71,0-2.71-3.06c0-2.42,0-2.42,3.28-2.42C277.28,59.61,277.28,59.61,277.28,62.28Z"/><path class="cls-4" d="M278.64,38.29c0,2.44,0,2.44-2.47,2.44s-2.5,0-2.5-2.62c0-2.31,0-2.31,2.94-2.31C278.64,35.81,278.64,35.81,278.64,38.29Z"/><path class="cls-1" d="M312.29,85.73l.41.13c-.07,0-.13.1-.2.1s-.31,0-.19-.26Z"/><path class="cls-1" d="M192,93.41h-.21l0-.13.16.16Z"/><rect class="cls-6" x="136" y="18.81" width="377.68" height="164.39"/></svg>