<?xml version="1.0" encoding="utf-8"?>
<!-- Generator: Adobe Illustrator 24.0.1, SVG Export Plug-In . SVG Version: 6.00 Build 0)  -->
<svg version="1.1" id="Layer_1" xmlns="http://www.w3.org/2000/svg" xmlns:xlink="http://www.w3.org/1999/xlink" x="0px" y="0px"
	 viewBox="0 0 640 220" style="enable-background:new 0 0 640 220;" xml:space="preserve">
<style type="text/css">
	.st0{fill:#4481C2;}
	.st1{fill:#7CA7D4;}
	.st2{fill:#A1C0E0;}
	.st3{fill:#C7D9ED;}
	.st4{fill:#FFFFFF;}
</style>
<title>logo-</title>
<g>
	<g>
		<path class="st0" d="M288.4,176.5v-18.8c0-2,0.8-2.5,2.6-2.5h9c4.1,0,5.5,1.9,5.5,6.3c0,4.8-1.5,6.4-5.5,6.4h-10v8.7H288.4z
			 M300,166.3c3.3,0,3.8-1.7,3.8-4.9c0-3.1-0.6-4.8-3.8-4.8h-8.7c-1.2,0-1.2,0.6-1.2,1.3v8.4H300z"/>
		<path class="st0" d="M316,160.3c2.7,0,3.9,1.5,3.9,4.1v10c0,1.4-0.4,2.1-2.4,2.1h-6.2c-3.2,0-4.4-1.5-4.4-4.9
			c0-3.4,1.2-4.8,4.4-4.8h7v-2.7c0-1.2-0.6-2.4-2.3-2.4h-7.8v-1.4H316z M310.9,168.2c-2,0-2.3,1.4-2.3,3.4c0,2,0.3,3.5,2.3,3.5h6.7
			c0.5,0,0.8-0.4,0.8-0.7v-6.1H310.9z"/>
		<path class="st0" d="M322.6,175.1h9.3c1.9,0,2.3-1,2.3-2.6c0-1.9-1.2-2.2-4.5-3l-2.8-0.6c-2.7-0.6-4.6-1.5-4.6-4.6
			c0-2.5,1.6-3.9,4.1-3.9h8.4v1.4h-8.4c-1.8,0-2.4,0.8-2.4,2.5c0,2.2,1.1,2.7,3.5,3.2l2.9,0.7c3.6,0.8,5.4,1.3,5.4,4.3
			c0,2.5-0.9,4.1-4,4.1h-9.3V175.1z"/>
		<path class="st0" d="M337.7,175.1h9.3c1.9,0,2.3-1,2.3-2.6c0-1.9-1.2-2.2-4.5-3l-2.8-0.6c-2.7-0.6-4.6-1.5-4.6-4.6
			c0-2.5,1.6-3.9,4.1-3.9h8.4v1.4h-8.4c-1.8,0-2.4,0.8-2.4,2.5c0,2.2,1.1,2.7,3.5,3.2l2.9,0.7c3.6,0.8,5.4,1.3,5.4,4.3
			c0,2.5-0.9,4.1-4,4.1h-9.3V175.1z"/>
		<path class="st0" d="M358.4,176.5c-4.5,0-5.6-3.4-5.6-8c0-5.5,1.5-8.4,6.9-8.4c4,0,7,1.6,7,6.2c0,1.9-0.5,2.7-2.3,2.7h-9.9
			c0,2.8,0.5,6.1,3.9,6.1h7.9v1.4H358.4z M364.4,167.5c0.5,0,0.7-0.4,0.7-0.7v-0.2c0-4-2-5-5.3-5c-3.6,0-5.3,1.3-5.3,6H364.4z"/>
		<path class="st0" d="M369.5,162.9c0-1.6,0.5-2.6,2.2-2.6h6c3.4,0,4.7,1.8,4.7,5v11.2h-1.6v-11.2c0-2-0.6-3.5-3.1-3.5h-5.6
			c-0.6,0-1,0.1-1,1.2v13.6h-1.6V162.9z"/>
		<path class="st0" d="M391.9,176.5c-5.5,0-6.8-2.6-6.8-8.1c0-5.2,1.3-8.1,6.8-8.1h3.5c2.1,0,3.4,0.7,3.4,2.8v11.5
			c0,4.4-1.2,7.1-6.4,7.1h-6.2v-1.4h6.2c2.8,0,4.6-0.9,4.8-3.8H391.9z M397.2,163.1c0-0.8-0.4-1.3-1.4-1.3h-3.9
			c-4.3,0-5.2,2.1-5.2,6.7c0,4.9,0.9,6.7,5.2,6.7h5.3V163.1z"/>
		<path class="st0" d="M407.2,176.5c-4.5,0-5.6-3.4-5.6-8c0-5.5,1.5-8.4,6.9-8.4c4,0,7,1.6,7,6.2c0,1.9-0.5,2.7-2.3,2.7h-9.9
			c0,2.8,0.5,6.1,3.9,6.1h7.9v1.4H407.2z M413.1,167.5c0.5,0,0.7-0.4,0.7-0.7v-0.2c0-4-2-5-5.3-5c-3.6,0-5.3,1.3-5.3,6H413.1z"/>
		<path class="st0" d="M418.2,165.9c0-3.7,1.7-5.6,5.4-5.6h1.1v1.4h-1.1c-2.7,0-3.8,1.4-3.8,4.5v10.3h-1.6V165.9z"/>
		<path class="st0" d="M433.4,175h12.1c1.3,0,2.5-0.7,2.5-3.7c0-1.4-0.3-2.7-2.7-3.5l-8.5-2.9c-2.3-0.8-3.7-2-3.7-5
			c0-3.1,1.5-4.8,4.8-4.8h10.8v1.5h-10.8c-2.2,0-3.1,0.9-3.1,3.4c0,1.4,0.1,2.7,2.2,3.4l8.3,2.9c2.6,0.9,4.4,1.7,4.4,5.1
			c0,2.6-1,5.1-4.3,5.1h-12.1V175z"/>
		<path class="st0" d="M468.1,168.4c0,5.8-2.2,8.3-8,8.3c-5.8,0-8-2.5-8-8.3c0-5.8,2.2-8.2,8-8.2
			C465.9,160.1,468.1,162.6,468.1,168.4z M460.1,175.2c4.6,0,6.4-1.7,6.4-6.9c0-5.2-1.8-6.8-6.4-6.8c-4.6,0-6.4,1.6-6.4,6.8
			C453.7,173.6,455.5,175.2,460.1,175.2z"/>
		<path class="st0" d="M470.8,155.1h1.6v21.4h-1.6V155.1z"/>
		<path class="st0" d="M488.7,173.9c0,1.6-0.5,2.6-2.2,2.6h-6.1c-3.4,0-4.7-1.8-4.7-5v-11.2h1.6v11.2c0,2,0.6,3.5,3.1,3.5h5.7
			c0.6,0,1-0.1,1-1.2v-13.6h1.6V173.9z"/>
		<path class="st0" d="M497.2,176.5c-4.4,0-4.4-2.6-4.4-5.1v-9.6h-2.5v-1.4h2.5v-5.2h1.6v5.2h4.3v1.4h-4.3v10.1
			c0,2.5,0.7,3.2,3.2,3.2h1.2v1.4H497.2z"/>
		<path class="st0" d="M500.4,157.5v-2.4h1.7v2.4H500.4z M500.5,160.3h1.6v16.2h-1.6V160.3z"/>
		<path class="st0" d="M520.9,168.4c0,5.8-2.2,8.3-8,8.3c-5.8,0-8-2.5-8-8.3c0-5.8,2.2-8.2,8-8.2
			C518.7,160.1,520.9,162.6,520.9,168.4z M512.9,175.2c4.6,0,6.4-1.7,6.4-6.9c0-5.2-1.8-6.8-6.4-6.8s-6.4,1.6-6.4,6.8
			C506.5,173.6,508.3,175.2,512.9,175.2z"/>
		<path class="st0" d="M523.6,162.9c0-1.6,0.5-2.6,2.2-2.6h6c3.4,0,4.7,1.8,4.7,5v11.2h-1.6v-11.2c0-2-0.6-3.5-3.1-3.5h-5.6
			c-0.6,0-1,0.1-1,1.2v13.6h-1.6V162.9z"/>
		<path class="st0" d="M539.1,175.1h9.3c1.9,0,2.3-1,2.3-2.6c0-1.9-1.2-2.2-4.5-3l-2.8-0.6c-2.7-0.6-4.6-1.5-4.6-4.6
			c0-2.5,1.6-3.9,4.1-3.9h8.4v1.4H543c-1.8,0-2.4,0.8-2.4,2.5c0,2.2,1.1,2.7,3.5,3.2l2.9,0.7c3.6,0.8,5.4,1.3,5.4,4.3
			c0,2.5-0.9,4.1-4,4.1h-9.3V175.1z"/>
	</g>
	<path class="st0" d="M313.5,113.6c0,10.7-8.8,19.5-19.5,19.5h-7.7c-10.7,0-19.5-8.8-19.5-19.5v-22c0-10.7,8.8-19.5,19.5-19.5h7.7
		c10.7,0,19.5,8.8,19.5,19.5V113.6z"/>
	<path class="st0" d="M373.2,113.6c0,10.7-8.8,19.5-19.5,19.5H346c-10.7,0-19.5-8.8-19.5-19.5v-22c0-10.7,8.8-19.5,19.5-19.5h7.7
		c10.7,0,19.5,8.8,19.5,19.5V113.6z"/>
	<path class="st0" d="M432.9,113.6c0,10.7-8.8,19.5-19.5,19.5h-7.7c-10.7,0-19.5-8.8-19.5-19.5v-22c0-10.7,8.8-19.5,19.5-19.5h7.7
		c10.7,0,19.5,8.8,19.5,19.5V113.6z"/>
	<path class="st0" d="M492.7,113.6c0,10.7-8.8,19.5-19.5,19.5h-7.7c-10.7,0-19.5-8.8-19.5-19.5v-22c0-10.7,8.8-19.5,19.5-19.5h7.7
		c10.7,0,19.5,8.8,19.5,19.5V113.6z"/>
	<path class="st0" d="M552.4,113.6c0,10.7-8.8,19.5-19.5,19.5h-7.7c-10.7,0-19.5-8.8-19.5-19.5v-22c0-10.7,8.8-19.5,19.5-19.5h7.7
		c10.7,0,19.5,8.8,19.5,19.5V113.6z"/>
	<path class="st1" d="M253.7,113.6c0,10.7-8.8,19.5-19.5,19.5h-7.7c-10.7,0-19.5-8.8-19.5-19.5v-22c0-10.7,8.8-19.5,19.5-19.5h7.7
		c10.7,0,19.5,8.8,19.5,19.5V113.6z"/>
	<path class="st2" d="M194,113.6c0,10.7-8.8,19.5-19.5,19.5h-7.7c-10.7,0-19.5-8.8-19.5-19.5v-22c0-10.7,8.8-19.5,19.5-19.5h7.7
		c10.7,0,19.5,8.8,19.5,19.5V113.6z"/>
	<path class="st3" d="M134.2,113.6c0,10.7-8.8,19.5-19.5,19.5h-7.7c-10.7,0-19.5-8.8-19.5-19.5v-22c0-10.7,8.8-19.5,19.5-19.5h7.7
		c10.7,0,19.5,8.8,19.5,19.5V113.6z"/>
	<path class="st4" d="M304,109.6c0,4.8-1.3,8.6-7.2,8.6h-16c-2.7,0-4.6-1.1-4.6-4.7V91.6c0-3.6,1.9-4.7,4.6-4.7h16
		c4.5,0,6.8,3,6.8,8.6c0,3.4-1,6.2-4.4,6.7v0.2C302.8,102.7,304,105.6,304,109.6z M282.1,100.1H294c2.6,0,3.4-1.2,3.4-4.3
		c0-2.7-0.8-4.2-3.5-4.2h-9.6c-1.8,0-2.2,0.4-2.2,2.2V100.1z M282.1,111.3c0,1.8,0.4,2.2,2.2,2.2h9.3c3.1,0,4.2-1.2,4.2-4.3
		c0-3.1-1.2-4.5-3.8-4.5h-12V111.3z"/>
	<path class="st4" d="M335.5,118.2V91.6c0-3.6,1.9-4.7,4.6-4.7h15.8c5.8,0,7.8,3.6,7.8,9.9c0,6.4-2,10.5-7.2,10.5h-3.1v0.2l11,10.7
		h-7.6l-10.1-10.1c-0.7-0.7-1.5-1.7-1.5-2.6v-0.7c0-1.3,0.9-2.1,2.6-2.1h6.1c3.3,0,3.8-2.2,3.8-5.8s-0.7-5.2-4.4-5.2h-9.5
		c-1.8,0-2.2,0.4-2.2,2.2v24.4H335.5z"/>
	<path class="st4" d="M404.5,90.1c1.1-2.6,2.3-3.5,5.1-3.5c2.7,0,4,0.9,5.1,3.5l11.8,28.1h-6.2l-3.2-7.9H402l-3.2,7.9h-6.2
		L404.5,90.1z M403.6,106.1h12l-5.1-12.7c-0.2-0.5-0.5-1.3-0.9-1.3c-0.4,0-0.7,0.8-0.9,1.3L403.6,106.1z"/>
	<path class="st4" d="M468.7,112.2c0.1,0.2,0.3,0.7,0.7,0.7c0.4,0,0.5-0.4,0.7-0.7l9.3-25.3h6.4l-11.4,28.3
		c-0.7,1.7-1.9,3.4-5.1,3.4c-3.1,0-4.4-1.7-5.1-3.4l-11.4-28.3h6.4L468.7,112.2z"/>
	<path class="st4" d="M545.1,102.6c0,12.7-4.4,16-16.1,16c-11.6,0-16-3.4-16-16c0-12.7,4.5-16,16-16
		C540.7,86.6,545.1,89.9,545.1,102.6z M529.1,113.9c7.7,0,10-2.4,10-11.3s-2.3-11.3-10-11.3c-7.7,0-10,2.4-10,11.3
		S521.4,113.9,529.1,113.9z"/>
</g>
</svg>
