<svg id="Layer_1" data-name="Layer 1" xmlns="http://www.w3.org/2000/svg" viewBox="0 0 640 220"><defs><style>.cls-1{fill:#e51e25;}.cls-2{fill:#fff;fill-rule:evenodd;}</style></defs><title>logo-</title><path id="_Path_" data-name="&lt;Path&gt;" class="cls-1" d="M372.22,31.39H232.86V188.61H407.14V66.31A34.92,34.92,0,0,0,372.22,31.39Z"/><g id="_Group_" data-name="&lt;Group&gt;"><path id="_Path_2" data-name="&lt;Path&gt;" class="cls-2" d="M282.21,137.56v-9.88s-12.82-2.23-14.44,7.62a37.93,37.93,0,0,0-.32,4.88h-2.58v9h2.57v22h10.4v-31.1S277.59,137.56,282.21,137.56Z"/><polygon id="_Path_3" data-name="&lt;Path&gt;" class="cls-2" points="250.33 171.13 260.69 171.13 260.69 140.17 250.32 140.17 250.33 171.13"/><path id="_Path_4" data-name="&lt;Path&gt;" class="cls-2" d="M250.32,136.2H260.7v-8.74s-4.64.07-7.59,2.66A8.24,8.24,0,0,0,250.32,136.2Z"/><path id="_Path_5" data-name="&lt;Path&gt;" class="cls-2" d="M388.81,161.37a5.23,5.23,0,1,0,.08,10.46,5.23,5.23,0,0,0-.08-10.46Z"/><path id="_Path_6" data-name="&lt;Path&gt;" class="cls-2" d="M383.67,139.8c-6.2-.65-10.51.59-12.62,3.13-2.66,3.19-2.34,7.93-2.34,7.93v20.27h10.37v-19s0-1.45.94-2a8.43,8.43,0,0,1,3.65-.54Z"/><path id="_Path_7" data-name="&lt;Path&gt;" class="cls-2" d="M327.36,160.1V127.45H317v34c0,5.51,2.36,8.53,5.9,9.77,3.84,1.34,8.87-.06,8.87-.06v-9.34s-1.55-.06-2-.06A2.41,2.41,0,0,1,327.36,160.1Z"/><path id="_Compound_Path_" data-name="&lt;Compound Path&gt;" class="cls-2" d="M297.13,139.47c-10.1,0-16.05,8.65-16.05,16.16a16.13,16.13,0,0,0,32.26.4C313.34,146.25,306,139.47,297.13,139.47Zm.08,22a5.73,5.73,0,0,1-5.76-5.54,5.62,5.62,0,0,1,5.68-6,5.72,5.72,0,0,1,5.8,5.55A5.66,5.66,0,0,1,297.21,161.46Z"/><path id="_Compound_Path_2" data-name="&lt;Compound Path&gt;" class="cls-2" d="M349,139.47c-10.11,0-16.06,8.65-16.06,16.16a16.13,16.13,0,0,0,32.26.4C365.18,146.25,357.84,139.47,349,139.47Zm.13,22a5.74,5.74,0,0,1-5.77-5.54,5.63,5.63,0,0,1,5.69-6,5.76,5.76,0,1,1,.08,11.52Z"/></g></svg>