<?xml version="1.0" encoding="utf-8"?>
<!-- Generator: Adobe Illustrator 22.0.0, SVG Export Plug-In . SVG Version: 6.00 Build 0)  -->
<svg version="1.1" id="Layer_1" xmlns="http://www.w3.org/2000/svg" xmlns:xlink="http://www.w3.org/1999/xlink" x="0px" y="0px"
	 viewBox="0 0 395 66" style="enable-background:new 0 0 395 66;" xml:space="preserve">
<style type="text/css">
	.st0{fill:#484848;}
	.st1{fill:#5CA8F3;}
</style>
<g>
	<g>
		<path class="st0" d="M122.6,15.9h7.2l8.7,13.5l8.7-13.5h7.1l-12.7,19.7v12.9h-6.4V35.6L122.6,15.9z"/>
		<path class="st0" d="M186.1,15.4c9.8,0,17.5,7.3,17.5,16.7c0,9.5-7.8,16.9-17.5,16.9c-9.8,0-17.5-7.6-17.5-16.9
			C168.7,22.6,176.4,15.4,186.1,15.4z M186.1,43.5c6.1,0,11.1-5.2,11.1-11.4s-4.9-11.3-11.1-11.3c-6.1,0-11.1,5-11.1,11.3
			S180,43.5,186.1,43.5z"/>
		<path class="st0" d="M230.4,15.9l16.7,23v-23h6.4v32.7h-6.9l-16.5-22.8v22.8h-6.4V15.9H230.4z"/>
		<path class="st0" d="M287.1,15.9c10.2,0,17.1,6.9,17.1,16.3c0,9.8-7,16.3-17.1,16.3h-13.6V15.9H287.1z M287.1,43.3
			c6.2,0,10.7-4.7,10.7-11.1c0-6.6-4.3-11.1-10.7-11.1h-7.2v22.2H287.1z"/>
		<path class="st0" d="M348.3,15.9V21h-18.4v8.6h16v5h-16v8.6h18.4v5.2h-24.8V15.9H348.3z"/>
		<path class="st0" d="M366.8,48.5V15.9h15.7c6.8,0,11.5,4.7,11.5,10.9c0,4.6-2.8,8.7-7.4,10.1l8.3,11.7h-7.3L380,37.6h-6.8v10.9
			H366.8z M373.2,32.4h8.5c4.2,0,6.2-2.5,6.2-5.6c0-3.4-2.2-5.6-6.2-5.6h-8.5V32.4z"/>
	</g>
	<g>
		<path class="st1" d="M38.9,66H6.7l15.8-27.1L0,0h32.5L39,10.8L45.3,0h32L50.8,44.1L28.6,6.9H11.9l31.3,53.9L38.9,66z M18.7,59.1
			h15.5l-7.7-13.4L18.7,59.1z M43,17.6l7.8,13.1L65.1,6.9H49.2L43,17.6z"/>
	</g>
</g>
</svg>
