<svg id="Layer_1" data-name="Layer 1" xmlns="http://www.w3.org/2000/svg" viewBox="0 0 640 220"><defs><style>.cls-1{fill:#e03a3e;fill-rule:evenodd;}.cls-2{fill:#fff;}</style></defs><title>logo-</title><path class="cls-1" d="M463.15,138.09c-11.35,0-22.22-4.33-22.22-16.54h14c.08,3.46,2.45,7.09,8.59,7.09,5.44,0,8-2.92,8-6.07,0-2.36-1.1-4.25-7.09-6l-9.3-2.75c-4.17-1.19-13.16-4.1-13.16-14.66C442,89,451.09,83.1,463.54,83.1c11.58,0,21,4.73,21.27,15.44H470.87c-.32-5.83-5-6.14-7.41-6.14-4.17,0-7.25,1.81-7.25,4.88,0,3.55,2.37,4.65,6.86,5.91l9.38,2.68c5.27,1.57,13.47,4.81,13.47,14.81,0,9.06-7,17.41-22.77,17.41Zm-49.64,0c-11.34,0-22.21-4.33-22.21-16.54h14c.08,3.46,2.52,7.09,8.59,7.09,5.51,0,7.95-2.92,7.95-6.07,0-2.36-1.1-4.25-7.09-6l-9.29-2.75c-4.26-1.19-13.16-4.1-13.16-14.66,0-10.16,9.14-16.07,21.59-16.07,11.66,0,21,4.73,21.27,15.44H421.23c-.31-5.83-5-6.14-7.48-6.14-4.1,0-7.25,1.81-7.25,4.88,0,3.55,2.36,4.65,6.93,5.91l9.38,2.68c5.28,1.57,13.39,4.81,13.39,14.81,0,9.06-6.93,17.41-22.69,17.41ZM371,84.36h13.71V136.6H371V84.36ZM351,136.6H336.38L326.06,99.65,315.74,136.6H301.16L284.78,84.36h14.1l9.61,36.32,10-36.32h15.12l10,36.32,9.53-36.32h13.55L351,136.6Zm-89.1,1.49c-11.27,0-22.22-4.33-22.22-16.54h14.1c.08,3.46,2.45,7.09,8.51,7.09,5.52,0,8-2.92,8-6.07,0-2.36-1.18-4.25-7.09-6l-9.38-2.75c-4.25-1.19-13.08-4.1-13.08-14.66,0-10.16,9.06-16.07,21.51-16.07,11.58,0,21,4.73,21.27,15.44H269.65c-.32-5.83-5.12-6.14-7.49-6.14-4.09,0-7.17,1.81-7.17,4.88,0,3.55,2.37,4.65,6.86,5.91l9.37,2.68c5.2,1.57,13.48,4.81,13.48,14.81,0,9.06-6.94,17.41-22.77,17.41Z"/><polygon class="cls-1" points="230.88 67.89 184.82 67.89 116.08 152.11 209.99 152.11 230.88 67.89"/><polygon class="cls-2" points="195.06 102.99 195.06 84.3 180.52 84.3 180.52 102.99 161.83 102.99 161.83 117.53 180.52 117.53 180.52 136.22 195.06 136.22 195.06 117.53 213.74 117.53 213.74 102.99 195.06 102.99"/></svg>