<?xml version="1.0" encoding="utf-8"?>
<!-- Generator: Adobe Illustrator 24.1.2, SVG Export Plug-In . SVG Version: 6.00 Build 0)  -->
<svg version="1.1" id="Layer_1" xmlns="http://www.w3.org/2000/svg" xmlns:xlink="http://www.w3.org/1999/xlink" x="0px" y="0px"
	 viewBox="0 0 636.8 78.6" style="enable-background:new 0 0 636.8 78.6;" xml:space="preserve">
<style type="text/css">
	.st0{fill:#484848;}
	.st1{fill:#0063FF;}
</style>
<path class="st0" d="M11.5,16.8V23h0.3c1.5-2.6,3.5-4.4,6-5.6c2.4-1.2,5-1.8,7.5-1.8c3.3,0,5.9,0.4,8,1.3c2.1,0.9,3.7,2.1,4.9,3.7
	c1.2,1.6,2,3.5,2.5,5.7c0.5,2.3,0.7,4.7,0.7,7.5v27.2H29.3v-25c0-3.6-0.6-6.4-1.7-8.2c-1.1-1.8-3.2-2.7-6.1-2.7c-3.3,0-5.7,1-7.2,3
	c-1.5,2-2.2,5.2-2.2,9.7v23.2H0V16.8H11.5z"/>
<path class="st0" d="M62.6,50.1c0.5,0.9,1.2,1.7,2.1,2.3c0.9,0.6,1.8,1,3,1.3c1.1,0.3,2.3,0.4,3.5,0.4c0.9,0,1.8-0.1,2.7-0.3
	c0.9-0.2,1.8-0.5,2.6-0.9c0.8-0.4,1.4-1,1.9-1.7c0.5-0.7,0.8-1.6,0.8-2.7c0-1.8-1.2-3.2-3.6-4.1c-2.4-0.9-5.8-1.8-10.1-2.7
	c-1.8-0.4-3.5-0.9-5.2-1.4c-1.7-0.5-3.2-1.3-4.5-2.1c-1.3-0.9-2.4-2-3.2-3.3c-0.8-1.3-1.2-3-1.2-4.9c0-2.9,0.6-5.2,1.7-7
	c1.1-1.8,2.6-3.3,4.4-4.3c1.8-1.1,3.9-1.8,6.2-2.2c2.3-0.4,4.6-0.6,7-0.6c2.4,0,4.7,0.2,7,0.7c2.3,0.5,4.3,1.2,6,2.3
	c1.8,1.1,3.2,2.5,4.4,4.3s1.9,4.1,2.1,6.8H78.5c-0.2-2.3-1.1-3.9-2.7-4.7c-1.6-0.8-3.5-1.2-5.6-1.2c-0.7,0-1.4,0-2.2,0.1
	c-0.8,0.1-1.5,0.3-2.2,0.6c-0.7,0.3-1.2,0.7-1.7,1.2c-0.5,0.5-0.7,1.3-0.7,2.2c0,1.1,0.4,2,1.2,2.7c0.8,0.7,1.8,1.2,3.1,1.7
	c1.3,0.4,2.8,0.8,4.4,1.2c1.7,0.3,3.3,0.7,5,1.1c1.8,0.4,3.5,0.9,5.2,1.5c1.7,0.6,3.2,1.3,4.5,2.3c1.3,0.9,2.4,2.1,3.2,3.5
	c0.8,1.4,1.2,3.1,1.2,5.2c0,2.9-0.6,5.3-1.8,7.3c-1.2,2-2.7,3.5-4.6,4.7c-1.9,1.2-4,2-6.5,2.5c-2.4,0.5-4.9,0.7-7.4,0.7
	c-2.6,0-5.1-0.3-7.5-0.8c-2.5-0.5-4.6-1.4-6.5-2.6c-1.9-1.2-3.5-2.8-4.7-4.7c-1.2-2-1.9-4.4-2-7.4h11.5C61.8,48,62.1,49.1,62.6,50.1
	"/>
<path class="st0" d="M111.9,16.8v6h0.2c1.6-2.3,3.5-4,5.8-5.3c2.3-1.3,4.8-1.9,7.7-1.9c2.8,0,5.3,0.5,7.7,1.6c2.3,1.1,4.1,3,5.3,5.7
	c1.3-1.9,3.1-3.6,5.3-5.1c2.3-1.5,4.9-2.2,8-2.2c2.3,0,4.5,0.3,6.5,0.9c2,0.6,3.7,1.5,5.1,2.7c1.4,1.3,2.5,2.9,3.3,4.9
	c0.8,2,1.2,4.5,1.2,7.3v29.6h-12.1V36c0-1.5-0.1-2.9-0.2-4.2c-0.1-1.3-0.4-2.5-0.9-3.4c-0.5-1-1.3-1.7-2.3-2.3
	c-1-0.6-2.4-0.9-4.1-0.9c-1.7,0-3.1,0.3-4.1,1c-1.1,0.7-1.9,1.5-2.5,2.6c-0.6,1.1-1,2.3-1.2,3.6c-0.2,1.3-0.3,2.7-0.3,4.1v24.6
	h-12.1V36.3c0-1.3,0-2.6-0.1-3.9c-0.1-1.3-0.3-2.5-0.7-3.5c-0.4-1.1-1.1-2-2.1-2.6c-1-0.7-2.5-1-4.4-1c-0.6,0-1.3,0.1-2.3,0.4
	c-0.9,0.3-1.9,0.7-2.7,1.5c-0.9,0.7-1.6,1.7-2.3,3.1c-0.6,1.3-0.9,3.1-0.9,5.3v25.7h-12.1V16.8H111.9z"/>
<rect x="179.8" y="47.9" class="st1" width="13.4" height="13.2"/>
<path class="st0" d="M209.2,46.5c0.5,2.1,1.4,3.9,2.6,5.6c1.2,1.7,2.7,3,4.5,4.1c1.8,1.1,4,1.6,6.6,1.6c3.9,0,7-1,9.2-3.1
	c2.2-2.1,3.8-4.8,4.6-8.2h5.4c-1.1,5-3.2,8.9-6.3,11.6c-3.1,2.7-7.4,4.1-13,4.1c-3.5,0-6.5-0.6-9-1.8c-2.5-1.2-4.6-2.9-6.2-5
	c-1.6-2.1-2.8-4.6-3.5-7.4c-0.8-2.8-1.2-5.8-1.2-8.9c0-2.9,0.4-5.8,1.2-8.6c0.8-2.8,2-5.3,3.5-7.5c1.6-2.2,3.7-4,6.2-5.3
	c2.5-1.3,5.5-2,9-2c3.5,0,6.6,0.7,9.1,2.1c2.5,1.4,4.5,3.3,6.1,5.6c1.6,2.3,2.7,5,3.4,8c0.7,3,1,6,0.9,9.1h-34
	C208.4,42.4,208.7,44.4,209.2,46.5 M235.9,30c-0.7-1.9-1.6-3.5-2.8-5c-1.2-1.5-2.7-2.6-4.4-3.5c-1.7-0.9-3.7-1.3-5.8-1.3
	c-2.2,0-4.2,0.4-5.9,1.3c-1.7,0.9-3.2,2.1-4.4,3.5c-1.2,1.5-2.2,3.1-2.9,5c-0.7,1.9-1.2,3.9-1.4,5.9H237
	C236.9,33.9,236.6,31.9,235.9,30"/>
<path class="st0" d="M256.7,16.9v7.6h0.2c1-2.7,2.9-4.8,5.5-6.5c2.6-1.6,5.5-2.4,8.6-2.4c3.1,0,5.7,0.4,7.7,1.2
	c2.1,0.8,3.7,1.9,5,3.4c1.3,1.5,2.1,3.2,2.6,5.3c0.5,2.1,0.8,4.5,0.8,7.1v28.4h-5.4V33.5c0-1.9-0.2-3.6-0.5-5.3
	c-0.3-1.6-0.9-3-1.8-4.2c-0.9-1.2-2-2.1-3.5-2.8c-1.5-0.7-3.3-1-5.4-1c-2.2,0-4.1,0.4-5.8,1.2c-1.7,0.8-3.1,1.8-4.3,3.2
	c-1.2,1.3-2.1,2.9-2.7,4.8c-0.7,1.9-1,3.9-1.1,6v25.7h-5.4V16.9H256.7z"/>
<path class="st0" d="M335.2,66.3c-0.7,2.6-1.8,4.8-3.4,6.7c-1.5,1.8-3.5,3.2-6,4.2c-2.5,1-5.5,1.5-9.1,1.5c-2.2,0-4.4-0.3-6.5-0.8
	c-2.1-0.5-4-1.3-5.7-2.4c-1.7-1.1-3.1-2.5-4.2-4.1c-1.1-1.7-1.8-3.7-1.9-6h5.4c0.3,1.7,0.8,3,1.7,4.1c0.8,1.1,1.8,2,3,2.7
	c1.2,0.7,2.5,1.2,3.9,1.5c1.4,0.3,2.9,0.5,4.4,0.5c5,0,8.6-1.4,10.9-4.3c2.2-2.9,3.3-7,3.3-12.3v-6h-0.2c-1.3,2.7-3.1,4.9-5.5,6.6
	c-2.4,1.7-5.3,2.5-8.5,2.5c-3.5,0-6.6-0.6-9.1-1.8c-2.5-1.2-4.6-2.8-6.2-4.8c-1.6-2.1-2.8-4.5-3.6-7.2c-0.7-2.8-1.1-5.7-1.1-8.9
	c0-3,0.4-5.9,1.3-8.6c0.9-2.7,2.2-5.1,3.8-7.1c1.7-2,3.8-3.6,6.2-4.8c2.5-1.2,5.3-1.8,8.5-1.8c1.7,0,3.2,0.2,4.7,0.7
	c1.5,0.5,2.8,1.1,4,1.9c1.2,0.8,2.3,1.8,3.2,2.9c0.9,1.1,1.7,2.2,2.2,3.4h0.2v-7.6h5.4v40.5C336.3,60.7,335.9,63.7,335.2,66.3
	 M322.9,54.5c1.8-1,3.3-2.3,4.4-3.9c1.2-1.6,2.1-3.5,2.7-5.6c0.6-2.1,0.9-4.3,0.9-6.5c0-2.2-0.3-4.3-0.8-6.5
	c-0.5-2.2-1.3-4.1-2.5-5.9c-1.1-1.8-2.6-3.2-4.4-4.3c-1.8-1.1-4-1.6-6.5-1.6c-2.6,0-4.8,0.5-6.6,1.6c-1.8,1.1-3.3,2.4-4.5,4.1
	c-1.2,1.7-2.1,3.7-2.6,5.9c-0.5,2.2-0.8,4.4-0.8,6.7c0,2.2,0.3,4.4,0.9,6.5c0.6,2.1,1.5,4,2.7,5.6c1.2,1.6,2.7,2.9,4.5,3.9
	c1.8,1,4,1.5,6.5,1.5C319,56,321.1,55.5,322.9,54.5"/>
<path class="st0" d="M353.7,8.6h-5.4V0h5.4V8.6z M353.7,61.1h-5.4V16.9h5.4V61.1z"/>
<path class="st0" d="M371.1,16.9v7.6h0.2c1-2.7,2.9-4.8,5.5-6.5c2.6-1.6,5.5-2.4,8.6-2.4c3.1,0,5.7,0.4,7.7,1.2
	c2.1,0.8,3.7,1.9,5,3.4c1.3,1.5,2.1,3.2,2.6,5.3c0.5,2.1,0.8,4.5,0.8,7.1v28.4h-5.4V33.5c0-1.9-0.2-3.6-0.5-5.3
	c-0.3-1.6-0.9-3-1.8-4.2c-0.9-1.2-2-2.1-3.5-2.8c-1.5-0.7-3.3-1-5.4-1c-2.2,0-4.1,0.4-5.8,1.2c-1.7,0.8-3.1,1.8-4.3,3.2
	c-1.2,1.3-2.1,2.9-2.7,4.8c-0.7,1.9-1,3.9-1.1,6v25.7h-5.4V16.9H371.1z"/>
<path class="st0" d="M417.4,46.5c0.5,2.1,1.4,3.9,2.6,5.6c1.2,1.7,2.7,3,4.5,4.1c1.8,1.1,4,1.6,6.6,1.6c3.9,0,7-1,9.2-3.1
	c2.2-2.1,3.8-4.8,4.6-8.2h5.4c-1.1,5-3.2,8.9-6.3,11.6c-3.1,2.7-7.4,4.1-13,4.1c-3.5,0-6.5-0.6-9-1.8c-2.5-1.2-4.6-2.9-6.2-5
	c-1.6-2.1-2.8-4.6-3.5-7.4c-0.8-2.8-1.2-5.8-1.2-8.9c0-2.9,0.4-5.8,1.2-8.6c0.8-2.8,2-5.3,3.5-7.5c1.6-2.2,3.7-4,6.2-5.3
	c2.5-1.3,5.5-2,9-2c3.5,0,6.6,0.7,9.1,2.1c2.5,1.4,4.5,3.3,6.1,5.6c1.6,2.3,2.7,5,3.4,8c0.7,3,1,6,0.9,9.1h-34
	C416.6,42.4,416.9,44.4,417.4,46.5 M444.1,30c-0.7-1.9-1.6-3.5-2.8-5c-1.2-1.5-2.7-2.6-4.4-3.5c-1.7-0.9-3.7-1.3-5.8-1.3
	c-2.2,0-4.2,0.4-5.9,1.3c-1.7,0.9-3.2,2.1-4.4,3.5c-1.2,1.5-2.2,3.1-2.9,5c-0.7,1.9-1.2,3.9-1.4,5.9h28.6
	C445.1,33.9,444.8,31.9,444.1,30"/>
<path class="st0" d="M463.5,46.5c0.5,2.1,1.4,3.9,2.6,5.6c1.2,1.7,2.7,3,4.5,4.1c1.8,1.1,4,1.6,6.6,1.6c3.9,0,7-1,9.2-3.1
	c2.2-2.1,3.8-4.8,4.6-8.2h5.4c-1.1,5-3.2,8.9-6.3,11.6c-3.1,2.7-7.4,4.1-13,4.1c-3.5,0-6.5-0.6-9-1.8c-2.5-1.2-4.6-2.9-6.2-5
	c-1.6-2.1-2.8-4.6-3.5-7.4c-0.8-2.8-1.2-5.8-1.2-8.9c0-2.9,0.4-5.8,1.2-8.6c0.8-2.8,2-5.3,3.5-7.5c1.6-2.2,3.7-4,6.2-5.3
	c2.5-1.3,5.5-2,9-2c3.5,0,6.6,0.7,9.1,2.1c2.5,1.4,4.5,3.3,6.1,5.6c1.6,2.3,2.7,5,3.4,8c0.7,3,1,6,0.9,9.1h-34
	C462.7,42.4,463,44.4,463.5,46.5 M490.2,30c-0.7-1.9-1.6-3.5-2.8-5c-1.2-1.5-2.7-2.6-4.4-3.5c-1.7-0.9-3.7-1.3-5.8-1.3
	c-2.2,0-4.2,0.4-5.9,1.3c-1.7,0.9-3.2,2.1-4.4,3.5c-1.2,1.5-2.2,3.1-2.9,5c-0.7,1.9-1.2,3.9-1.4,5.9h28.6
	C491.2,33.9,490.9,31.9,490.2,30"/>
<path class="st0" d="M510.6,16.9v10.3h0.2c1.4-3.6,3.5-6.4,6.4-8.3c2.9-1.9,6.3-2.8,10.3-2.7v5.4c-2.5-0.1-4.7,0.2-6.7,1
	c-2,0.8-3.7,1.9-5.2,3.3c-1.5,1.4-2.6,3.1-3.4,5.1c-0.8,2-1.2,4.1-1.2,6.5v23.5h-5.4V16.9H510.6z"/>
<path class="st0" d="M539.8,8.6h-5.4V0h5.4V8.6z M539.8,61.1h-5.4V16.9h5.4V61.1z"/>
<path class="st0" d="M557.1,16.9v7.6h0.2c1-2.7,2.9-4.8,5.5-6.5c2.6-1.6,5.5-2.4,8.6-2.4c3.1,0,5.7,0.4,7.7,1.2
	c2.1,0.8,3.7,1.9,5,3.4c1.3,1.5,2.1,3.2,2.6,5.3c0.5,2.1,0.8,4.5,0.8,7.1v28.4h-5.4V33.5c0-1.9-0.2-3.6-0.5-5.3
	c-0.3-1.6-0.9-3-1.8-4.2c-0.9-1.2-2-2.1-3.5-2.8c-1.5-0.7-3.3-1-5.4-1c-2.2,0-4.1,0.4-5.8,1.2c-1.7,0.8-3.1,1.8-4.3,3.2
	c-1.2,1.3-2.1,2.9-2.7,4.8c-0.7,1.9-1,3.9-1.1,6v25.7h-5.4V16.9H557.1z"/>
<path class="st0" d="M635.7,66.3c-0.7,2.6-1.8,4.8-3.4,6.7c-1.5,1.8-3.5,3.2-6,4.2c-2.5,1-5.5,1.5-9.1,1.5c-2.2,0-4.4-0.3-6.5-0.8
	c-2.1-0.5-4-1.3-5.7-2.4c-1.7-1.1-3.1-2.5-4.2-4.1c-1.1-1.7-1.8-3.7-1.9-6h5.4c0.3,1.7,0.8,3,1.7,4.1c0.8,1.1,1.8,2,3,2.7
	c1.2,0.7,2.5,1.2,3.9,1.5c1.4,0.3,2.9,0.5,4.4,0.5c5,0,8.6-1.4,10.9-4.3c2.2-2.9,3.3-7,3.3-12.3v-6h-0.2c-1.3,2.7-3.1,4.9-5.5,6.6
	c-2.4,1.7-5.3,2.5-8.5,2.5c-3.5,0-6.6-0.6-9.1-1.8c-2.5-1.2-4.6-2.8-6.2-4.8c-1.6-2.1-2.8-4.5-3.5-7.2c-0.7-2.8-1.1-5.7-1.1-8.9
	c0-3,0.4-5.9,1.3-8.6c0.9-2.7,2.2-5.1,3.8-7.1c1.7-2,3.8-3.6,6.2-4.8c2.5-1.2,5.3-1.8,8.5-1.8c1.7,0,3.2,0.2,4.7,0.7
	c1.5,0.5,2.8,1.1,4,1.9c1.2,0.8,2.3,1.8,3.2,2.9c0.9,1.1,1.7,2.2,2.2,3.4h0.2v-7.6h5.4v40.5C636.8,60.7,636.4,63.7,635.7,66.3
	 M623.3,54.5c1.8-1,3.3-2.3,4.4-3.9c1.2-1.6,2.1-3.5,2.7-5.6c0.6-2.1,0.9-4.3,0.9-6.5c0-2.2-0.3-4.3-0.8-6.5
	c-0.5-2.2-1.3-4.1-2.5-5.9c-1.1-1.8-2.6-3.2-4.4-4.3c-1.8-1.1-4-1.6-6.5-1.6c-2.6,0-4.8,0.5-6.6,1.6c-1.8,1.1-3.3,2.4-4.5,4.1
	c-1.2,1.7-2.1,3.7-2.6,5.9c-0.5,2.2-0.8,4.4-0.8,6.7c0,2.2,0.3,4.4,0.9,6.5c0.6,2.1,1.5,4,2.7,5.6c1.2,1.6,2.7,2.9,4.5,3.9
	c1.8,1,4,1.5,6.5,1.5C619.5,56,621.6,55.5,623.3,54.5"/>
</svg>
