<?xml version="1.0" encoding="utf-8"?>
<!-- Generator: Adobe Illustrator 24.0.1, SVG Export Plug-In . SVG Version: 6.00 Build 0)  -->
<svg version="1.1" id="Layer_1" xmlns="http://www.w3.org/2000/svg" xmlns:xlink="http://www.w3.org/1999/xlink" x="0px" y="0px"
	 viewBox="0 0 640 220" style="enable-background:new 0 0 640 220;" xml:space="preserve">
<style type="text/css">
	.st0{fill-rule:evenodd;clip-rule:evenodd;fill:#484848;}
	.st1{fill-rule:evenodd;clip-rule:evenodd;fill:#888C8F;}
	.st2{fill-rule:evenodd;clip-rule:evenodd;fill:#FABE41;}
	.st3{fill-rule:evenodd;clip-rule:evenodd;fill:#FCD832;}
</style>
<title>logo-</title>
<polygon class="st0" points="149.9,140.3 151.3,140 153.9,149 153.9,149 156.6,140.1 158,140.1 160.5,149 160.5,149 163.4,140 
	164.6,140.3 161.2,150.6 160,150.6 157.3,141.8 157.3,141.8 154.4,150.6 153.2,150.6 149.9,140.3 "/>
<polygon class="st0" points="173,140.1 174.4,140.1 174.4,144.8 179.9,144.8 180.1,140.1 181.3,140.1 181.3,150.6 179.9,150.6 
	179.9,145.9 174.4,145.9 174.2,150.6 173,150.6 173,140.1 "/>
<polygon class="st0" points="190.9,140.1 196.1,140.1 196.1,141.3 192,141.3 192,144.8 196,144.8 196,145.9 192,145.9 192,149.6 
	196.1,149.6 196.1,150.6 190.7,150.6 190.9,140.1 "/>
<path class="st0" d="M206.6,141.2h1.5c1.1-0.2,2,0.6,2.2,1.6c0,0.1,0,0.3,0,0.4c0,1.5-1.4,1.9-2.6,1.9h-1.4L206.6,141.2L206.6,141.2
	z M205.1,150.6h1.4v-4.4h0.9c1,0,1.4,0.7,2.1,1.4l2.4,3.4l1.2-0.7l-2.2-2.7c-0.3-0.5-1-1.5-1.7-1.7l0,0c1.6-0.1,2.8-1.4,2.7-2.9
	c0-1.7-1.4-2.7-3.4-2.7h-3.1L205.1,150.6L205.1,150.6z"/>
<polygon class="st0" points="221.3,140.1 226.6,140.1 226.6,141.3 222.5,141.3 222.5,144.8 226.5,144.8 226.5,145.9 222.5,145.9 
	222.5,149.6 226.6,149.6 226.6,150.6 221.1,150.6 221.3,140.1 "/>
<polygon class="st0" points="246.7,150.6 246.8,140.1 248,140.1 248,149.6 252.5,149.6 252.5,150.6 246.7,150.6 "/>
<path class="st0" d="M262.1,145.4c-0.2-2.3,1.5-4.3,3.8-4.5s4.3,1.5,4.5,3.8c0,0.2,0,0.5,0,0.7c0.1,2.3-1.6,4.2-3.9,4.3
	c-2.3,0.1-4.2-1.6-4.3-3.9C262.1,145.7,262.1,145.6,262.1,145.4z M260.5,145.4c0,3.4,2.6,5.3,5.7,5.3c2.9,0.1,5.4-2.1,5.5-5
	c0-0.1,0-0.2,0-0.3c0.2-2.9-2.1-5.3-4.9-5.5c-0.2,0-0.4,0-0.6,0c-3-0.1-5.5,2.2-5.7,5.2C260.5,145.3,260.5,145.4,260.5,145.4z"/>
<path class="st0" d="M289,145.3v4.8c-1.1,0.5-2.3,0.7-3.4,0.7c-3.1,0-5.5-1.9-5.5-5.3c-0.1-2.9,2.2-5.4,5.1-5.5c0.1,0,0.2,0,0.3,0
	c1.1,0.1,2.2,0.3,3.3,0.7l-0.5,1c-0.9-0.4-1.8-0.7-2.7-0.7c-2.4,0.1-4.2,2.1-4.1,4.4c0,0,0,0,0,0.1c-0.1,2.3,1.7,4.2,3.9,4.3
	c0.1,0,0.1,0,0.2,0c0.7,0,1.4-0.2,2.1-0.5l0.2-3.9L289,145.3z"/>
<polygon class="st0" points="298.5,140.1 299.8,140.1 299.8,150.6 298.4,150.6 298.5,140.1 "/>
<path class="st0" d="M317,141.8c-0.8-0.5-1.8-0.8-2.7-0.9c-2.3,0.1-4.2,2-4.1,4.4c0,0,0,0.1,0,0.1c-0.1,2.3,1.7,4.2,3.9,4.3
	c0.1,0,0.1,0,0.2,0c1,0,1.9-0.3,2.7-0.9l0.5,1c-1,0.6-2.1,0.9-3.2,0.9c-3.1,0-5.5-1.9-5.5-5.3c-0.1-2.9,2.3-5.4,5.2-5.4
	c0.1,0,0.2,0,0.3,0c1.1,0,2.3,0.3,3.2,0.9L317,141.8L317,141.8z"/>
<path class="st0" d="M345.8,145.3v4.8c-1.1,0.4-2.3,0.7-3.4,0.7c-3.1,0-5.5-1.9-5.5-5.3c-0.1-2.9,2.2-5.4,5.1-5.5c0.1,0,0.2,0,0.3,0
	c1.1,0.1,2.2,0.3,3.2,0.7l-0.5,1c-0.9-0.4-1.8-0.7-2.7-0.7c-2.3,0.1-4.2,2-4.1,4.4c0,0,0,0.1,0,0.1c-0.1,2.3,1.7,4.2,3.9,4.3
	c0.1,0,0.1,0,0.2,0c0.7,0,1.4-0.2,2.1-0.5v-3.9L345.8,145.3z"/>
<path class="st0" d="M355.9,145.4c-0.1-2.3,1.7-4.3,4-4.4c2.3-0.1,4.3,1.7,4.4,4c0,0.1,0,0.3,0,0.4c0.1,2.3-1.7,4.3-4,4.4
	c-2.3,0.1-4.3-1.7-4.4-4C355.9,145.7,355.9,145.6,355.9,145.4z M354.5,145.4c0,3.4,2.6,5.3,5.6,5.3c2.9,0.1,5.4-2.1,5.5-5
	c0-0.1,0-0.2,0-0.3c0.2-2.9-2.1-5.3-4.9-5.5c-0.2,0-0.4,0-0.6,0c-3-0.1-5.5,2.2-5.6,5.2C354.5,145.3,354.5,145.4,354.5,145.4z"/>
<polygon class="st0" points="374.6,140.1 380,140.1 380,141.3 375.9,141.3 375.9,144.8 379.9,144.8 379.9,145.9 375.9,145.9 
	375.9,149.6 380,149.6 380,150.6 374.6,150.6 374.6,140.1 "/>
<path class="st0" d="M389,149c0.6,0.5,1.4,0.8,2.2,0.9c1.1,0,2-0.8,2.1-1.9c0,0,0-0.1,0-0.1c0-2.6-4.6-1.5-4.6-5.1
	c0.1-1.6,1.4-2.7,2.9-2.7c0,0,0.1,0,0.1,0c1,0,1.9,0.3,2.7,0.9l-0.5,0.9c-0.6-0.4-1.3-0.7-2-0.7c-1-0.1-1.9,0.6-2,1.6
	c0,0.1,0,0.2,0,0.3c0,2.2,4.8,1.7,4.8,5c0,1.6-1.2,2.9-3.4,2.9c-1,0.1-2.1-0.2-2.9-0.9L389,149z"/>
<polygon class="st0" points="415.8,140.1 417,140.1 420.3,149 423.5,140.1 425.1,140.1 426.6,150.6 425.4,150.7 424.1,141.8 
	424.1,141.8 420.8,150.6 419.6,150.6 416.5,141.8 416.5,141.8 415.1,150.7 413.8,150.6 415.8,140.1 "/>
<path class="st0" d="M441,146.1h-3.4l1.7-4.8l0,0L441,146.1z M434.3,150.4l1.2,0.3l1.5-3.6h4.3l1.5,3.6l1.2-0.3l-4.1-10.3h-1.2
	L434.3,150.4L434.3,150.4z"/>
<path class="st0" d="M460.9,145.3v4.8c-1.1,0.4-2.2,0.7-3.4,0.7c-3.1,0-5.5-1.9-5.5-5.3c-0.1-2.9,2.2-5.4,5.1-5.5c0.1,0,0.2,0,0.4,0
	c1.1,0.1,2.2,0.3,3.2,0.7l-0.5,1c-0.9-0.4-1.8-0.7-2.7-0.7c-2.3,0.1-4.2,2-4.1,4.4c0,0,0,0.1,0,0.1c-0.1,2.3,1.7,4.2,3.9,4.3
	c0.1,0,0.1,0,0.2,0c0.7,0,1.4-0.2,2-0.5v-3.9L460.9,145.3z"/>
<polygon class="st0" points="470.5,140.1 471.7,140.1 471.7,150.6 470.3,150.6 470.5,140.1 "/>
<path class="st0" d="M489,141.8c-0.8-0.5-1.8-0.8-2.7-0.9c-2.3,0.1-4.2,2-4.1,4.4c0,0,0,0.1,0,0.1c-0.1,2.3,1.7,4.2,3.9,4.3
	c0.1,0,0.1,0,0.2,0c1,0,1.9-0.3,2.7-0.9l0.5,1c-1,0.5-2.1,0.8-3.3,0.9c-3.1,0-5.5-1.9-5.5-5.3c-0.1-2.9,2.2-5.4,5.1-5.5
	c0.1,0,0.2,0,0.3,0c1.1,0,2.3,0.3,3.3,0.9L489,141.8L489,141.8z"/>
<path class="st1" d="M181.1,94.4c-2.7-1.3-5.7-2-8.7-2c-8,0-13.9,5.3-13.9,13.3c0,7.5,4.6,13.5,12.7,13.5c4.3,0,6-1,9.4-2.1l3.2,7.7
	c-4.3,2.2-9.1,3.3-14,3.2c-14,0-22.6-9.1-22.6-22.8c0-13,8.7-21.8,24.1-21.8c5.6,0,10.3,1.2,13.2,2.9L181.1,94.4L181.1,94.4z"/>
<path class="st1" d="M200.8,92.9h4.4c4.3,0,6.5,1.4,6.5,5c0,4.3-3.6,5-6.3,5h-5L200.8,92.9L200.8,92.9z M200.9,110.9h1.7
	c2.4,0,3.4,1.7,4.6,4.3l6,11.6h12.5l-7.4-13c-1.5-2.7-3.4-5.5-5.8-6.2l0,0c5.8-0.2,10.3-5,10.1-10.7c0-0.1,0-0.2,0-0.3
	c0-9.6-7.4-11.8-16.1-11.8H190l-0.3,42h11.1L200.9,110.9L200.9,110.9z"/>
<polygon class="st1" points="230.4,84.8 259.5,84.8 259.5,93.6 241.4,93.6 241.4,101.6 259.3,101.6 259.3,110 241.2,110 241.2,118 
	259.2,118 259.2,126.8 230.1,126.8 230.4,84.8 "/>
<path class="st1" d="M283.5,94.2h0.2l4.3,14.6h-9.1L283.5,94.2z M261.4,126.8h11.3l3.3-9.6h14.5l3.1,9.6h12l-15.4-41.9h-12.5
	L261.4,126.8L261.4,126.8z"/>
<polygon class="st1" points="309.2,84.8 320.1,84.8 319.8,117.7 338.8,117.7 338.6,126.8 308.8,126.8 309.2,84.8 "/>
<path class="st1" d="M349.9,105.9c0-9.2,5.1-13.5,11.3-13.5c6.3,0,11.5,4.3,11.5,13.5s-5.1,13.4-11.5,13.4
	C355,119.2,349.9,115.1,349.9,105.9z M338.6,105.9c0,12.2,8.4,22.3,22.8,22.3c14.2,0,22.6-10.1,22.6-22.3c0-12.3-8.4-22.3-22.6-22.3
	C347,83.6,338.6,93.5,338.6,105.9z"/>
<path class="st1" d="M426.6,125.1c-5,2.4-10.4,3.1-16.1,3.1c-14,0-22.8-9.1-22.8-22.8c0-13,8.9-21.8,24.1-21.8
	c5.3-0.1,10.5,1.2,15.1,3.8l-0.2,9.1c-5.3-3.1-10.1-4.5-13.7-4.1c-8,0.3-13.9,5.3-13.9,13.3c0,7.5,4.6,13.5,12.7,13.5
	c1.5,0.2,3-0.1,4.3-0.9l0.2-14.4H427L426.6,125.1L426.6,125.1z"/>
<polygon class="st1" points="463.8,105 452.1,84.8 464.5,84.8 470.8,97.7 478.3,84.8 490.1,84.8 477.5,105 490.5,126.8 477.6,126.8 
	470.3,112.7 463.1,126.8 450.6,126.8 463.8,105 "/>
<polygon class="st2" points="446.8,84.8 435.9,84.8 435.9,90.1 446.7,94.9 446.8,84.8 "/>
<path class="st1" d="M435.5,126.8h11l0.2-22.1c-2.7-1.5-6.7-2.7-11-4.8C435.7,99.9,435.5,126.8,435.5,126.8z"/>
<path class="st3" d="M571.8,25.9c-0.3-0.8-0.7-1.5-1.2-2.2c-0.3-0.7-1-0.3-2.6-0.3s-4.3,1.5-7.5,3.6c-3.1,1.9-11.3,7.9-12.7,8.7
	c-1.2,0.7-3.8,2.9-7.2,4.8c-3.2,1.7-5.5,2.7-7,2.7c-1.2,0-7-5.8-8.4-7.2c-4-4.2-8.4-8.2-13-11.8c-2.4-1.9-5-3.6-6-4.3
	c-1.1-0.8-2.3-1.6-3.6-2.2c-1.1-0.2-2.3-0.2-3.4,0h-0.2c-0.5,0.9-1.5,1.2-1.7,2.9c-0.2,2.6,7.4,10.3,7.5,10.4c0.3,0.3,3.9,6,4.3,6.5
	h0.2c0.3,1,2.2,5.1,2.6,6.2c0.1,0,0.2,0.1,0.2,0.2c0.3,0.4,0.5,0.8,0.7,1.2c0.9,1.5,2.4,3.9,1.5,5.3c-0.1,0.3-0.3,0.6-0.5,0.8
	c-0.2,0.2-0.5,0.4-0.9,0.5h-0.2c-1.4,0.2-6.2,0-7.4,0c-1.4,0-6.9,0.3-7.2,0.2c-0.6-0.2-1.2-0.3-1.9-0.3c-0.3,0-0.7,0.3-1.2,0.3
	l-0.2-0.2c-0.5,0-2.6,0.2-3.8,0.2c-0.3,0.1-0.6,0.1-0.9,0c-0.3,0-4.5,0.2-6,0.3c-0.1,0.1-0.3,0.2-0.5,0.2c-1.5,0.2-3,0.5-4.5,1
	c-1.7,0.7-1.9,2-1.4,3.6v0.5l0.2,0.2c0.4,0.3,0.7,0.5,1,0.8c0.8,0.4,1.6,0.8,2.4,1c0.8,0.3,1.7,0.6,2.6,0.7c1,0.2,7.7,2.4,9.6,2.9
	c1.9,0.3,10.3,2.4,11.3,2.6c1.2,0.3,6,0.8,6.9,1c1,0.5,1.9,1.4,2.4,2.4V70c0.2,2-0.3,2.3-0.3,3c-0.2,1-0.2,4.1-0.2,4.3
	c0,0.3-1.9,8.9-2.1,9.6s-1.8,5.8-1.8,6.3c-0.2,0.3-0.7,1.7-0.9,1.9c-0.2,0.5-0.5,0.8-0.5,1.4c-0.1,1.1-0.1,2.3,0.2,3.4
	c0,0.3-0.3,1-0.3,1.4c-0.2,1.2-0.5,2.4-0.5,2.9c0,1,1.4,2.4,2.2,2.7c0.7,0.3,0.4,0.7,2.4,0.5c2.2-0.2,4.1-4.1,4.5-4.4
	c0.3-0.2,0.7-0.8,1.2-1.7c0.7-1.1,1.2-2.4,1.7-3.6c0.2-0.3,0.7-1.4,1.2-2.6c2.4-4.8,6.2-11.8,6.3-12.3c0.7-1.2,1.7-2.6,2.7-4.1
	c0.9-1.1,1.7-2.2,2.4-3.4c0.5-0.7,0.5-0.7,2.7-1c1.2,0,2.4,1.5,4.5,2.1l0,0c1.3,1.3,2.4,2.7,3.4,4.3c3.3,2.8,6.9,5.3,10.6,7.4
	c1.2,0.5,6.3,3.4,7.2,3.4c1.2,0.5,2.4,1,3.6,1.6c1.2,0.4,2.5,0.6,3.8,0.3c0.9-0.2,1.9-0.8,1.7-2.7c-0.1-0.3-0.1-0.6-0.2-0.8
	c-0.8-2.6-8.6-8.7-9.6-9.8c-1.8-1.5-3.3-3.3-4.5-5.3c-1-1.6-2.1-3.1-3.2-4.6c-1-1.3-1.9-2.6-2.7-3.9c-1-1.9-4.3-6.7-4.3-7.5
	c0.1-0.3,0.2-0.6,0.3-0.8l0.2-0.2c0.7-1.4,1.4-2.8,2.2-4.1c0.2-0.2,0.2-0.2,0.2-0.3c0.4-0.4,0.8-0.8,1.2-1.2
	c0.2-0.2,0.3-0.5,0.5-0.7c1.5-1.9,3.8-4.6,5.1-6c0-0.1,0.1-0.2,0.2-0.2c0.1-0.3,0.3-0.6,0.5-0.9h0.2c0.5-0.7,3.6-3.9,4.1-5
	s7.5-6.8,8.6-7.9c1-0.9,1.8-1.9,2.6-3.1c0.3-0.4,0.4-0.9,0.2-1.4C571.5,26.5,571.8,26,571.8,25.9L571.8,25.9z"/>
<path class="st2" d="M499,17.7c0.2-0.1,0.5-0.2,0.7-0.2c-0.2,0.2,0.2,1.2,0,1.2c-0.3,0.2-0.7,0.9-0.5,1c0,0.3,1,1,1.2,1
	s0.7-0.7,0.9-0.5s-0.3,0.5-0.3,1c0,0.1,0.1,0.2,0.2,0.2l0,0c0.2,0,0.3-0.2,0.5,0c0,0,0.5-0.7,0.7-0.7s-0.2,1-0.2,1.4
	c0,0.5,1.2,0.4,1.4,0.5c0.2,0.3-0.9,0.7-1,0.9c-0.2,0-0.3,0.2,0,0.7c0,0.2,1.2,0.3,1.2,0.3c0.2-0.2,0-1.2,0.2-1.2c0.5,0,2,1.4,2,1.9
	s-1,0.3-1,1c0,0.2,1,0.9,1.2,0.9c0.4,0,0.2-1.2,0.4-1.4s1,0.2,1.2,0.2c0.3,0.3-0.2,1.9,0,2.6s0.5,0,1.4,0c0.7,0,0.7-0.5,0.9-0.7h0.2
	c0.2,0.2,1.2,1.5,0.9,2.2c-0.2,0-1,0.3-0.9,1c0,0.5,1.2,0.5,1.4,0.7h0.2c0.4-0.2,1.2-1.4,1.4-1.4c0.2,0.2-0.8,2.9-0.2,4.1
	c0.9,1.2,2.6-1,2.7-1c0.1,1,0.1,2.1,0,3.1c0,0.3,1.2,0.2,1.4,0.7c0.2,0.7-0.8,1.5-1.2,1.9c-0.3,0.5-0.3,0.9,0,1.2
	c0.5,0.5,1.7-1.9,1.9-2c0.3-0.2,1.4,0.5,0.5,1.9c0,0.2-0.5,0.5-0.7,0.5s-0.7,0.3-0.2,0.8c0,0.2,0.2,0.2,0.2,0c0.5,0,1-1,1.4-1
	c0.3-0.2,1.2,0.7,1.2,1c0.2,0.5-1.2,1.4-1.9,1.7c-0.5,0.5-0.5,0.7-0.3,1s0.8,0.5,1,0.3c0.3-0.3,0.3-1.4,1-1.5
	c0.7-0.3,2.4,0.7,2.1,0.9c-0.6,0.5-1.3,0.9-2.1,1.2c-0.3,0.2-0.8,0.5-0.8,0.7c-0.2,0.5,0.5,0.7,0.3,1V47c0,0.2,0,0.3,0.3,0.5
	c0.2,0.3,0.7-0.7,0.9-1h0.2c0.5,0.4,0.9,0.9,1.2,1.5c0,0.3-1,0.3-1.4,0.3s-0.3,0.7-0.3,0.9s1.2,0,1.2,0.2c0,0.3-2,0.5-2,1.2
	c0.1,0.2,0.3,0.4,0.5,0.5c0.5,0.3,1,0.5,1.2,0.7c0.2,0,0.3,0.2,0.5,0.2h0.5c0.2-0.2-0.2-0.5-0.2-0.9s0.2-0.7,1.2-0.5
	c0.3,0.2,1-2.9,1-2.6c0.5,1,0.8,2,0.9,3.1c-0.2,0.2-0.2,0.3-0.5,0.2c-0.9-0.2-1.5,1-1.5,1.4c0.2,0,0.2,0,0.3,0.2s-0.7,0.9-1,1.5
	c-0.3,0.5,0.2,0.9,0.7,1c0.3,0.2,0.7-1.9,0.9-1.9c0.3-0.3,0.5-1.2,1.4-1.2c0.5,0,0,1.2,0.2,1.4c0.2,0.3,0.7-0.5,1.4-0.7
	s1.4,0.7,1.4,1.2c0,0.3-1.4,0.5-1.9,0.3c-0.2-0.2-0.2,1.4-0.5,1.5s-2.2-0.5-2.4-0.3c-0.2,0.5,0.5,0.9,0.8,1c0.2,0,0.5,0.3,0.2,0.5
	l-0.2,0.2c-0.2,0.3,0,0.7,0,1c-0.2,0.3-0.3,0-0.5-0.2c-0.1,0-0.3,0.1-0.3,0.2c-0.1,0.1-0.2,0.3-0.2,0.5c-0.2,0.2-1-0.2-1.2,0
	c-0.1,0.3-0.1,0.7,0,1c0,0.8,1.7-0.2,2,0c0.2,0.2-0.2,1.5,0.3,2.4c0.7,0.9,1.7-0.2,1.9,0c0,0.3-0.5,1.5-0.5,1.9
	c0.1,0.4,0.3,0.7,0.7,0.8c0.2,0-0.2-1,0-1.4s0.5-0.2,0.8-0.3s-0.7-2.7-0.8-3.2c0-0.3-1.4-0.3-1.4-1c0-0.5,0.9-0.7,1-0.3
	c0,0.1,0.1,0.2,0.2,0.2c0.3,0.1,0.6,0.1,1,0c-0.1-0.3-0.2-0.6-0.3-0.9c0-0.2-0.2-0.3-0.2-0.5c-0.2-0.5,0-1,0.9-1.7
	c0.3-0.3,0.8,0,1,0c0,0.2,0.5-0.2,0.3,0.5c0,0.3,0.3,0.8,0.7,0.8c0.5,0,0.7-1.4,0.2-1.5c-1.2-0.8,0-2.9,0.5-2.9
	c2.6,0.2,0.5,1,0.7,1.4c0.3,0.4,0.7,0.6,1.2,0.7c0.2,0.2-1.2,0.8,0.3,2.4l0.3,0.3c0.3,0.5,0.9,1.4,0.7,1.9c0,0.9-0.9,1.5-0.7,1.9
	c0,0.2,1.2,0,1.7,0.7c0.3,0.7-1,1.4-1.5,1.5s-0.7-0.3-1.2-0.5c-0.8-0.3-1.7-0.4-2.6-0.2c-0.1,0-0.2,0.1-0.2,0.2c0,0,0,0,0,0
	l-0.3,0.3c-0.2,0.2-0.5,0.5-0.5,0.7c-0.2,0.3,1.4-0.5,1.5-0.5c0.3,0,0,1.7,0.5,2.6c0.3,0.5,0.8,0.9,1.4,1c0.3,0,0.5-0.2,0.8-0.7
	c0.2-0.5-0.8-1-1.2-1.7c-0.3-0.5,0.5-0.7,1-0.5l0.2,0.2c0.3,0,1.7,0.7,2.4,0.8c0.6,0.1,1.2-0.3,1.4-0.8c0-0.3-0.5-0.3-0.5-0.3
	c0.1-0.6,0.3-1.2,0.5-1.7c0.2-0.2,0.8,0.3,0.8,0.9c0,0,0.2,0.7,1.2,0.7c0.9,0,1.5-0.3,1.5-0.2c-0.8,2.1-3.6,1.5-3.8,1.7s1,0.9,1,1
	c-1.2,0.7-1.7,0-2.2,0c-0.2,0-0.2,0-0.7-0.2c-0.3-0.1-0.6-0.2-0.8-0.2c-0.2,0-0.2,0.2-0.2,0.7c0,0.2,0.2,0.3,0.5,0.3
	c0.3,0.2,1,0.3,1.2,0.7c0,0.5-0.2,2.1-0.2,2.2v1c0.1-0.2,0.3-0.3,0.3-0.5c0.1-0.1,0.2-0.2,0.2-0.3c0.3-0.7,0.5-1.5,0.7-2.2
	c1,0.2,0.2,1.5,0.5,2.2c0,0.2,0.2,0.3,0.5,0.3c0.4,0,0.8-0.1,1.2-0.3h0.2l0.2-0.2c0.2,0,0.2,0,0.2,0.2c0,0,1.2,1.7-0.2,1.9
	c-0.2,0-1-0.5-1.2-0.3c-0.2,0-0.2,1.5,0,1.5c0.3,0,0.7-0.9,1-0.9c0.2,0,0.3,0.2,0.7,0.2c0.3,0.2,0.8,0.3,1.2,0.5
	c0.7-0.1,1.5-0.1,2.2,0c0.2,0,1,0.5,1,0.8c0,0.2-1.5,0-1.5,1.7c0,0.2,0.5,0.2,1,0.3s0.3,1.2,0.2,1.4c-0.2,0.3,0.3,0.5,0.5,0.3
	c0.2,0,0.2-0.2,0.7,0c0.3,0.2,0.5-0.2,0.3-0.5c0-0.3-0.3,0-0.7-0.2s0.5-2.7,0.5-2.7c0.2,0.2-1.7-2.2,0-2.2c1.7,0.2,0.8,2.4,0.8,2.9
	c0,0.3,2.1,1,2.2,1.4c1.2,1.9-0.9,1.4-1,1.5s-0.5,0-0.8,0c-0.2,0-0.2-0.5-0.3-0.3s0,0.7,0,0.9l0.7,0.2c-0.1,0.6-0.1,1.1,0,1.7
	c0.2,0.2,0.7,0.2,1,0.3c0.5,0-0.3,1,1.2,0.9c0.2,0,0.5,0.5,0.5,0.3c0.7-0.6,0.9-1.6,0.5-2.4c0,0,0.7-1.4,1.7,0
	c-0.1,0.9-0.3,1.8-0.5,2.7c-0.2,0.2-1.7,0.7-2,1s0,0.5,0.2,0.7c0.2,0,0.7-0.8,0.8-0.8c0.2,0.2,0.7,0.7,1,0.7c0.5,0,1.4-1.9,1.5-1.9
	c0.4,0,0.7,0.4,0.7,0.9c0.2,0.5,0,1.5,1,2.1c0.2,0,2.2-1.4,1.5-0.2c-0.3,1,1.9,1,1.7,1.4c-0.3,0.2-0.2,0.2-0.3,0.3s0,0.9-0.2,0.9
	c-0.8,0.3-2.2-0.9-2.2-0.5c-0.3,0.5,0.8,1.9,2,1.9c0.7-0.1,1.4-0.3,2.1-0.5c0.3,0.7,0.7-1.7,0.8-1.7c0.5,0.4,1.1,0.8,1.5,1.2l-0.2,1
	c0.6,0.4,1.2,0.6,1.9,0.7c0.2,0-0.5-0.8-0.7-1.2c0.2,0,0.9,0.2,1,0.2c0,0,1,1.9,1.4,1.9c0.7,0,0.7,0.5,1.4,0.5c0.2,0,1-0.5,1.2-0.3
	c0.7,1.2,0.8,0,1.2-0.2c0.2-0.2,0.8,1.4,0.8,1.4s0.3,0,0.3-0.5c0.2-0.2,1.2,1,1-0.5c0.5,2.1-0.7,2.9-1.5,3.1
	c-1.3,0.2-2.6,0.1-3.8-0.3c-1.1-0.6-2.2-1.2-3.4-1.7c-0.9,0-6-2.9-7.2-3.4c-3.8-2.1-7.3-4.6-10.6-7.4c-1-1.5-2.1-3-3.4-4.3l0,0
	c-2.1-0.5-3.3-2.1-4.5-2.1c-2.2,0.3-2.2,0.3-2.7,1c-0.7,1.2-1.5,2.3-2.4,3.4c-1,1.5-2.1,2.9-2.7,4.1c-0.2,0.5-3.9,7.5-6.3,12.3
	c-0.5,1.2-1,2.2-1.2,2.6c-0.5,1.2-1,2.5-1.7,3.6c-0.5,0.9-0.8,1.5-1.2,1.7c-0.3,0.3-2.2,4.3-4.5,4.4c-2,0.2-1.7-0.2-2.4-0.5
	c-0.9-0.3-2.2-1.7-2.2-2.7c0-0.5,0.3-1.7,0.5-2.9c0-0.3,0.3-1,0.3-1.4c-0.2-1.1-0.3-2.3-0.2-3.4c0-0.5,0.4-0.9,0.5-1.4
	c0.2-0.2,0.7-1.6,0.9-1.9c0-0.5,1.5-5.7,1.7-6.3s2.1-9.2,2.1-9.6c0-0.2,0-3.3,0.2-4.3c0-0.7,0.5-1,0.3-2.9v-0.9
	c-0.5-1-1.4-1.9-2.4-2.4c-0.9-0.2-5.6-0.7-6.9-1c-1-0.2-9.4-2.2-11.3-2.6c-1.9-0.5-8.6-2.7-9.6-2.9c-0.9-0.1-1.7-0.4-2.6-0.7
	c-0.8-0.2-1.6-0.6-2.4-1c-0.3-0.3-0.7-0.5-1-0.8l-0.1-0.2v-0.5c-0.5-1.5-0.3-2.9,1.4-3.6c1.4-0.5,2.9-0.8,4.5-1c0.2,0,0.4,0,0.5-0.2
	c1.5-0.2,5.6-0.3,6-0.3c0.3,0.1,0.6,0.1,0.9,0c1.2,0,3.2-0.2,3.8-0.2l0.2,0.2c0.5,0,0.9-0.3,1.2-0.3c0.6,0,1.3,0.1,1.9,0.3
	c0.3,0.2,5.8-0.2,7.2-0.2c1.2,0,6,0.2,7.4,0h0.2c0.3-0.1,0.6-0.3,0.9-0.5c0.3-0.2,0.4-0.5,0.5-0.8c0.9-1.4-0.7-3.8-1.5-5.3
	c-0.2-0.4-0.4-0.8-0.7-1.2c0-0.1-0.1-0.2-0.2-0.2l0,0c-0.4-1-2.2-5.1-2.6-6.2h-0.2c-0.4-0.5-3.9-6.2-4.3-6.5
	c-0.2-0.2-7.7-7.9-7.5-10.5C497.5,18.9,498.6,18.6,499,17.7L499,17.7z M516.5,54.9c-0.3,0.5,0.2,0.7,0.2,0.8c-0.2,0.2-0.5,0-0.9,0
	c-0.1,0-0.2,0.1-0.2,0.2c0,0.2,0.7,0.2,1,0.5c0.2,0.2,0.3,0.5,0.5,0.7c0.2,0.1,0.4,0.2,0.7,0.2c0.5,0.3,0.7-0.7,1-1
	c0.5-0.3,0.5-0.7,0-0.5c-0.3,0-0.9-0.7-1.2-0.8C517.3,54.5,517.1,54.5,516.5,54.9L516.5,54.9z M497.2,54.7c-0.1-0.4-0.5-0.6-0.9-0.7
	c-0.3,0-0.2,0.9-0.9,0.9c-0.3,0.2,0.2,1.7,0.7,1.9c0.3,0.2,0.6,0.2,0.9,0c0.3-0.2-0.9-0.7-0.7-1.2c0.4-0.7,1.2-0.5,1-0.7L497.2,54.7
	L497.2,54.7z M487.9,55c-0.5,0.3-0.3,0.7-0.3,1c0,0.5,0.9,0.3,1.7,0.2c0.7-0.2,0.5-0.2,0.2-1C489.1,54.2,488.5,54.9,487.9,55z
	 M482.4,57.6c0.7,0-0.7-1.5-0.2-1.7c0.2-0.3,1,1.2,1.2,1.2c0.3,0,0.5-0.3,0.7-1.2c0-0.5-0.3-0.9-0.7-1.2c-0.5-0.7-0.9-0.7-1-0.7
	c-0.5-0.2-0.3-0.2-0.5-0.5s-0.7,0-0.7,0.3c-0.2,0.3,1,0.7,0.7,0.9c-0.3,0-1.5-0.3-1.9-0.2c-0.5,0.2-0.3,0.5-0.2,1
	c0,0.3-0.2,0.3-0.4,0.5l-0.2,0.2c0,0.5,0.4,0.8,0.9,0.8c0.3,0-0.2-1,0-1.2s0.5,0.2,0.7,0.5C481.3,56.7,481.8,57.6,482.4,57.6
	L482.4,57.6z M531.9,58.1c-0.3-0.3-0.6-0.4-1-0.5h-0.3c-0.2,0.2,0.2,0.5,0.2,0.7s-0.2,0.7,0,0.7c0.3,0,0.6,0,0.9-0.2
	C532,58.6,532.1,58.3,531.9,58.1L531.9,58.1z M508.8,57.6c0.5-0.6,0.6-1.4,0.4-2.1c-0.2-0.8-0.5-0.7-1-0.5c0.2,0.8-1,2-0.9,2
	c0.2,0.2,1.2-0.2,1.2-0.2c-0.2,0.2-0.3,0.4-0.3,0.7v0.2C508.4,57.7,508.6,57.7,508.8,57.6L508.8,57.6z M504.4,57.6
	c0.1-0.7,0.2-1.5,0.2-2.2c0-0.5,0.4-0.5,0.7-0.5h0.3c0.3,0,0.7,0.3,1.2,0c0.3-0.3,0.9-0.7,0.2-0.9c-0.5,0-0.9,0.3-1.2,0.2h-0.2
	c-0.7,0-0.9-0.8-1-0.7c-0.3,0.2-0.7,1.5-1,1.9c-0.5,0.2-0.8,0.7-0.9,1.2c-0.2,0.3-0.2,0.6,0,0.9c0,0.2-0.2,0.2,0,0.2
	c0,0.2,0,0.2,0.2,0.2v0.2c0.2,0.2,1.2,0,1.4,0C504.3,57.8,504.4,57.7,504.4,57.6L504.4,57.6z M500.1,57.6l1.7-1.7
	c0.9-1-0.5-1.9-0.3-2s0.3-0.3,0.2-0.5c0-0.2-0.5-0.3-1.2,0.3c-0.5,0.5-0.3,1.4-0.5,1.5c-0.3,0.3-1,0.9-1.2,1
	c0.1,0.5,0.2,0.9,0.3,1.4c0.2,0.2,0.4,0.3,0.4,0.5C499.7,57.9,499.9,57.8,500.1,57.6L500.1,57.6z M486.1,57.9c0.1-0.1,0.1-0.2,0-0.3
	c0,0,0,0,0,0c-0.2-0.2-0.3-0.3-0.3-0.5l0,0c0-0.3,0.3-1.5,0.3-1.7c-0.3-0.7-0.8-1.1-1.5-1.2c-0.3,0-0.2,0.7-0.2,1h0.2
	c-0.2,0.3,0.7,1.4,0.5,1.5c-0.2,0.3-0.5-0.2-0.5,0.2v0.7l0.2,0.3C485.2,58.1,485.6,58.1,486.1,57.9L486.1,57.9z M526.8,65.6
	c-0.3,0.2-0.3,0.5,0,0.9c0.2,0.2,0.5,0.2,0.5,0.3l0.2,0.2c0.2,0.2,0.5,0,0.5-0.3c-0.2-0.3,0-1-0.3-1C527.7,65.8,527,65.5,526.8,65.6
	L526.8,65.6z M530.6,70.1h-0.2c0-0.2-0.5-0.2-0.5-0.3s1.2-0.7,0.7-0.8s-0.5-0.7-0.7-0.7s-0.7-0.3-0.7-0.2c0,0.3,0.2,0.5-0.2,0.7
	c-0.5,0-1.7-0.7-1.4,0c0.4,0.4,0.6,0.9,0.7,1.4c0,0.3,0,0.8,0.2,0.8c0.6,0.3,1.3,0.3,1.9,0C530.8,70.8,530.6,70.3,530.6,70.1z
	 M565.7,91.3c-0.3,0-0.3,0.3-0.3,0.8v0.2c0.2,0.2,0.5-0.2,0.7-0.3C566.4,91.7,566,91.5,565.7,91.3L565.7,91.3z M520.1,82.9
	c-0.5,0.3-0.8,0.7-0.8,0.8c-0.2,0.2-0.3,0.7,0.3,0.7c0.5,0,2.4,1.9,2.7,1.9c0.5,0-0.3-1.2-0.2-1.5c0.2-0.2,1.7,1,2.9,0.7
	c1.2-0.5,0-1.5-0.2-1.7c-0.3-0.3-2.9,0.5-3.1,0.3c0-0.3,0.3-0.7,0-1.2C521.3,82.8,520.7,82.8,520.1,82.9L520.1,82.9z M524.1,82.2
	v0.7c0.3,0,1.4,0.7,1.5,0l0.2-0.3c0-0.2,0-0.3-0.2-0.3C525.1,81.9,524.1,82.1,524.1,82.2z M523,79c-0.3,0.3,1,0.3,1,0.5
	c0.2,0.3-1,0.3-1,0.7c0.5,0.1,1,0.2,1.5,0.3c0.5,0,1,1,1.5,0.7s-0.2-0.7-0.7-1.2c-0.3-0.3,0.3-0.7-0.2-1
	C524.5,78.8,523.7,78.8,523,79z M520.6,95.6c0.4-1.2,0.9-2.3,1.5-3.4c0.7-1,0-2.9,0.2-3.1s0.5,0.3,0.9-0.3s-0.9-1.9-1-1.9
	c-0.3,0,0,0.5-0.3,0.8c-0.5,0.2-0.7-0.5-1,0c-0.7,0.3-2.6-0.7-2.6,0c0,2.1,2.9,1.7,3.1,2.2c0.3,0.3-0.5,1-0.7,1.2
	c-0.7,0-1.4-0.2-2.1-0.3c-0.5-0.2-1.4,0-1.4,0.7c-0.1,0.9,0.6,1.8,1.5,1.9c0.8,0,1,1,1,1.7l-0.2,1.4c0,0.3-0.7-0.3-0.8-0.2
	c-0.1-0.4-0.3-0.8-0.5-1.2c-0.3-0.3-0.5-0.5-0.7-0.5c-0.3,0.1-0.6,0.3-0.9,0.5c-0.6,0.4-1,0.9-1.2,1.5c0,1.9,2.7,2,2.7,2
	c0,0.3-0.7,1.2-1,1s-2.2-2.9-2.9-0.3c-0.2,0.5,0.9,1.5,1,1.9c0.2,0.2,0.2,0.2,0.2,0.3c0,0.3-1.5,0.9-2.2,2.2
	c-0.2,0.5-0.1,1.2,0.3,1.5l0.2,0.2c-0.5,0.2-1,0.5-1.4,0.9c-0.2,0-0.3,0.2-0.2,0.2c1.2,0.2,1.9-0.9,3.1-2.1c1-0.9,1.8-1.9,2.4-3.1
	c0.6-1,1.1-2.2,1.4-3.4C519.4,97.5,520.5,95.9,520.6,95.6L520.6,95.6z M511.2,104.2c-0.2,0.2,0,0.3,0,0.5s0.3,0.3,0.3,0.3
	c0.5,0,0.2,0.2,0.5,0.2c0.4,0,0.3-0.2,0.3-0.5c0-0.5-0.2-0.2-0.3-0.3s0-0.2-0.2-0.2C511.7,104,511.2,104.2,511.2,104.2z M514,36.4
	c0-0.1-0.1-0.2-0.2-0.3c-0.2,0-0.2,0.2-0.3,0.3s-0.2,0.2-0.3,0.2c0,0,0,1.2,0.2,1.2l0.3-0.2h0.2c0.2,0,0.2-0.7,0.2-0.7l0.3-0.3
	C514.3,36.4,514,36.4,514,36.4z"/>
</svg>
