<svg id="Layer_1" data-name="Layer 1" xmlns="http://www.w3.org/2000/svg" viewBox="0 0 640 220"><defs><style>.cls-1{fill:#231f20;}.cls-1,.cls-2,.cls-3,.cls-4{fill-rule:evenodd;}.cls-2{fill:#888c8f;}.cls-3{fill:#fabe41;}.cls-4{fill:#fcd832;}</style></defs><title>logo-</title><polygon class="cls-1" points="149.92 140.3 151.29 139.96 153.86 149.03 153.86 149.03 156.6 140.13 157.97 140.13 160.54 149.03 160.54 149.03 163.45 139.96 164.65 140.3 161.22 150.57 160.03 150.57 157.28 141.84 157.28 141.84 154.37 150.57 153.18 150.57 149.92 140.3 149.92 140.3"/><polygon class="cls-1" points="173.04 140.13 174.41 140.13 174.41 144.75 179.89 144.75 180.06 140.13 181.26 140.13 181.26 150.57 179.89 150.57 179.89 145.95 174.41 145.95 174.24 150.57 173.04 150.57 173.04 140.13 173.04 140.13"/><polygon class="cls-1" points="190.85 140.13 196.15 140.13 196.15 141.33 192.04 141.33 192.04 144.75 195.98 144.75 195.98 145.95 192.04 145.95 192.04 149.55 196.15 149.55 196.15 150.57 190.67 150.57 190.85 140.13 190.85 140.13"/><path class="cls-1" d="M206.6,141.16h1.54a1.94,1.94,0,0,1,2.23,2.05c0,1.54-1.37,1.88-2.57,1.88h-1.37l.17-3.93Zm-1.54,9.41h1.37v-4.45h.85c1,0,1.37.69,2.06,1.37l2.4,3.42,1.19-.68-2.22-2.74c-.34-.51-1-1.54-1.71-1.71h0a2.85,2.85,0,0,0,2.74-2.91c0-1.71-1.37-2.74-3.43-2.74h-3.08l-.17,10.44Z"/><polygon class="cls-1" points="221.32 140.13 226.63 140.13 226.63 141.33 222.52 141.33 222.52 144.75 226.46 144.75 226.46 145.95 222.52 145.95 222.52 149.55 226.63 149.55 226.63 150.57 221.15 150.57 221.32 140.13 221.32 140.13"/><polygon class="cls-1" points="246.67 150.57 246.84 140.13 248.03 140.13 248.03 149.55 252.49 149.55 252.49 150.57 246.67 150.57 246.67 150.57"/><path class="cls-1" d="M262.08,145.44a4.12,4.12,0,1,1,8.21,0,4.11,4.11,0,1,1-8.21,0Zm-1.55,0c0,3.42,2.57,5.3,5.66,5.3a5.26,5.26,0,0,0,5.48-5.3,5.21,5.21,0,0,0-5.48-5.48,5.45,5.45,0,0,0-5.66,5.48Z"/><path class="cls-1" d="M289,145.26v4.8a8.78,8.78,0,0,1-3.43.68c-3.08,0-5.48-1.88-5.48-5.3a5.31,5.31,0,0,1,5.48-5.48,11.17,11.17,0,0,1,3.26.68l-.52,1a6.46,6.46,0,0,0-2.74-.69,4.26,4.26,0,0,0-4.11,4.46,4.11,4.11,0,0,0,4.11,4.28,4,4,0,0,0,2.06-.52l.17-3.94Z"/><polygon class="cls-1" points="298.55 140.13 299.75 140.13 299.75 150.57 298.38 150.57 298.55 140.13 298.55 140.13"/><path class="cls-1" d="M317,141.84a5.22,5.22,0,0,0-2.74-.86,4.25,4.25,0,0,0-4.11,4.46,4.1,4.1,0,0,0,4.11,4.28,5.13,5.13,0,0,0,2.74-.86l.51,1a6.56,6.56,0,0,1-3.25.85c-3.08,0-5.48-1.88-5.48-5.3A5.31,5.31,0,0,1,314.3,140a6.56,6.56,0,0,1,3.25.85l-.51,1Z"/><path class="cls-1" d="M345.81,145.26v4.8a9.39,9.39,0,0,1-3.43.68c-3.08,0-5.48-1.88-5.48-5.3a5.31,5.31,0,0,1,5.48-5.48,11,11,0,0,1,3.25.68l-.51,1a6.46,6.46,0,0,0-2.74-.69,4.25,4.25,0,0,0-4.11,4.46,4.1,4.1,0,0,0,4.11,4.28,4,4,0,0,0,2.06-.52v-3.94Z"/><path class="cls-1" d="M355.91,145.44a4.2,4.2,0,1,1,8.39,0,4.2,4.2,0,1,1-8.39,0Zm-1.37,0c0,3.42,2.57,5.3,5.65,5.3a5.26,5.26,0,0,0,5.48-5.3,5.21,5.21,0,0,0-5.48-5.48,5.45,5.45,0,0,0-5.65,5.48Z"/><polygon class="cls-1" points="374.57 140.13 380.05 140.13 380.05 141.33 375.94 141.33 375.94 144.75 379.88 144.75 379.88 145.95 375.94 145.95 375.94 149.55 380.05 149.55 380.05 150.57 374.57 150.57 374.57 140.13 374.57 140.13"/><path class="cls-1" d="M389,149a4.35,4.35,0,0,0,2.23.86,2,2,0,0,0,2.06-2.06c0-2.57-4.63-1.54-4.63-5.13A2.81,2.81,0,0,1,391.7,140a4.74,4.74,0,0,1,2.73.85l-.51.86a3.68,3.68,0,0,0-2.05-.69,1.85,1.85,0,0,0-2.06,1.89c0,2.22,4.79,1.71,4.79,5,0,1.55-1.19,2.91-3.42,2.91a4.23,4.23,0,0,1-2.91-.85L389,149Z"/><polygon class="cls-1" points="415.84 140.13 417.04 140.13 420.29 149.03 423.54 140.13 425.08 140.13 426.62 150.57 425.43 150.74 424.06 141.84 424.06 141.84 420.8 150.57 419.61 150.57 416.52 141.84 416.52 141.84 415.15 150.74 413.78 150.57 415.84 140.13 415.84 140.13"/><path class="cls-1" d="M441,146.12h-3.43l1.72-4.79h0l1.71,4.79Zm-6.68,4.28,1.2.34,1.54-3.59h4.28l1.54,3.59,1.2-.34L440,140.13h-1.2l-4.45,10.27Z"/><path class="cls-1" d="M460.87,145.26v4.8a9.38,9.38,0,0,1-3.42.68c-3.09,0-5.48-1.88-5.48-5.3a5.3,5.3,0,0,1,5.48-5.48,11.17,11.17,0,0,1,3.25.68l-.51,1a6.54,6.54,0,0,0-2.74-.69,4.25,4.25,0,0,0-4.11,4.46,4.1,4.1,0,0,0,4.11,4.28,4,4,0,0,0,2.05-.52v-3.94Z"/><polygon class="cls-1" points="470.46 140.13 471.66 140.13 471.66 150.57 470.29 150.57 470.46 140.13 470.46 140.13"/><path class="cls-1" d="M489,141.84a5.19,5.19,0,0,0-2.74-.86,4.25,4.25,0,0,0-4.11,4.46,4.1,4.1,0,0,0,4.11,4.28,5.1,5.1,0,0,0,2.74-.86l.52,1a7.15,7.15,0,0,1-3.26.85c-3.08,0-5.48-1.88-5.48-5.3a5.31,5.31,0,0,1,5.48-5.48,7.15,7.15,0,0,1,3.26.85l-.52,1Z"/><path class="cls-2" d="M181.09,94.41a19.83,19.83,0,0,0-8.74-2c-8,0-13.87,5.3-13.87,13.35,0,7.54,4.63,13.53,12.67,13.53,4.29,0,6-1,9.42-2.06l3.25,7.71a29.21,29.21,0,0,1-14,3.25c-14,0-22.6-9.07-22.6-22.77,0-13,8.74-21.75,24.15-21.75,5.65,0,10.27,1.2,13.18,2.91l-3.42,7.88Z"/><path class="cls-2" d="M200.78,92.87h4.45c4.28,0,6.51,1.37,6.51,5,0,4.29-3.6,5-6.34,5h-5l.35-9.93Zm.17,18h1.71c2.4,0,3.42,1.71,4.62,4.28l6,11.64h12.5l-7.37-13c-1.54-2.74-3.42-5.48-5.82-6.16h0a10.43,10.43,0,0,0,10.1-11c0-9.59-7.36-11.82-16.09-11.82H190l-.34,42h11.13l.17-15.92Z"/><polygon class="cls-2" points="230.4 84.82 259.51 84.82 259.51 93.55 241.36 93.55 241.36 101.6 259.34 101.6 259.34 109.99 241.19 109.99 241.19 118.04 259.17 118.04 259.17 126.77 230.06 126.77 230.4 84.82 230.4 84.82"/><path class="cls-2" d="M283.48,94.24h.17l4.28,14.55h-9.07l4.62-14.55Zm-22.09,32.53h11.3l3.26-9.59H290.5l3.08,9.59h12L290.16,84.82h-12.5l-16.27,42Z"/><polygon class="cls-2" points="309.16 84.82 320.12 84.82 319.78 117.7 338.79 117.7 338.61 126.77 308.82 126.77 309.16 84.82 309.16 84.82"/><path class="cls-2" d="M349.92,105.88c0-9.24,5.13-13.52,11.3-13.52,6.33,0,11.47,4.28,11.47,13.52s-5.14,13.36-11.47,13.36c-6.17,0-11.3-4.11-11.3-13.36Zm-11.31,0c0,12.16,8.39,22.26,22.78,22.26,14.21,0,22.6-10.1,22.6-22.26,0-12.33-8.39-22.26-22.6-22.26-14.39,0-22.78,9.93-22.78,22.26Z"/><path class="cls-2" d="M426.62,125.06c-5,2.4-10.44,3.08-16.09,3.08-14,0-22.77-9.07-22.77-22.77,0-13,8.9-21.75,24.14-21.75A29.42,29.42,0,0,1,427,87.39l-.17,9.08c-5.31-3.09-10.11-4.46-13.7-4.11-8.05.34-13.87,5.3-13.87,13.35,0,7.54,4.62,13.53,12.67,13.53a7.25,7.25,0,0,0,4.28-.86l.17-14.38H427l-.35,21.06Z"/><polygon class="cls-2" points="463.78 105.03 452.14 84.82 464.47 84.82 470.8 97.66 478.33 84.82 490.15 84.82 477.48 105.03 490.49 126.77 477.65 126.77 470.29 112.73 463.1 126.77 450.6 126.77 463.78 105.03 463.78 105.03"/><polygon class="cls-3" points="446.83 84.82 435.87 84.82 435.87 90.13 446.66 94.92 446.83 84.82 446.83 84.82"/><path class="cls-2" d="M435.53,126.77h11l.17-22.09c-2.74-1.54-6.68-2.74-11-4.79l-.17,26.88Z"/><path class="cls-4" d="M571.83,25.92a15.72,15.72,0,0,0-1.2-2.23c-.35-.68-1-.34-2.57-.34s-4.28,1.54-7.54,3.6c-3.08,1.88-11.3,7.87-12.67,8.73-1.2.68-3.76,2.91-7.19,4.79-3.25,1.72-5.48,2.74-7,2.74-1.2,0-7-5.82-8.39-7.19a122.59,122.59,0,0,0-13-11.81c-2.4-1.89-5-3.6-6-4.28a24.69,24.69,0,0,0-3.6-2.23,11.51,11.51,0,0,0-3.42,0h-.18c-.51.86-1.54,1.2-1.71,2.91-.17,2.57,7.37,10.28,7.54,10.45.34.34,3.93,6,4.28,6.5h.17c.34,1,2.22,5.14,2.57,6.17a.17.17,0,0,1,.17.17,5.37,5.37,0,0,1,.68,1.2c.86,1.54,2.4,3.94,1.54,5.31a1.55,1.55,0,0,1-.51.85,2.22,2.22,0,0,1-.86.51h-.17c-1.37.18-6.16,0-7.36,0-1.37,0-6.85.35-7.19.18a7,7,0,0,0-1.89-.35c-.34,0-.68.35-1.19.35l-.18-.18c-.51,0-2.56.18-3.76.18a1.35,1.35,0,0,1-.86,0c-.34,0-4.45.17-6,.34a.63.63,0,0,1-.52.17,20,20,0,0,0-4.45,1c-1.71.68-1.88,2-1.37,3.59v.52l.17.17c.35.34.69.51,1,.85a10.45,10.45,0,0,0,2.4,1,11.22,11.22,0,0,0,2.57.69c1,.17,7.7,2.39,9.59,2.91,1.88.34,10.27,2.39,11.3,2.57,1.2.34,6,.85,6.85,1a5.42,5.42,0,0,1,2.39,2.4v.86C514.46,72,514,72.32,514,73c-.17,1-.17,4.11-.17,4.28,0,.34-1.88,8.9-2.06,9.59S510,92.7,510,93.21c-.17.34-.68,1.71-.85,1.89-.17.51-.52.85-.52,1.37a11.3,11.3,0,0,0,.17,3.42c0,.34-.34,1-.34,1.37-.17,1.2-.51,2.4-.51,2.91,0,1,1.37,2.4,2.22,2.74.69.34.35.69,2.4.51,2.23-.17,4.11-4.11,4.45-4.45.35-.17.69-.85,1.2-1.71a22.52,22.52,0,0,0,1.71-3.6c.17-.34.69-1.37,1.2-2.56,2.4-4.8,6.17-11.82,6.34-12.33.68-1.2,1.71-2.57,2.74-4.11a33.48,33.48,0,0,0,2.39-3.43c.52-.68.52-.68,2.74-1,1.2,0,2.4,1.54,4.46,2.05h0a29.34,29.34,0,0,1,3.42,4.28,66.86,66.86,0,0,0,10.62,7.36c1.2.52,6.33,3.43,7.19,3.43A32.58,32.58,0,0,1,564.63,93a7.46,7.46,0,0,0,3.77.34c.86-.17,1.88-.85,1.71-2.74a7.36,7.36,0,0,1-.17-.85c-.85-2.57-8.56-8.73-9.59-9.76a19.5,19.5,0,0,1-4.45-5.31,54.33,54.33,0,0,0-3.25-4.62,43.53,43.53,0,0,1-2.74-3.94c-1-1.89-4.28-6.68-4.28-7.54a2.87,2.87,0,0,1,.34-.85l.17-.17a41.42,41.42,0,0,1,2.23-4.11c.17-.17.17-.17.17-.35a8.1,8.1,0,0,0,1.2-1.19c.17-.18.34-.52.51-.69,1.54-1.88,3.77-4.62,5.14-6a.17.17,0,0,1,.17-.17,3.6,3.6,0,0,1,.51-.86h.17c.52-.68,3.6-3.94,4.11-5s7.54-6.85,8.56-7.88a15.94,15.94,0,0,0,2.57-3.08,1.35,1.35,0,0,0,.17-1.37c-.17-.35.18-.86.18-1Z"/><path class="cls-3" d="M499.05,17.7a1.84,1.84,0,0,1,.69-.17c-.17.17.17,1.2,0,1.2-.34.17-.69.85-.51,1,0,.34,1,1,1.19,1s.69-.68.86-.51-.34.51-.34,1a.17.17,0,0,0,.17.17c.17,0,.34-.17.51,0,0,0,.52-.69.69-.69s-.17,1-.17,1.37c0,.52,1.19.35,1.37.52.17.34-.86.68-1,.85-.17,0-.34.17,0,.69,0,.17,1.2.34,1.2.34.17-.17,0-1.2.17-1.2.51,0,2,1.37,2,1.89s-1,.34-1,1c0,.17,1,.86,1.19.86.35,0,.18-1.2.35-1.37s1,.17,1.2.17c.34.34-.18,1.88,0,2.57s.51,0,1.37,0c.68,0,.68-.52.85-.69H510c.17.17,1.2,1.54.86,2.23-.17,0-1,.34-.86,1,0,.51,1.2.51,1.37.68h.17c.35-.17,1.2-1.37,1.37-1.37.17.17-.85,2.91-.17,4.11.86,1.2,2.57-1,2.74-1a18.46,18.46,0,0,1,0,3.09c0,.34,1.2.17,1.37.68.17.69-.85,1.54-1.2,1.88-.34.52-.34.86,0,1.2.52.52,1.72-1.88,1.89-2,.34-.17,1.37.51.51,1.88,0,.17-.51.52-.68.52s-.69.34-.18.85c0,.17.18.17.18,0,.51,0,1-1,1.37-1,.34-.17,1.19.69,1.19,1,.17.52-1.19,1.37-1.88,1.71-.51.52-.51.69-.34,1s.85.51,1,.34c.34-.34.34-1.37,1-1.54.69-.34,2.4.69,2.06.86a6.42,6.42,0,0,1-2.06,1.2c-.34.17-.85.51-.85.68-.17.52.51.69.34,1v.34c0,.17,0,.34.34.52.17.34.69-.69.86-1h.17a3.75,3.75,0,0,1,1.2,1.54c0,.34-1,.34-1.37.34s-.35.69-.35.86,1.2,0,1.2.17c0,.34-2,.51-2,1.2a1.27,1.27,0,0,0,.51.51c.52.34,1,.51,1.2.69.17,0,.34.17.51.17H522c.17-.17-.17-.52-.17-.86s.17-.68,1.2-.51c.34.17,1-2.91,1-2.57a9.2,9.2,0,0,1,.86,3.08c-.17.17-.17.34-.51.17-.86-.17-1.55,1-1.55,1.37.18,0,.18,0,.35.17s-.69.86-1,1.54c-.34.52.17.86.68,1,.35.17.69-1.88.86-1.88.34-.34.51-1.2,1.37-1.2.51,0,0,1.2.17,1.37.17.34.69-.51,1.37-.69s1.37.69,1.37,1.2c0,.35-1.37.52-1.88.35-.17-.18-.17,1.37-.52,1.54s-2.22-.52-2.39-.35c-.17.52.51.86.85,1,.17,0,.52.34.17.52l-.17.17c-.17.34,0,.68,0,1-.17.35-.34,0-.51-.17a.53.53,0,0,0-.34.17.66.66,0,0,0-.17.52c-.18.17-1-.17-1.2,0a1.61,1.61,0,0,0,0,1c0,.85,1.71-.18,2,0,.17.17-.17,1.54.34,2.39.69.86,1.72-.17,1.89,0,0,.34-.52,1.54-.52,1.89a1.21,1.21,0,0,0,.69.85c.17,0-.17-1,0-1.37s.51-.17.85-.34-.68-2.74-.85-3.25c0-.35-1.37-.35-1.37-1,0-.51.86-.69,1-.34a.17.17,0,0,0,.17.17A1.53,1.53,0,0,0,527,59a2.91,2.91,0,0,0-.34-.86c0-.17-.17-.34-.17-.51-.17-.52,0-1,.86-1.72.34-.34.85,0,1,0,0,.18.52-.17.35.52,0,.34.34.85.68.85.51,0,.69-1.37.17-1.54-1.2-.85,0-2.91.52-2.91,2.56.17.51,1,.68,1.37a1.74,1.74,0,0,0,1.2.69c.17.17-1.2.85.34,2.39l.34.35c.35.51.86,1.37.69,1.88,0,.86-.86,1.54-.69,1.88,0,.18,1.2,0,1.72.69.34.68-1,1.37-1.55,1.54s-.68-.34-1.19-.51A4.45,4.45,0,0,0,529,62.9a.17.17,0,0,0-.17.18l-.35.34c-.17.17-.51.51-.51.68-.17.35,1.37-.51,1.54-.51.34,0,0,1.71.52,2.57a1.91,1.91,0,0,0,1.37,1c.34,0,.51-.18.85-.69.17-.51-.85-1-1.2-1.71-.34-.52.52-.69,1-.52l.17.18c.34,0,1.71.68,2.4.85a1.23,1.23,0,0,0,1.37-.85c0-.35-.51-.35-.51-.35a6.54,6.54,0,0,1,.51-1.71c.17-.17.85.34.85.86,0,0,.18.68,1.2.68.86,0,1.54-.34,1.54-.17-.85,2.06-3.59,1.54-3.76,1.71s1,.86,1,1c-1.19.69-1.71,0-2.22,0-.17,0-.17,0-.69-.17a1.85,1.85,0,0,0-.85-.17c-.17,0-.17.17-.17.68,0,.17.17.35.51.35.34.17,1,.34,1.2.68,0,.51-.17,2.06-.17,2.23V71a2.1,2.1,0,0,0,.34-.51.59.59,0,0,0,.17-.34,11.21,11.21,0,0,0,.69-2.23c1,.17.17,1.54.51,2.23,0,.17.17.34.51.34a3.15,3.15,0,0,0,1.2-.34h.17l.17-.17c.18,0,.18,0,.18.17,0,0,1.19,1.71-.18,1.88-.17,0-1-.51-1.19-.34-.18,0-.18,1.54,0,1.54.34,0,.68-.86,1-.86.17,0,.35.17.69.17.34.17.85.35,1.2.52a9.7,9.7,0,0,1,2.22,0c.18,0,1,.51,1,.85,0,.17-1.54,0-1.54,1.72,0,.17.51.17,1,.34s.34,1.2.17,1.37c-.17.34.34.51.51.34.17,0,.17-.17.69,0,.34.17.51-.17.34-.51,0-.35-.34,0-.69-.17s.52-2.74.52-2.74c.17.17-1.71-2.23,0-2.23,1.71.17.85,2.4.85,2.91,0,.34,2.06,1,2.23,1.37,1.2,1.88-.86,1.37-1,1.54s-.51,0-.85,0c-.17,0-.17-.51-.35-.34s0,.68,0,.86l.69.17a5.63,5.63,0,0,0,0,1.71c.17.17.68.17,1,.34.51,0-.35,1,1.19.86.18,0,.52.51.52.34a2,2,0,0,0,.51-2.4s.69-1.37,1.71,0a19,19,0,0,1-.51,2.74c-.17.17-1.71.69-2,1s0,.51.17.68c.17,0,.68-.85.85-.85.17.17.69.68,1,.68.51,0,1.37-1.88,1.54-1.88a.78.78,0,0,1,.69.86c.17.51,0,1.54,1,2.05.18,0,2.23-1.37,1.55-.17-.35,1,1.88,1,1.71,1.37-.35.17-.17.17-.35.34s0,.86-.17.86c-.85.34-2.22-.86-2.22-.52-.34.52.85,1.89,2.05,1.89a11.47,11.47,0,0,0,2.06-.52c.34.69.68-1.71.85-1.71a11.47,11.47,0,0,1,1.54,1.2l-.17,1a4.83,4.83,0,0,0,1.89.68c.17,0-.52-.85-.69-1.2.17,0,.86.18,1,.18,0,0,1,1.88,1.37,1.88.68,0,.68.51,1.37.51.17,0,1-.51,1.2-.34.68,1.2.85,0,1.2-.17.17-.17.85,1.37.85,1.37s.34,0,.34-.52c.18-.17,1.2,1,1-.51.52,2.06-.68,2.91-1.54,3.08a7.46,7.46,0,0,1-3.77-.34A32.58,32.58,0,0,0,561,91.33c-.86,0-6-2.91-7.19-3.43a66.86,66.86,0,0,1-10.62-7.36,29.34,29.34,0,0,0-3.42-4.28h0c-2.06-.51-3.26-2.05-4.46-2.05-2.22.34-2.22.34-2.74,1a33.48,33.48,0,0,1-2.39,3.43c-1,1.54-2.06,2.91-2.74,4.11-.17.51-3.94,7.53-6.34,12.33-.51,1.19-1,2.22-1.2,2.56a22.52,22.52,0,0,1-1.71,3.6c-.51.86-.85,1.54-1.2,1.71-.34.34-2.22,4.28-4.45,4.45-2.05.18-1.71-.17-2.4-.51-.85-.34-2.22-1.71-2.22-2.74,0-.51.34-1.71.51-2.91,0-.34.34-1,.34-1.37a11.3,11.3,0,0,1-.17-3.42c0-.52.35-.86.52-1.37.17-.18.68-1.55.85-1.89,0-.51,1.54-5.65,1.71-6.33s2.06-9.25,2.06-9.59c0-.17,0-3.26.17-4.28,0-.69.51-1,.34-2.91v-.86a5.42,5.42,0,0,0-2.39-2.4c-.86-.17-5.65-.68-6.85-1-1-.18-9.42-2.23-11.3-2.57-1.89-.52-8.57-2.74-9.59-2.91a11.22,11.22,0,0,1-2.57-.69,10.45,10.45,0,0,1-2.4-1c-.34-.34-.68-.51-1-.85L478,57.6v-.52c-.51-1.54-.34-2.91,1.37-3.59a20,20,0,0,1,4.45-1,.63.63,0,0,0,.52-.17c1.54-.17,5.65-.34,6-.34a1.35,1.35,0,0,0,.86,0c1.2,0,3.25-.18,3.76-.18l.18.18c.51,0,.85-.35,1.19-.35a7,7,0,0,1,1.89.35c.34.17,5.82-.18,7.19-.18,1.2,0,6,.18,7.36,0h.17a2.22,2.22,0,0,0,.86-.51,1.55,1.55,0,0,0,.51-.85c.86-1.37-.68-3.77-1.54-5.31a5.37,5.37,0,0,0-.68-1.2.17.17,0,0,0-.17-.17c-.35-1-2.23-5.14-2.57-6.17h-.17c-.35-.51-3.94-6.16-4.28-6.5-.17-.17-7.71-7.88-7.54-10.45.17-1.71,1.2-2.05,1.71-2.91Zm17.47,37.16c-.34.51.17.68.17.85-.17.17-.51,0-.86,0a.17.17,0,0,0-.17.17c0,.18.69.18,1,.52.17.17.34.51.51.68a1.06,1.06,0,0,0,.69.17c.51.35.68-.68,1-1,.51-.35.51-.69,0-.52-.35,0-.86-.68-1.2-.85-.34-.35-.52-.35-1.2,0Zm-19.35-.17a1.12,1.12,0,0,0-.86-.69c-.34,0-.17.86-.85.86-.34.17.17,1.71.68,1.88a.79.79,0,0,0,.86,0c.34-.17-.86-.68-.69-1.2.35-.68,1.2-.51,1-.68l-.17-.17Zm-9.25.34c-.51.34-.34.68-.34,1,0,.51.86.34,1.71.17.69-.17.52-.17.18-1-.35-1-1-.34-1.55-.17Zm-5.48,2.57c.69,0-.68-1.54-.17-1.72.17-.34,1,1.2,1.2,1.2.34,0,.52-.34.69-1.2a1.46,1.46,0,0,0-.69-1.19c-.51-.69-.85-.69-1-.69-.51-.17-.34-.17-.51-.51s-.68,0-.68.34c-.17.34,1,.68.68.86-.34,0-1.54-.35-1.88-.18-.52.18-.34.52-.17,1,0,.34-.17.34-.35.52l-.17.17a.92.92,0,0,0,.86.85c.34,0-.17-1,0-1.2s.51.18.68.52c.35.34.86,1.2,1.54,1.2Zm49.49.51a2,2,0,0,0-1-.51h-.34c-.17.17.17.51.17.68s-.17.69,0,.69a1.91,1.91,0,0,0,.86-.17c.34-.18.51-.52.34-.69Zm-23.12-.51a2.19,2.19,0,0,0,.35-2.06c-.17-.85-.52-.68-1-.51.17.85-1,2-.86,2,.17.17,1.2-.17,1.2-.17a1.19,1.19,0,0,0-.34.69v.17a1.69,1.69,0,0,0,.68-.17Zm-4.45,0a11.52,11.52,0,0,0,.17-2.23c0-.51.35-.51.69-.51h.34c.34,0,.69.34,1.2,0,.34-.35.86-.69.17-.86-.51,0-.86.34-1.2.17h-.17c-.68,0-.85-.85-1-.68-.34.17-.68,1.54-1,1.88a1.35,1.35,0,0,0-.86,1.2.78.78,0,0,0,0,.86c0,.17-.17.17,0,.17,0,.17,0,.17.17.17v.17c.17.17,1.2,0,1.37,0a.59.59,0,0,0,.17-.34Zm-4.28,0,1.71-1.72c.86-1-.51-1.88-.34-2.05s.34-.34.17-.51c0-.18-.51-.35-1.2.34-.51.51-.34,1.37-.51,1.54-.34.34-1,.86-1.2,1a7.88,7.88,0,0,0,.34,1.37c.18.17.35.34.35.51a2.94,2.94,0,0,0,.68-.51Zm-14,.34a.24.24,0,0,0,0-.34c-.17-.17-.34-.35-.34-.52h0c0-.34.34-1.54.34-1.71a1.91,1.91,0,0,0-1.54-1.2c-.34,0-.17.69-.17,1h.17c-.17.34.68,1.37.51,1.54-.17.34-.51-.17-.51.17v.69l.17.34a1.9,1.9,0,0,0,1.37,0Zm40.75,7.7c-.34.18-.34.52,0,.86.17.17.52.17.52.34l.17.17c.17.18.51,0,.51-.34-.17-.34,0-1-.34-1,0,.18-.69-.17-.86,0Zm3.77,4.46h-.17c0-.17-.52-.17-.52-.35s1.2-.68.69-.85-.51-.69-.69-.69-.68-.34-.68-.17c0,.34.17.52-.17.69-.52,0-1.71-.69-1.37,0a2.57,2.57,0,0,1,.68,1.37c0,.34,0,.85.17.85a2.42,2.42,0,0,0,1.89,0c.34-.17.17-.68.17-.85Zm35.1,21.23c-.34,0-.34.34-.34.85v.18c.17.17.51-.18.68-.35.35-.34,0-.51-.34-.68Zm-45.55-8.39c-.51.34-.85.68-.85.85-.17.18-.34.69.34.69.51,0,2.4,1.88,2.74,1.88.51,0-.34-1.2-.17-1.54.17-.17,1.71,1,2.91.69,1.2-.52,0-1.54-.17-1.72-.34-.34-2.91.52-3.08.35,0-.35.34-.69,0-1.2a2.9,2.9,0,0,0-1.72,0Zm3.94-.69v.69c.35,0,1.37.68,1.54,0l.18-.34c0-.18,0-.35-.18-.35-.51-.34-1.54-.17-1.54,0ZM523,79c-.35.34,1,.34,1,.51.17.35-1,.35-1,.69a17.86,17.86,0,0,1,1.54.34c.51,0,1,1,1.54.69s-.17-.69-.69-1.2c-.34-.35.35-.69-.17-1A3.31,3.31,0,0,0,523,79Zm-2.4,16.61a17.28,17.28,0,0,1,1.54-3.43c.68-1,0-2.91.17-3.08s.51.35.86-.34-.86-1.88-1-1.88c-.34,0,0,.51-.34.85-.52.17-.69-.51-1,0-.69.35-2.57-.68-2.57,0,0,2.06,2.91,1.72,3.08,2.23.35.34-.51,1-.68,1.2a9.85,9.85,0,0,1-2.06-.35c-.51-.17-1.37,0-1.37.69a1.8,1.8,0,0,0,1.55,1.88c.85,0,1,1,1,1.72l-.17,1.37c0,.34-.68-.35-.85-.18a4.63,4.63,0,0,0-.52-1.19c-.34-.35-.51-.52-.68-.52a1.54,1.54,0,0,0-.86.52,2.86,2.86,0,0,0-1.2,1.54c0,1.88,2.74,2,2.74,2,0,.34-.68,1.2-1,1s-2.22-2.91-2.91-.34c-.17.51.86,1.54,1,1.88.17.17.17.17.17.34,0,.34-1.54.86-2.22,2.23a1.32,1.32,0,0,0,.34,1.54l.17.17a4.17,4.17,0,0,0-1.37.86c-.17,0-.34.17-.17.17,1.2.17,1.88-.86,3.08-2.06a10.56,10.56,0,0,0,2.4-3.08A11.75,11.75,0,0,0,519.09,98c.34-.52,1.37-2.06,1.54-2.4Zm-9.42,8.56c-.17.17,0,.34,0,.51s.34.35.34.35c.52,0,.17.17.52.17s.34-.17.34-.52c0-.51-.17-.17-.34-.34s0-.17-.17-.17c-.18-.17-.69,0-.69,0ZM514,36.36a.59.59,0,0,0-.17-.34c-.17,0-.17.17-.34.34s-.17.18-.35.18c0,0,0,1.2.18,1.2l.34-.18h.17c.17,0,.17-.68.17-.68l.34-.34c0-.18-.34-.18-.34-.18Z"/></svg>