<?xml version="1.0" encoding="utf-8"?>
<!-- Generator: Adobe Illustrator 24.0.3, SVG Export Plug-In . SVG Version: 6.00 Build 0)  -->
<svg version="1.1" id="Layer_1" xmlns="http://www.w3.org/2000/svg" xmlns:xlink="http://www.w3.org/1999/xlink" x="0px" y="0px"
	 viewBox="0 0 287 89.8" style="enable-background:new 0 0 287 89.8;" xml:space="preserve">
<style type="text/css">
	.st0{fill:#C9C9C9;}
</style>
<title>logo-</title>
<g>
	<g>
		<path class="st0" d="M46.9,46.6h-1.4c-1.4,0-2.5-0.1-3.5-0.4s-1.8-0.9-2.6-1.8c-0.7-1-1.2-2.1-1.4-3.4s-0.3-3.3-0.3-5.8
			c0-2.6-0.1-4.4-0.3-5.7s-0.6-2.3-1.4-3.1c-0.7-0.8-1.9-1.3-3.4-1.3v-4c1.6,0,2.7-0.5,3.4-1.3s1.2-1.9,1.4-3.1s0.3-3.1,0.3-5.7
			s0.1-4.5,0.3-5.8s0.6-2.5,1.4-3.4C40.1,0.8,41,0.2,42,0c1-0.3,2.2-0.4,3.5-0.4h1.3v3.8H46c-1.7,0-2.7,0.5-3.1,1.3
			C42.5,5.6,42.3,8,42.3,12c0,3.5-0.5,6.1-1.4,7.8s-2.3,2.7-4.2,3.3c1.9,0.6,3.3,1.7,4.2,3.3c0.9,1.6,1.4,4.2,1.4,7.8
			c0,4,0.2,6.4,0.6,7.3c0.4,0.9,1.4,1.3,3.1,1.3h0.8L46.9,46.6L46.9,46.6z"/>
		<path class="st0" d="M69.5,13.3c2.3-2.6,4.9-3.9,7.8-3.9c5.9,0,8.8,3.2,8.8,9.6v17h-4.6V19.2c0-2.1-0.4-3.7-1.1-4.6
			c-0.8-0.9-2-1.4-3.7-1.4c-2.4,0-4.7,1.4-7.1,4.2V36H65V10h4.6L69.5,13.3L69.5,13.3z"/>
		<path class="st0" d="M103.4,9.4c3.7,0,6.7,1.2,8.9,3.6c2.2,2.4,3.3,5.7,3.3,10.1c0,4.3-1.1,7.7-3.3,10c-2.2,2.4-5.2,3.6-8.9,3.6
			c-3.7,0-6.7-1.2-8.9-3.6c-2.2-2.4-3.3-5.7-3.3-10s1.1-7.7,3.3-10.1C96.7,10.6,99.7,9.4,103.4,9.4z M103.4,33c2.2,0,4-0.8,5.4-2.5
			s2.1-4.2,2.1-7.5s-0.7-5.8-2.1-7.5s-3.2-2.5-5.4-2.5c-2.2,0-4,0.8-5.4,2.5s-2.1,4.2-2.1,7.5s0.7,5.8,2.1,7.5S101.1,33,103.4,33z"
			/>
		<path class="st0" d="M138.7,36.1h-4.6v-36h4.6V36.1z"/>
		<path class="st0" d="M156.1,9.4c3.7,0,6.7,1.2,8.9,3.6c2.2,2.4,3.3,5.7,3.3,10.1c0,4.3-1.1,7.7-3.3,10c-2.2,2.4-5.2,3.6-8.9,3.6
			c-3.7,0-6.7-1.2-8.9-3.6c-2.2-2.4-3.3-5.7-3.3-10s1.1-7.7,3.3-10.1C149.5,10.6,152.4,9.4,156.1,9.4z M156.1,33
			c2.2,0,4-0.8,5.4-2.5s2.1-4.2,2.1-7.5s-0.7-5.8-2.1-7.5s-3.2-2.5-5.4-2.5c-2.2,0-4,0.8-5.4,2.5s-2.1,4.2-2.1,7.5s0.7,5.8,2.1,7.5
			S153.9,33,156.1,33z"/>
		<path class="st0" d="M194.6,34.1c0,8.4-3.8,12.6-11.3,12.6c-3.3,0-5.9-0.7-7.7-2.1c-1.9-1.4-2.8-3.3-2.8-5.7h4.8
			c0,2.8,1.9,4.3,5.7,4.3c2.2,0,3.8-0.6,5-1.8c1.2-1.2,1.8-3.5,1.8-7v-1.3c-2.1,2.5-4.5,3.7-7.4,3.7c-3.4,0-6-1.2-7.9-3.6
			s-2.8-5.7-2.8-9.8c0-4.3,1-7.6,3.1-10.1s4.7-3.7,7.9-3.7c2.8,0,5.2,0.9,7.1,2.6v-2h4.6v23.9H194.6z M190,28.6V16.2
			c-2-2.1-4.3-3.2-6.8-3.2c-2,0-3.6,0.9-4.7,2.6c-1.2,1.7-1.8,4.3-1.8,7.6c0,3.2,0.6,5.6,1.7,7.3c1.1,1.7,2.7,2.5,4.6,2.5
			C185.5,33,187.9,31.6,190,28.6z"/>
		<path class="st0" d="M212,9.4c3.7,0,6.7,1.2,8.9,3.6c2.2,2.4,3.3,5.7,3.3,10.1c0,4.3-1.1,7.7-3.3,10c-2.2,2.4-5.2,3.6-8.9,3.6
			c-3.7,0-6.7-1.2-8.9-3.6c-2.2-2.4-3.3-5.7-3.3-10s1.1-7.7,3.3-10.1S208.3,9.4,212,9.4z M212,33c2.2,0,4-0.8,5.4-2.5
			s2.1-4.2,2.1-7.5s-0.7-5.8-2.1-7.5S214.2,13,212,13c-2.2,0-4,0.8-5.4,2.5s-2.1,4.2-2.1,7.5s0.7,5.8,2.1,7.5S209.8,33,212,33z"/>
		<path class="st0" d="M240.5-0.5h1.3c1.4,0,2.5,0.1,3.5,0.4s1.8,0.9,2.6,1.8c0.7,1,1.2,2.1,1.4,3.4c0.2,1.3,0.3,3.3,0.3,5.8
			c0,2.6,0.1,4.4,0.3,5.7c0.2,1.2,0.6,2.3,1.4,3.1c0.7,0.8,1.9,1.3,3.4,1.3v4c-1.6,0-2.7,0.5-3.4,1.3c-0.7,0.8-1.2,1.9-1.4,3.1
			c-0.2,1.2-0.3,3.1-0.3,5.7s-0.1,4.5-0.3,5.8c-0.2,1.3-0.6,2.5-1.4,3.4c-0.7,1-1.6,1.6-2.6,1.8c-1,0.3-2.2,0.4-3.5,0.4h-1.3v-3.8
			h0.8c1.7,0,2.7-0.5,3.1-1.3c0.4-0.9,0.6-3.3,0.6-7.3c0-3.5,0.5-6.1,1.4-7.8c0.9-1.6,2.3-2.7,4.2-3.3c-1.9-0.6-3.3-1.7-4.2-3.3
			c-0.9-1.6-1.4-4.2-1.4-7.8c0-4-0.2-6.4-0.6-7.3s-1.4-1.3-3.1-1.3h-0.8V-0.5z"/>
	</g>
	<g>
		<path class="st0" d="M6.5,84.4c-2,0-3.5-0.6-4.7-1.9c-1.2-1.3-1.8-3-1.8-5.3s0.6-4.1,1.8-5.3C3,70.6,4.5,70,6.5,70
			c1.5,0,2.8,0.4,3.8,1.1c1,0.8,1.6,1.9,1.8,3.3H9.5c0-0.8-0.3-1.5-0.9-1.9c-0.6-0.4-1.3-0.7-2.1-0.7c-1.2,0-2.1,0.4-2.9,1.3
			c-0.7,0.9-1.1,2.2-1.1,4s0.4,3.1,1.1,4c0.7,0.9,1.7,1.3,2.9,1.3c0.8,0,1.5-0.2,2.1-0.7c0.6-0.4,0.9-1.1,0.9-1.9H12
			c-0.2,1.4-0.8,2.5-1.8,3.3S8,84.4,6.5,84.4z"/>
		<path class="st0" d="M33.7,70c2,0,3.5,0.6,4.7,1.9s1.8,3,1.8,5.3s-0.6,4.1-1.8,5.3c-1.2,1.3-2.8,1.9-4.7,1.9c-2,0-3.5-0.6-4.7-1.9
			c-1.2-1.3-1.8-3-1.8-5.3s0.6-4.1,1.8-5.3C30.1,70.6,31.7,70,33.7,70z M33.7,82.5c1.2,0,2.1-0.4,2.9-1.3c0.7-0.9,1.1-2.2,1.1-4
			s-0.4-3.1-1.1-4c-0.7-0.9-1.7-1.3-2.9-1.3s-2.1,0.4-2.9,1.3c-0.7,0.9-1.1,2.2-1.1,4s0.4,3.1,1.1,4C31.5,82.1,32.5,82.5,33.7,82.5z
			"/>
		<path class="st0" d="M75.4,84.1h-2.5v-8.9c0-1.1-0.2-2-0.5-2.4c-0.3-0.5-0.9-0.7-1.7-0.7c-1.2,0-2.4,0.7-3.5,2.2v9.9h-2.4v-8.9
			c0-1.1-0.2-2-0.5-2.4s-0.9-0.7-1.7-0.7c-1.2,0-2.4,0.7-3.5,2.2v9.9h-2.5V70.5h2.5v1.8c1.2-1.4,2.5-2.1,3.9-2.1
			c2,0,3.3,0.8,3.9,2.5c0.9-1.1,1.7-1.8,2.3-2.1s1.3-0.4,1.9-0.4c2.8,0,4.2,1.7,4.2,5.1v8.8H75.4z"/>
		<path class="st0" d="M95.3,67.7h-2.5V65h2.5V67.7z M95.3,84.1h-2.5V70.3h2.5V84.1z"/>
		<path class="st0" d="M115.3,72.1c1.2-1.4,2.6-2.1,4.1-2.1c3.1,0,4.7,1.7,4.7,5.1v9h-2.5v-8.9c0-1.1-0.2-1.9-0.6-2.4
			s-1.1-0.7-2-0.7c-1.2,0-2.5,0.7-3.8,2.2v9.9h-2.5V70.4h2.5L115.3,72.1L115.3,72.1z"/>
		<path class="st0" d="M152.7,83.1c0,4.4-2,6.7-6,6.7c-1.7,0-3.1-0.4-4.1-1.1c-1-0.8-1.5-1.8-1.5-3h2.5c0,1.5,1,2.3,3,2.3
			c1.1,0,2-0.3,2.7-0.9c0.6-0.6,0.9-1.9,0.9-3.7v-0.7c-1.1,1.3-2.4,2-3.9,2c-1.8,0-3.2-0.6-4.2-1.9c-1-1.3-1.5-3-1.5-5.2
			c0-2.3,0.6-4,1.7-5.4c1.1-1.3,2.5-2,4.2-2c1.5,0,2.8,0.5,3.8,1.4v-1.1h2.4V83.1z M150.2,80.1v-6.5c-1.1-1.1-2.3-1.7-3.6-1.7
			c-1.1,0-1.9,0.5-2.5,1.4s-0.9,2.3-0.9,4.1c0,1.7,0.3,3,0.9,3.9s1.4,1.3,2.5,1.3C147.9,82.5,149.1,81.7,150.2,80.1z"/>
		<path class="st0" d="M196.1,84.4c-3.8,0-5.8-1.5-5.9-4.5h2.5c0,1.7,1.2,2.5,3.4,2.5c1,0,1.8-0.2,2.3-0.6s0.8-0.9,0.8-1.6
			c0-0.6-0.3-1.1-0.8-1.3c-0.5-0.3-1.6-0.6-3.2-1s-2.8-0.9-3.6-1.4c-0.8-0.5-1.1-1.4-1.1-2.7c0-1.1,0.5-2.1,1.4-2.8
			c0.9-0.8,2.2-1.1,3.7-1.1c3.6,0,5.5,1.3,5.5,3.9h-2.4c-0.1-1.3-1.1-2-2.9-2c-0.8,0-1.5,0.2-2.1,0.5c-0.5,0.3-0.8,0.8-0.8,1.4
			c0,0.5,0.2,0.9,0.6,1.2c0.4,0.2,1.5,0.6,3.1,1c1.7,0.4,2.9,0.9,3.7,1.4c0.8,0.5,1.2,1.5,1.2,2.8s-0.5,2.3-1.5,3.1
			C199.1,84,197.8,84.4,196.1,84.4z"/>
		<path class="st0" d="M223.9,70c2,0,3.5,0.6,4.7,1.9s1.8,3,1.8,5.3s-0.6,4.1-1.8,5.3c-1.2,1.3-2.8,1.9-4.7,1.9
			c-2,0-3.5-0.6-4.7-1.9c-1.2-1.3-1.8-3-1.8-5.3s0.6-4.1,1.8-5.3C220.4,70.6,222,70,223.9,70z M223.9,82.5c1.2,0,2.1-0.4,2.9-1.3
			c0.7-0.9,1.1-2.2,1.1-4s-0.4-3.1-1.1-4s-1.7-1.3-2.9-1.3s-2.1,0.4-2.9,1.3s-1.1,2.2-1.1,4s0.4,3.1,1.1,4S222.8,82.5,223.9,82.5z"
			/>
		<path class="st0" d="M252.6,70c2,0,3.5,0.6,4.7,1.9s1.8,3,1.8,5.3s-0.6,4.1-1.8,5.3c-1.2,1.3-2.8,1.9-4.7,1.9
			c-2,0-3.5-0.6-4.7-1.9c-1.2-1.3-1.8-3-1.8-5.3s0.6-4.1,1.8-5.3C249.1,70.6,250.7,70,252.6,70z M252.6,82.5c1.2,0,2.1-0.4,2.9-1.3
			c0.7-0.9,1.1-2.2,1.1-4s-0.4-3.1-1.1-4s-1.7-1.3-2.9-1.3s-2.1,0.4-2.9,1.3s-1.1,2.2-1.1,4s0.4,3.1,1.1,4S251.5,82.5,252.6,82.5z"
			/>
		<path class="st0" d="M278.2,72.1c1.2-1.4,2.6-2.1,4.1-2.1c3.1,0,4.7,1.7,4.7,5.1v9h-2.5v-8.9c0-1.1-0.2-1.9-0.6-2.4
			s-1.1-0.7-2-0.7c-1.2,0-2.5,0.7-3.8,2.2v9.9h-2.5V70.4h2.5L278.2,72.1L278.2,72.1z"/>
	</g>
</g>
</svg>
