<?xml version="1.0" encoding="utf-8"?>
<!-- Generator: Adobe Illustrator 24.1.0, SVG Export Plug-In . SVG Version: 6.00 Build 0)  -->
<svg version="1.1" id="Layer_1" xmlns="http://www.w3.org/2000/svg" xmlns:xlink="http://www.w3.org/1999/xlink" x="0px" y="0px"
	 viewBox="0 0 416 200" style="enable-background:new 0 0 416 200;" xml:space="preserve">
<style type="text/css">
	.st0{fill:#FF7300;}
	.st1{fill:#003366;}
</style>
<g>
	<path id="XMLID_5_" class="st0" d="M0,200h367c27.3,0,49-22.4,49-48.6V0H0V200"/>
	<path id="XMLID_6_" class="st1" d="M41.9,179.4H41c-10.5,0-19.5-7.3-19.5-19.4c0-7.5,11.2-7.5,11.2,0c0,5.2,3.4,8.2,8.2,8.2h0.9
		c4.8,0,8.5-2.5,8.5-7.4c0-12.1-28.2-13.3-28.2-31c0-1.3,0-0.8,0-2c0-10.4,10.4-16.6,18.8-16.6h0.9c10,0,18.9,6.2,18.9,15.5
		c0,7.2-11.1,7.4-11.1,0.3c0-2.5-3.1-4.6-7.7-4.6H41c-4.3,0-7.5,2.3-7.5,6c0,1.3,0,0.3,0,1.5c0,7.7,28.2,11.1,28.2,31
		C61.6,172,53,179.4,41.9,179.4"/>
	<path id="XMLID_7_" class="st1" d="M90.6,179.4h-0.9c-10.7,0-19.4-8.2-19.4-19v-30.2c0-10.7,8.7-18.9,19.4-18.9h0.9
		c9.8,0,17.9,6.7,19.2,16.2c0.1,0.3,0.1,0.6,0.1,1c0,3.5-2.9,5.4-5.7,5.4c-2.5,0-5-1.6-5.4-4.9c-0.6-4-4-6.6-8.1-6.6h-0.9
		c-4.5,0-8.2,3.3-8.2,7.7v30.2c0,4.5,3.8,7.8,8.2,7.8h0.9c4.2,0,7.6-2.6,8.1-6.6c0.5-3.3,3-4.8,5.4-4.8c2.9,0,5.7,1.9,5.7,5.4
		c0,0.4,0,0.7,0,1.1C108.4,172.6,100.4,179.4,90.6,179.4"/>
	<path id="XMLID_10_" class="st1" d="M146.3,130.3c0-4.6-3.6-7.8-8.1-7.8h-0.9c-4.5,0-8.1,3.4-8.1,7.8v30c0,4.6,3.7,7.9,8.1,7.9h0.9
		c4.6,0,8.1-3.4,8.1-7.8V130.3z M138.2,179.4h-0.9c-10.6,0-19.4-8.3-19.4-19v-30.1c0-10.8,8.7-19,19.4-19h0.9
		c10.7,0,19.4,8.2,19.4,19v30C157.6,171.1,148.9,179.4,138.2,179.4"/>
	<path id="XMLID_11_" class="st1" d="M189.3,179.4h-0.9c-10.7,0-19.4-8.7-19.4-19.4v-43.1c0-3.8,2.8-5.6,5.6-5.6
		c2.8,0,5.6,1.8,5.6,5.6V160c0,4.5,3.7,8.2,8.1,8.2h0.9c4.6,0,8.2-3.7,8.2-8.2v-43.1c0-3.8,2.8-5.6,5.6-5.6c2.8,0,5.6,1.8,5.6,5.6
		V160C208.8,170.7,200.1,179.4,189.3,179.4"/>
	<path id="XMLID_12_" class="st1" d="M248.6,123h-7.8v50.8c0,3.8-2.8,5.6-5.6,5.6c-2.8,0-5.6-1.8-5.6-5.6V123h-7.7
		c-3.7,0-5.6-2.8-5.6-5.6c0-2.7,1.9-5.5,5.6-5.5h26.8c3.8,0,5.6,2.8,5.6,5.5C254.2,120.2,252.3,123,248.6,123"/>
	<path id="XMLID_13_" class="st1" d="M300.9,178.8h-25.2c-3.6,0-5.7-3.4-5.7-6.7c0-1.2,0.2-2.4,0.9-3.5l22-35.5c1.1-2,1.1-3,1.1-4.5
		V128c0-2.9-2.5-5.5-5.8-5.5h-0.3c-3.2,0-5.6,2.5-5.6,5.5v1.1c0,3.7-2.8,5.5-5.6,5.5c-2.8,0-5.6-1.8-5.6-5.5v-1.4
		c0-9.4,7.7-16.3,16.9-16.3h0.3c9.1,0,17,6.8,17,16.3l-0.1,1.1c0,3.7-1.3,6.7-3.4,10.1l-17.7,29h16.9c3.8,0,5.6,2.8,5.6,5.5
		C306.5,176,304.7,178.8,300.9,178.8"/>
	<path id="XMLID_14_" class="st1" d="M345.2,165.6h-2.1v8.2c0,3.8-2.8,5.6-5.6,5.6c-2.8,0-5.6-1.8-5.6-5.6v-8.2h-15.2
		c-3.9,0-6.3-2.1-6.3-5.9c0-1,0.2-2.2,0.6-3.1l18.1-41.9c1.1-2.4,3-3.4,4.9-3.4c2.9,0,5.8,2.2,5.8,5.4c0,0.8-0.1,1.5-0.5,2.4
		l-16,35.3h8.5v-5.6c0-3.7,2.8-5.6,5.6-5.6c2.8,0,5.6,1.8,5.6,5.6v5.6h2.1c3.8,0,5.6,2.7,5.6,5.5C350.8,162.8,349,165.6,345.2,165.6
		"/>
</g>
</svg>
