<?xml version="1.0" encoding="utf-8"?>
<!-- Generator: Adobe Illustrator 24.0.3, SVG Export Plug-In . SVG Version: 6.00 Build 0)  -->
<svg version="1.1" id="Layer_1" xmlns="http://www.w3.org/2000/svg" xmlns:xlink="http://www.w3.org/1999/xlink" x="0px" y="0px"
	 viewBox="0 0 369.8 84.2" style="enable-background:new 0 0 369.8 84.2;" xml:space="preserve">
<style type="text/css">
	.st0{fill-rule:evenodd;clip-rule:evenodd;fill:#E03A3E;}
	.st1{fill:#FFFFFF;}
</style>
<title>logo-</title>
<path class="st0" d="M347.1,70.2c-11.4,0-22.2-4.3-22.2-16.5h14c0.1,3.5,2.5,7.1,8.6,7.1c5.4,0,8-2.9,8-6.1c0-2.4-1.1-4.2-7.1-6
	l-9.3-2.8c-4.2-1.2-13.2-4.1-13.2-14.7c0-10.2,9.1-16.1,21.6-16.1c11.6,0,21,4.7,21.3,15.4h-13.9c-0.3-5.8-5-6.1-7.4-6.1
	c-4.2,0-7.2,1.8-7.2,4.9c0,3.6,2.4,4.7,6.9,5.9l9.4,2.7c5.3,1.6,13.5,4.8,13.5,14.8C369.8,61.9,362.8,70.2,347.1,70.2z M297.4,70.2
	c-11.3,0-22.2-4.3-22.2-16.5h14c0.1,3.5,2.5,7.1,8.6,7.1c5.5,0,8-2.9,8-6.1c0-2.4-1.1-4.2-7.1-6l-9.3-2.8
	c-4.3-1.2-13.2-4.1-13.2-14.7c0-10.2,9.1-16.1,21.6-16.1c11.7,0,21,4.7,21.3,15.4h-13.9c-0.3-5.8-5-6.1-7.5-6.1
	c-4.1,0-7.2,1.8-7.2,4.9c0,3.6,2.4,4.7,6.9,5.9l9.4,2.7c5.3,1.6,13.4,4.8,13.4,14.8C320.1,61.8,313.2,70.2,297.4,70.2L297.4,70.2z
	 M254.9,16.5h13.7v52.2h-13.7V16.5z M234.9,68.7h-14.6l-10.3-37l-10.3,37h-14.6l-16.4-52.2h14.1l9.6,36.3l10-36.3h15.1l10,36.3
	l9.5-36.3h13.5L234.9,68.7z M145.8,70.2c-11.3,0-22.2-4.3-22.2-16.5h14.1c0.1,3.5,2.5,7.1,8.5,7.1c5.5,0,8-2.9,8-6.1
	c0-2.4-1.2-4.2-7.1-6l-9.4-2.8c-4.2-1.2-13.1-4.1-13.1-14.7c0-10.2,9.1-16.1,21.5-16.1c11.6,0,21,4.7,21.3,15.4h-13.9
	c-0.3-5.8-5.1-6.1-7.5-6.1c-4.1,0-7.2,1.8-7.2,4.9c0,3.6,2.4,4.7,6.9,5.9l9.4,2.7c5.2,1.6,13.5,4.8,13.5,14.8
	C168.6,61.8,161.7,70.2,145.8,70.2L145.8,70.2z"/>
<polygon class="st0" points="114.8,0 68.7,0 0,84.2 93.9,84.2 "/>
<polygon class="st1" points="79,35.1 79,16.4 64.4,16.4 64.4,35.1 45.8,35.1 45.8,49.6 64.4,49.6 64.4,68.3 79,68.3 79,49.6 
	97.7,49.6 97.7,35.1 "/>
</svg>
