<?xml version="1.0" encoding="utf-8"?>
<!-- Generator: Adobe Illustrator 24.0.3, SVG Export Plug-In . SVG Version: 6.00 Build 0)  -->
<svg version="1.1" id="Layer_1" xmlns="http://www.w3.org/2000/svg" xmlns:xlink="http://www.w3.org/1999/xlink" x="0px" y="0px"
	 viewBox="0 0 401.8 101.6" style="enable-background:new 0 0 401.8 101.6;" xml:space="preserve">
<style type="text/css">
	.st0{fill:#484848;}
	.st1{fill:#E95298;}
	.st2{fill:#4FADE1;}
	.st3{fill:#D3D827;}
</style>
<title>logo-</title>
<path class="st0" d="M74.1,85.1c0.3-0.5,0.6-1,1.1-1.4s1-0.6,1.6-0.8c0.7-0.2,1.4-0.3,2.1-0.3c0.6,0,1.2,0.1,1.8,0.2
	c0.6,0.1,1.1,0.3,1.6,0.6s0.9,0.8,1.1,1.3c0.3,0.7,0.5,1.4,0.4,2.2V94c-0.1,0.5,0.2,0.9,0.7,1c0.1,0,0.2,0,0.3,0
	c0.2,0,0.4,0,0.5-0.1v1.4l-0.5,0.1c-0.2,0-0.4,0-0.6,0c-0.3,0-0.7,0-1-0.2c-0.2-0.1-0.4-0.3-0.6-0.5c-0.1-0.2-0.2-0.5-0.3-0.7
	c0-0.3-0.1-0.6-0.1-0.9h-0.1c-0.3,0.4-0.6,0.8-0.9,1.1c-0.3,0.3-0.6,0.6-1,0.8s-0.8,0.4-1.3,0.5c-0.6,0.1-1.1,0.2-1.7,0.2
	c-0.6,0-1.2-0.1-1.7-0.2c-0.5-0.1-1-0.4-1.4-0.7s-0.8-0.7-1-1.2s-0.4-1.1-0.4-1.7c0-0.8,0.2-1.5,0.6-2.2c0.4-0.5,1-0.9,1.6-1.2
	c0.7-0.3,1.5-0.5,2.3-0.6l2.6-0.3c0.3,0,0.6-0.1,0.9-0.1c0.2,0,0.5-0.1,0.6-0.3c0.2-0.1,0.3-0.3,0.4-0.5c0.1-0.3,0.2-0.6,0.1-0.9
	c0-0.5-0.1-0.9-0.3-1.4c-0.2-0.3-0.4-0.6-0.8-0.8c-0.3-0.2-0.7-0.4-1.1-0.4c-0.4-0.1-0.9-0.1-1.4-0.1c-0.9,0-1.8,0.2-2.5,0.7
	c-0.7,0.6-1,1.5-1,2.4h-1.6C73.7,86.4,73.9,85.7,74.1,85.1z M82.3,89.1c-0.1,0.2-0.3,0.4-0.6,0.4c-0.3,0.1-0.5,0.1-0.8,0.2
	c-0.7,0.1-1.4,0.2-2.1,0.3c-0.7,0.1-1.3,0.2-2,0.4c-0.5,0.2-1.1,0.4-1.5,0.8c-0.4,0.4-0.6,0.9-0.6,1.5c0,0.4,0.1,0.8,0.2,1.1
	c0.2,0.3,0.4,0.6,0.7,0.8s0.6,0.4,0.9,0.5c0.4,0.1,0.7,0.2,1.1,0.2c0.6,0,1.2-0.1,1.8-0.3c0.5-0.2,1-0.5,1.5-0.8
	c0.9-0.8,1.4-1.9,1.4-3.1L82.3,89.1L82.3,89.1z"/>
<path class="st0" d="M88.7,83v3.1h0.1c0.7-2.1,2.8-3.5,5-3.3v1.6c-0.7,0-1.4,0.1-2,0.3s-1.1,0.6-1.6,1c-0.4,0.4-0.8,1-1,1.5
	c-0.2,0.6-0.4,1.3-0.4,1.9v7.1h-1.6V82.9L88.7,83L88.7,83z"/>
<path class="st0" d="M100.6,83v1.4h-2.7v9c0,0.4,0.1,0.9,0.2,1.2c0.1,0.3,0.5,0.5,1.1,0.5c0.5,0,0.9,0,1.4-0.1v1.4h-0.7h-0.7
	c-0.8,0.1-1.6-0.1-2.3-0.6c-0.5-0.7-0.7-1.5-0.6-2.3v-9.1h-2.4V83h2.3v-4h1.7v4L100.6,83z"/>
<path class="st0" d="M103.3,83l3.4,11.4h0.1L110,83h1.8l3.2,11.4h0.1l3.4-11.4h1.7l-4.3,13.3h-1.8l-3.3-11.2l0,0l-3.2,11.2h-1.7
	L101.6,83H103.3z"/>
<path class="st0" d="M130.3,83.2c0.8,0.4,1.5,0.9,2,1.5c0.5,0.7,1,1.4,1.2,2.2c0.6,1.8,0.6,3.7,0,5.4c-0.2,0.8-0.7,1.6-1.2,2.2
	c-0.5,0.6-1.2,1.2-2,1.5c-1.7,0.7-3.7,0.7-5.4,0c-0.8-0.3-1.5-0.9-2-1.5c-0.5-0.7-1-1.4-1.2-2.2c-0.5-1.8-0.5-3.7,0-5.4
	c0.3-0.8,0.7-1.6,1.2-2.2c0.5-0.6,1.2-1.2,2-1.5C126.7,82.5,128.6,82.5,130.3,83.2z M125.6,84.5c-0.6,0.3-1.1,0.8-1.4,1.3
	c-0.4,0.5-0.7,1.2-0.9,1.8c-0.4,1.4-0.4,2.8,0,4.1c0.2,0.7,0.5,1.3,0.9,1.8s0.9,1,1.4,1.3c0.6,0.3,1.3,0.5,2,0.5
	c0.7,0,1.4-0.2,2-0.5s1.1-0.8,1.5-1.3c0.4-0.6,0.7-1.2,0.9-1.8c0.4-1.4,0.4-2.8,0-4.1c-0.2-0.7-0.5-1.3-0.9-1.8s-0.9-1-1.5-1.3
	s-1.3-0.5-2-0.5C126.9,84,126.2,84.2,125.6,84.5z"/>
<path class="st0" d="M137.8,83v3.1h0.1c0.4-1,1-1.9,1.9-2.5s2-0.8,3.1-0.8v1.6c-0.7,0-1.4,0.1-2,0.3s-1.1,0.6-1.6,1
	c-0.4,0.4-0.8,1-1,1.5c-0.2,0.6-0.4,1.3-0.4,1.9v7.1h-1.6V82.9L137.8,83L137.8,83z"/>
<path class="st0" d="M146.1,77.9v11.5l7.4-6.4h2.2l-5.8,4.9l6.1,8.4h-2l-5.2-7.2l-2.6,2.2v5.1h-1.6V77.9H146.1z"/>
<path class="st0" d="M166.2,77.9v18.4h-1.6V77.9H166.2z"/>
<path class="st0" d="M170.9,77.9v2.6h-1.6v-2.6H170.9z M170.9,83v13.3h-1.6V83.1L170.9,83z"/>
<path class="st0" d="M176.5,84.4v11.9h-1.6V84.4h-2.3V83h2.3v-1.2c0-0.5,0-1.1,0.1-1.6c0.1-0.4,0.2-0.9,0.5-1.2
	c0.3-0.4,0.6-0.6,1-0.8c0.5-0.2,1.1-0.3,1.6-0.3h0.7l0.7,0.1v1.4l-0.6-0.1c-0.2,0-0.4,0-0.6,0c-0.3,0-0.7,0.1-1,0.2
	c-0.2,0.1-0.4,0.3-0.5,0.6s-0.2,0.5-0.2,0.8s0,0.6,0,1v1.2h2.6v1.4L176.5,84.4z"/>
<path class="st0" d="M181.9,91.9c0.2,0.6,0.4,1.2,0.8,1.7s0.8,0.9,1.4,1.2s1.3,0.5,2,0.5c1,0.1,2-0.3,2.8-0.9
	c0.7-0.7,1.2-1.5,1.4-2.5h1.7c-0.2,1.3-0.9,2.6-1.9,3.5c-1.1,0.9-2.5,1.3-3.9,1.2c-0.9,0-1.9-0.2-2.7-0.6c-0.7-0.3-1.4-0.9-1.9-1.5
	c-0.5-0.7-0.9-1.4-1.1-2.2c-0.2-0.9-0.4-1.8-0.4-2.7s0.1-1.7,0.4-2.6c0.2-0.8,0.6-1.6,1.1-2.3s1.1-1.2,1.9-1.6
	c0.8-0.4,1.8-0.6,2.7-0.6c1,0,1.9,0.2,2.7,0.6c0.7,0.4,1.4,1,1.9,1.7s0.8,1.5,1,2.4s0.3,1.8,0.3,2.7h-10.3
	C181.7,90.7,181.7,91.3,181.9,91.9z M189.9,86.9c-0.2-0.5-0.5-1.1-0.8-1.5c-0.4-0.4-0.8-0.8-1.3-1c-0.5-0.3-1.1-0.4-1.8-0.4
	c-0.6,0-1.2,0.1-1.8,0.4c-0.5,0.2-0.9,0.6-1.3,1c-0.4,0.5-0.7,1-0.9,1.5c-0.2,0.6-0.4,1.2-0.4,1.8h8.6
	C190.2,88.1,190.1,87.5,189.9,86.9L189.9,86.9z"/>
<path class="st0" d="M202.2,84.9c-0.7-0.6-1.6-0.9-2.5-0.9c-0.7,0-1.4,0.2-2,0.5s-1.1,0.8-1.5,1.3s-0.7,1.2-0.9,1.8
	c-0.4,1.4-0.4,2.8,0,4.1c0.2,0.7,0.5,1.3,0.9,1.8s0.9,1,1.5,1.3s1.3,0.5,2,0.5c0.5,0,1-0.1,1.4-0.3s0.8-0.5,1.2-0.8
	c0.3-0.3,0.6-0.8,0.9-1.2c0.2-0.5,0.4-1,0.4-1.5h1.6c-0.1,1.4-0.8,2.8-1.8,3.8c-1,0.9-2.3,1.4-3.7,1.4c-0.9,0-1.8-0.2-2.7-0.6
	c-0.8-0.3-1.5-0.9-2-1.5c-0.5-0.7-1-1.4-1.2-2.2c-0.5-1.8-0.5-3.7,0-5.4c0.3-0.8,0.7-1.6,1.2-2.2c0.5-0.6,1.2-1.2,2-1.5
	c0.8-0.4,1.8-0.6,2.7-0.6c1.3,0,2.6,0.4,3.6,1.1c1,0.8,1.7,2.1,1.8,3.4h-1.6C203.3,86.4,202.9,85.5,202.2,84.9z"/>
<path class="st0" d="M207.7,83l4.4,11.3l4.1-11.3h1.6L212,98.3c-0.2,0.5-0.4,1-0.7,1.4c-0.2,0.3-0.4,0.6-0.7,0.9
	c-0.3,0.2-0.5,0.4-0.9,0.5s-0.8,0.1-1.3,0.1h-0.8c-0.2,0-0.3,0-0.5-0.1v-1.4l0.6,0.1c0.2,0,0.4,0,0.5,0c0.3,0,0.6,0,0.9-0.1
	c0.2-0.1,0.4-0.2,0.6-0.4s0.3-0.4,0.4-0.6l0.4-0.9l0.6-1.5l-5.3-13.2L207.7,83z"/>
<path class="st0" d="M227.5,84.9c-0.7-0.6-1.6-0.9-2.5-0.9c-0.7,0-1.4,0.2-2,0.5s-1.1,0.8-1.5,1.3s-0.7,1.2-0.9,1.8
	c-0.4,1.4-0.4,2.8,0,4.1c0.2,0.7,0.5,1.3,0.9,1.8s0.9,1,1.5,1.3s1.3,0.5,2,0.5c0.5,0,1-0.1,1.4-0.3s0.8-0.5,1.2-0.8
	c0.4-0.3,0.6-0.8,0.9-1.2c0.2-0.5,0.4-1,0.4-1.5h1.6c-0.1,1.4-0.8,2.8-1.8,3.8c-1,0.9-2.3,1.4-3.7,1.4c-0.9,0-1.8-0.2-2.7-0.6
	c-0.8-0.3-1.5-0.9-2-1.5c-0.5-0.7-1-1.4-1.2-2.2c-0.6-1.8-0.6-3.7,0-5.4c0.2-0.8,0.7-1.6,1.2-2.2c0.5-0.6,1.2-1.2,2-1.5
	c0.8-0.4,1.8-0.6,2.7-0.6c1.3,0,2.6,0.4,3.6,1.1c1,0.8,1.7,2.1,1.8,3.4h-1.6C228.6,86.4,228.2,85.5,227.5,84.9z"/>
<path class="st0" d="M234.4,77.9v18.4h-1.6V77.9H234.4z"/>
<path class="st0" d="M238.7,91.9c0.2,0.6,0.4,1.2,0.8,1.7s0.8,1,1.4,1.3s1.3,0.5,2,0.5c1,0.1,2-0.3,2.8-0.9c0.7-0.7,1.2-1.5,1.4-2.5
	h1.6c-0.2,1.3-0.9,2.6-1.9,3.5c-1.1,0.9-2.5,1.3-3.9,1.2c-0.9,0-1.9-0.2-2.7-0.6c-0.7-0.3-1.4-0.9-1.9-1.5c-0.5-0.7-0.9-1.4-1.1-2.2
	c-0.2-0.9-0.4-1.8-0.4-2.7s0.1-1.7,0.4-2.6c0.2-0.8,0.6-1.6,1.1-2.3s1.1-1.2,1.9-1.6c0.8-0.4,1.8-0.6,2.7-0.6
	c1.8-0.1,3.6,0.8,4.6,2.3c0.5,0.7,0.8,1.5,1,2.4s0.3,1.8,0.3,2.7h-10.2C238.5,90.7,238.6,91.3,238.7,91.9z M246.7,86.9
	c-0.2-0.5-0.5-1.1-0.8-1.5c-0.4-0.4-0.8-0.8-1.3-1c-0.5-0.3-1.1-0.4-1.8-0.4c-0.6,0-1.2,0.1-1.8,0.4c-0.5,0.2-0.9,0.6-1.3,1
	c-0.4,0.5-0.7,1-0.9,1.5c-0.2,0.6-0.3,1.2-0.4,1.8h8.6C247,88.1,247,87.5,246.7,86.9L246.7,86.9z"/>
<path class="st0" d="M259.6,83v2.2h0.1c0.4-0.8,1-1.4,1.7-1.9c0.8-0.5,1.7-0.7,2.7-0.7c0.8,0,1.7,0.2,2.4,0.6
	c0.7,0.4,1.2,1.1,1.4,1.9c0.4-0.8,1-1.5,1.8-1.9s1.6-0.7,2.5-0.6c2.9,0,4.4,1.6,4.4,4.7v9H275v-8.9c0.1-0.9-0.2-1.8-0.7-2.5
	c-0.6-0.6-1.5-1-2.5-0.9c-0.6,0-1.2,0.1-1.8,0.4c-0.5,0.3-0.8,0.6-1.1,1.1c-0.3,0.5-0.5,1-0.6,1.5c-0.1,0.6-0.2,1.2-0.2,1.8v7.5
	h-1.6v-9c0-0.4,0-0.9-0.1-1.3c-0.1-0.4-0.2-0.7-0.5-1.1c-0.2-0.3-0.5-0.5-0.9-0.7s-0.9-0.3-1.3-0.2c-0.6,0-1.2,0.1-1.8,0.4
	c-0.5,0.2-0.9,0.6-1.2,1c-0.3,0.5-0.6,1-0.7,1.6c-0.2,0.6-0.2,1.3-0.2,1.9v7.4h-1.6V83H259.6z"/>
<path class="st0" d="M279.9,85.1c0.3-0.5,0.6-1,1.1-1.4s1.1-0.6,1.7-0.8c0.7-0.2,1.4-0.3,2.1-0.3c0.6,0,1.2,0.1,1.8,0.2
	c0.6,0.1,1.1,0.3,1.6,0.6s0.9,0.8,1.1,1.3c0.3,0.7,0.5,1.4,0.4,2.2V94c-0.1,0.5,0.2,0.9,0.7,1c0.1,0,0.2,0,0.2,0
	c0.2,0,0.4,0,0.5-0.1v1.4l-0.5,0.1c-0.2,0-0.4,0-0.6,0c-0.3,0-0.7,0-1-0.2c-0.2-0.1-0.4-0.3-0.6-0.5c-0.1-0.2-0.2-0.5-0.3-0.7
	c0-0.3-0.1-0.6-0.1-0.9l0,0c-0.3,0.4-0.6,0.8-0.9,1.1s-0.6,0.6-1,0.8s-0.8,0.4-1.3,0.5c-0.6,0.1-1.1,0.2-1.7,0.2s-1.2-0.1-1.7-0.2
	c-0.5-0.1-1-0.4-1.4-0.7s-0.7-0.7-1-1.2c-0.2-0.5-0.4-1.1-0.4-1.7c0-0.8,0.2-1.5,0.6-2.2c0.4-0.5,1-0.9,1.6-1.2
	c0.7-0.3,1.5-0.5,2.3-0.6l2.6-0.3c0.3,0,0.6-0.1,0.9-0.1c0.2,0,0.5-0.1,0.6-0.3c0.2-0.1,0.3-0.3,0.4-0.5c0.1-0.3,0.2-0.6,0.1-0.9
	c0-0.5-0.1-0.9-0.3-1.4c-0.2-0.3-0.4-0.6-0.8-0.8c-0.3-0.2-0.7-0.4-1.1-0.4c-0.4-0.1-0.9-0.1-1.4-0.1c-0.9,0-1.8,0.2-2.5,0.7
	c-0.7,0.6-1,1.5-1,2.4H279C279.5,86.4,279.6,85.7,279.9,85.1z M288,89.1c-0.1,0.2-0.3,0.4-0.6,0.4c-0.3,0.1-0.5,0.1-0.8,0.2
	c-0.7,0.1-1.4,0.2-2.1,0.3s-1.3,0.2-2,0.4c-0.5,0.2-1.1,0.4-1.5,0.8c-0.4,0.4-0.6,0.9-0.6,1.5c0,0.4,0.1,0.8,0.2,1.1
	c0.2,0.3,0.4,0.6,0.7,0.8c0.3,0.2,0.6,0.4,1,0.5s0.7,0.2,1.1,0.2c0.6,0,1.2-0.1,1.8-0.3c0.5-0.2,1-0.5,1.5-0.8
	c0.9-0.8,1.4-1.9,1.4-3.1L288,89.1L288,89.1z"/>
<path class="st0" d="M294.5,83v2.3l0,0c0.3-0.8,0.9-1.5,1.6-1.9c0.8-0.5,1.7-0.7,2.6-0.7c0.8,0,1.6,0.1,2.3,0.4
	c0.6,0.2,1.1,0.5,1.5,1s0.7,1,0.8,1.6c0.2,0.7,0.2,1.4,0.2,2.1v8.6h-1.6v-8.3c0-0.5,0-1.1-0.1-1.6s-0.3-0.9-0.5-1.3
	c-0.3-0.4-0.6-0.7-1-0.9c-0.5-0.2-1.1-0.3-1.6-0.3c-0.6,0-1.2,0.1-1.7,0.3s-0.9,0.6-1.3,1s-0.6,0.9-0.8,1.4
	c-0.2,0.6-0.3,1.2-0.3,1.8v7.8h-1.7V83L294.5,83L294.5,83z"/>
<path class="st0" d="M307.1,85.1c0.3-0.5,0.6-1,1.1-1.4s1.1-0.7,1.7-0.8c0.7-0.2,1.4-0.3,2.1-0.3c0.6,0,1.2,0.1,1.8,0.2
	c0.6,0.1,1.1,0.3,1.6,0.6s0.9,0.8,1.1,1.3c0.3,0.7,0.5,1.4,0.4,2.2V94c-0.1,0.5,0.2,0.9,0.7,1c0.1,0,0.2,0,0.2,0
	c0.2,0,0.4,0,0.5-0.1v1.4c-0.2,0-0.4,0.1-0.5,0.1c-0.2,0-0.4,0-0.5,0c-0.3,0-0.7,0-1-0.2c-0.2-0.1-0.4-0.3-0.6-0.5
	c-0.1-0.2-0.2-0.5-0.3-0.7c0-0.3-0.1-0.6-0.1-0.9l0,0c-0.3,0.4-0.6,0.8-0.9,1.1s-0.6,0.6-1,0.8s-0.8,0.4-1.3,0.5
	c-0.6,0.1-1.1,0.2-1.7,0.2s-1.2-0.1-1.7-0.2c-0.5-0.1-1-0.4-1.4-0.7s-0.7-0.7-1-1.2c-0.2-0.5-0.4-1.1-0.4-1.7c0-0.8,0.2-1.5,0.6-2.2
	c0.4-0.5,1-0.9,1.6-1.2c0.7-0.3,1.5-0.5,2.3-0.6l2.6-0.3c0.3,0,0.6-0.1,0.9-0.1c0.2,0,0.5-0.1,0.6-0.3c0.2-0.1,0.3-0.3,0.4-0.5
	c0.1-0.3,0.2-0.6,0.1-0.9c0-0.5-0.1-0.9-0.3-1.4c-0.2-0.3-0.4-0.6-0.7-0.8c-0.3-0.2-0.7-0.4-1.1-0.4c-0.4-0.1-0.9-0.1-1.4-0.1
	c-0.9,0-1.8,0.2-2.5,0.7c-0.7,0.6-1.1,1.5-1,2.4h-1.6C306.7,86.4,306.8,85.7,307.1,85.1z M315.2,89.1c-0.1,0.2-0.3,0.4-0.6,0.4
	c-0.3,0.1-0.5,0.1-0.8,0.2c-0.7,0.1-1.4,0.2-2.1,0.3s-1.3,0.2-2,0.4c-0.5,0.2-1.1,0.4-1.5,0.8c-0.4,0.4-0.6,0.9-0.6,1.5
	c0,0.4,0.1,0.8,0.2,1.1c0.2,0.3,0.4,0.6,0.7,0.8c0.3,0.2,0.6,0.4,1,0.5s0.7,0.2,1.1,0.2c0.6,0,1.2-0.1,1.8-0.3
	c0.5-0.2,1.1-0.5,1.5-0.8c0.9-0.8,1.4-1.9,1.4-3.1L315.2,89.1L315.2,89.1z"/>
<path class="st0" d="M331,97.9c-0.2,0.7-0.5,1.4-1,2s-1.1,1-1.8,1.3c-0.9,0.3-1.8,0.5-2.7,0.4c-0.7,0-1.3-0.1-2-0.2
	c-0.6-0.1-1.2-0.4-1.7-0.7s-0.9-0.7-1.3-1.2c-0.3-0.5-0.5-1.2-0.6-1.8h1.6c0.1,0.5,0.2,0.9,0.5,1.2c0.2,0.3,0.6,0.6,0.9,0.8
	c0.4,0.2,0.8,0.4,1.2,0.4c0.4,0.1,0.9,0.1,1.3,0.1c1.2,0.1,2.4-0.4,3.3-1.3c0.7-1.1,1.1-2.4,1-3.7v-1.8h-0.1c-0.4,0.8-0.9,1.5-1.7,2
	c-0.8,0.5-1.6,0.8-2.6,0.8c-0.9,0-1.9-0.2-2.7-0.5c-0.7-0.3-1.3-0.8-1.8-1.4c-0.5-0.6-0.9-1.4-1.1-2.2c-0.2-0.9-0.3-1.8-0.3-2.7
	s0.1-1.8,0.4-2.6s0.6-1.5,1.2-2.1c0.5-0.6,1.2-1.1,1.9-1.4c0.8-0.4,1.7-0.5,2.6-0.5c0.5,0,0.9,0.1,1.4,0.2c0.4,0.1,0.8,0.3,1.2,0.6
	c0.4,0.2,0.7,0.5,1,0.9c0.3,0.3,0.5,0.6,0.6,1h0.1v-2.3h1.6v12.2C331.4,96.1,331.3,97,331,97.9z M327.3,94.3c0.5-0.3,1-0.7,1.3-1.2
	c0.4-0.5,0.6-1.1,0.8-1.7c0.2-0.7,0.3-1.3,0.3-2s-0.1-1.3-0.2-2c-0.1-0.6-0.4-1.2-0.7-1.8c-0.3-0.5-0.8-1-1.3-1.3
	c-0.6-0.3-1.3-0.5-2-0.5s-1.4,0.1-2,0.5c-0.5,0.3-1,0.7-1.4,1.2s-0.6,1.1-0.8,1.8c-0.2,0.7-0.2,1.3-0.2,2s0.1,1.3,0.3,2
	c0.2,0.6,0.4,1.2,0.8,1.7s0.8,0.9,1.4,1.2s1.3,0.5,2,0.4C326.1,94.8,326.7,94.6,327.3,94.3L327.3,94.3z"/>
<path class="st0" d="M335.6,91.9c0.1,0.6,0.4,1.2,0.8,1.7s0.8,0.9,1.4,1.2s1.3,0.5,2,0.5c1,0.1,2-0.3,2.8-0.9
	c0.7-0.7,1.2-1.5,1.4-2.5h1.6c-0.2,1.3-0.9,2.6-1.9,3.5c-1.1,0.9-2.5,1.3-3.9,1.2c-0.9,0-1.9-0.2-2.7-0.6c-0.7-0.3-1.4-0.9-1.9-1.5
	c-0.5-0.7-0.9-1.4-1.1-2.2c-0.2-0.9-0.4-1.8-0.4-2.7s0.1-1.7,0.4-2.6c0.2-0.8,0.6-1.6,1.1-2.3s1.1-1.2,1.9-1.6
	c0.8-0.4,1.8-0.6,2.7-0.6c1.8-0.1,3.6,0.8,4.6,2.3c0.5,0.7,0.8,1.5,1,2.4s0.3,1.8,0.2,2.7h-10.2C335.4,90.7,335.5,91.3,335.6,91.9z
	 M343.6,86.9c-0.2-0.5-0.5-1.1-0.8-1.5c-0.4-0.4-0.8-0.8-1.3-1c-1.1-0.5-2.4-0.5-3.5,0c-0.5,0.2-1,0.6-1.3,1c-0.4,0.5-0.7,1-0.9,1.5
	c-0.2,0.6-0.4,1.2-0.4,1.8h8.6C344,88.1,343.9,87.5,343.6,86.9L343.6,86.9z"/>
<path class="st0" d="M349.3,83v2.2h0.1c0.4-0.8,1-1.4,1.7-1.9c0.8-0.5,1.7-0.7,2.7-0.7c0.8,0,1.7,0.2,2.4,0.6
	c0.7,0.4,1.2,1.1,1.4,1.9c0.4-0.8,1-1.5,1.8-1.9s1.6-0.7,2.5-0.6c2.9,0,4.4,1.6,4.4,4.7v9h-1.6v-8.9c0.1-0.9-0.2-1.7-0.7-2.5
	c-0.6-0.6-1.5-1-2.5-0.9c-0.6,0-1.2,0.1-1.8,0.4c-0.5,0.3-0.8,0.6-1.1,1.1c-0.3,0.5-0.5,1-0.6,1.5c-0.1,0.6-0.2,1.2-0.2,1.8v7.5
	h-1.6v-9c0-0.4,0-0.9-0.1-1.3c-0.1-0.4-0.2-0.7-0.5-1.1c-0.2-0.3-0.5-0.5-0.9-0.7s-0.9-0.3-1.3-0.2c-0.6,0-1.2,0.1-1.8,0.4
	c-0.5,0.2-0.9,0.6-1.2,1c-0.3,0.5-0.6,1-0.7,1.6c-0.2,0.6-0.2,1.3-0.2,1.9v7.4h-1.6V83H349.3z"/>
<path class="st0" d="M370.5,91.9c0.2,0.6,0.4,1.2,0.8,1.7s0.8,0.9,1.4,1.2s1.3,0.5,2,0.5c1,0.1,2-0.3,2.8-0.9
	c0.7-0.7,1.2-1.5,1.4-2.5h1.6c-0.3,1.3-0.9,2.6-1.9,3.5c-1.1,0.9-2.5,1.3-3.9,1.2c-0.9,0-1.9-0.2-2.7-0.6c-0.7-0.4-1.4-0.9-1.9-1.5
	c-0.5-0.7-0.9-1.4-1.1-2.2c-0.2-0.9-0.4-1.8-0.4-2.7s0.1-1.7,0.4-2.6c0.2-0.8,0.6-1.6,1.1-2.3s1.1-1.2,1.9-1.6
	c0.8-0.4,1.8-0.6,2.7-0.6c1.8-0.1,3.6,0.8,4.6,2.3c0.5,0.7,0.8,1.5,1,2.4s0.3,1.8,0.3,2.7h-10.2C370.2,90.7,370.3,91.3,370.5,91.9z
	 M378.5,86.9c-0.2-0.5-0.5-1.1-0.8-1.5c-0.4-0.4-0.8-0.8-1.3-1c-0.5-0.3-1.1-0.4-1.8-0.4c-0.6,0-1.2,0.1-1.8,0.4
	c-0.5,0.2-0.9,0.6-1.3,1c-0.4,0.5-0.7,1-0.9,1.5c-0.2,0.6-0.4,1.2-0.4,1.8h8.6C378.8,88.1,378.7,87.5,378.5,86.9L378.5,86.9z"/>
<path class="st0" d="M384.3,83v2.3l0,0c0.3-0.8,0.9-1.5,1.6-1.9c0.8-0.5,1.7-0.7,2.6-0.7c0.8,0,1.6,0.1,2.3,0.4
	c0.6,0.2,1.1,0.5,1.5,1s0.7,1,0.8,1.6c0.2,0.7,0.2,1.4,0.2,2.1v8.6h-1.6v-8.3c0-0.5,0-1.1-0.2-1.6c-0.1-0.5-0.3-0.9-0.5-1.3
	c-0.3-0.4-0.6-0.7-1-0.9c-0.5-0.2-1.1-0.3-1.6-0.3c-0.6,0-1.2,0.1-1.7,0.3s-0.9,0.6-1.3,1s-0.6,0.9-0.8,1.4
	c-0.2,0.6-0.3,1.2-0.3,1.8v7.8h-1.6V83L384.3,83L384.3,83z"/>
<path class="st0" d="M401.8,83v1.4h-2.7v9c0,0.4,0.1,0.9,0.2,1.2c0.2,0.3,0.5,0.5,1.1,0.5c0.5,0,0.9,0,1.4-0.1v1.4h-0.7h-0.7
	c-0.8,0.1-1.6-0.1-2.3-0.6c-0.5-0.7-0.7-1.5-0.6-2.3v-9.1h-2.3V83h2.3v-4h1.6v4L401.8,83z"/>
<path class="st0" d="M25.8,1.5C28.9,1.4,32,2,34.9,3.1C37.2,4,39.3,5.4,41,7.2c1.6,1.7,2.7,3.7,3.4,5.8c1.4,4.4,1.4,9.2,0,13.6
	c-0.7,2.2-1.9,4.2-3.4,5.9c-1.7,1.8-3.8,3.2-6.1,4.1c-2.9,1.1-6,1.6-9.1,1.6H12.6v20.5H0V1.5H25.8z M22.4,28.4
	c1.4,0,2.8-0.1,4.2-0.3c1.2-0.2,2.4-0.6,3.5-1.2c1-0.6,1.9-1.5,2.4-2.6c1.2-2.8,1.2-6,0-8.8c-0.6-1.1-1.4-2-2.4-2.6
	c-1.1-0.6-2.3-1.1-3.5-1.2c-1.4-0.2-2.8-0.3-4.2-0.3h-9.8v17.1L22.4,28.4z"/>
<path class="st0" d="M76,1.5l21.4,57.1h-13l-4.3-12.7H58.7l-4.5,12.7H41.5L63.1,1.5H76z M76.7,36.6l-7.2-21h-0.2l-7.4,21H76.7z"/>
<path class="st0" d="M111.9,44.6c0.7,1.3,1.6,2.4,2.8,3.2c1.2,0.9,2.6,1.5,4,1.8c1.6,0.4,3.2,0.6,4.8,0.6c1.2,0,2.4-0.1,3.6-0.3
	c1.2-0.2,2.5-0.5,3.6-1.1c1.1-0.5,2-1.3,2.8-2.2c0.8-1,1.2-2.3,1.1-3.6c0.1-1.4-0.5-2.8-1.5-3.8c-1.1-1-2.4-1.9-3.9-2.4
	c-1.8-0.7-3.6-1.3-5.4-1.7c-2-0.5-4.1-1-6.2-1.6c-2.1-0.5-4.2-1.2-6.2-2c-1.9-0.7-3.8-1.7-5.4-3c-1.6-1.2-2.9-2.8-3.9-4.6
	c-1-2.1-1.5-4.4-1.5-6.7c-0.1-2.7,0.6-5.3,1.9-7.6c1.2-2.1,2.9-4,4.9-5.4c2.1-1.5,4.4-2.6,6.9-3.2c2.5-0.7,5.1-1,7.7-1
	c2.9,0,5.8,0.3,8.6,1c2.6,0.6,5.1,1.7,7.4,3.3c2.1,1.5,3.9,3.4,5.1,5.7c1.3,2.6,2,5.5,1.9,8.4h-12.2c0-1.5-0.4-2.9-1.1-4.2
	c-0.6-1.1-1.4-2-2.4-2.6c-1.1-0.7-2.2-1.1-3.5-1.4c-1.4-0.3-2.8-0.4-4.3-0.4c-1,0-2,0.1-3,0.3c-1,0.2-1.9,0.6-2.8,1.1
	c-0.8,0.5-1.5,1.2-2,2c-0.6,0.9-0.8,1.9-0.8,3c0,0.9,0.2,1.9,0.6,2.7c0.6,0.9,1.5,1.5,2.5,1.9c1.7,0.7,3.4,1.3,5.2,1.8
	c2.2,0.6,5.1,1.3,8.7,2.2c1.1,0.2,2.6,0.6,4.4,1.2c2,0.6,3.8,1.5,5.5,2.7c1.9,1.3,3.6,3,4.9,4.9c1.4,2.4,2.1,5.1,2,7.9
	c0,2.5-0.5,5-1.5,7.3s-2.6,4.2-4.5,5.8c-2.2,1.7-4.7,3-7.4,3.8c-3.3,1-6.8,1.4-10.3,1.4c-3.1,0-6.1-0.4-9.1-1.2
	c-2.8-0.7-5.5-1.9-7.9-3.6c-2.3-1.7-4.1-3.8-5.4-6.3c-1.4-2.8-2-6-1.9-9.1h12.2C110.8,41.4,111.2,43.1,111.9,44.6z"/>
<path class="st0" d="M179.2,1.5h5l22.3,53.2h0.2l22.1-53.2h5v57.1h-3.5V5.9h-0.2l-21.8,52.8h-3.4l-22-52.8h-0.2v52.8h-3.5V1.5z"/>
<path class="st0" d="M243.9,1.5h38.4v3h-34.9v22.9h32.8v3h-32.8v25.1h35.3v3h-38.8V1.5z"/>
<path class="st0" d="M288.8,1.5h18.7c4.4-0.1,8.7,0.7,12.8,2.4c3.2,1.4,6,3.6,8.1,6.4c2,2.7,3.5,5.8,4.3,9.1c0.8,3.5,1.3,7,1.3,10.6
	c0,3.8-0.5,7.6-1.6,11.3c-1,3.3-2.6,6.4-4.8,9.1c-2.3,2.6-5.1,4.7-8.3,6c-3.8,1.6-7.8,2.3-11.9,2.2h-18.6V1.5z M307.6,55.6
	c2.7,0,5.4-0.4,8-1.2c2.7-0.8,5.2-2.3,7.3-4.2c2.3-2.2,4.2-4.9,5.3-7.8c1.5-4,2.1-8.2,2-12.4c0.1-3.4-0.3-6.7-1.2-10
	c-0.6-2.5-1.6-4.8-3-7c-1.1-1.8-2.6-3.3-4.3-4.5c-1.5-1.1-3.2-1.9-5-2.5c-1.7-0.6-3.5-1-5.3-1.1c-1.6-0.2-3.1-0.3-4.7-0.3h-14.6
	v51.1L307.6,55.6z"/>
<path class="st0" d="M342.1,1.5h3.5v57.1h-3.5V1.5z"/>
<path class="st0" d="M372.7,1.5h3.8l22.6,57.1h-3.8l-7.2-18.3h-27.4l-7.3,18.3h-3.8L372.7,1.5z M387,37.3L374.8,5h-0.2l-12.7,32.3
	H387z"/>
<rect x="157.5" y="0.2" class="st1" width="8.7" height="19.7"/>
<rect x="157.5" y="19.9" class="st2" width="8.7" height="19.7"/>
<rect x="157.5" y="39.6" class="st3" width="8.7" height="19.7"/>
</svg>
