<?xml version="1.0" encoding="utf-8"?>
<!-- Generator: Adobe Illustrator 25.2.3, SVG Export Plug-In . SVG Version: 6.00 Build 0)  -->
<svg version="1.1" id="Layer_1" xmlns="http://www.w3.org/2000/svg" xmlns:xlink="http://www.w3.org/1999/xlink" x="0px" y="0px"
	 viewBox="0 0 369.8 141.8" style="enable-background:new 0 0 369.8 141.8;" xml:space="preserve">
<style type="text/css">
	.st0{fill-rule:evenodd;clip-rule:evenodd;fill:#B41E8E;}
	.st1{fill-rule:evenodd;clip-rule:evenodd;fill:#484848;}
</style>
<path class="st0" d="M0-0.6h66.1v17.2H0V-0.6z M0,34.6h66.1v17.2H0V34.6z"/>
<path class="st1" d="M180.3,53.8c-21.1,0-36.6,15.5-36.6,34.8V89c0,19.3,15.6,34.3,36.2,34.3c21.1,0,36.6-15.5,36.6-34.8v-0.4
	C216.5,68.9,201.3,53.8,180.3,53.8z M198,88.6c0,10.1-6.3,18-17.3,18c-10.5,0-17.7-8.8-17.7-18.4v-0.4c0-10.1,6.3-18,17.3-18
	C190.8,70.2,198,78.5,198,88.6z M125.9,55.1l-15.6,44.8L95.6,55.1H75.4l26.1,66.6h17.7l26.5-66.6H125.9z M221.1,88.6
	c0-19.3,15.6-34.8,36.6-34.8c21.1,0,36.2,15.1,36.2,34.3v0.4c0,19.3-15.6,34.8-36.6,34.8c-20.6,0-36.2-15.1-36.2-34.3V88.6z
	 M258.2,106.6c10.9,0,17.3-8,17.3-18s-7.2-18.4-17.7-18.8c-11,0-17.3,8-17.3,18v0.4C240.5,97.8,247.7,106.6,258.2,106.6z
	 M350.8,55.1v8.8c-4.6-5.4-11-10.1-21.1-10.1c-16,0-30.7,12.1-30.7,34.3v0.4c0,22.2,14.7,34.3,30.7,34.3c10.1,0,16.4-4.6,21.1-10.9
	v29.7h19V55.1H350.8z M351.3,88.6c0,11.3-7.6,18.4-16.4,18.4c-8.8,0-16.4-7.5-16.4-18.4v-0.4c0-11.3,7.6-18.4,16.4-18.4
	C343.7,69.7,351.3,77.3,351.3,88.6z M66.1,121.7H0V69.7h66.1v16.8H19.4v18h46.8V121.7z"/>
</svg>
