<?xml version="1.0" encoding="utf-8"?>
<!-- Generator: Adobe Illustrator 24.0.3, SVG Export Plug-In . SVG Version: 6.00 Build 0)  -->
<svg version="1.1" id="Layer_1" xmlns="http://www.w3.org/2000/svg" xmlns:xlink="http://www.w3.org/1999/xlink" x="0px" y="0px"
	 viewBox="0 0 410.3 99.9" style="enable-background:new 0 0 410.3 99.9;" xml:space="preserve">
<style type="text/css">
	.st0{fill:#F89F1E;}
	.st1{fill:#115EAC;}
	.st2{fill:#B2B2B2;}
	.st3{fill:#484848;}
</style>
<title>logo-</title>
<path class="st0" d="M73.3,31.4v18.3c-0.6,0-1.1,0.1-1.7,0.1c-10,0.1-20,0-30.1,0.2c-3.4,0-6.7,0.9-9.5,2.7
	c-2.9,1.6-4.6,4.8-4.5,8.1c0.1,8,0,16,0,24v2c-2.4-0.3-4.7-0.4-6.9-0.8c-6-1.1-11.4-3.5-15.4-8.3c-4.2-5-5.6-11-5.1-17.4
	C1,49.4,6,40.3,12.5,31.8c0.3-0.4,0.8-0.6,1.3-0.6c19.7,0,39.3,0,59,0C73,31.3,73.2,31.4,73.3,31.4z"/>
<path class="st1" d="M89.7,52c0.5-7,0.9-14-0.1-20.9c-1.1-7.5-6.6-11.3-13.4-12.4c-1.5-0.2-3-0.3-4.5-0.3c-14.7,0-29.3,0-44,0h-1.4
	L26.2,18c2.4-1.7,4.8-3.6,7.3-5.2C42.1,7,51.8,3,61.9,1c8.3-1.5,16.6-1.6,24.5,1.8c10.4,4.6,14.4,14.3,13.4,24.3
	c-0.9,9-4.7,16.9-9.7,24.3C90,51.7,89.8,51.9,89.7,52z"/>
<path class="st1" d="M83.5,59.5C72.8,71.3,59.1,79.9,43.9,84.4c0-0.7-0.1-1.1-0.1-1.5c0-6.8,0-13.6,0-20.4c0-1.2,0.4-1.5,1.5-1.5
	c7.3,0,14.7,0.1,22,0C72.8,60.9,78.3,61.6,83.5,59.5z"/>
<path class="st2" d="M37.9,87.5c0.6,0.1,1.2,0.1,1.9,0.3c3.4,0.8,4.7,3.8,2.9,6.8c-2.5,3.9-7,5.9-11.5,5.1c-3.5-0.8-4.8-3.9-2.9-6.9
	C30.4,89.3,33.8,87.8,37.9,87.5z"/>
<path class="st3" d="M118.3,31.7h15.1c2,0,4,0.2,6,0.5c1.7,0.3,3.4,0.9,4.9,1.8c1.4,0.8,2.5,2,3.3,3.4c0.9,1.7,1.3,3.5,1.2,5.4
	c0.1,1.9-0.3,3.7-1.1,5.4c-0.7,1.4-1.8,2.6-3.2,3.5c-1.5,0.9-3.1,1.5-4.8,1.8c-2,0.4-4,0.6-6,0.6h-6.5v14.3h-9L118.3,31.7z
	 M127.3,47.2h6c0.8,0,1.6-0.1,2.3-0.2s1.4-0.4,2-0.7c0.6-0.3,1.1-0.8,1.4-1.3c0.4-0.6,0.6-1.4,0.6-2.1c0-0.8-0.2-1.6-0.7-2.3
	c-0.5-0.6-1.1-1-1.8-1.3c-0.8-0.3-1.6-0.5-2.5-0.6s-1.8-0.1-2.6-0.1h-4.6L127.3,47.2z"/>
<path class="st3" d="M156.7,31.7h15.7c2,0,3.9,0.2,5.9,0.5c1.7,0.3,3.3,0.9,4.8,1.8c1.4,0.8,2.5,2,3.3,3.4c0.9,1.6,1.3,3.5,1.2,5.4
	c0.1,2.4-0.7,4.7-2.2,6.6c-1.7,1.9-4,3.1-6.5,3.4l10.3,15.5h-10.7L170,53.7h-4.4v14.6h-9L156.7,31.7z M165.7,46.8h5.3
	c0.8,0,1.6,0,2.5-0.1c0.8,0,1.7-0.2,2.4-0.5c0.7-0.2,1.3-0.7,1.8-1.2c0.5-0.7,0.8-1.5,0.7-2.3c0-0.8-0.2-1.6-0.6-2.2s-1-1-1.6-1.3
	c-0.7-0.3-1.5-0.5-2.2-0.6c-0.8-0.1-1.6-0.1-2.5-0.2h-5.9L165.7,46.8z"/>
<path class="st3" d="M197.3,31.7h8.9v36.6h-9L197.3,31.7z"/>
<path class="st3" d="M226.8,38.8h-11.6v-7.1h32.1v7.1h-11.6v29.5h-9V38.8H226.8z"/>
<path class="st3" d="M255.7,31.7h9v29.2h16.5v7.5h-25.5V31.7z"/>
<path class="st3" d="M291.1,31.7h27.6v7.4H300V46h17.6v7.5H300v7.4h19.7v7.5h-28.6V31.7z"/>
<path class="st3" d="M342.6,31.7h7.4l17.7,36.6h-10.1l-3.5-7.8h-15.8l-3.4,7.8H325L342.6,31.7z M346,42.3l-4.9,11.4h9.9L346,42.3z"
	/>
<path class="st3" d="M372.9,31.7h13.4c3.1,0,6.2,0.3,9.3,1c2.7,0.6,5.3,1.6,7.6,3.2c2.2,1.5,3.9,3.4,5.2,5.7c1.3,2.6,2,5.6,1.9,8.5
	c0.1,2.7-0.6,5.4-1.9,7.8c-1.2,2.2-2.9,4.2-5,5.7c-2.2,1.6-4.7,2.8-7.3,3.5c-2.8,0.8-5.7,1.2-8.7,1.2h-14.6V31.7H372.9z M381.8,60.9
	h4.6c1.9,0,3.9-0.2,5.8-0.6c1.6-0.3,3.2-1,4.6-1.9c1.3-0.9,2.4-2.1,3.1-3.5c0.8-1.6,1.2-3.4,1.1-5.2c0-1.6-0.3-3.2-1.1-4.7
	c-0.7-1.3-1.8-2.4-3-3.3c-1.4-0.9-2.9-1.6-4.4-1.9c-1.8-0.4-3.6-0.7-5.4-0.7h-5.3L381.8,60.9z"/>
</svg>
