<svg id="Layer_1" data-name="Layer 1" xmlns="http://www.w3.org/2000/svg" xmlns:xlink="http://www.w3.org/1999/xlink" viewBox="0 0 640 220"><defs><style>.cls-1{fill:#981d85;}.cls-2{fill:#495965;}.cls-3{fill:url(#linear-gradient);}.cls-4{fill:url(#linear-gradient-2);}.cls-5{fill:url(#linear-gradient-3);}.cls-6{fill:url(#linear-gradient-4);}.cls-7{fill:url(#linear-gradient-5);}.cls-8{fill:url(#linear-gradient-6);}</style><linearGradient id="linear-gradient" x1="142.81" y1="96.61" x2="142.81" y2="167.71" gradientUnits="userSpaceOnUse"><stop offset="0" stop-color="#ed0c6e"/><stop offset="0.92" stop-color="#6e005f"/></linearGradient><linearGradient id="linear-gradient-2" x1="114.81" y1="126.18" x2="189.44" y2="124.84" gradientUnits="userSpaceOnUse"><stop offset="0" stop-color="#b9bdbf"/><stop offset="1" stop-color="#495965"/></linearGradient><linearGradient id="linear-gradient-3" x1="119.65" y1="128.71" x2="184.52" y2="88.17" gradientUnits="userSpaceOnUse"><stop offset="0" stop-color="#ed0c6e"/><stop offset="1" stop-color="#6e005f"/></linearGradient><linearGradient id="linear-gradient-4" x1="149.05" y1="136.05" x2="147.71" y2="61.43" xlink:href="#linear-gradient-2"/><linearGradient id="linear-gradient-5" x1="168.78" y1="113.39" x2="98.02" y2="75.76" xlink:href="#linear-gradient-3"/><linearGradient id="linear-gradient-6" x1="797.35" y1="14222.87" x2="797.35" y2="14297.51" gradientTransform="translate(14364.59 -951.38) rotate(88.97)" xlink:href="#linear-gradient-2"/></defs><title>logo-</title><path class="cls-1" d="M223.49,117.83a6,6,0,0,0,.72,3,6.31,6.31,0,0,0,1.88,2.06,8,8,0,0,0,2.63,1.19,12.72,12.72,0,0,0,3.1.38,11.55,11.55,0,0,0,2.41-.27,8.39,8.39,0,0,0,2.3-.84,5.15,5.15,0,0,0,1.72-1.53,4.08,4.08,0,0,0,.68-2.41,3,3,0,0,0-.84-2.1,7.34,7.34,0,0,0-2.41-1.57,24,24,0,0,0-3.86-1.26q-2.3-.57-5.2-1.19c-1.58-.35-3.12-.77-4.63-1.26a15.66,15.66,0,0,1-4-1.91,9.15,9.15,0,0,1-2.83-3,8.41,8.41,0,0,1-1.07-4.4,12,12,0,0,1,1.49-6.23,10.83,10.83,0,0,1,3.94-3.9,17.08,17.08,0,0,1,5.5-2,34.28,34.28,0,0,1,6.28-.57,31.19,31.19,0,0,1,6.23.61,16.75,16.75,0,0,1,5.39,2.06,12.51,12.51,0,0,1,3.94,3.86,13,13,0,0,1,1.87,6.08H238.4q-.22-3.14-2.37-4.24A10.84,10.84,0,0,0,231,97.33c-.61,0-1.27,0-2,.11a7,7,0,0,0-2,.5,4.11,4.11,0,0,0-1.49,1.11,2.94,2.94,0,0,0-.61,2,3,3,0,0,0,1.07,2.37,8,8,0,0,0,2.79,1.49,36.35,36.35,0,0,0,3.94,1c1.48.3,3,.63,4.51,1a47.23,47.23,0,0,1,4.63,1.3,15.26,15.26,0,0,1,4,2,9.63,9.63,0,0,1,2.83,3.13,9.14,9.14,0,0,1,1.07,4.63,12.67,12.67,0,0,1-1.56,6.54,12.52,12.52,0,0,1-4.1,4.24,17.32,17.32,0,0,1-5.77,2.3,31.76,31.76,0,0,1-6.61.69,32.72,32.72,0,0,1-6.74-.69,17.13,17.13,0,0,1-5.84-2.34,12.85,12.85,0,0,1-6-10.89Z"/><path class="cls-1" d="M254.23,91.14h10.32v5h.15a12,12,0,0,1,5.05-4.66,15.5,15.5,0,0,1,6.74-1.45,17.13,17.13,0,0,1,8,1.75,16.49,16.49,0,0,1,5.58,4.67,19.6,19.6,0,0,1,3.29,6.77,29.76,29.76,0,0,1,1.08,8.06,26.89,26.89,0,0,1-1.08,7.65,19.35,19.35,0,0,1-3.24,6.5,16.52,16.52,0,0,1-5.43,4.55,16,16,0,0,1-7.61,1.73,15.2,15.2,0,0,1-6.74-1.53,13.06,13.06,0,0,1-5.12-4.44h-.15v18.81H254.23Zm20,32.42a8.25,8.25,0,0,0,7.38-3.86,11.56,11.56,0,0,0,1.57-4,23.94,23.94,0,0,0,.46-4.7,22,22,0,0,0-.5-4.66,12.55,12.55,0,0,0-1.64-4.1,9.28,9.28,0,0,0-2.95-2.9,8.21,8.21,0,0,0-4.4-1.11,8.37,8.37,0,0,0-4.47,1.11,8.87,8.87,0,0,0-2.91,2.87,11.91,11.91,0,0,0-1.57,4.09,24.71,24.71,0,0,0-.46,4.7,21.84,21.84,0,0,0,.5,4.7,12,12,0,0,0,1.61,4,8.21,8.21,0,0,0,7.38,3.86Z"/><path class="cls-1" d="M309.83,85H299v-9h10.86ZM299,91.14h10.86v39.54H299Z"/><path class="cls-1" d="M315.47,76.07h10.86v54.61H315.47Z"/><path class="cls-2" d="M367,127.31q0,9.7-4.47,14.57t-13.88,4.86a26.88,26.88,0,0,1-5.63-.62,16.87,16.87,0,0,1-5.19-2,12,12,0,0,1-3.87-3.59,10.21,10.21,0,0,1-1.68-5.43h6.5a4.78,4.78,0,0,0,1.11,3,8.09,8.09,0,0,0,2.52,2,12.35,12.35,0,0,0,3.25,1.11,17.63,17.63,0,0,0,3.37.35,12.19,12.19,0,0,0,5.43-1.11,10.2,10.2,0,0,0,3.67-3.06,12.55,12.55,0,0,0,2.1-4.71,26.79,26.79,0,0,0,.65-6.12v-2.6h-.15a11.24,11.24,0,0,1-2.14,3.18,12.09,12.09,0,0,1-2.95,2.22,15.17,15.17,0,0,1-3.52,1.34,15.75,15.75,0,0,1-3.7.46,17.44,17.44,0,0,1-7.73-1.61,15.94,15.94,0,0,1-5.5-4.36,18.89,18.89,0,0,1-3.33-6.39,26.12,26.12,0,0,1-1.11-7.68,29.67,29.67,0,0,1,.92-7.19,20.06,20.06,0,0,1,3.06-6.73,16.48,16.48,0,0,1,5.66-5,17.58,17.58,0,0,1,8.64-2,14.4,14.4,0,0,1,6.84,1.64,11.59,11.59,0,0,1,4.86,4.94h.15V91.14H367Zm-18.2-1.91a10.58,10.58,0,0,0,5.47-1.34,10.73,10.73,0,0,0,3.63-3.52,15.94,15.94,0,0,0,2-4.93,23.58,23.58,0,0,0,.66-5.51A21.54,21.54,0,0,0,360,105a14.18,14.18,0,0,0-2-4.55,10.1,10.1,0,0,0-3.47-3.25A10.33,10.33,0,0,0,349.35,96,11.21,11.21,0,0,0,344,97.14a10.4,10.4,0,0,0-3.63,3.17,13.15,13.15,0,0,0-2.06,4.59,22.07,22.07,0,0,0-.66,5.43,27.07,27.07,0,0,0,.54,5.36,15.19,15.19,0,0,0,1.83,4.85,10.44,10.44,0,0,0,3.44,3.52A10,10,0,0,0,348.82,125.4Z"/><path class="cls-2" d="M408.94,130.68a11.07,11.07,0,0,1-2,.65,12.42,12.42,0,0,1-2.68.26,5.48,5.48,0,0,1-4-1.45q-1.49-1.45-1.49-4.67a16,16,0,0,1-6.23,4.67,20.09,20.09,0,0,1-7.69,1.45,20.44,20.44,0,0,1-5.08-.61A11.48,11.48,0,0,1,375.6,129a9.47,9.47,0,0,1-2.8-3.44,13.41,13.41,0,0,1,.12-10.59,9.52,9.52,0,0,1,3-3.44,15,15,0,0,1,4.28-2,44.46,44.46,0,0,1,4.94-1.19c1.78-.35,3.47-.62,5.08-.8a26.34,26.34,0,0,0,4.21-.77,7.05,7.05,0,0,0,2.87-1.45,3.57,3.57,0,0,0,1.07-2.79,6.74,6.74,0,0,0-.77-3.44,5.17,5.17,0,0,0-2-2,8.51,8.51,0,0,0-2.82-.92,21.88,21.88,0,0,0-3.1-.23,13.78,13.78,0,0,0-6.88,1.57c-1.84,1-2.83,3-3,5.93h-6.5a14.16,14.16,0,0,1,1.53-6.2,11.67,11.67,0,0,1,3.67-4.09,15.5,15.5,0,0,1,5.28-2.25,27.76,27.76,0,0,1,6.27-.69,37.86,37.86,0,0,1,5.32.38,14,14,0,0,1,4.78,1.57,9.28,9.28,0,0,1,3.44,3.32,10.73,10.73,0,0,1,1.3,5.59v20.34a15,15,0,0,0,.27,3.36c.17.72.77,1.08,1.79,1.08a5.84,5.84,0,0,0,2-.39Zm-10.55-20.35a7.77,7.77,0,0,1-2.3,1,28.79,28.79,0,0,1-2.9.66c-1,.18-2.11.33-3.25.45s-2.26.3-3.33.5a29.74,29.74,0,0,0-3.06.76A8.28,8.28,0,0,0,381,115a5.85,5.85,0,0,0-1.72,2,6.36,6.36,0,0,0-.66,3.06,5.21,5.21,0,0,0,.66,2.71,5.37,5.37,0,0,0,1.68,1.8,7.07,7.07,0,0,0,2.41,1,12.89,12.89,0,0,0,2.9.31,15.53,15.53,0,0,0,5.51-.88,11.82,11.82,0,0,0,3.75-2.22,8.69,8.69,0,0,0,2.14-2.91,7.29,7.29,0,0,0,.69-2.94Z"/><path class="cls-2" d="M412.69,91.14h6.12V97H419a15.41,15.41,0,0,1,19.43-5.2,8.59,8.59,0,0,1,4.2,5.2,13.7,13.7,0,0,1,5.28-5A14.75,14.75,0,0,1,455,90.22a20.79,20.79,0,0,1,5.39.65,11.16,11.16,0,0,1,4.13,2,9.25,9.25,0,0,1,2.68,3.56,13,13,0,0,1,.95,5.24v29h-6.49V104.75a18.72,18.72,0,0,0-.31-3.44,7.13,7.13,0,0,0-1.15-2.79,5.76,5.76,0,0,0-2.33-1.88A9.23,9.23,0,0,0,454,96a10.26,10.26,0,0,0-7.54,2.76,9.84,9.84,0,0,0-2.79,7.34v24.63h-6.5V104.75a16.75,16.75,0,0,0-.34-3.52,7.49,7.49,0,0,0-1.19-2.79,5.53,5.53,0,0,0-2.29-1.84,8.88,8.88,0,0,0-3.6-.65,9.67,9.67,0,0,0-4.89,1.15,11.14,11.14,0,0,0-5.09,6.08,9.49,9.49,0,0,0-.57,2.87v24.63h-6.5Z"/><path class="cls-2" d="M508.21,118.13a16.05,16.05,0,0,1-5.74,10,17.62,17.62,0,0,1-11.16,3.44,19.76,19.76,0,0,1-8.22-1.57,16.6,16.6,0,0,1-5.86-4.32,18.1,18.1,0,0,1-3.55-6.57,31.65,31.65,0,0,1-1.34-8.34,23.8,23.8,0,0,1,1.38-8.22A19.57,19.57,0,0,1,477.58,96a17.62,17.62,0,0,1,5.89-4.28,18,18,0,0,1,7.45-1.53,16.17,16.17,0,0,1,8.76,2.18,17.27,17.27,0,0,1,5.58,5.54,22.12,22.12,0,0,1,2.91,7.34,31.39,31.39,0,0,1,.65,7.57h-29.6a15.73,15.73,0,0,0,.62,4.94,11.08,11.08,0,0,0,2.21,4.13,10.82,10.82,0,0,0,3.91,2.86,13.32,13.32,0,0,0,5.58,1.08,11.27,11.27,0,0,0,6.73-1.92,9.17,9.17,0,0,0,3.51-5.81Zm-6.27-11a13.44,13.44,0,0,0-1-4.36,11.12,11.12,0,0,0-2.36-3.56A11.71,11.71,0,0,0,486,96.83a10.59,10.59,0,0,0-3.48,2.41,11.51,11.51,0,0,0-2.29,3.56,13.77,13.77,0,0,0-1,4.32Z"/><path class="cls-2" d="M518.54,118.21a7.25,7.25,0,0,0,1,3.67,6.9,6.9,0,0,0,2.41,2.33,10.55,10.55,0,0,0,3.36,1.26,18.93,18.93,0,0,0,3.86.39,24.39,24.39,0,0,0,3.22-.23,11.9,11.9,0,0,0,3.09-.85,5.77,5.77,0,0,0,2.34-1.79,4.8,4.8,0,0,0,.91-3,4.38,4.38,0,0,0-1.1-3.1,8.44,8.44,0,0,0-2.91-2,22.41,22.41,0,0,0-4.13-1.26l-4.78-1a44.6,44.6,0,0,1-4.74-1.31,17,17,0,0,1-4.13-2,8.82,8.82,0,0,1-4.05-7.88,9.45,9.45,0,0,1,1.33-5.12,11,11,0,0,1,3.45-3.48,15.73,15.73,0,0,1,4.74-2,21.92,21.92,0,0,1,5.24-.65,31.51,31.51,0,0,1,6.15.57,14.36,14.36,0,0,1,5.05,2,10.35,10.35,0,0,1,3.48,3.82,14.61,14.61,0,0,1,1.53,6h-6.5a6.38,6.38,0,0,0-1-3.18,7.12,7.12,0,0,0-2.15-2,9.19,9.19,0,0,0-2.83-1.11,14.66,14.66,0,0,0-3.17-.35,19.62,19.62,0,0,0-2.94.23,9.92,9.92,0,0,0-2.72.81,5.33,5.33,0,0,0-2,1.56,3.91,3.91,0,0,0-.76,2.45,3.63,3.63,0,0,0,1.18,2.83,9.91,9.91,0,0,0,3,1.8,27.15,27.15,0,0,0,4.14,1.22c1.52.34,3,.68,4.58,1a46.64,46.64,0,0,1,4.78,1.29,15.44,15.44,0,0,1,4.13,2,9.92,9.92,0,0,1,2.91,3.17,9.35,9.35,0,0,1,1.11,4.75,11.07,11.07,0,0,1-1.49,5.92,11.64,11.64,0,0,1-3.9,3.87A17,17,0,0,1,534.8,131a30.12,30.12,0,0,1-6,.61,26.06,26.06,0,0,1-6.31-.73,15.77,15.77,0,0,1-5.23-2.29,11.28,11.28,0,0,1-3.67-4.13,14.23,14.23,0,0,1-1.53-6.23Z"/><path class="cls-3" d="M128.86,142.22a31.94,31.94,0,0,1-3.42-1.28,33.87,33.87,0,0,0,56.84-25.23,37.27,37.27,0,0,1-2.86,29.55c-.28.49-.56,1-.85,1.44h0a.57.57,0,0,1-.08.13c-.06.09-.11.18-.17.26s-.27.44-.41.66h0c-10.56,16.07-32.6,23-48.5,18.72h0a37.31,37.31,0,0,1-9.81-68.08c1.08-.65,2.19-1.24,3.31-1.78,0,0-8,7.24-8.12,22.29C114.8,118.9,123.43,142.65,128.86,142.22Z"/><path class="cls-4" d="M189.35,119.79a37.21,37.21,0,0,0-12.3-27,33.86,33.86,0,0,1-28.55,51.08,34.35,34.35,0,0,1-7.29-.65,29.11,29.11,0,0,0,3.56-.7,34,34,0,0,1-28.21-19.65,33.57,33.57,0,0,1-1.72-5.48c-.1,1.25-.14,2.49-.12,3.75a37.32,37.32,0,1,0,74.63-1.34Z"/><path class="cls-5" d="M169.56,72.26a0,0,0,0,1,0,0q-.7-.44-1.44-.84a37.23,37.23,0,0,0-29.55-2.87,33.88,33.88,0,0,1,26.55,55.32,28.43,28.43,0,0,0,1.05-3.63,35.15,35.15,0,0,1-30.87,15.86,22.61,22.61,0,0,1-11-3.88,31.2,31.2,0,0,1-4.78-4.3c.54,1.12,1.12,2.23,1.77,3.31a37.32,37.32,0,0,0,68.09-9.83h0C193.7,105.19,186.39,82.53,169.56,72.26Z"/><path class="cls-6" d="M180.65,98.15a37.32,37.32,0,0,0-65-24.34,33.86,33.86,0,0,1,51.08,28.55,33,33,0,0,1-.42,6,29.28,29.28,0,0,0-.94-3.63,34.9,34.9,0,0,1-18.79,29.21,33.91,33.91,0,0,1-6.32,2.08,35.87,35.87,0,0,0,3.75.12A37.31,37.31,0,0,0,180.65,98.15Z"/><path class="cls-7" d="M166.86,78.39a37.14,37.14,0,0,0-22.53-16.86h0c-15.88-4.26-37.9,2.63-48.47,18.67a.41.41,0,0,0,0,.09c-.13.19-.26.39-.38.59l-.2.3s0,.08-.07.13h0c-.28.47-.57,1-.84,1.44a37.21,37.21,0,0,0-2.87,29.54,33.89,33.89,0,0,1,55.24-26.61,28.94,28.94,0,0,0-3.6-1,34,34,0,0,1,15.81,31.67,19.79,19.79,0,0,1-1.58,6.56,25.55,25.55,0,0,1-6.5,8.46c1.12-.53,2.22-1.13,3.31-1.77A37.32,37.32,0,0,0,166.86,78.39Z"/><path class="cls-8" d="M92,118.6a33.87,33.87,0,0,1,66.91-8c.1-1.23.14-2.48.12-3.74a37.32,37.32,0,1,0-62.32,28.35A33.68,33.68,0,0,1,92,118.6Z"/></svg>