<?xml version="1.0" encoding="utf-8"?>
<!-- Generator: Adobe Illustrator 24.0.3, SVG Export Plug-In . SVG Version: 6.00 Build 0)  -->
<svg version="1.1" id="Layer_1" xmlns="http://www.w3.org/2000/svg" xmlns:xlink="http://www.w3.org/1999/xlink" x="0px" y="0px"
	 viewBox="0 0 377.7 155.4" style="enable-background:new 0 0 377.7 155.4;" xml:space="preserve">
<style type="text/css">
	.st0{fill:#493E39;}
	.st1{fill:#A62864;}
	.st2{fill:#838383;}
	.st3{fill:#35B4A1;}
	.st4{fill:#D42728;}
	.st5{fill:none;}
</style>
<title>logo-</title>
<path class="st0" d="M377.7,144.8c-0.9,1.9-1.6,3.9-3.2,5.4c-3.1,3.1-7,4.4-11.2,5c-5.6,1-11.4,0.3-16.6-2.1
	c-3.5-1.5-6.4-4.1-8.4-7.3c-0.6-0.9-0.5-1.4,0.5-1.7c0.2,0,0.3-0.1,0.4-0.2c1.3-1.1,2.1-0.6,3.1,0.7c3.2,4.5,8,6.5,13.3,7.1
	c4.3,0.6,8.7,0,12.7-1.9c4.1-1.7,6.3-6.2,5.2-10.4c-0.6-2.2-2.1-4-4.2-5c-3.4-1.9-7.1-2.5-10.9-3.2c-4-0.6-7.9-1.6-11.6-2.9
	c-3.5-1.4-6.4-3.5-7.4-7.4c-1.3-5.1,0.9-10.5,5.5-13.1c4.4-2.7,9.3-3.3,14.3-3.3c4.5,0.1,8.8,0.8,12.6,3.6c1.4,1.1,2.7,2.4,3.8,3.9
	c0.5,0.6,0.5,1-0.2,1.5c-2.2,1.3-2.1,1.4-3.8-0.6c-1.6-1.9-3.7-3.2-6-3.8c-5-1.5-10.4-1.4-15.3,0.3c-3.1,1.1-5.8,2.8-6.8,6.3
	c-1.2,3.3,0.3,7,3.5,8.5c3.6,1.9,7.5,2.4,11.4,3.2c2.4,0.5,4.7,1,7,1.5c5.6,1.3,10.4,3.7,12.2,9.7L377.7,144.8z"/>
<path class="st1" d="M85.2,0.3c1.2,1,1.8,2.5,1.6,4.1c-0.1,1.5,0,3.1,0,4.6c0.1,1.4-0.9,2.6-2.3,2.7c-0.1,0-0.2,0-0.4,0
	c-2,0-4,0-5.9,0c-1.4,0.1-2.6-0.9-2.8-2.3c0-0.2,0-0.3,0-0.5c0-1.5,0.1-2.9,0-4.3C75.2,3,75.8,1.4,77,0.3H85.2z"/>
<path class="st2" d="M0.3,154.7H0v-49.5h0.3C0.3,121.7,0.3,138.2,0.3,154.7z"/>
<path class="st0" d="M176,66.9c-1.6,0-2.9-0.8-4.3-1.4c-3.7-1.5-7.4-3.1-11.4-3.5c-3.2-0.4-6.4,0.2-9.1,1.8
	c-6.1,3.5-10.6,8.3-11.6,15.6c-0.5,3.9,0.5,7.6,2,11.2c2.6,6.3,6.7,11.8,10.5,17.4c3.3,4.9,6.5,9.9,8,15.8
	c3.5,13.6-4.7,27.5-18.3,31c-1.4,0.4-2.8,0.6-4.2,0.7c-15.5,1.3-28.7-11.5-27.6-26.8c0.7-12.6,10.6-22.9,23.2-24
	c1.1-0.3,2.3,0.3,2.8,1.4c1.7,3,3.6,5.8,5.5,8.9c-1.3-0.3-2.4-0.6-3.5-0.7c-8.8-1.4-17.1,4.5-18.5,13.3c-1.4,8.8,4.5,17.1,13.3,18.5
	c12.3,1.9,22.1-9.7,17.8-21.9c-1.3-3.3-3-6.4-5.1-9.2c-3.8-5.8-7.7-11.4-10.2-17.9c-1.5-3.7-2.5-7.6-3-11.6
	c-0.4-3.7-2.7-6.9-6.1-8.4c-7.6-3.7-16.3-4-24.1-0.8c-1.6,0.6-2.9,1.6-3.9,2.9c-1.2,1.4-2.7,2.5-4.3,3.2c-1.3,0.5-2.5,1.4-3.4,2.5
	c0-3.4,3.9-3.6,4.5-6.2c-0.1-0.1-0.2-0.2-0.2-0.2c-5.6,1.8-11.6,1.3-17.4,2.5c-5.2,1.1-9.1,3.8-11.5,8.6c0.2-5.4,4.1-7.7,8.5-10
	c-3.2-1.2-6.5-1.6-9.9-1.2c-3.6,0.3-7,1.5-10.6,1.9c-2.6,0.3-5.1-0.2-6.3-2.1c3.8,0.6,7.5,0.7,11-1c-0.6-1.1-2.3-1-2.4-2.5l0,0
	c4,2,8.3,1.1,12.4,1.6c2.4,0.3,4.6,1.3,7.1,1.3c1.9,0.1,2.1-0.1,1.3-1.9c-0.4-1-1.1-1.8-1.9-2.5c-0.7-0.6-1.4-1.2-2.1-1.8
	c1.9-0.2,3.7,0.6,6.3,2.9c2.1,2,4.9,3,7.8,2.7c1.3-0.1,2.7-0.3,3.9-0.6c6.2-1.7,12.3-3.7,18.4-5.8c-0.9-0.8-2-1.3-3.2-1.5
	c-2.2-0.5-4.4-1.5-6.2-2.9c-5.8-4.9-13.1-7.5-20.7-7.5c4.1-1.3,8.5-1.3,12.6-0.1c0.7,0.2,1.4,0.4,2.1,0.7c1.9,0.7,1.8,0.7,1.6-1.2
	c-0.2-3-2.1-5.7-4.8-6.8c-1.8-0.8-3.4-1.9-4.7-3.3l3.4,0.8c0.7,0.2,1-0.1,1.1-0.9c0.2-1.8,0.6-3.6-0.3-5.7c1.1,0.6,1.8,1.8,1.8,3
	c-0.1,3.3,1.3,5.6,3.9,7.6c1.8,1.4,2.7,3.7,3.1,5.9c1.1,5.9,5.2,8,10.5,8.6c5.5,0.7,11.1,0.8,16.4,2.5c2.5,0.8,5,1.4,7.3,3.4
	c0-4.2,0.5-8.2-0.6-12.1c-0.5-2.1-2-3.7-4.1-4.4c-2.1-0.7-4.1-1.9-5.8-3.3c-3.1-2.8-6.6-3.2-10.5-2.7c-0.7,0.1-1.4,0.2-2.4,0.3
	c1.4-1.7,3.5-2.8,5.7-3c3.1-0.4,3.2-0.6,1.4-3.2c-1.4-1.8-3.1-3.4-5.1-4.6c-0.7-0.4-1.3-0.9-1.9-1.4c4.1,0.5,7.8,2.7,10.3,6
	c1,1.3,1.9,2.7,2.9,4c1.7,2.3,4.1,3.8,6.9,4.3c1.2,0.2,1.7,0.1,1.3-1.3c-0.9-3.1-2.2-6.1-2.9-9.3c-0.3-1.7-0.6-3.4-1-5
	c-0.7-3.5-2.8-6.5-5.9-8.4c2.9,0,4.6,1.5,6.3,3.7c1.8-4.8,3.5-9.3,6.7-12.9c0,2.2-1.1,4.1-2,6.1c-1.6,3.9-2.3,8.1-2,12.2l6.1-5.3
	c0.3,0.7-0.2,1.2-0.5,1.6c-0.5,1.1-1.3,2-2.2,2.8c-3.2,2.7-3.5,6-1.9,9.6c1,2.4,2,4.8,3.1,7.2c1.7,3.6,2.7,7.6,2.8,11.6
	c0,0.9,0.2,1.8,0.3,3.1c1.6-2.1,3.2-3.9,4.5-5.9c1-1.7,0.8-3.8-0.5-5.3c-1.2-1.7-1.9-3.9-1.7-6c1,1.2,1.2,2.6,2.4,3.3
	c1.7,1.1,2.1,1,2.4-1c0.4-2.9-0.4-5.7-1-8.5c2,1.8,3.1,4.3,2.9,7c-0.1,2.6-0.4,5.2-0.4,7.8c6.8-5.8,8.1-13.9,9-22.5
	c0.9,2.4,1.2,5,1,7.5c-0.4,4.4-1.4,8.8-3.1,12.9c-0.5,1.4-0.2,1.8,1.2,1.8c2.5,0.1,4.9,0,7.4-0.4c3.6-0.8,6.8-2.8,9-5.8
	c0.6-0.8,1.2-1.6,2-2.3c-1,4.2-3.7,7.2-6.9,10C169.9,62.3,173.2,64.3,176,66.9L176,66.9z"/>
<path class="st0" d="M28.3,121.5v2c0,9.9,0,19.8,0,29.8c0,1.2-0.2,1.6-1.5,1.5c-2.3-0.1-4.6-0.1-6.9,0c-0.9,0-1.1-0.2-1.1-1.1
	c0-15.8,0-31.6,0-47.4c0-1,0.4-1.2,1.2-1.1c2.1,0.1,4.4-0.5,6.2,0.2s2.7,2.9,3.9,4.5c6.3,8,12.6,16,18.9,24l1.2,1.4
	c0.5-0.5,0.3-1.1,0.3-1.7c0-8.8,0.1-17.7,0-26.5c0-1.6,0.5-2,2-1.9c2.1,0.1,4.3,0.1,6.4,0c0.9,0,1.2,0.3,1.2,1.2
	c0,15.8,0,31.5,0,47.3c0,0.9-0.1,1.2-1.1,1.2c-4.7,0.1-4.7,0.1-7.6-3.6C43.8,141.4,36.2,131.7,28.3,121.5z"/>
<path class="st0" d="M68.6,129.9c0-7.7,0-15.4,0-23.2c0-1.3,0.4-1.6,1.6-1.6c10.9,0,21.8,0,32.6,0c1.2,0,1.5,0.3,1.5,1.5
	c-0.1,2.1-0.1,4.2,0,6.3c0.1,1.3-0.4,1.5-1.5,1.5c-7.7,0-15.3,0-23-0.1c-1.3,0-1.7,0.3-1.7,1.6c0.1,3.4,0.1,6.9,0,10.3
	c0,1.1,0.3,1.4,1.4,1.4c7.3-0.1,14.6,0,21.9-0.1c1.1,0,1.6,0.2,1.6,1.5c-0.1,2-0.1,4,0,5.9c0.1,1.2-0.4,1.4-1.5,1.4
	c-7.2,0-14.4,0-21.5-0.1c-1.6,0-1.8,0.5-1.8,1.9c0.1,5,0,10.1,0.1,15.1c0,1.1-0.3,1.4-1.4,1.3c-2.3-0.1-4.6-0.1-6.9,0
	c-1.1,0.1-1.3-0.4-1.3-1.4C68.6,145.6,68.6,137.8,68.6,129.9z"/>
<path class="st0" d="M192.2,133.9c6-9.2,11.9-18.3,17.8-27.3c0.3-0.5,0.5-1.3,1.2-1.4c1.4-0.1,2.8-0.1,4.2,0.1
	c0.6,0.1,0.3,0.9,0.3,1.4c0,10.8,0,21.6,0,32.5c0,4.7,0,9.4,0,14.1c0,1.2-0.3,1.7-1.5,1.5c-0.3-0.1-0.7-0.1-1,0
	c-1.2,0.2-1.5-0.2-1.5-1.4c0.1-7.7,0-15.3,0-23V111c-2,3-3.7,5.6-5.5,8.3l-12.5,19.4c-1.1,1.7-1.7,1.7-2.9-0.1
	c-5.6-8.5-11.2-17-16.8-25.5c-0.4-0.6-0.6-1.2-1.3-1.6c-0.4,0.6-0.2,1.2-0.2,1.7c0,13.3,0,26.7,0,40c0,0.5,0.4,1.4-0.5,1.4
	c-1.1,0.2-2.2,0.1-3.3-0.2c-0.1-0.1-0.1-0.6-0.1-0.9c0-15.8,0-31.5,0-47.3c0-1,0.4-1.1,1.3-1.3c2.5-0.3,3.9,0.6,5.2,2.7
	c5,8,10.3,15.8,15.4,23.7C191,132.2,191.5,132.9,192.2,133.9z"/>
<path class="st0" d="M290.5,129.9c0-7.8,0-15.5,0-23.3c0-1.1,0.1-1.6,1.4-1.6c5.7,0.1,11.5,0,17.2,0.1c13.2,0.4,22.9,10.1,23.3,23.4
	c0.2,7.5-1.7,14.2-7.2,19.6c-4.2,4.1-9.9,6.5-15.8,6.5c-5.9,0.2-11.9,0-17.8,0.1c-1.2,0-1.1-0.6-1.1-1.4
	C290.5,145.6,290.5,137.8,290.5,129.9z M294.4,129.9c0,6.6,0,13.2,0,19.8c0,0.9,0.1,1.3,1.2,1.3c3.9-0.1,7.7,0,11.6,0
	c6.4,0,12.2-1.9,16.4-6.9c4.5-5.4,5.7-11.6,4.6-18.4c-1.4-9.1-8.9-16-18-16.6c-4.9-0.4-9.7-0.1-14.6-0.2c-1.2,0-1.1,0.5-1.1,1.4
	C294.4,116.7,294.4,123.3,294.4,129.9z"/>
<path class="st0" d="M245.1,114.1v2c0,12.3,0,24.7,0,37c0,1.4-0.3,1.8-1.7,1.8c-2.2-0.1-2.2,0-2.2-2.2c0-15.3,0-30.6,0-45.8
	c0-0.5-0.4-1.3,0.4-1.6s1.5,0.1,2,0.8c10.5,12.9,20.9,25.8,31.4,38.7c0.2,0.3,0.5,0.6,1,1.3v-2.1c0-12.4,0-24.8,0-37.2
	c0-2.1,1.2-1.4,2.2-1.6c1.3-0.2,1.7,0.3,1.7,1.6c-0.1,15.4,0,30.9-0.1,46.3c0,0.6,0.5,1.4-0.4,1.7s-1.5-0.3-2-0.9
	c-8.7-10.7-17.4-21.4-26.2-32.1C249.3,119.2,247.4,116.8,245.1,114.1z"/>
<path class="st0" d="M0.3,154.7c0-16.5,0-33,0-49.5c2.7,0,5.4,0,8.2-0.1c0.9,0,1.1,0.3,1.1,1.1c0,0.2,0,0.4,0,0.7
	c0,15.4,0,30.7,0,46.1c0,1.5-0.4,1.9-1.9,1.8C5.3,154.6,2.8,154.7,0.3,154.7z"/>
<path class="st3" d="M111,24.5c0,1.8,0,3.5,0,5.3c0.1,2.6-1.9,4.8-4.4,4.9c-0.1,0-0.1,0-0.2,0c-3.7,0.1-7.5,0.1-11.2,0
	c-2.7,0-4.8-2.2-4.7-4.9c0,0,0,0,0,0c0-3.6-0.1-7.3,0-10.9c0-2.6,2-4.7,4.6-4.8c0.1,0,0.2,0,0.3,0c3.6,0,7.3,0,10.9,0
	c2.5-0.1,4.7,1.9,4.8,4.4c0,0.1,0,0.2,0,0.3C111,20.7,111,22.6,111,24.5z"/>
<path class="st4" d="M165.3,9.9c1.4,0,2.8,0,4.2,0c1.9-0.1,3.6,1.3,3.7,3.3c0,0,0,0,0,0c0.3,3.1,0.3,6.2,0,9.3
	c-0.1,1.9-1.8,3.4-3.7,3.3c0,0,0,0,0,0c-2.8,0-5.6,0-8.4,0c-2,0.1-3.7-1.5-3.8-3.4c0-0.1,0-0.2,0-0.3c0-2.8,0-5.6,0-8.4
	c-0.1-2,1.5-3.7,3.5-3.8c0.1,0,0.2,0,0.3,0C162.5,9.9,163.9,9.9,165.3,9.9z"/>
<path class="st0" d="M226.5,130c0-7.8,0-15.6,0-23.5c0-1.1,0.3-1.4,1.4-1.4c2.9,0.1,2.4-0.2,2.4,1.8c0,15.4,0,30.8,0,46.1
	c0,0.6,0.4,1.5-0.3,1.6c-1.1,0.2-2.2,0.2-3.3,0c-0.4-0.1-0.2-0.9-0.2-1.3C226.5,145.5,226.5,137.7,226.5,130z"/>
<path class="st4" d="M44.7,66.2c0,1.1,0,2.1,0,3.2c0.2,1.8-1.1,3.4-2.9,3.6c-0.2,0-0.3,0-0.5,0c-2.3,0-4.6,0.1-6.9,0
	c-1.8,0.1-3.3-1.2-3.4-3c0-0.1,0-0.3,0-0.4c0-2.3,0-4.6,0-6.9c-0.2-1.7,1.1-3.3,2.9-3.4c0.2,0,0.4,0,0.6,0c2.3,0,4.6-0.1,6.9,0
	c1.8-0.1,3.3,1.3,3.3,3c0,0.1,0,0.3,0,0.4C44.7,63.8,44.7,65,44.7,66.2z"/>
<path class="st3" d="M75.1,55c0,1,0,1.9,0,2.9c0.1,1.5-1,2.9-2.5,3c-0.1,0-0.2,0-0.2,0c-2.1,0.1-4.3,0.1-6.4,0
	c-1.6-0.1-2.9-1.4-2.8-3c0,0,0-0.1,0-0.1c-0.1-1.9-0.1-3.7,0-5.6c-0.1-1.7,1.3-3.1,3-3.2c0.1,0,0.2,0,0.3,0c1.8,0,3.5,0,5.3,0
	c2.2,0,3.3,1.1,3.4,3.4C75.1,53.2,75.1,54.1,75.1,55z"/>
<path class="st4" d="M67.9,33.6c0-5.4,0.1-5.5,5.4-5.5h1.9c2.7,0,3.6,0.9,3.6,3.5c0.1,1.6,0,3.2-0.1,4.8c0.1,1.5-1,2.7-2.5,2.8
	c-0.1,0-0.3,0-0.4,0c-1.7,0-3.3,0-5,0c-2,0-3-1.1-3-3.1C67.9,35.2,67.9,34.4,67.9,33.6z"/>
<path class="st3" d="M129.3,7c0,5.1,0,5-5,5.1c-4.7,0.1-5.1-0.5-5.1-5c0.1-5,0.1-5.1,5.1-5.1C129.4,2,129.3,2,129.3,7z"/>
<path class="st4" d="M98.2,45.2c0-1,0-2,0-3c-0.2-0.9,0.4-1.7,1.3-1.8c0.1,0,0.3,0,0.4,0c2.1,0,4.3,0,6.4,0c0.8-0.1,1.5,0.5,1.6,1.3
	c0,0.1,0,0.1,0,0.2c0.1,2.2,0.1,4.5,0,6.7c0,1-0.7,1.5-1.7,1.5h-6.2c-0.8,0.1-1.6-0.5-1.8-1.3c0-0.2,0-0.3,0-0.5
	C98.2,47.2,98.2,46.2,98.2,45.2z"/>
<path class="st4" d="M146.8,41.2c-4.8,0-5-0.2-5-4.9c0-4.7,0.2-5,4.9-5s5,0.3,5,5S151.5,41.2,146.8,41.2z"/>
<path class="st3" d="M172.2,44c0,4.7-0.2,4.9-4.8,4.9c-4.9,0-5.1-0.2-5.1-5.1c0-4.6,0.3-4.9,4.9-4.9C171.9,38.9,172.2,39.1,172.2,44
	z"/>
<path class="st3" d="M87.2,67.5c0,4.1-0.1,4.2-4.2,4.2h-1.4c-2,0-2.6-0.7-2.7-2.7c0-1.1,0-2.1,0-3.2c0-1.9,0.7-2.6,2.6-2.6
	c1,0,1.9,0,2.9,0c2.2,0,2.8,0.7,2.8,2.9L87.2,67.5z"/>
<path class="st1" d="M185,52c0,0.6,0,1.2,0,1.8c0.1,1.1-0.7,2.1-1.8,2.2c-0.1,0-0.2,0-0.2,0h-0.2c-5.4,0.3-5.8-0.1-5.5-5.5
	c-0.1-1.1,0.7-2.1,1.8-2.2c0.1,0,0.3,0,0.4,0c0.9,0,1.8,0,2.7,0c2.3,0,2.8,0.5,2.8,2.8L185,52z"/>
<path class="st1" d="M55,70.8c0,3-0.2,3.2-3.3,3.2c-2.8,0-3.1-0.3-3.1-3.5c0-2.7,0.3-2.9,3.6-2.9C54.8,67.6,55,67.8,55,70.8z"/>
<path class="st1" d="M80.2,42.1c2.9,0,3,0.1,3,3.2c0,2.8-0.3,3.1-3.3,3.1s-3.1-0.3-3.1-3.4C76.9,42.2,77,42.1,80.2,42.1z"/>
<path class="st3" d="M182.7,61.9c0,2.7,0,2.7-2.8,2.7s-2.8-0.1-2.8-2.9c0-2.4,0.4-2.7,2.8-2.7C182.5,59,182.7,59.1,182.7,61.9z"/>
<path class="st4" d="M110.4,58.6c-2.8,0-2.8,0-2.8-2.8c0-2.5,0-2.5,3.1-2.5c2.3,0,2.3,0,2.3,3.2C113,58.6,113,58.6,110.4,58.6z"/>
<path class="st3" d="M141,43.5c0,2.8,0,2.8-2.8,2.8s-2.7,0-2.7-3.1c0-2.4,0-2.4,3.3-2.4C141,40.8,141,40.8,141,43.5z"/>
<path class="st3" d="M142.3,19.5c0,2.4,0,2.4-2.5,2.4s-2.5,0-2.5-2.6c0-2.3,0-2.3,2.9-2.3C142.3,17,142.3,17,142.3,19.5z"/>
<path class="st0" d="M176,66.9l0.4,0.1c-0.1,0-0.1,0.1-0.2,0.1S175.9,67.2,176,66.9L176,66.9z"/>
<path class="st0" d="M55.7,74.6h-0.2v-0.1L55.7,74.6L55.7,74.6z"/>
<rect x="-0.3" class="st5" width="377.7" height="164.4"/>
</svg>
