<?xml version="1.0" encoding="utf-8"?>
<!-- Generator: Adobe Illustrator 24.0.3, SVG Export Plug-In . SVG Version: 6.00 Build 0)  -->
<svg version="1.1" id="Layer_1" xmlns="http://www.w3.org/2000/svg" xmlns:xlink="http://www.w3.org/1999/xlink" x="0px" y="0px"
	 viewBox="0 0 409.5 96.2" style="enable-background:new 0 0 409.5 96.2;" xml:space="preserve">
<style type="text/css">
	.st0{fill-rule:evenodd;clip-rule:evenodd;fill:#888C8F;}
	.st1{fill-rule:evenodd;clip-rule:evenodd;fill:#FABE41;}
	.st2{fill-rule:evenodd;clip-rule:evenodd;fill:#FCD832;}
</style>
<title>logo-</title>
<path class="st0" d="M33.9,62.4c-2.7-1.3-5.7-2-8.7-2c-8,0-13.9,5.3-13.9,13.3c0,7.5,4.6,13.5,12.7,13.5c4.3,0,6-1,9.4-2.1l3.2,7.7
	c-4.3,2.2-9.1,3.3-14,3.2C8.6,96,0,86.9,0,73.2c0-13,8.7-21.8,24.1-21.8c5.6,0,10.3,1.2,13.2,2.9L33.9,62.4L33.9,62.4z"/>
<path class="st0" d="M53.6,60.9H58c4.3,0,6.5,1.4,6.5,5c0,4.3-3.6,5-6.3,5h-5L53.6,60.9L53.6,60.9z M53.7,78.9h1.7
	c2.4,0,3.4,1.7,4.6,4.3l6,11.6h12.5l-7.4-13c-1.5-2.7-3.4-5.5-5.8-6.2l0,0c5.8-0.2,10.3-5,10.1-10.7c0-0.1,0-0.2,0-0.3
	c0-9.6-7.4-11.8-16.1-11.8H42.8l-0.3,42h11.1L53.7,78.9L53.7,78.9z"/>
<polygon class="st0" points="83.2,52.8 112.3,52.8 112.3,61.6 94.2,61.6 94.2,69.6 112.1,69.6 112.1,78 94,78 94,86 112,86 
	112,94.8 82.9,94.8 "/>
<path class="st0" d="M136.3,62.2h0.2l4.3,14.6h-9.1L136.3,62.2z M114.2,94.8h11.3l3.3-9.6h14.5l3.1,9.6h12L143,52.9h-12.5
	L114.2,94.8L114.2,94.8z"/>
<polygon class="st0" points="162,52.8 172.9,52.8 172.6,85.7 191.6,85.7 191.4,94.8 161.6,94.8 "/>
<path class="st0" d="M202.7,73.9c0-9.2,5.1-13.5,11.3-13.5c6.3,0,11.5,4.3,11.5,13.5s-5.1,13.4-11.5,13.4
	C207.8,87.2,202.7,83.1,202.7,73.9z M191.4,73.9c0,12.2,8.4,22.3,22.8,22.3c14.2,0,22.6-10.1,22.6-22.3c0-12.3-8.4-22.3-22.6-22.3
	C199.8,51.6,191.4,61.5,191.4,73.9z"/>
<path class="st0" d="M279.4,93.1c-5,2.4-10.4,3.1-16.1,3.1c-14,0-22.8-9.1-22.8-22.8c0-13,8.9-21.8,24.1-21.8
	c5.3-0.1,10.5,1.2,15.1,3.8l-0.2,9.1c-5.3-3.1-10.1-4.5-13.7-4.1c-8,0.3-13.9,5.3-13.9,13.3c0,7.5,4.6,13.5,12.7,13.5
	c1.5,0.2,3-0.1,4.3-0.9l0.2-14.4h10.7L279.4,93.1L279.4,93.1z"/>
<polygon class="st0" points="316.6,73 304.9,52.8 317.3,52.8 323.6,65.7 331.1,52.8 342.9,52.8 330.3,73 343.3,94.8 330.4,94.8 
	323.1,80.7 315.9,94.8 303.4,94.8 "/>
<polygon class="st1" points="299.6,52.8 288.7,52.8 288.7,58.1 299.5,62.9 "/>
<path class="st0" d="M288.3,94.8h11l0.2-22.1c-2.7-1.5-6.7-2.7-11-4.8L288.3,94.8z"/>
<path class="st2" d="M409.5,7.1c-0.3-0.7-0.6-1.3-1-1.8c-0.3-0.6-0.8-0.3-2.2-0.3c-1.3,0-3.6,1.3-6.3,3c-2.6,1.6-9.5,6.6-10.7,7.3
	c-1,0.6-3.2,2.4-6,4c-2.7,1.4-4.6,2.3-5.9,2.3c-1,0-5.9-4.9-7.1-6c-3.4-3.5-7.1-6.9-10.9-9.9c-2-1.6-4.2-3-5-3.6
	c-0.9-0.7-1.9-1.3-3-1.8c-0.9-0.2-1.9-0.2-2.9,0h-0.2c-0.4,0.8-1.3,1-1.4,2.4c-0.2,2.2,6.2,8.7,6.3,8.7c0.3,0.3,3.3,5,3.6,5.5h0.2
	c0.3,0.8,1.8,4.3,2.2,5.2c0.1,0,0.2,0.1,0.2,0.2c0.3,0.3,0.4,0.7,0.6,1c0.8,1.3,2,3.3,1.3,4.5c-0.1,0.3-0.3,0.5-0.4,0.7
	c-0.2,0.2-0.4,0.3-0.8,0.4h-0.2c-1.2,0.2-5.2,0-6.2,0c-1.2,0-5.8,0.3-6,0.2c-0.5-0.2-1-0.3-1.6-0.3c-0.3,0-0.6,0.3-1,0.3l-0.2-0.2
	c-0.4,0-2.2,0.2-3.2,0.2c-0.3,0.1-0.5,0.1-0.8,0c-0.3,0-3.8,0.2-5,0.3c-0.1,0.1-0.3,0.2-0.4,0.2c-1.3,0.2-2.5,0.4-3.8,0.8
	c-1.4,0.6-1.6,1.7-1.2,3v0.4l0.2,0.2c0.3,0.3,0.6,0.4,0.8,0.7c0.7,0.3,1.3,0.7,2,0.8c0.7,0.3,1.4,0.5,2.2,0.6c0.8,0.2,6.5,2,8.1,2.4
	c1.6,0.3,8.7,2,9.5,2.2c1,0.3,5,0.7,5.8,0.8c0.8,0.4,1.6,1.2,2,2v0.8c0.2,1.7-0.3,1.9-0.3,2.5c-0.2,0.8-0.2,3.4-0.2,3.6
	c0,0.3-1.6,7.5-1.8,8.1c-0.2,0.6-1.5,4.9-1.5,5.3c-0.2,0.3-0.6,1.4-0.8,1.6c-0.2,0.4-0.4,0.7-0.4,1.2c-0.1,0.9-0.1,1.9,0.2,2.9
	c0,0.3-0.3,0.8-0.3,1.2c-0.2,1-0.4,2-0.4,2.4c0,0.8,1.2,2,1.8,2.3c0.6,0.3,0.3,0.6,2,0.4c1.8-0.2,3.4-3.4,3.8-3.7
	c0.3-0.2,0.6-0.7,1-1.4c0.6-0.9,1-2,1.4-3c0.2-0.3,0.6-1.2,1-2.2c2-4,5.2-9.9,5.3-10.3c0.6-1,1.4-2.2,2.3-3.4c0.8-0.9,1.4-1.8,2-2.9
	c0.4-0.6,0.4-0.6,2.3-0.8c1,0,2,1.3,3.8,1.8l0,0c1.1,1.1,2,2.3,2.9,3.6c2.8,2.4,5.8,4.5,8.9,6.2c1,0.4,5.3,2.9,6,2.9
	c1,0.4,2,0.8,3,1.3c1,0.3,2.1,0.5,3.2,0.3c0.8-0.2,1.6-0.7,1.4-2.3c-0.1-0.3-0.1-0.5-0.2-0.7c-0.7-2.2-7.2-7.3-8.1-8.2
	c-1.5-1.3-2.8-2.8-3.8-4.5c-0.8-1.3-1.8-2.6-2.7-3.9c-0.8-1.1-1.6-2.2-2.3-3.3c-0.8-1.6-3.6-5.6-3.6-6.3c0.1-0.3,0.2-0.5,0.3-0.7
	l0.2-0.2c0.6-1.2,1.2-2.4,1.8-3.4c0.2-0.2,0.2-0.2,0.2-0.3c0.3-0.3,0.7-0.7,1-1c0.2-0.2,0.3-0.4,0.4-0.6c1.3-1.6,3.2-3.9,4.3-5
	c0-0.1,0.1-0.2,0.2-0.2c0.1-0.3,0.3-0.5,0.4-0.8h0.2c0.4-0.6,3-3.3,3.4-4.2c0.4-0.9,6.3-5.7,7.2-6.6c0.8-0.8,1.5-1.6,2.2-2.6
	c0.3-0.3,0.3-0.8,0.2-1.2C409.2,7.6,409.5,7.1,409.5,7.1L409.5,7.1z"/>
<path class="st1" d="M348.4,0.2c0.2-0.1,0.4-0.2,0.6-0.2c-0.2,0.2,0.2,1,0,1c-0.3,0.2-0.6,0.8-0.4,0.8c0,0.3,0.8,0.8,1,0.8
	c0.2,0,0.6-0.6,0.8-0.4c0.2,0.2-0.3,0.4-0.3,0.8c0,0.1,0.1,0.2,0.2,0.2l0,0c0.2,0,0.3-0.2,0.4,0c0,0,0.4-0.6,0.6-0.6
	c0.2,0-0.2,0.8-0.2,1.2c0,0.4,1,0.3,1.2,0.4c0.2,0.3-0.8,0.6-0.8,0.8c-0.2,0-0.3,0.2,0,0.6c0,0.2,1,0.3,1,0.3c0.2-0.2,0-1,0.2-1
	c0.4,0,1.7,1.2,1.7,1.6s-0.8,0.3-0.8,0.8c0,0.2,0.8,0.8,1,0.8c0.3,0,0.2-1,0.3-1.2s0.8,0.2,1,0.2c0.3,0.3-0.2,1.6,0,2.2
	c0.2,0.6,0.4,0,1.2,0c0.6,0,0.6-0.4,0.8-0.6h0.2c0.2,0.2,1,1.3,0.8,1.8c-0.2,0-0.8,0.3-0.8,0.8c0,0.4,1,0.4,1.2,0.6h0.2
	c0.3-0.2,1-1.2,1.2-1.2c0.2,0.2-0.7,2.4-0.2,3.4c0.8,1,2.2-0.8,2.3-0.8c0.1,0.8,0.1,1.8,0,2.6c0,0.3,1,0.2,1.2,0.6
	c0.2,0.6-0.7,1.3-1,1.6c-0.3,0.4-0.3,0.8,0,1c0.4,0.4,1.4-1.6,1.6-1.7c0.3-0.2,1.2,0.4,0.4,1.6c0,0.2-0.4,0.4-0.6,0.4
	s-0.6,0.3-0.2,0.7c0,0.2,0.2,0.2,0.2,0c0.4,0,0.8-0.8,1.2-0.8c0.3-0.2,1,0.6,1,0.8c0.2,0.4-1,1.2-1.6,1.4c-0.4,0.4-0.4,0.6-0.3,0.8
	c0.2,0.3,0.7,0.4,0.8,0.3c0.3-0.3,0.3-1.2,0.8-1.3c0.6-0.3,2,0.6,1.8,0.8c-0.5,0.4-1.1,0.8-1.8,1c-0.3,0.2-0.7,0.4-0.7,0.6
	c-0.2,0.4,0.4,0.6,0.3,0.8v0.2c0,0.2,0,0.3,0.3,0.4c0.2,0.3,0.6-0.6,0.8-0.8h0.2c0.4,0.3,0.8,0.8,1,1.3c0,0.3-0.8,0.3-1.2,0.3
	s-0.3,0.6-0.3,0.8c0,0.2,1,0,1,0.2c0,0.3-1.7,0.4-1.7,1c0.1,0.2,0.3,0.3,0.4,0.4c0.4,0.3,0.8,0.4,1,0.6c0.2,0,0.3,0.2,0.4,0.2h0.4
	c0.2-0.2-0.2-0.4-0.2-0.8c0-0.3,0.2-0.6,1-0.4c0.3,0.2,0.8-2.4,0.8-2.2c0.4,0.8,0.7,1.7,0.8,2.6c-0.2,0.2-0.2,0.3-0.4,0.2
	c-0.8-0.2-1.3,0.8-1.3,1.2c0.2,0,0.2,0,0.3,0.2c0.1,0.2-0.6,0.8-0.8,1.3c-0.3,0.4,0.2,0.8,0.6,0.8c0.3,0.2,0.6-1.6,0.8-1.6
	c0.3-0.3,0.4-1,1.2-1c0.4,0,0,1,0.2,1.2c0.2,0.3,0.6-0.4,1.2-0.6c0.6-0.2,1.2,0.6,1.2,1c0,0.3-1.2,0.4-1.6,0.3
	c-0.2-0.2-0.2,1.2-0.4,1.3c-0.3,0.1-1.8-0.4-2-0.3c-0.2,0.4,0.4,0.8,0.7,0.8c0.2,0,0.4,0.3,0.2,0.4l-0.2,0.2c-0.2,0.3,0,0.6,0,0.8
	c-0.2,0.3-0.3,0-0.4-0.2c-0.1,0-0.3,0.1-0.3,0.2c-0.1,0.1-0.2,0.3-0.2,0.4c-0.2,0.2-0.8-0.2-1,0c-0.1,0.3-0.1,0.6,0,0.8
	c0,0.7,1.4-0.2,1.7,0c0.2,0.2-0.2,1.3,0.3,2c0.6,0.8,1.4-0.2,1.6,0c0,0.3-0.4,1.3-0.4,1.6c0.1,0.3,0.3,0.6,0.6,0.7
	c0.2,0-0.2-0.8,0-1.2c0.2-0.3,0.4-0.2,0.7-0.3s-0.6-2.3-0.7-2.7c0-0.3-1.2-0.3-1.2-0.8c0-0.4,0.8-0.6,0.8-0.3c0,0.1,0.1,0.2,0.2,0.2
	c0.3,0.1,0.5,0.1,0.8,0c-0.1-0.3-0.2-0.5-0.3-0.8c0-0.2-0.2-0.3-0.2-0.4c-0.2-0.4,0-0.8,0.8-1.4c0.3-0.3,0.7,0,0.8,0
	c0,0.2,0.4-0.2,0.3,0.4c0,0.3,0.3,0.7,0.6,0.7c0.4,0,0.6-1.2,0.2-1.3c-1-0.7,0-2.4,0.4-2.4c2.2,0.2,0.4,0.8,0.6,1.2
	c0.3,0.3,0.6,0.5,1,0.6c0.2,0.2-1,0.7,0.3,2l0.3,0.3c0.3,0.4,0.8,1.2,0.6,1.6c0,0.8-0.8,1.3-0.6,1.6c0,0.2,1,0,1.4,0.6
	c0.3,0.6-0.8,1.2-1.3,1.3c-0.4,0.1-0.6-0.3-1-0.4c-0.7-0.3-1.4-0.3-2.2-0.2c-0.1,0-0.2,0.1-0.2,0.2l0,0l-0.3,0.3
	c-0.2,0.2-0.4,0.4-0.4,0.6c-0.2,0.3,1.2-0.4,1.3-0.4c0.3,0,0,1.4,0.4,2.2c0.3,0.4,0.7,0.8,1.2,0.8c0.3,0,0.4-0.2,0.7-0.6
	c0.2-0.4-0.7-0.8-1-1.4c-0.3-0.4,0.4-0.6,0.8-0.4l0.2,0.2c0.3,0,1.4,0.6,2,0.7c0.5,0.1,1-0.3,1.2-0.7c0-0.3-0.4-0.3-0.4-0.3
	c0.1-0.5,0.3-1,0.4-1.4c0.2-0.2,0.7,0.3,0.7,0.8c0,0,0.2,0.6,1,0.6c0.8,0,1.3-0.3,1.3-0.2c-0.7,1.8-3,1.3-3.2,1.4
	c-0.2,0.2,0.8,0.8,0.8,0.8c-1,0.6-1.4,0-1.8,0c-0.2,0-0.2,0-0.6-0.2c-0.3-0.1-0.5-0.2-0.7-0.2c-0.2,0-0.2,0.2-0.2,0.6
	c0,0.2,0.2,0.3,0.4,0.3c0.3,0.2,0.8,0.3,1,0.6c0,0.4-0.2,1.8-0.2,1.8V45c0.1-0.2,0.3-0.3,0.3-0.4c0.1-0.1,0.2-0.2,0.2-0.3
	c0.3-0.6,0.4-1.3,0.6-1.8c0.8,0.2,0.2,1.3,0.4,1.8c0,0.2,0.2,0.3,0.4,0.3c0.3,0,0.7-0.1,1-0.3h0.2l0.2-0.2c0.2,0,0.2,0,0.2,0.2
	c0,0,1,1.4-0.2,1.6c-0.2,0-0.8-0.4-1-0.3c-0.2,0-0.2,1.3,0,1.3c0.3,0,0.6-0.8,0.8-0.8c0.2,0,0.3,0.2,0.6,0.2c0.3,0.2,0.7,0.3,1,0.4
	c0.6-0.1,1.3-0.1,1.8,0c0.2,0,0.8,0.4,0.8,0.7c0,0.2-1.3,0-1.3,1.4c0,0.2,0.4,0.2,0.8,0.3c0.4,0.1,0.3,1,0.2,1.2
	c-0.2,0.3,0.3,0.4,0.4,0.3c0.2,0,0.2-0.2,0.6,0c0.3,0.2,0.4-0.2,0.3-0.4c0-0.3-0.3,0-0.6-0.2s0.4-2.3,0.4-2.3c0.2,0.2-1.4-1.8,0-1.8
	c1.4,0.2,0.7,2,0.7,2.4c0,0.3,1.8,0.8,1.8,1.2c1,1.6-0.8,1.2-0.8,1.3c-0.1,0.1-0.4,0-0.7,0c-0.2,0-0.2-0.4-0.3-0.3
	c-0.1,0.2,0,0.6,0,0.8l0.6,0.2c-0.1,0.5-0.1,0.9,0,1.4c0.2,0.2,0.6,0.2,0.8,0.3c0.4,0-0.3,0.8,1,0.8c0.2,0,0.4,0.4,0.4,0.3
	c0.6-0.5,0.8-1.3,0.4-2c0,0,0.6-1.2,1.4,0c-0.1,0.8-0.3,1.5-0.4,2.3c-0.2,0.2-1.4,0.6-1.7,0.8c-0.3,0.3,0,0.4,0.2,0.6
	c0.2,0,0.6-0.7,0.7-0.7c0.2,0.2,0.6,0.6,0.8,0.6c0.4,0,1.2-1.6,1.3-1.6c0.3,0,0.6,0.3,0.6,0.8c0.2,0.4,0,1.3,0.8,1.8
	c0.2,0,1.8-1.2,1.3-0.2c-0.3,0.8,1.6,0.8,1.4,1.2c-0.3,0.2-0.2,0.2-0.3,0.3c-0.1,0.1,0,0.8-0.2,0.8c-0.7,0.3-1.8-0.8-1.8-0.4
	c-0.3,0.4,0.7,1.6,1.7,1.6c0.6-0.1,1.2-0.3,1.8-0.4c0.3,0.6,0.6-1.4,0.7-1.4c0.4,0.3,0.9,0.7,1.3,1l-0.2,0.8c0.5,0.3,1,0.5,1.6,0.6
	c0.2,0-0.4-0.7-0.6-1c0.2,0,0.8,0.2,0.8,0.2c0,0,0.8,1.6,1.2,1.6c0.6,0,0.6,0.4,1.2,0.4c0.2,0,0.8-0.4,1-0.3c0.6,1,0.7,0,1-0.2
	c0.2-0.2,0.7,1.2,0.7,1.2s0.3,0,0.3-0.4c0.2-0.2,1,0.8,0.8-0.4c0.4,1.8-0.6,2.4-1.3,2.6c-1.1,0.2-2.2,0.1-3.2-0.3
	c-0.9-0.5-1.8-1-2.9-1.4c-0.8,0-5-2.4-6-2.9c-3.2-1.8-6.1-3.9-8.9-6.2c-0.8-1.3-1.8-2.5-2.9-3.6l0,0c-1.8-0.4-2.8-1.8-3.8-1.8
	c-1.8,0.3-1.8,0.3-2.3,0.8c-0.6,1-1.3,1.9-2,2.9c-0.8,1.3-1.8,2.4-2.3,3.4c-0.2,0.4-3.3,6.3-5.3,10.3c-0.4,1-0.8,1.8-1,2.2
	c-0.4,1-0.8,2.1-1.4,3c-0.4,0.8-0.7,1.3-1,1.4c-0.3,0.3-1.8,3.6-3.8,3.7c-1.7,0.2-1.4-0.2-2-0.4c-0.8-0.3-1.8-1.4-1.8-2.3
	c0-0.4,0.3-1.4,0.4-2.4c0-0.3,0.3-0.8,0.3-1.2c-0.2-0.9-0.3-1.9-0.2-2.9c0-0.4,0.3-0.8,0.4-1.2c0.2-0.2,0.6-1.3,0.8-1.6
	c0-0.4,1.3-4.8,1.4-5.3c0.2-0.5,1.8-7.7,1.8-8.1c0-0.2,0-2.8,0.2-3.6c0-0.6,0.4-0.8,0.3-2.4v-0.8c-0.4-0.8-1.2-1.6-2-2
	c-0.8-0.2-4.7-0.6-5.8-0.8c-0.8-0.2-7.9-1.8-9.5-2.2c-1.6-0.4-7.2-2.3-8.1-2.4c-0.8-0.1-1.4-0.3-2.2-0.6c-0.7-0.2-1.3-0.5-2-0.8
	c-0.3-0.3-0.6-0.4-0.8-0.7l-0.1-0.2v-0.4c-0.4-1.3-0.3-2.4,1.2-3c1.2-0.4,2.4-0.7,3.8-0.8c0.2,0,0.3,0,0.4-0.2
	c1.3-0.2,4.7-0.3,5-0.3c0.3,0.1,0.5,0.1,0.8,0c1,0,2.7-0.2,3.2-0.2l0.2,0.2c0.4,0,0.8-0.3,1-0.3c0.5,0,1.1,0.1,1.6,0.3
	c0.3,0.2,4.9-0.2,6-0.2c1,0,5,0.2,6.2,0h0.2c0.3-0.1,0.5-0.3,0.8-0.4c0.3-0.2,0.3-0.4,0.4-0.7c0.8-1.2-0.6-3.2-1.3-4.5
	c-0.2-0.3-0.3-0.7-0.6-1c0-0.1-0.1-0.2-0.2-0.2l0,0c-0.3-0.8-1.8-4.3-2.2-5.2h-0.2c-0.3-0.4-3.3-5.2-3.6-5.5
	c-0.2-0.2-6.5-6.6-6.3-8.8C347.1,1.2,348,0.9,348.4,0.2L348.4,0.2z M363,31.4c-0.3,0.4,0.2,0.6,0.2,0.7c-0.2,0.2-0.4,0-0.8,0
	c-0.1,0-0.2,0.1-0.2,0.2c0,0.2,0.6,0.2,0.8,0.4c0.2,0.2,0.3,0.4,0.4,0.6c0.2,0.1,0.3,0.2,0.6,0.2c0.4,0.3,0.6-0.6,0.8-0.8
	c0.4-0.3,0.4-0.6,0-0.4c-0.3,0-0.8-0.6-1-0.7C363.7,31.1,363.6,31.1,363,31.4L363,31.4z M346.8,31.2c-0.1-0.3-0.4-0.5-0.8-0.6
	c-0.3,0-0.2,0.8-0.8,0.8c-0.3,0.2,0.2,1.4,0.6,1.6c0.3,0.2,0.5,0.2,0.8,0c0.3-0.2-0.8-0.6-0.6-1c0.3-0.6,1-0.4,0.8-0.6L346.8,31.2
	L346.8,31.2z M339,31.5c-0.4,0.3-0.3,0.6-0.3,0.8c0,0.4,0.8,0.3,1.4,0.2c0.6-0.2,0.4-0.2,0.2-0.8C340,30.8,339.5,31.4,339,31.5z
	 M334.4,33.7c0.6,0-0.6-1.3-0.2-1.4c0.2-0.3,0.8,1,1,1c0.3,0,0.4-0.3,0.6-1c0-0.4-0.3-0.8-0.6-1c-0.4-0.6-0.8-0.6-0.8-0.6
	c-0.4-0.2-0.3-0.2-0.4-0.4c-0.2-0.3-0.6,0-0.6,0.3c-0.2,0.3,0.8,0.6,0.6,0.8c-0.3,0-1.3-0.3-1.6-0.2c-0.4,0.2-0.3,0.4-0.2,0.8
	c0,0.3-0.2,0.3-0.3,0.4l-0.2,0.2c0,0.4,0.3,0.7,0.8,0.7c0.3,0-0.2-0.8,0-1c0.2-0.2,0.4,0.2,0.6,0.4
	C333.5,32.9,333.9,33.7,334.4,33.7L334.4,33.7z M376,34.1c-0.3-0.3-0.5-0.3-0.8-0.4h-0.3c-0.2,0.2,0.2,0.4,0.2,0.6
	c0,0.2-0.2,0.6,0,0.6c0.3,0,0.5,0,0.8-0.2C376.1,34.5,376.2,34.3,376,34.1L376,34.1z M356.6,33.7c0.4-0.5,0.5-1.2,0.3-1.8
	c-0.2-0.7-0.4-0.6-0.8-0.4c0.2,0.7-0.8,1.7-0.8,1.7c0.2,0.2,1-0.2,1-0.2c-0.2,0.2-0.3,0.3-0.3,0.6v0.2
	C356.2,33.8,356.4,33.8,356.6,33.7L356.6,33.7z M352.9,33.7c0.1-0.6,0.2-1.3,0.2-1.8c0-0.4,0.3-0.4,0.6-0.4h0.3c0.3,0,0.6,0.3,1,0
	c0.3-0.3,0.8-0.6,0.2-0.8c-0.4,0-0.8,0.3-1,0.2h-0.2c-0.6,0-0.8-0.7-0.8-0.6c-0.3,0.2-0.6,1.3-0.8,1.6c-0.4,0.2-0.7,0.6-0.8,1
	c-0.2,0.3-0.2,0.5,0,0.8c0,0.2-0.2,0.2,0,0.2c0,0.2,0,0.2,0.2,0.2v0.2c0.2,0.2,1,0,1.2,0C352.8,33.8,352.9,33.8,352.9,33.7
	L352.9,33.7z M349.3,33.7l1.4-1.4c0.8-0.8-0.4-1.6-0.3-1.7s0.3-0.3,0.2-0.4c0-0.2-0.4-0.3-1,0.3c-0.4,0.4-0.3,1.2-0.4,1.3
	c-0.3,0.3-0.8,0.8-1,0.8c0.1,0.4,0.2,0.8,0.3,1.2c0.2,0.2,0.3,0.3,0.3,0.4C348.9,33.9,349.1,33.8,349.3,33.7L349.3,33.7z
	 M337.5,33.9c0.1-0.1,0.1-0.2,0-0.3l0,0c-0.2-0.2-0.3-0.3-0.3-0.4l0,0c0-0.3,0.3-1.3,0.3-1.4c-0.3-0.6-0.7-0.9-1.3-1
	c-0.3,0-0.2,0.6-0.2,0.8h0.2c-0.2,0.3,0.6,1.2,0.4,1.3c-0.2,0.3-0.4-0.2-0.4,0.2v0.6l0.2,0.3C336.8,34.1,337.1,34.1,337.5,33.9
	L337.5,33.9z M371.7,40.4c-0.3,0.2-0.3,0.4,0,0.8c0.2,0.2,0.4,0.2,0.4,0.3l0.2,0.2c0.2,0.2,0.4,0,0.4-0.3c-0.2-0.3,0-0.8-0.3-0.8
	C372.5,40.6,371.9,40.3,371.7,40.4L371.7,40.4z M374.9,44.2h-0.2c0-0.2-0.4-0.2-0.4-0.3s1-0.6,0.6-0.7s-0.4-0.6-0.6-0.6
	c-0.2,0-0.6-0.3-0.6-0.2c0,0.3,0.2,0.4-0.2,0.6c-0.4,0-1.4-0.6-1.2,0c0.3,0.3,0.5,0.8,0.6,1.2c0,0.3,0,0.7,0.2,0.7
	c0.5,0.3,1.1,0.3,1.6,0C375.1,44.8,374.9,44.3,374.9,44.2z M404.4,62c-0.3,0-0.3,0.3-0.3,0.7v0.2c0.2,0.2,0.4-0.2,0.6-0.3
	C405,62.3,404.6,62.2,404.4,62L404.4,62z M366.1,54.9c-0.4,0.3-0.7,0.6-0.7,0.7c-0.2,0.2-0.3,0.6,0.3,0.6c0.4,0,2,1.6,2.3,1.6
	c0.4,0-0.3-1-0.2-1.3c0.2-0.2,1.4,0.8,2.4,0.6c1-0.4,0-1.3-0.2-1.4c-0.3-0.3-2.4,0.4-2.6,0.3c0-0.3,0.3-0.6,0-1
	C367.1,54.8,366.6,54.8,366.1,54.9L366.1,54.9z M369.4,54.3v0.6c0.3,0,1.2,0.6,1.3,0l0.2-0.3c0-0.2,0-0.3-0.2-0.3
	C370.3,54.1,369.4,54.3,369.4,54.3z M368.5,51.7c-0.3,0.3,0.8,0.3,0.8,0.4c0.2,0.3-0.8,0.3-0.8,0.6c0.4,0.1,0.8,0.2,1.3,0.3
	c0.4,0,0.8,0.8,1.3,0.6c0.4-0.3-0.2-0.6-0.6-1c-0.3-0.3,0.3-0.6-0.2-0.8C369.8,51.5,369.1,51.5,368.5,51.7z M366.5,65.6
	c0.3-1,0.8-1.9,1.3-2.9c0.6-0.8,0-2.4,0.2-2.6c0.2-0.2,0.4,0.3,0.8-0.3c0.3-0.5-0.8-1.6-0.8-1.6c-0.3,0,0,0.4-0.3,0.7
	c-0.4,0.2-0.6-0.4-0.8,0c-0.6,0.3-2.2-0.6-2.2,0c0,1.8,2.4,1.4,2.6,1.8c0.3,0.3-0.4,0.8-0.6,1c-0.6,0-1.2-0.2-1.8-0.3
	c-0.4-0.2-1.2,0-1.2,0.6c-0.1,0.8,0.5,1.5,1.3,1.6c0.7,0,0.8,0.8,0.8,1.4l-0.2,1.2c0,0.3-0.6-0.3-0.7-0.2c-0.1-0.3-0.3-0.7-0.4-1
	c-0.3-0.3-0.4-0.4-0.6-0.4c-0.3,0.1-0.5,0.3-0.8,0.4c-0.5,0.3-0.8,0.8-1,1.3c0,1.6,2.3,1.7,2.3,1.7c0,0.3-0.6,1-0.8,0.8
	c-0.3-0.2-1.8-2.4-2.4-0.3c-0.2,0.4,0.8,1.3,0.8,1.6c0.2,0.2,0.2,0.2,0.2,0.3c0,0.3-1.3,0.8-1.8,1.8c-0.2,0.4-0.1,1,0.3,1.3l0.2,0.2
	c-0.4,0.2-0.8,0.4-1.2,0.8c-0.2,0-0.3,0.2-0.2,0.2c1,0.2,1.6-0.8,2.6-1.8c0.8-0.8,1.5-1.6,2-2.6c0.5-0.8,0.9-1.8,1.2-2.9
	C365.5,67.2,366.4,65.8,366.5,65.6L366.5,65.6z M358.6,72.8c-0.2,0.2,0,0.3,0,0.4s0.3,0.3,0.3,0.3c0.4,0,0.2,0.2,0.4,0.2
	c0.3,0,0.3-0.2,0.3-0.4c0-0.4-0.2-0.2-0.3-0.3c-0.1-0.1,0-0.2-0.2-0.2C359,72.7,358.6,72.8,358.6,72.8z M360.9,15.9
	c0-0.1-0.1-0.2-0.2-0.3c-0.2,0-0.2,0.2-0.3,0.3c-0.1,0.1-0.2,0.2-0.3,0.2c0,0,0,1,0.2,1l0.3-0.2h0.2c0.2,0,0.2-0.6,0.2-0.6l0.3-0.3
	C361.2,15.9,360.9,15.9,360.9,15.9z"/>
</svg>
