<?xml version="1.0" encoding="utf-8"?>
<!-- Generator: Adobe Illustrator 24.0.3, SVG Export Plug-In . SVG Version: 6.00 Build 0)  -->
<svg version="1.1" id="Layer_1" xmlns="http://www.w3.org/2000/svg" xmlns:xlink="http://www.w3.org/1999/xlink" x="0px" y="0px"
	 viewBox="0 0 461.2 107.4" style="enable-background:new 0 0 461.2 107.4;" xml:space="preserve">
<style type="text/css">
	.st0{fill:#981D85;}
	.st1{fill:#495965;}
	.st2{fill:url(#SVGID_1_);}
	.st3{fill:url(#SVGID_2_);}
	.st4{fill:url(#SVGID_3_);}
	.st5{fill:url(#SVGID_4_);}
	.st6{fill:url(#SVGID_5_);}
	.st7{fill:url(#SVGID_6_);}
</style>
<title>logo-</title>
<path class="st0" d="M139.1,57.5c0,1,0.2,2.1,0.7,3c0.5,0.8,1.1,1.5,1.9,2.1c0.8,0.6,1.7,1,2.6,1.2c1,0.3,2.1,0.4,3.1,0.4
	c0.8,0,1.6-0.1,2.4-0.3c0.8-0.2,1.6-0.4,2.3-0.8c0.7-0.4,1.3-0.9,1.7-1.5c0.5-0.7,0.7-1.6,0.7-2.4c0-0.8-0.3-1.5-0.8-2.1
	c-0.7-0.7-1.5-1.2-2.4-1.6c-1.2-0.5-2.5-0.9-3.9-1.3c-1.5-0.4-3.3-0.8-5.2-1.2c-1.6-0.3-3.1-0.8-4.6-1.3c-1.4-0.4-2.8-1.1-4-1.9
	c-1.2-0.8-2.1-1.8-2.8-3c-0.8-1.3-1.1-2.9-1.1-4.4c-0.1-2.2,0.4-4.3,1.5-6.2c1-1.6,2.3-3,3.9-3.9c1.7-1,3.6-1.7,5.5-2
	c2.1-0.4,4.2-0.6,6.3-0.6c2.1,0,4.2,0.2,6.2,0.6c1.9,0.4,3.7,1.1,5.4,2.1c1.6,1,2.9,2.3,3.9,3.9c1.1,1.8,1.8,3.9,1.9,6.1H154
	c-0.1-2.1-0.9-3.5-2.4-4.2c-1.6-0.8-3.3-1.1-5-1.1c-0.6,0-1.3,0-2,0.1c-0.7,0.1-1.4,0.2-2,0.5c-0.6,0.3-1.1,0.6-1.5,1.1
	c-0.4,0.6-0.7,1.3-0.6,2c0,0.9,0.4,1.8,1.1,2.4c0.8,0.7,1.8,1.2,2.8,1.5c1.3,0.4,2.6,0.7,3.9,1c1.5,0.3,3,0.6,4.5,1
	c1.6,0.4,3.1,0.8,4.6,1.3c1.4,0.5,2.8,1.1,4,2c1.2,0.8,2.1,1.9,2.8,3.1c0.8,1.4,1.1,3,1.1,4.6c0.1,2.3-0.5,4.5-1.6,6.5
	c-1,1.7-2.4,3.2-4.1,4.2c-1.8,1.1-3.7,1.9-5.8,2.3c-2.2,0.5-4.4,0.7-6.6,0.7c-2.3,0-4.5-0.2-6.7-0.7c-2.1-0.4-4.1-1.2-5.8-2.3
	c-3.7-2.4-6-6.5-6-10.9L139.1,57.5z"/>
<path class="st0" d="M169.8,30.8h10.3v5h0.1c1.2-2,2.9-3.6,5-4.7c2.1-1,4.4-1.5,6.7-1.4c2.8-0.1,5.5,0.5,8,1.8
	c2.2,1.1,4.1,2.7,5.6,4.7c1.5,2,2.6,4.3,3.3,6.8c0.7,2.6,1.1,5.3,1.1,8.1c0,2.6-0.4,5.2-1.1,7.7c-0.7,2.4-1.8,4.6-3.2,6.5
	c-1.5,1.9-3.3,3.4-5.4,4.6c-2.4,1.2-5,1.8-7.6,1.7c-2.3,0-4.6-0.5-6.7-1.5c-2.1-1-3.8-2.5-5.1-4.4h-0.1v18.8h-10.8V30.8z
	 M189.8,63.3c3,0.1,5.8-1.3,7.4-3.9c0.8-1.2,1.3-2.6,1.6-4c0.3-1.5,0.5-3.1,0.5-4.7c0-1.6-0.2-3.1-0.5-4.7c-0.3-1.5-0.9-2.8-1.6-4.1
	c-0.8-1.2-1.8-2.2-3-2.9c-1.3-0.8-2.9-1.2-4.4-1.1c-1.6-0.1-3.1,0.3-4.5,1.1c-1.2,0.7-2.2,1.7-2.9,2.9c-0.8,1.3-1.3,2.6-1.6,4.1
	c-0.3,1.5-0.5,3.1-0.5,4.7c0,1.6,0.2,3.2,0.5,4.7c0.3,1.4,0.8,2.8,1.6,4C184,61.9,186.9,63.4,189.8,63.3L189.8,63.3z"/>
<path class="st0" d="M225.4,24.7h-10.8v-9h10.9L225.4,24.7z M214.6,30.8h10.9v39.5h-10.9V30.8z"/>
<path class="st0" d="M231.1,15.8h10.9v54.6h-10.9V15.8z"/>
<path class="st1" d="M282.6,67c0,6.5-1.5,11.3-4.5,14.6c-3,3.2-7.6,4.9-13.9,4.9c-1.9,0-3.8-0.2-5.6-0.6c-1.8-0.4-3.6-1.1-5.2-2
	c-1.5-0.9-2.9-2.1-3.9-3.6c-1.1-1.6-1.6-3.5-1.7-5.4h6.5c0,1.1,0.4,2.2,1.1,3c0.7,0.8,1.6,1.5,2.5,2c1,0.5,2.1,0.9,3.2,1.1
	c1.1,0.2,2.2,0.3,3.4,0.4c1.9,0.1,3.7-0.3,5.4-1.1c1.4-0.7,2.7-1.8,3.7-3.1c1-1.4,1.7-3,2.1-4.7c0.5-2,0.7-4.1,0.6-6.1v-2.6h-0.1
	c-0.5,1.2-1.2,2.3-2.1,3.2c-0.9,0.9-1.9,1.6-3,2.2c-1.1,0.6-2.3,1-3.5,1.3c-1.2,0.3-2.5,0.5-3.7,0.5c-2.7,0.1-5.3-0.5-7.7-1.6
	c-2.1-1-4-2.5-5.5-4.4c-1.5-1.9-2.6-4.1-3.3-6.4c-0.8-2.5-1.1-5.1-1.1-7.7c0-2.4,0.3-4.8,0.9-7.2c0.6-2.4,1.6-4.7,3.1-6.7
	c1.5-2.1,3.4-3.8,5.7-5c2.7-1.4,5.6-2.1,8.6-2c2.4,0,4.7,0.5,6.8,1.6c2.1,1.1,3.8,2.8,4.9,4.9h0.1v-5.6h6.1V67z M264.4,65.1
	c1.9,0.1,3.8-0.4,5.5-1.3c1.5-0.9,2.7-2.1,3.6-3.5c0.9-1.5,1.6-3.2,2-4.9c0.4-1.8,0.7-3.7,0.7-5.5c0-1.7-0.2-3.4-0.6-5.1
	c-0.4-1.6-1.1-3.2-2-4.6c-0.9-1.3-2.1-2.5-3.5-3.2c-1.6-0.8-3.4-1.3-5.2-1.2c-1.9-0.1-3.7,0.3-5.4,1.1c-1.4,0.8-2.7,1.8-3.6,3.2
	c-1,1.4-1.7,2.9-2.1,4.6c-0.4,1.8-0.7,3.6-0.7,5.4c0,1.8,0.2,3.6,0.5,5.4c0.3,1.7,0.9,3.4,1.8,4.8c0.8,1.4,2,2.6,3.4,3.5
	C260.7,64.7,262.5,65.2,264.4,65.1L264.4,65.1z"/>
<path class="st1" d="M324.5,70.4c-0.6,0.3-1.3,0.5-2,0.6c-0.9,0.2-1.8,0.3-2.7,0.3c-1.5,0.1-2.9-0.4-4-1.4c-1-1-1.5-2.5-1.5-4.7
	c-1.7,2-3.8,3.7-6.2,4.7c-2.4,1-5.1,1.5-7.7,1.4c-1.7,0-3.4-0.2-5.1-0.6c-1.5-0.4-2.9-1-4.2-2c-1.2-0.9-2.2-2.1-2.8-3.4
	c-1.4-3.4-1.4-7.2,0.1-10.6c0.7-1.4,1.7-2.6,3-3.4c1.3-0.9,2.8-1.6,4.3-2c1.6-0.5,3.3-0.9,4.9-1.2c1.8-0.3,3.5-0.6,5.1-0.8
	c1.4-0.1,2.8-0.4,4.2-0.8c1.1-0.3,2-0.8,2.9-1.4c0.7-0.7,1.1-1.7,1.1-2.8c0.1-1.2-0.2-2.4-0.8-3.4c-0.5-0.8-1.2-1.5-2-2
	c-0.9-0.5-1.8-0.8-2.8-0.9c-1-0.2-2.1-0.2-3.1-0.2c-2.4-0.1-4.8,0.5-6.9,1.6c-1.8,1-2.8,3-3,5.9h-6.5c0-2.2,0.6-4.3,1.5-6.2
	c0.9-1.6,2.1-3,3.7-4.1c1.6-1.1,3.4-1.8,5.3-2.2c2.1-0.5,4.2-0.7,6.3-0.7c1.8,0,3.6,0.1,5.3,0.4c1.7,0.2,3.3,0.8,4.8,1.6
	c1.4,0.8,2.6,1.9,3.4,3.3c0.9,1.7,1.4,3.6,1.3,5.6v20.3c0,1.1,0.1,2.3,0.3,3.4c0.2,0.7,0.8,1.1,1.8,1.1c0.7,0,1.4-0.1,2-0.4
	L324.5,70.4z M314,50c-0.7,0.5-1.5,0.8-2.3,1c-1,0.3-1.9,0.5-2.9,0.7c-1,0.2-2.1,0.3-3.2,0.4s-2.3,0.3-3.3,0.5
	c-1,0.2-2.1,0.5-3.1,0.8c-0.9,0.3-1.8,0.7-2.6,1.3c-0.7,0.5-1.3,1.2-1.7,2c-0.5,0.9-0.7,2-0.7,3.1c0,0.9,0.2,1.9,0.7,2.7
	c0.4,0.7,1,1.3,1.7,1.8c0.7,0.5,1.6,0.8,2.4,1c1,0.2,1.9,0.3,2.9,0.3c1.9,0,3.7-0.3,5.5-0.9c1.4-0.5,2.6-1.3,3.8-2.2
	c0.9-0.8,1.6-1.8,2.1-2.9c0.4-0.9,0.7-1.9,0.7-2.9L314,50z"/>
<path class="st1" d="M328.3,30.8h6.1v5.9h0.2c4.3-6.3,12.6-8.5,19.4-5.2c2,1.1,3.6,3,4.2,5.2c1.3-2.1,3.1-3.8,5.3-5
	c2.2-1.2,4.6-1.8,7.1-1.8c1.8,0,3.6,0.2,5.4,0.7c1.5,0.4,2.9,1.1,4.1,2c1.2,1,2.1,2.2,2.7,3.6c0.7,1.7,1,3.4,1,5.2v29h-6.5V44.5
	c0-1.2-0.1-2.3-0.3-3.4c-0.2-1-0.6-2-1.1-2.8c-0.6-0.8-1.4-1.5-2.3-1.9c-1.2-0.5-2.5-0.7-3.9-0.6c-2.8-0.1-5.5,0.9-7.5,2.8
	c-1.9,2-2.9,4.6-2.8,7.3v24.6h-6.5v-26c0-1.2-0.1-2.4-0.3-3.5c-0.2-1-0.6-2-1.2-2.8c-0.6-0.8-1.4-1.4-2.3-1.8
	c-1.1-0.5-2.4-0.7-3.6-0.7c-1.7-0.1-3.4,0.3-4.9,1.2c-2.4,1.3-4.2,3.5-5.1,6.1c-0.3,0.9-0.5,1.9-0.6,2.9v24.6h-6.5L328.3,30.8z"/>
<path class="st1" d="M423.8,57.8c-0.6,3.9-2.7,7.5-5.7,10c-3.2,2.4-7.2,3.6-11.2,3.4c-2.8,0.1-5.6-0.5-8.2-1.6
	c-2.2-1-4.3-2.5-5.9-4.3c-1.6-1.9-2.8-4.2-3.5-6.6c-0.8-2.7-1.3-5.5-1.3-8.3c0-2.8,0.4-5.6,1.4-8.2c0.8-2.4,2.2-4.6,3.9-6.6
	c1.6-1.8,3.7-3.3,5.9-4.3c2.3-1,4.9-1.6,7.5-1.5c3.1-0.1,6.1,0.6,8.8,2.2c2.3,1.4,4.2,3.3,5.6,5.5c1.4,2.3,2.4,4.7,2.9,7.3
	c0.5,2.5,0.7,5,0.6,7.6h-29.6c-0.1,1.7,0.2,3.3,0.6,4.9c0.4,1.5,1.2,2.9,2.2,4.1c1.1,1.2,2.4,2.2,3.9,2.9c1.8,0.8,3.7,1.1,5.6,1.1
	c2.4,0.1,4.7-0.6,6.7-1.9c1.9-1.4,3.1-3.5,3.5-5.8L423.8,57.8z M417.5,46.8c-0.1-1.5-0.4-3-1-4.4c-0.5-1.3-1.4-2.5-2.4-3.6
	c-3.4-3.2-8.3-4.2-12.6-2.4c-1.3,0.6-2.5,1.4-3.5,2.4c-1,1-1.8,2.2-2.3,3.6c-0.6,1.4-0.9,2.8-1,4.3L417.5,46.8z"/>
<path class="st1" d="M434.1,57.9c0,1.3,0.3,2.6,1,3.7c0.6,1,1.4,1.8,2.4,2.3c1,0.6,2.2,1,3.4,1.3c1.3,0.3,2.6,0.4,3.9,0.4
	c1.1,0,2.2-0.1,3.2-0.2c1.1-0.1,2.1-0.4,3.1-0.8c0.9-0.4,1.7-1,2.3-1.8c0.6-0.9,1-1.9,0.9-3c0-1.1-0.3-2.2-1.1-3.1
	c-0.8-0.9-1.8-1.5-2.9-2c-1.3-0.6-2.7-1-4.1-1.3l-4.8-1c-1.6-0.3-3.2-0.8-4.7-1.3c-1.5-0.5-2.9-1.1-4.1-2c-2.7-1.7-4.2-4.7-4-7.9
	c-0.1-1.8,0.4-3.6,1.3-5.1c0.9-1.4,2.1-2.6,3.5-3.5c1.5-0.9,3.1-1.6,4.7-2c1.7-0.4,3.5-0.6,5.2-0.7c2.1,0,4.1,0.2,6.2,0.6
	c1.8,0.3,3.5,1,5,2c1.5,1,2.7,2.3,3.5,3.8c0.9,1.9,1.5,3.9,1.5,6H453c0-1.1-0.4-2.2-1-3.2c-0.6-0.8-1.3-1.5-2.2-2
	c-0.9-0.5-1.8-0.9-2.8-1.1c-1-0.2-2.1-0.3-3.2-0.3c-1,0-2,0.1-2.9,0.2c-0.9,0.1-1.9,0.4-2.7,0.8c-0.8,0.4-1.5,0.9-2,1.6
	c-0.5,0.7-0.8,1.6-0.8,2.4c0,1.1,0.4,2.1,1.2,2.8c0.9,0.8,1.9,1.4,3,1.8c1.3,0.5,2.7,0.9,4.1,1.2c1.5,0.3,3,0.7,4.6,1
	c1.6,0.3,3.2,0.8,4.8,1.3c1.5,0.5,2.9,1.1,4.1,2c1.2,0.8,2.2,1.9,2.9,3.2c0.8,1.5,1.2,3.1,1.1,4.8c0.1,2.1-0.4,4.1-1.5,5.9
	c-1,1.6-2.3,2.9-3.9,3.9c-1.7,1-3.5,1.8-5.4,2.2c-2,0.4-4,0.6-6,0.6c-2.1,0-4.2-0.2-6.3-0.7c-1.9-0.4-3.6-1.2-5.2-2.3
	c-1.5-1.1-2.8-2.5-3.7-4.1c-1-1.9-1.5-4.1-1.5-6.2L434.1,57.9z"/>
<linearGradient id="SVGID_1_" gradientUnits="userSpaceOnUse" x1="58.4027" y1="65.095" x2="58.4027" y2="-6.0054" gradientTransform="matrix(1 0 0 -1 0 101.41)">
	<stop  offset="0" style="stop-color:#ED0C6E"/>
	<stop  offset="0.92" style="stop-color:#6E005F"/>
</linearGradient>
<path class="st2" d="M44.5,81.9c-1.2-0.4-2.3-0.8-3.4-1.3c13.7,12.7,35.2,11.8,47.9-1.9c5.9-6.3,9.1-14.7,9-23.3
	c3.2,9.8,2.1,20.5-2.9,29.6c-0.3,0.5-0.6,1-0.9,1.4l0,0c0,0,0,0.1-0.1,0.1c-0.1,0.1-0.1,0.2-0.2,0.3s-0.3,0.4-0.4,0.7l0,0
	c-10.6,16.1-32.6,23-48.5,18.7l0,0C25.1,101,13.1,80.6,18.3,60.7c2.5-9.4,8.5-17.5,16.9-22.6c1.1-0.7,2.2-1.2,3.3-1.8
	c0,0-8,7.2-8.1,22.3C30.4,58.6,39,82.4,44.5,81.9z"/>
<linearGradient id="SVGID_2_" gradientUnits="userSpaceOnUse" x1="30.4151" y1="35.5185" x2="105.0453" y2="36.8585" gradientTransform="matrix(1 0 0 -1 0 101.41)">
	<stop  offset="0" style="stop-color:#B9BDBF"/>
	<stop  offset="1" style="stop-color:#495965"/>
</linearGradient>
<path class="st3" d="M105,59.5c-0.2-10.3-4.6-20.1-12.3-27c9.5,16.1,4.2,36.9-11.9,46.4c-5,3-10.8,4.6-16.6,4.7
	c-2.4,0-4.9-0.2-7.3-0.6c1.2-0.2,2.4-0.4,3.6-0.7c-12.3-1-23.1-8.5-28.2-19.7c-0.7-1.8-1.3-3.6-1.7-5.5c-0.1,1.2-0.1,2.5-0.1,3.8
	c0.4,20.6,17.4,37,38,36.6S105.3,80.1,105,59.5L105,59.5L105,59.5z"/>
<linearGradient id="SVGID_3_" gradientUnits="userSpaceOnUse" x1="35.2873" y1="33.0366" x2="100.1138" y2="73.5494" gradientTransform="matrix(1 0 0 -1 0 101.41)">
	<stop  offset="0" style="stop-color:#ED0C6E"/>
	<stop  offset="1" style="stop-color:#6E005F"/>
</linearGradient>
<path class="st4" d="M85.2,12L85.2,12c-0.5-0.3-0.9-0.6-1.4-0.8c-9-5-19.7-6.1-29.5-2.9c18.7-0.2,34,14.8,34.2,33.6
	c0.1,7.9-2.6,15.6-7.6,21.8c0.4-1.2,0.8-2.4,1.1-3.6C75,70.3,63.3,76.3,50.9,75.8c-3.9-0.3-7.7-1.6-11-3.9c-1.7-1.3-3.3-2.7-4.8-4.3
	c0.5,1.1,1.1,2.2,1.8,3.3c10.6,17.7,33.6,23.4,51.2,12.7c8.4-5,14.4-13.1,16.9-22.6l0,0C109.3,44.9,102,22.2,85.2,12z"/>
<linearGradient id="SVGID_4_" gradientUnits="userSpaceOnUse" x1="64.6536" y1="25.6554" x2="63.3137" y2="100.2745" gradientTransform="matrix(1 0 0 -1 0 101.41)">
	<stop  offset="0" style="stop-color:#B9BDBF"/>
	<stop  offset="1" style="stop-color:#495965"/>
</linearGradient>
<path class="st5" d="M96.3,37.9c-0.4-20.6-17.4-37-38-36.6c-10.3,0.2-20.1,4.6-27,12.3C47.4,4,68.1,9.3,77.6,25.4
	c3,5,4.6,10.8,4.7,16.6c0,2-0.1,4-0.4,6c-0.2-1.2-0.5-2.4-0.9-3.6c-0.6,12.4-7.8,23.5-18.8,29.2c-2,0.9-4.2,1.6-6.3,2.1
	c1.2,0.1,2.5,0.1,3.8,0.1C80.2,75.5,96.6,58.5,96.3,37.9C96.3,37.9,96.3,37.9,96.3,37.9z"/>
<linearGradient id="SVGID_5_" gradientUnits="userSpaceOnUse" x1="84.4021" y1="48.3133" x2="13.6746" y2="85.926" gradientTransform="matrix(1 0 0 -1 0 101.41)">
	<stop  offset="0" style="stop-color:#ED0C6E"/>
	<stop  offset="1" style="stop-color:#6E005F"/>
</linearGradient>
<path class="st6" d="M82.5,18.1c-5-8.4-13.1-14.4-22.5-16.9l0,0C44.1-3,22,3.9,11.5,19.9c0,0,0,0.1,0,0.1c-0.1,0.2-0.3,0.4-0.4,0.6
	l-0.2,0.3c0,0,0,0.1-0.1,0.1l0,0c-0.3,0.5-0.6,1-0.8,1.4c-5,9-6.1,19.7-2.9,29.5C6.9,33.3,22,18,40.7,17.8
	c7.9-0.1,15.5,2.6,21.6,7.6c-1.2-0.4-2.4-0.7-3.6-1c10.8,6.8,16.9,19,15.8,31.7c-0.1,2.3-0.7,4.5-1.6,6.6c-1.5,3.2-3.8,6.1-6.5,8.5
	c1.1-0.5,2.2-1.1,3.3-1.8C87.4,58.7,93.1,35.7,82.5,18.1z"/>
<linearGradient id="SVGID_6_" gradientUnits="userSpaceOnUse" x1="514.6733" y1="-13000.9805" x2="514.6733" y2="-13075.6201" gradientTransform="matrix(1.797590e-02 0.9998 0.9998 -1.797590e-02 13063.5889 -706.778)">
	<stop  offset="0" style="stop-color:#B9BDBF"/>
	<stop  offset="1" style="stop-color:#495965"/>
</linearGradient>
<path class="st7" d="M7.6,58.3C7.3,39.6,22.2,24.2,40.9,23.9C57,23.6,71,34.6,74.5,50.3c0.1-1.2,0.1-2.5,0.1-3.7
	c-0.4-20.6-17.4-37-38-36.7s-37,17.4-36.7,38C0.2,58.2,4.6,68,12.3,74.9C9.3,69.9,7.7,64.2,7.6,58.3z"/>
</svg>
