<svg id="Layer_1" data-name="Layer 1" xmlns="http://www.w3.org/2000/svg" viewBox="0 0 640 220"><defs><style>.cls-1{fill:#f89f1e;}.cls-2{fill:#115eac;}.cls-3{fill:#b2b2b2;}.cls-4{fill:#373d42;}</style></defs><title>logo-</title><path class="cls-1" d="M188.11,91.42v18.33c-.6,0-1.14.09-1.68.09-10,.06-20,0-30.06.21a17.89,17.89,0,0,0-9.5,2.73,8.94,8.94,0,0,0-4.5,8.08c.07,8,0,16,0,24v2c-2.41-.26-4.69-.37-6.91-.77-6-1.09-11.4-3.54-15.42-8.34-4.2-5-5.61-11-5.1-17.4.86-10.9,5.86-20,12.44-28.48a1.88,1.88,0,0,1,1.3-.61q29.49,0,59,0A2,2,0,0,1,188.11,91.42Z"/><path class="cls-2" d="M204.51,112c.46-7,.88-14-.14-20.89-1.11-7.49-6.57-11.35-13.44-12.39a29.27,29.27,0,0,0-4.49-.27q-22,0-44,0h-1.35l-.13-.36c2.43-1.73,4.8-3.55,7.3-5.17a78.65,78.65,0,0,1,28.42-11.8c8.3-1.55,16.55-1.64,24.47,1.84,10.42,4.58,14.41,14.34,13.45,24.35-.88,9-4.68,16.92-9.73,24.3A4.36,4.36,0,0,1,204.51,112Z"/><path class="cls-2" d="M198.34,119.46a86.82,86.82,0,0,1-39.59,24.91c0-.69-.07-1.1-.07-1.51,0-6.82,0-13.63,0-20.45,0-1.21.38-1.49,1.52-1.48,7.33,0,14.67.08,22,0C187.57,120.86,193.07,121.61,198.34,119.46Z"/><path class="cls-3" d="M152.72,147.51c.59.09,1.25.15,1.88.3,3.42.84,4.67,3.78,2.94,6.84A11.4,11.4,0,0,1,146,159.72c-3.47-.81-4.84-3.89-2.95-6.92C145.25,149.29,148.62,147.78,152.72,147.51Z"/><path class="cls-4" d="M233.1,91.68h15.09a33.52,33.52,0,0,1,6,.51,14.4,14.4,0,0,1,4.9,1.79,9.41,9.41,0,0,1,3.33,3.42,10.75,10.75,0,0,1,1.24,5.41,11.48,11.48,0,0,1-1.15,5.38,9.19,9.19,0,0,1-3.16,3.47,13.51,13.51,0,0,1-4.76,1.83,30.3,30.3,0,0,1-6,.55h-6.54v14.28h-9Zm9,15.53h6a12.59,12.59,0,0,0,2.32-.21,6.54,6.54,0,0,0,2-.7,3.94,3.94,0,0,0,1.43-1.35,3.85,3.85,0,0,0,.55-2.14,3.39,3.39,0,0,0-.72-2.26,4.85,4.85,0,0,0-1.83-1.32,8.73,8.73,0,0,0-2.5-.59c-.92-.09-1.8-.13-2.64-.13h-4.59Z"/><path class="cls-4" d="M271.54,91.68h15.73a30.75,30.75,0,0,1,5.88.54A14.9,14.9,0,0,1,298,94a9.49,9.49,0,0,1,3.33,3.42,10.65,10.65,0,0,1,1.23,5.36,10,10,0,0,1-2.24,6.6,10.36,10.36,0,0,1-6.54,3.44l10.33,15.47H293.41l-8.49-14.64H280.5v14.64h-9Zm9,15.16h5.28c.8,0,1.65,0,2.55-.07a9,9,0,0,0,2.44-.47,4.16,4.16,0,0,0,1.81-1.22,3.44,3.44,0,0,0,.72-2.33,3.57,3.57,0,0,0-.64-2.22,4.08,4.08,0,0,0-1.6-1.27,8.06,8.06,0,0,0-2.24-.6,21,21,0,0,0-2.47-.15H280.5Z"/><path class="cls-4" d="M312.06,91.68H321v36.64h-8.95Z"/><path class="cls-4" d="M341.62,98.82H330V91.68h32.14v7.14H350.57v29.5h-8.95Z"/><path class="cls-4" d="M370.48,91.68h8.95v29.19H396v7.45H370.48Z"/><path class="cls-4" d="M405.89,91.68h27.6v7.45H414.84V106h17.62v7.46H414.84v7.45h19.69v7.45H405.89Z"/><path class="cls-4" d="M457.37,91.68h7.4l17.68,36.64H472.34l-3.5-7.76H453.06l-3.38,7.76h-9.87Zm3.44,10.66-4.94,11.39h9.93Z"/><path class="cls-4" d="M487.67,91.68H501.1a42.54,42.54,0,0,1,9.26,1A22.64,22.64,0,0,1,518,95.84a16.13,16.13,0,0,1,5.19,5.72,17.64,17.64,0,0,1,1.92,8.54,16.07,16.07,0,0,1-1.86,7.85,17.44,17.44,0,0,1-5,5.69,23,23,0,0,1-7.29,3.49,31,31,0,0,1-8.67,1.19H487.67Zm8.95,29.19h4.65a27.67,27.67,0,0,0,5.77-.57,13.14,13.14,0,0,0,4.62-1.89,9.28,9.28,0,0,0,3.07-3.47,11.32,11.32,0,0,0,1.11-5.25,9.45,9.45,0,0,0-1.11-4.68,9.62,9.62,0,0,0-3-3.29,13.81,13.81,0,0,0-4.44-1.94,21.94,21.94,0,0,0-5.37-.65h-5.28Z"/></svg>