<svg id="Layer_1" data-name="Layer 1" xmlns="http://www.w3.org/2000/svg" viewBox="0 0 640 220"><defs><style>.cls-1{fill:#18467e;}.cls-2{fill:#006bb1;}.cls-3{fill:#fff;}</style></defs><title>logo-</title><path class="cls-1" d="M271.68,92.54h-.2a17.16,17.16,0,0,0-7.09-6,21.37,21.37,0,0,0-9.27-2.14,24.15,24.15,0,0,0-9.87,1.94,21.66,21.66,0,0,0-7.53,5.41,24.45,24.45,0,0,0-4.81,8.11,28.86,28.86,0,0,0-1.69,10,26.7,26.7,0,0,0,1.79,9.85,23.75,23.75,0,0,0,5,7.86,22.57,22.57,0,0,0,7.58,5.2,24,24,0,0,0,9.57,1.89,21.29,21.29,0,0,0,9.27-2.09,15.88,15.88,0,0,0,7-6.48h.3v7.14a23.72,23.72,0,0,1-.8,6.08,14,14,0,0,1-2.72,5.36,14.29,14.29,0,0,1-5.21,3.83,20.09,20.09,0,0,1-8.23,1.48,20.78,20.78,0,0,1-9.22-2,24.87,24.87,0,0,1-7.53-5.87l-6.05,7.75a29.55,29.55,0,0,0,10.66,6.74,37.53,37.53,0,0,0,12.34,1.94,28.85,28.85,0,0,0,10.51-1.84,23.48,23.48,0,0,0,8.13-5.15,22.82,22.82,0,0,0,5.2-7.86,26.5,26.5,0,0,0,1.84-10.06v-48h-8.92Zm-4.17,29.05q-4.15,4.44-11.3,4.44t-11.3-4.44q-4.17-4.44-4.17-11.79a20.31,20.31,0,0,1,1.09-6.79,15.28,15.28,0,0,1,3.08-5.31,14.28,14.28,0,0,1,4.85-3.47,16.87,16.87,0,0,1,12.89,0,14.22,14.22,0,0,1,4.86,3.47,15.43,15.43,0,0,1,3.08,5.31,20.57,20.57,0,0,1,1.09,6.79Q271.68,117.15,267.51,121.59Z"/><path class="cls-1" d="M326.8,110.51a23.66,23.66,0,0,1-1,7.25,13.77,13.77,0,0,1-2.78,5,10.64,10.64,0,0,1-4.16,2.91,14.29,14.29,0,0,1-5.16.92,12.35,12.35,0,0,1-4-.66,8.93,8.93,0,0,1-3.42-2.15A10.48,10.48,0,0,1,303.9,120a16.41,16.41,0,0,1-.89-5.76V85.6h-8.93v31.14a22.55,22.55,0,0,0,1.39,8.32,16,16,0,0,0,3.72,5.77,14.61,14.61,0,0,0,5.4,3.31,19.61,19.61,0,0,0,6.55,1.08,18.88,18.88,0,0,0,9.61-2.4,13.33,13.33,0,0,0,5.85-6.28h.2V134h8.92V85.6H326.8Z"/><rect class="cls-1" x="351.89" y="85.6" width="8.92" height="48.39"/><path class="cls-1" d="M356.35,61.51a6.19,6.19,0,0,0-4.61,2,6.77,6.77,0,0,0,0,9.49A6.33,6.33,0,0,0,361,73a6.8,6.8,0,0,0,0-9.49A6.2,6.2,0,0,0,356.35,61.51Z"/><path class="cls-1" d="M411.17,92.54H411a16.52,16.52,0,0,0-6.85-6,21.27,21.27,0,0,0-9.51-2.19,24.15,24.15,0,0,0-9.87,1.94,22.06,22.06,0,0,0-7.53,5.36,23.66,23.66,0,0,0-4.81,8.06,29.14,29.14,0,0,0-1.69,10.06,28.68,28.68,0,0,0,1.69,10,24.5,24.5,0,0,0,4.81,8.07,21.92,21.92,0,0,0,7.53,5.41,24.31,24.31,0,0,0,9.87,1.94,21.39,21.39,0,0,0,9.27-2.15,17.15,17.15,0,0,0,7.09-6h.19V134h8.93V65.27h-8.93Zm-1.09,24a15.26,15.26,0,0,1-3.07,5.31,14.09,14.09,0,0,1-4.86,3.47,16.87,16.87,0,0,1-12.89,0,14.28,14.28,0,0,1-4.86-3.47,15.41,15.41,0,0,1-3.07-5.31,21.66,21.66,0,0,1,0-13.57,15.41,15.41,0,0,1,3.07-5.31,14.42,14.42,0,0,1,4.86-3.47,16.87,16.87,0,0,1,12.89,0A14.22,14.22,0,0,1,407,97.7a15.26,15.26,0,0,1,3.07,5.31,21.66,21.66,0,0,1,0,13.57Z"/><rect class="cls-1" x="434.27" y="65.27" width="8.92" height="68.72"/><path class="cls-1" d="M501.79,109.9a34.81,34.81,0,0,0-1.24-9.24,23.36,23.36,0,0,0-4-8.17,21.15,21.15,0,0,0-7.09-5.87,22.77,22.77,0,0,0-10.56-2.24,24,24,0,0,0-9.72,1.94,23.06,23.06,0,0,0-7.68,5.36,25.06,25.06,0,0,0-5.06,8.06,27.21,27.21,0,0,0-1.83,10.06,29.32,29.32,0,0,0,1.68,10,24,24,0,0,0,4.81,8.07,22.06,22.06,0,0,0,7.64,5.36,25.24,25.24,0,0,0,10.06,1.94q13.38,0,20.82-9.91L492.87,120a23.39,23.39,0,0,1-5.65,5.26,13,13,0,0,1-7.24,2,17.68,17.68,0,0,1-6-1,15.94,15.94,0,0,1-5-2.86,14,14,0,0,1-3.52-4.44,12.33,12.33,0,0,1-1.34-5.77h37.67Zm-37.67-4.09a12.72,12.72,0,0,1,1-5,15.46,15.46,0,0,1,2.92-4.54A14.65,14.65,0,0,1,472.69,93a14,14,0,0,1,6-1.27,14.9,14.9,0,0,1,5.9,1.07,11.61,11.61,0,0,1,4.22,3,12.47,12.47,0,0,1,2.52,4.44,19.72,19.72,0,0,1,.94,5.61Z"/><polygon class="cls-2" points="208.3 141.83 138.21 148.33 138.21 63.88 208.3 76.53 208.3 141.83"/><polygon class="cls-2" points="168.45 145.53 175.82 157.11 182.63 144.21 168.45 145.53"/><polygon class="cls-3" points="195.69 84.07 151.7 78.59 151.8 86.58 195.86 90.74 195.69 84.07"/><polygon class="cls-3" points="152.07 109.35 152.17 117.48 182.63 116.78 182.63 109.6 152.07 109.35"/><polygon class="cls-3" points="196.02 96.84 151.88 93.89 151.98 101.95 196.19 103.55 196.02 96.84"/></svg>