<?xml version="1.0" encoding="utf-8"?>
<!-- Generator: Adobe Illustrator 24.0.1, SVG Export Plug-In . SVG Version: 6.00 Build 0)  -->
<svg version="1.1" id="Layer_1" xmlns="http://www.w3.org/2000/svg" xmlns:xlink="http://www.w3.org/1999/xlink" x="0px" y="0px"
	 viewBox="0 0 640 220" style="enable-background:new 0 0 640 220;" xml:space="preserve">
<style type="text/css">
	.st0{fill:#F89F1E;}
	.st1{fill:#115EAC;}
	.st2{fill:#B2B2B2;}
	.st3{fill:#484848;}
</style>
<title>logo-</title>
<path class="st0" d="M188.1,91.4v18.3c-0.6,0-1.1,0.1-1.7,0.1c-10,0.1-20,0-30.1,0.2c-3.4,0-6.7,0.9-9.5,2.7
	c-2.9,1.6-4.6,4.8-4.5,8.1c0.1,8,0,16,0,24v2c-2.4-0.3-4.7-0.4-6.9-0.8c-6-1.1-11.4-3.5-15.4-8.3c-4.2-5-5.6-11-5.1-17.4
	c0.9-10.9,5.9-20,12.4-28.5c0.3-0.4,0.8-0.6,1.3-0.6c19.7,0,39.3,0,59,0C187.8,91.3,188,91.4,188.1,91.4z"/>
<path class="st1" d="M204.5,112c0.5-7,0.9-14-0.1-20.9c-1.1-7.5-6.6-11.3-13.4-12.4c-1.5-0.2-3-0.3-4.5-0.3c-14.7,0-29.3,0-44,0
	h-1.4l-0.1-0.4c2.4-1.7,4.8-3.6,7.3-5.2c8.6-5.8,18.3-9.8,28.4-11.8c8.3-1.5,16.6-1.6,24.5,1.8c10.4,4.6,14.4,14.3,13.4,24.3
	c-0.9,9-4.7,16.9-9.7,24.3C204.8,111.7,204.6,111.9,204.5,112z"/>
<path class="st1" d="M198.3,119.5c-10.7,11.8-24.4,20.4-39.6,24.9c0-0.7-0.1-1.1-0.1-1.5c0-6.8,0-13.6,0-20.4c0-1.2,0.4-1.5,1.5-1.5
	c7.3,0,14.7,0.1,22,0C187.6,120.9,193.1,121.6,198.3,119.5z"/>
<path class="st2" d="M152.7,147.5c0.6,0.1,1.2,0.1,1.9,0.3c3.4,0.8,4.7,3.8,2.9,6.8c-2.5,3.9-7,5.9-11.5,5.1
	c-3.5-0.8-4.8-3.9-2.9-6.9C145.2,149.3,148.6,147.8,152.7,147.5z"/>
<path class="st3" d="M233.1,91.7h15.1c2,0,4,0.2,6,0.5c1.7,0.3,3.4,0.9,4.9,1.8c1.4,0.8,2.5,2,3.3,3.4c0.9,1.7,1.3,3.5,1.2,5.4
	c0.1,1.9-0.3,3.7-1.1,5.4c-0.7,1.4-1.8,2.6-3.2,3.5c-1.5,0.9-3.1,1.5-4.8,1.8c-2,0.4-4,0.6-6,0.6H242v14.3h-9L233.1,91.7z
	 M242.1,107.2h6c0.8,0,1.6-0.1,2.3-0.2c0.7-0.1,1.4-0.4,2-0.7c0.6-0.3,1.1-0.8,1.4-1.3c0.4-0.6,0.6-1.4,0.6-2.1
	c0-0.8-0.2-1.6-0.7-2.3c-0.5-0.6-1.1-1-1.8-1.3c-0.8-0.3-1.6-0.5-2.5-0.6c-0.9-0.1-1.8-0.1-2.6-0.1h-4.6L242.1,107.2z"/>
<path class="st3" d="M271.5,91.7h15.7c2,0,3.9,0.2,5.9,0.5c1.7,0.3,3.3,0.9,4.8,1.8c1.4,0.8,2.5,2,3.3,3.4c0.9,1.6,1.3,3.5,1.2,5.4
	c0.1,2.4-0.7,4.7-2.2,6.6c-1.7,1.9-4,3.1-6.5,3.4l10.3,15.5h-10.7l-8.5-14.6h-4.4v14.6h-9L271.5,91.7z M280.5,106.8h5.3
	c0.8,0,1.6,0,2.5-0.1c0.8,0,1.7-0.2,2.4-0.5c0.7-0.2,1.3-0.7,1.8-1.2c0.5-0.7,0.8-1.5,0.7-2.3c0-0.8-0.2-1.6-0.6-2.2
	c-0.4-0.6-1-1-1.6-1.3c-0.7-0.3-1.5-0.5-2.2-0.6c-0.8-0.1-1.6-0.1-2.5-0.2h-5.9L280.5,106.8z"/>
<path class="st3" d="M312.1,91.7h8.9v36.6h-9L312.1,91.7z"/>
<path class="st3" d="M341.6,98.8H330v-7.1h32.1v7.1h-11.6v29.5h-9V98.8z"/>
<path class="st3" d="M370.5,91.7h9v29.2H396v7.5h-25.5V91.7z"/>
<path class="st3" d="M405.9,91.7h27.6v7.4h-18.7v6.9h17.6v7.5h-17.6v7.4h19.7v7.5h-28.6V91.7z"/>
<path class="st3" d="M457.4,91.7h7.4l17.7,36.6h-10.1l-3.5-7.8h-15.8l-3.4,7.8h-9.9L457.4,91.7z M460.8,102.3l-4.9,11.4h9.9
	L460.8,102.3z"/>
<path class="st3" d="M487.7,91.7h13.4c3.1,0,6.2,0.3,9.3,1c2.7,0.6,5.3,1.6,7.6,3.2c2.2,1.5,3.9,3.4,5.2,5.7c1.3,2.6,2,5.6,1.9,8.5
	c0.1,2.7-0.6,5.4-1.9,7.8c-1.2,2.2-2.9,4.2-5,5.7c-2.2,1.6-4.7,2.8-7.3,3.5c-2.8,0.8-5.7,1.2-8.7,1.2h-14.6V91.7z M496.6,120.9h4.6
	c1.9,0,3.9-0.2,5.8-0.6c1.6-0.3,3.2-1,4.6-1.9c1.3-0.9,2.4-2.1,3.1-3.5c0.8-1.6,1.2-3.4,1.1-5.2c0-1.6-0.3-3.2-1.1-4.7
	c-0.7-1.3-1.8-2.4-3-3.3c-1.4-0.9-2.9-1.6-4.4-1.9c-1.8-0.4-3.6-0.7-5.4-0.7h-5.3L496.6,120.9z"/>
</svg>
