<?xml version="1.0" encoding="utf-8"?>
<!-- Generator: Adobe Illustrator 24.0.3, SVG Export Plug-In . SVG Version: 6.00 Build 0)  -->
<svg version="1.1" id="Layer_1" xmlns="http://www.w3.org/2000/svg" xmlns:xlink="http://www.w3.org/1999/xlink" x="0px" y="0px"
	 viewBox="0 0 474 75" style="enable-background:new 0 0 474 75;" xml:space="preserve">
<style type="text/css">
	.st0{fill:#484848;}
</style>
<title>logo-</title>
<g>
	<g>
		<path class="st0" d="M26.5,59.5L21.9,73c-0.3,0.7-1,1.2-2.1,1.5S17,75,14.8,75c-1.1,0-2-0.1-2.7-0.2c-0.7-0.1-1.2-0.3-1.5-0.5
			s-0.5-0.5-0.6-0.9c0-0.3,0.1-0.8,0.3-1.2l5.1-12.8c-0.4-0.2-0.7-0.4-1-0.8c-0.3-0.4-0.5-0.7-0.7-1.1L0.6,22.6
			c-0.4-1-0.6-1.8-0.6-2.3s0.2-0.9,0.5-1.2c0.3-0.3,0.9-0.5,1.7-0.6c0.8-0.1,1.9-0.2,3.2-0.2c1.2,0,2.2,0,2.9,0.1
			c0.7,0,1.3,0.1,1.7,0.3c0.4,0.2,0.7,0.4,0.9,0.8c0.2,0.4,0.4,0.9,0.6,1.5l9,25.5h0.1l8.2-26c0.2-0.7,0.4-1.2,0.7-1.5
			c0.3-0.2,0.7-0.4,1.3-0.5c0.6-0.1,1.7-0.2,3.3-0.2c1.2,0,2.2,0.1,3.1,0.2c0.8,0.1,1.4,0.3,1.8,0.6c0.4,0.3,0.6,0.7,0.6,1.3
			c0,0.5-0.1,1.1-0.3,1.9L26.5,59.5z"/>
		<path class="st0" d="M83.4,38.6c0,3.2-0.4,6.2-1.3,8.9c-0.9,2.7-2.1,5-3.9,6.9c-1.7,1.9-3.9,3.4-6.5,4.5s-5.7,1.6-9.2,1.6
			c-3.4,0-6.3-0.5-8.8-1.4s-4.6-2.3-6.2-4.1c-1.7-1.8-2.9-4-3.7-6.6c-0.8-2.6-1.2-5.6-1.2-9c0-3.2,0.4-6.2,1.3-8.9
			c0.9-2.7,2.2-5,3.9-6.9s3.9-3.4,6.5-4.5s5.7-1.6,9.2-1.6c3.4,0,6.4,0.5,8.9,1.4s4.6,2.3,6.2,4.1c1.6,1.8,2.9,4,3.6,6.6
			C83,32.3,83.4,35.3,83.4,38.6z M72.4,39.1c0-1.9-0.1-3.6-0.4-5.2c-0.3-1.6-0.8-3-1.5-4.1c-0.7-1.2-1.7-2.1-2.8-2.7
			c-1.2-0.7-2.7-1-4.5-1c-1.6,0-3,0.3-4.2,0.9s-2.2,1.4-2.9,2.6c-0.8,1.1-1.3,2.5-1.7,4.1s-0.6,3.4-0.6,5.4c0,1.9,0.2,3.6,0.5,5.2
			s0.8,3,1.5,4.1c0.7,1.2,1.6,2.1,2.8,2.7s2.7,1,4.4,1c1.6,0,3-0.3,4.2-0.9s2.2-1.4,2.9-2.5c0.8-1.1,1.3-2.5,1.7-4
			C72.2,42.9,72.4,41.1,72.4,39.1z"/>
		<path class="st0" d="M128,58.1c0,0.3-0.1,0.5-0.2,0.7c-0.1,0.2-0.4,0.4-0.7,0.5c-0.4,0.1-0.8,0.2-1.4,0.3
			c-0.6,0.1-1.3,0.1-2.2,0.1s-1.7,0-2.3-0.1s-1-0.2-1.4-0.3c-0.3-0.1-0.6-0.3-0.7-0.5c-0.1-0.2-0.2-0.5-0.2-0.7v-4.4
			c-2.1,2.3-4.2,4-6.4,5.1c-2.2,1.1-4.4,1.7-6.8,1.7c-2.6,0-4.8-0.4-6.6-1.3c-1.8-0.9-3.2-2-4.3-3.5s-1.9-3.2-2.3-5.1
			c-0.5-1.9-0.7-4.4-0.7-7.3V20c0-0.3,0.1-0.5,0.2-0.7s0.4-0.4,0.9-0.5c0.4-0.1,1-0.2,1.7-0.3c0.7-0.1,1.6-0.1,2.6-0.1
			c1.1,0,1.9,0,2.6,0.1c0.7,0.1,1.2,0.2,1.6,0.3c0.4,0.1,0.7,0.3,0.9,0.5s0.3,0.5,0.3,0.7v21.5c0,2,0.1,3.5,0.4,4.6
			c0.3,1.1,0.6,2,1.2,2.7c0.5,0.8,1.2,1.3,2,1.8c0.8,0.4,1.8,0.6,2.8,0.6c1.4,0,2.7-0.5,4.1-1.5c1.4-1,2.9-2.4,4.4-4.4V20
			c0-0.3,0.1-0.5,0.2-0.7c0.2-0.2,0.4-0.4,0.9-0.5c0.4-0.1,1-0.2,1.6-0.3c0.7-0.1,1.5-0.1,2.6-0.1s1.9,0,2.6,0.1
			c0.7,0.1,1.2,0.2,1.6,0.3c0.4,0.1,0.7,0.3,0.9,0.5s0.3,0.5,0.3,0.7v38.1H128z"/>
		<path class="st0" d="M175.2,58.1c0,0.3-0.1,0.5-0.3,0.7c-0.2,0.2-0.5,0.4-0.9,0.5s-0.9,0.2-1.6,0.3c-0.7,0.1-1.6,0.1-2.6,0.1
			c-1.1,0-1.9,0-2.6-0.1c-0.7-0.1-1.2-0.2-1.6-0.3c-0.4-0.1-0.7-0.3-0.9-0.5s-0.3-0.5-0.3-0.7V36.4c0-1.8-0.1-3.3-0.4-4.4
			c-0.3-1.1-0.7-2-1.2-2.7c-0.5-0.8-1.2-1.3-2-1.8c-0.8-0.4-1.8-0.6-2.8-0.6c-1.4,0-2.7,0.5-4.1,1.5c-1.4,1-2.8,2.4-4.4,4.4v25.3
			c0,0.3-0.1,0.5-0.3,0.7s-0.5,0.4-0.9,0.5s-1,0.2-1.6,0.3c-0.7,0.1-1.6,0.1-2.6,0.1c-1.1,0-1.9,0-2.6-0.1c-0.7-0.1-1.2-0.2-1.6-0.3
			c-0.4-0.1-0.7-0.3-0.9-0.5s-0.3-0.5-0.3-0.7V20c0-0.3,0.1-0.5,0.2-0.7c0.1-0.2,0.4-0.4,0.8-0.5c0.4-0.1,0.8-0.2,1.4-0.3
			c0.6-0.1,1.3-0.1,2.2-0.1s1.7,0,2.3,0.1s1.1,0.2,1.4,0.3s0.6,0.3,0.7,0.5c0.1,0.2,0.2,0.5,0.2,0.7v4.4c2.1-2.3,4.2-4,6.4-5.1
			s4.4-1.7,6.8-1.7c2.6,0,4.8,0.4,6.6,1.3s3.2,2,4.3,3.5c1.1,1.5,1.9,3.2,2.4,5.1c0.5,2,0.7,4.3,0.7,7.1v23.5H175.2z"/>
		<path class="st0" d="M220.1,22.6c0,1.4-0.2,2.4-0.5,3c-0.3,0.7-0.7,1-1.2,1h-4.5c0.6,0.7,1.1,1.5,1.3,2.3c0.3,0.9,0.4,1.8,0.4,2.7
			c0,2.2-0.4,4.2-1.1,5.9s-1.8,3.2-3.2,4.4c-1.4,1.2-3,2.1-5,2.7s-4.1,0.9-6.5,0.9c-1.2,0-2.4-0.1-3.5-0.4s-2-0.6-2.6-1
			c-0.3,0.4-0.6,0.8-0.9,1.3s-0.4,1.1-0.4,1.7c0,0.8,0.4,1.5,1.1,2s1.7,0.8,3.1,0.9l9.3,0.3c2.2,0.1,4.1,0.4,5.8,0.9
			c1.7,0.5,3.1,1.3,4.3,2.2c1.2,1,2,2.1,2.6,3.4c0.6,1.3,0.9,2.9,0.9,4.6c0,1.9-0.4,3.7-1.2,5.3c-0.8,1.7-2.1,3.1-3.7,4.3
			c-1.7,1.2-3.7,2.2-6.2,2.9S203,75,199.7,75c-3.2,0-6-0.3-8.3-0.8s-4.2-1.2-5.6-2.1c-1.5-0.9-2.5-2-3.2-3.3s-1-2.7-1-4.2
			c0-0.9,0.1-1.8,0.4-2.7c0.2-0.9,0.6-1.7,1.1-2.5s1-1.5,1.7-2.2s1.5-1.4,2.3-2c-1.2-0.7-2.2-1.5-2.8-2.7c-0.7-1.1-1-2.4-1-3.7
			c0-1.7,0.4-3.2,1.2-4.6c0.8-1.4,1.8-2.6,3-3.7c-1-1-1.8-2.2-2.4-3.6s-0.9-3.1-0.9-5.2c0-2.2,0.4-4.2,1.2-6
			c0.8-1.8,1.9-3.2,3.3-4.4c1.4-1.2,3.1-2.1,5-2.8c1.9-0.6,4.1-1,6.4-1c1.2,0,2.3,0.1,3.4,0.2s2.1,0.3,3.1,0.6h12.1
			c0.5,0,0.9,0.3,1.2,0.9C219.9,20.1,220.1,21.2,220.1,22.6z M208.8,62c0-1.3-0.5-2.3-1.5-2.9c-1-0.7-2.4-1.1-4.2-1.1l-7.6-0.2
			c-0.7,0.5-1.3,1.1-1.8,1.6c-0.4,0.5-0.8,1-1.1,1.4c-0.3,0.5-0.4,0.9-0.5,1.3c-0.1,0.4-0.1,0.9-0.1,1.3c0,1.4,0.7,2.5,2.2,3.2
			c1.4,0.7,3.5,1.1,6.1,1.1c1.6,0,3-0.2,4.1-0.5s2-0.8,2.7-1.3s1.2-1.1,1.5-1.8C208.6,63.5,208.8,62.8,208.8,62z M206.3,31.6
			c0-2-0.6-3.6-1.7-4.8c-1.1-1.1-2.7-1.7-4.8-1.7c-1.1,0-2,0.2-2.8,0.5c-0.8,0.4-1.5,0.8-2,1.5c-0.5,0.6-0.9,1.3-1.2,2.1
			c-0.3,0.8-0.4,1.7-0.4,2.5c0,1.9,0.6,3.5,1.7,4.6s2.7,1.7,4.7,1.7c1.1,0,2-0.2,2.8-0.5s1.5-0.8,2-1.4s0.9-1.3,1.2-2.1
			C206.1,33.3,206.3,32.5,206.3,31.6z"/>
		<path class="st0" d="M255.4,52c0,0.7,0,1.4-0.1,1.9c0,0.5-0.1,0.9-0.2,1.3c-0.1,0.3-0.2,0.6-0.3,0.8c-0.1,0.2-0.3,0.5-0.7,0.8
			c-0.3,0.3-0.9,0.7-1.8,1.2c-0.8,0.5-1.8,0.9-2.8,1.3c-1.1,0.4-2.2,0.7-3.4,0.9c-1.2,0.2-2.5,0.3-3.8,0.3c-2.9,0-5.5-0.5-7.8-1.4
			s-4.2-2.3-5.7-4c-1.5-1.8-2.7-3.9-3.5-6.5s-1.2-5.5-1.2-8.8c0-3.8,0.5-7.1,1.4-9.9c1-2.8,2.3-5.1,4-6.9s3.7-3.2,6.1-4.1
			c2.3-0.9,4.9-1.3,7.7-1.3c1.1,0,2.3,0.1,3.4,0.3c1.1,0.2,2.1,0.5,3.1,0.8s1.8,0.7,2.6,1.2c0.8,0.4,1.3,0.8,1.6,1.1
			c0.3,0.3,0.5,0.6,0.7,0.8c0.1,0.2,0.2,0.5,0.3,0.8c0.1,0.3,0.1,0.8,0.2,1.3c0,0.5,0.1,1.1,0.1,1.8c0,1.7-0.1,2.8-0.4,3.5
			s-0.7,1-1.1,1c-0.5,0-1-0.2-1.5-0.6s-1.2-0.8-1.9-1.3c-0.7-0.5-1.6-0.9-2.6-1.3s-2.2-0.6-3.7-0.6c-2.8,0-4.9,1.1-6.4,3.2
			s-2.2,5.3-2.2,9.5c0,2,0.2,3.9,0.6,5.4c0.4,1.6,0.9,2.9,1.6,3.9c0.7,1.1,1.6,1.8,2.7,2.4c1.1,0.5,2.4,0.8,3.8,0.8
			c1.5,0,2.8-0.2,3.8-0.7c1.1-0.4,2-0.9,2.8-1.5c0.8-0.5,1.5-1,2-1.5c0.5-0.4,1-0.7,1.4-0.7c0.3,0,0.5,0.1,0.6,0.2
			c0.2,0.1,0.3,0.4,0.4,0.8s0.2,0.9,0.2,1.5C255.3,50.3,255.4,51.1,255.4,52z"/>
		<path class="st0" d="M299.2,58.1c0,0.3-0.1,0.5-0.2,0.7s-0.4,0.4-0.7,0.5c-0.4,0.1-0.8,0.2-1.4,0.3s-1.3,0.1-2.2,0.1
			c-0.9,0-1.7,0-2.3-0.1c-0.6-0.1-1-0.2-1.4-0.3c-0.3-0.1-0.6-0.3-0.7-0.5s-0.2-0.5-0.2-0.7v-4.4c-2.1,2.3-4.2,4-6.4,5.1
			c-2.2,1.1-4.4,1.7-6.8,1.7c-2.6,0-4.8-0.4-6.6-1.3c-1.8-0.9-3.2-2-4.3-3.5c-1.1-1.5-1.9-3.2-2.3-5.1c-0.5-1.9-0.7-4.4-0.7-7.3V20
			c0-0.3,0.1-0.5,0.2-0.7c0.2-0.2,0.4-0.4,0.9-0.5c0.4-0.1,1-0.2,1.7-0.3c0.7-0.1,1.6-0.1,2.6-0.1c1.1,0,1.9,0,2.6,0.1
			s1.2,0.2,1.6,0.3c0.4,0.1,0.7,0.3,0.9,0.5c0.2,0.2,0.3,0.5,0.3,0.7v21.5c0,2,0.1,3.5,0.4,4.6s0.6,2,1.2,2.7c0.5,0.8,1.2,1.3,2,1.8
			c0.8,0.4,1.8,0.6,2.8,0.6c1.4,0,2.7-0.5,4.1-1.5s2.9-2.4,4.4-4.4V20c0-0.3,0.1-0.5,0.2-0.7c0.2-0.2,0.4-0.4,0.9-0.5s1-0.2,1.6-0.3
			c0.7-0.1,1.5-0.1,2.6-0.1s1.9,0,2.6,0.1s1.2,0.2,1.6,0.3c0.4,0.1,0.7,0.3,0.9,0.5c0.2,0.2,0.3,0.5,0.3,0.7v38.1H299.2z"/>
		<path class="st0" d="M320.8,58.1c0,0.3-0.1,0.5-0.3,0.7c-0.2,0.2-0.5,0.4-0.9,0.5s-1,0.2-1.6,0.3c-0.7,0.1-1.6,0.1-2.6,0.1
			c-1.1,0-1.9,0-2.6-0.1s-1.2-0.2-1.6-0.3s-0.7-0.3-0.9-0.5c-0.2-0.2-0.3-0.5-0.3-0.7V1.9c0-0.3,0.1-0.5,0.3-0.8
			c0.2-0.2,0.5-0.4,0.9-0.6s1-0.3,1.6-0.4c0.7-0.1,1.5-0.1,2.6-0.1s1.9,0,2.6,0.1s1.2,0.2,1.6,0.4c0.4,0.2,0.7,0.3,0.9,0.6
			c0.2,0.2,0.3,0.5,0.3,0.8V58.1z"/>
		<path class="st0" d="M354,54.3c0,1.3-0.1,2.2-0.2,2.9c-0.2,0.7-0.4,1.1-0.6,1.4c-0.3,0.3-0.6,0.5-1.1,0.7s-1.1,0.4-1.8,0.6
			c-0.7,0.2-1.4,0.3-2.2,0.4c-0.8,0.1-1.6,0.1-2.4,0.1c-2.1,0-4-0.3-5.5-0.8c-1.6-0.5-2.9-1.4-3.9-2.5s-1.8-2.5-2.3-4.2
			s-0.7-3.7-0.7-6.1V27.2h-4.6c-0.5,0-1-0.3-1.2-1c-0.3-0.7-0.4-1.8-0.4-3.4c0-0.8,0-1.5,0.1-2.1s0.2-1,0.3-1.3
			c0.1-0.3,0.3-0.6,0.5-0.7s0.5-0.2,0.7-0.2h4.5V10c0-0.3,0.1-0.5,0.2-0.8c0.2-0.2,0.4-0.4,0.9-0.6c0.4-0.2,1-0.3,1.7-0.3
			c0.7-0.1,1.6-0.1,2.6-0.1c1.1,0,1.9,0,2.6,0.1s1.2,0.2,1.6,0.3c0.4,0.2,0.7,0.3,0.9,0.6c0.2,0.2,0.3,0.5,0.3,0.8v8.5h8.3
			c0.3,0,0.5,0.1,0.7,0.2s0.4,0.4,0.5,0.7c0.1,0.3,0.2,0.8,0.3,1.3c0.1,0.6,0.1,1.3,0.1,2.1c0,1.6-0.1,2.7-0.4,3.4
			c-0.3,0.7-0.7,1-1.2,1H344v17.9c0,2.1,0.3,3.6,1,4.7c0.7,1,1.8,1.6,3.5,1.6c0.6,0,1.1,0,1.5-0.1c0.5-0.1,0.9-0.2,1.2-0.3
			c0.4-0.1,0.7-0.2,0.9-0.3c0.2-0.1,0.5-0.1,0.7-0.1s0.3,0.1,0.5,0.1c0.2,0.1,0.3,0.3,0.4,0.6c0.1,0.3,0.2,0.7,0.2,1.2
			C354,52.9,354,53.5,354,54.3z"/>
		<path class="st0" d="M397.9,58.1c0,0.3-0.1,0.5-0.2,0.7s-0.4,0.4-0.7,0.5c-0.4,0.1-0.8,0.2-1.4,0.3s-1.3,0.1-2.2,0.1
			c-0.9,0-1.7,0-2.3-0.1c-0.6-0.1-1-0.2-1.4-0.3c-0.3-0.1-0.6-0.3-0.7-0.5s-0.2-0.5-0.2-0.7v-4.4c-2.1,2.3-4.2,4-6.4,5.1
			c-2.2,1.1-4.4,1.7-6.8,1.7c-2.6,0-4.8-0.4-6.6-1.3c-1.8-0.9-3.2-2-4.3-3.5c-1.1-1.5-1.9-3.2-2.3-5.1c-0.5-1.9-0.7-4.4-0.7-7.3V20
			c0-0.3,0.1-0.5,0.2-0.7c0.2-0.2,0.4-0.4,0.9-0.5c0.4-0.1,1-0.2,1.7-0.3c0.7-0.1,1.6-0.1,2.6-0.1c1.1,0,1.9,0,2.6,0.1
			s1.2,0.2,1.6,0.3c0.4,0.1,0.7,0.3,0.9,0.5c0.2,0.2,0.3,0.5,0.3,0.7v21.5c0,2,0.1,3.5,0.4,4.6s0.6,2,1.2,2.7c0.5,0.8,1.2,1.3,2,1.8
			c0.8,0.4,1.8,0.6,2.8,0.6c1.4,0,2.7-0.5,4.1-1.5s2.9-2.4,4.4-4.4V20c0-0.3,0.1-0.5,0.2-0.7c0.2-0.2,0.4-0.4,0.9-0.5
			c0.4-0.1,1-0.2,1.6-0.3c0.7-0.1,1.6-0.1,2.6-0.1c1.1,0,1.9,0,2.6,0.1s1.2,0.2,1.6,0.3c0.4,0.1,0.7,0.3,0.9,0.5
			c0.2,0.2,0.3,0.5,0.3,0.7v38.1H397.9z"/>
		<path class="st0" d="M433.2,23.5c0,1,0,1.9-0.1,2.5c-0.1,0.7-0.1,1.2-0.3,1.5c-0.1,0.4-0.3,0.6-0.4,0.8c-0.2,0.1-0.4,0.2-0.7,0.2
			c-0.2,0-0.5,0-0.8-0.1s-0.6-0.2-1-0.3c-0.4-0.1-0.7-0.2-1.2-0.3c-0.4-0.1-0.9-0.1-1.4-0.1c-0.6,0-1.2,0.1-1.8,0.4
			c-0.6,0.2-1.2,0.6-1.9,1.1c-0.6,0.5-1.3,1.2-2,2c-0.7,0.9-1.4,1.9-2.2,3.2v23.7c0,0.3-0.1,0.5-0.3,0.7c-0.2,0.2-0.5,0.4-0.9,0.5
			s-1,0.2-1.6,0.3c-0.7,0.1-1.6,0.1-2.6,0.1s-1.9,0-2.6-0.1s-1.2-0.2-1.6-0.3s-0.7-0.3-0.9-0.5c-0.2-0.2-0.3-0.5-0.3-0.7V20
			c0-0.3,0.1-0.5,0.2-0.7s0.4-0.4,0.8-0.5s0.8-0.2,1.4-0.3c0.6-0.1,1.3-0.1,2.2-0.1c0.9,0,1.7,0,2.3,0.1c0.6,0.1,1.1,0.2,1.4,0.3
			c0.3,0.1,0.6,0.3,0.7,0.5s0.2,0.5,0.2,0.7v4.7c1-1.4,1.9-2.6,2.8-3.5s1.7-1.7,2.5-2.2s1.6-0.9,2.4-1.1s1.6-0.3,2.4-0.3
			c0.4,0,0.8,0,1.2,0.1c0.4,0,0.9,0.1,1.3,0.2c0.5,0.1,0.9,0.2,1.2,0.3c0.3,0.1,0.6,0.3,0.7,0.4c0.2,0.1,0.3,0.3,0.3,0.5
			c0.1,0.2,0.1,0.4,0.2,0.7c0.1,0.3,0.1,0.7,0.1,1.3C433.2,21.7,433.2,22.5,433.2,23.5z"/>
		<path class="st0" d="M474,37.9c0,1.3-0.3,2.3-0.9,2.9c-0.6,0.6-1.4,0.9-2.4,0.9h-23.2c0,1.6,0.2,3.1,0.6,4.4
			c0.4,1.3,1,2.4,1.8,3.4c0.8,0.9,1.9,1.6,3.2,2.1s2.9,0.7,4.8,0.7c1.9,0,3.5-0.1,5-0.4c1.4-0.3,2.7-0.6,3.7-0.9s1.9-0.6,2.6-0.9
			c0.7-0.3,1.2-0.4,1.7-0.4c0.3,0,0.5,0.1,0.6,0.1c0.2,0.1,0.3,0.3,0.4,0.5c0.1,0.3,0.2,0.6,0.2,1.1s0.1,1.1,0.1,1.8
			c0,0.6,0,1.2,0,1.6s-0.1,0.8-0.1,1.1c-0.1,0.3-0.1,0.6-0.3,0.8c-0.1,0.2-0.3,0.4-0.4,0.6c-0.2,0.2-0.7,0.5-1.5,0.8s-1.9,0.7-3.2,1
			s-2.7,0.6-4.4,0.9c-1.7,0.2-3.4,0.4-5.3,0.4c-3.4,0-6.4-0.4-8.9-1.3c-2.5-0.9-4.7-2.1-6.4-3.9c-1.7-1.7-3-3.9-3.8-6.6
			c-0.8-2.6-1.3-5.7-1.3-9.3c0-3.4,0.4-6.4,1.3-9.2c0.9-2.7,2.2-5,3.8-6.9c1.7-1.9,3.7-3.3,6.1-4.3c2.4-1,5.1-1.5,8.1-1.5
			c3.2,0,5.9,0.5,8.2,1.4s4.1,2.2,5.6,3.9c1.4,1.7,2.5,3.6,3.2,5.9s1,4.8,1,7.4v1.9H474z M463.6,34.8c0.1-3-0.5-5.4-1.8-7.1
			s-3.3-2.6-6-2.6c-1.4,0-2.6,0.3-3.6,0.8s-1.9,1.2-2.5,2.1c-0.7,0.9-1.2,1.9-1.5,3.1c-0.4,1.2-0.6,2.4-0.6,3.8h16L463.6,34.8
			L463.6,34.8z"/>
	</g>
</g>
</svg>
