<?xml version="1.0" encoding="utf-8"?>
<!-- Generator: Adobe Illustrator 24.0.1, SVG Export Plug-In . SVG Version: 6.00 Build 0)  -->
<svg version="1.1" id="Layer_1" xmlns="http://www.w3.org/2000/svg" xmlns:xlink="http://www.w3.org/1999/xlink" x="0px" y="0px"
	 viewBox="0 0 640 220" style="enable-background:new 0 0 640 220;" xml:space="preserve">
<style type="text/css">
	.st0{fill:#484848;}
	.st1{fill:#395B93;}
	.st2{fill:#BC334B;}
</style>
<title>logo-</title>
<path class="st0" d="M155.3,112.2c-0.4-7.7-5.6-13.3-13.1-13.9c-5.1-0.4-9.5,1.3-12.5,4.5c-1.8,1.9-3.2,4.4-3.8,7.3
	c-2.7,12.6,5.6,21.5,18.7,20.1c7.2-0.9,7.7-1.5,7.8-9.4c0,0,0,0,0,0c0,0,0-0.1,0-0.1c-1.8,1-3.2,1.8-4.8,2.5
	c-5.9,2.3-11.4,0.8-13.6-3.7c-0.4-0.9-0.7-1.7-0.7-2.3c0-1,0.9-1.5,3-1.3c5.2,0.2,10.4-0.2,15.5,0.1c1.8,0.1,2.7-0.3,3.1-1.1
	C155.3,114.3,155.3,113.4,155.3,112.2z M147,109.4c-0.4,2.1-2.8,0.7-4.3,1c-0.8,0.1-1.5,0.1-2.3,0c-0.8,0.1-1.5,0.1-2.3,0
	c-1.5-0.3-3.8,1.1-4.3-1c0-0.2-0.1-0.4,0-0.6c0.1-1.5,1.6-2.8,3-3.6c2.1-1.4,4.7-1.5,6.9-0.3c0.3,0.2,0.6,0.3,0.8,0.5
	C146.1,106.4,147.4,107.7,147,109.4z"/>
<path class="st1" d="M311.4,94.8c-0.6,0.4-0.7,0.5-0.8,0.5c-9.9-2-16.4,2.9-22.6,9.9c-6.8,7.8-14.6,14.7-21.9,22.1
	c-1.3,1.5-3.2,2.3-5.2,2.2c-11.7-0.1-23.4-0.1-35.2,0c-2.5,0-3.5-0.6-3.4-3.2c0.2-8.1,0.2-16.1,0-24.2c-0.1-2.8,0.8-3.7,3.6-3.6
	c7.6,0.2,15.2,0,22.8,0.1c2.4,0.1,4.8-0.8,6.4-2.6c8.8-8.9,17.6-17.7,26.5-26.5c1.1-1.1,1.9-2.9,3.9-0.8
	C294.1,77.4,302.7,86,311.4,94.8z"/>
<path class="st2" d="M256.2,133.3c0.4-0.2,0.6-0.4,0.7-0.3c9.9,1.9,16.4-2.9,22.6-10c6.8-7.8,14.6-14.7,21.9-22
	c1.5-1.7,3.7-2.6,6-2.5c11.3,0.1,22.5,0.2,33.8,0c3,0,3.9,0.8,3.8,3.8c-0.2,7.8-0.2,15.5,0,23.3c0.1,3.4-1.2,4-4.2,3.9
	c-7.1-0.2-14.3,0-21.5-0.1c-2.6-0.2-5.1,0.8-6.8,2.8c-8.7,8.9-17.6,17.7-26.5,26.5c-1.3,1.3-2.2,2.8-4.3,0.6
	C273.4,150.5,264.9,142.1,256.2,133.3z"/>
<path class="st0" d="M111.6,110.6c6.7-4.2,8.9-8.4,7.5-14c-1.2-5.2-5.4-8.6-12.3-9c-2.3-0.2-4.7-0.2-7.1-0.2c-4,0-8,0.1-12,0.1
	c3.7,4.9,3.7,36.6,0,41.5h13.7c-1.9-1.8-2.9-4.2-2.9-6.8c0-8.7,0-17.3,0-26c0-0.3,0-0.7,0-1c0-0.5,0.1-1.1,0.6-1.5
	c1.9-1.5,8.3,0,10.5,2.2c0.1,0.1,0.3,0.3,0.4,0.4c0.7,1,1,2.1,1.1,3.2c0.1,2.4-1.2,4.8-3.6,6.2c-2.1,1.2-4.4,0.8-7.1,1.3
	c3.6,5.9,6.8,11.5,10.4,17.3c0.9,1.4,1.7,2.6,2.6,3.4c2.6,2.6,5.3,2.7,10.4,1.1C119.2,123.1,115.6,116.7,111.6,110.6z"/>
<path class="st0" d="M393.1,107.9c-0.8,0-1.8,0-2.9,0c-0.4,0-1,0-2.5,0c0.3,0.3,0.6,0.5,0.8,0.8c3.7,3.9,2.1,8.2,2.4,12.2
	c0,0,0,0,0,0c0.1,1.3-1.3,1.5-2.3,1.8c-5.6,1.7-11,1.2-15.2-3.2c-5-5.3-5.4-11.8-2.9-18.3c2.1-5.4,6.3-8.3,12.3-8.6
	c4.5-0.2,8.6,1.3,12.5,3.5c0.2-2,0.4-3.5,0.4-4.7c0-3.5-1.3-3.8-6.5-4.8c-1.1-0.2-2.2-0.4-3.3-0.5c-9.8-1-18.1,2.8-22.3,10.9
	c-4.2,8-4.2,16.2,0.8,23.8c4.6,7,11.5,9.4,19.2,9.2c1.1,0,2.3-0.1,3.4-0.2c12.1-1.3,12.1-1.4,12.1-13.2
	C399.1,108.9,399.1,107.9,393.1,107.9z"/>
<path class="st0" d="M190.1,128.5c-3-1.9-2.9-4.8-2.9-7.7c-0.1-4,0-7.9-0.1-11.9c-0.3-7-3.8-10.3-10.9-10.7
	c-3.9-0.2-7.5,1.2-11.3,1.2c-0.4,0-0.6,0.1-0.8,0.2c-0.7,0.2-0.8,0.9-0.9,1.7c-0.2,1.9-0.3,3.8-0.5,6.5c0.1,0,0.1-0.1,0.2-0.1
	c0,0,0,0,0,0c1.9-1.3,3.7-2.3,5.5-3c2.2-0.7,4.4-1,6.7-0.6c1.8,0.2,3.9,0.7,4,3c0.1,1.4-0.6,2.1-1.6,2.6c-0.6,0.2-1.3,0.4-2,0.5
	c-3.5,0.8-7.2,1.1-10.6,2.3c-0.6,0.2-1.1,0.4-1.6,0.7c-3.4,1.8-5,5.3-4.2,9.1c0.9,4.9,4.6,7.7,10.2,7.9c1.8,0,3.4-0.2,4.6-0.8
	c2-0.9,3.3-2.8,3.2-6.4c-0.9,0.3-1.8,0.6-2.6,0.8c-0.3,0.1-0.5,0.1-0.7,0.2c-2.8,0.6-5.9,0.6-6.6-2.8c-0.5-2.3,0.6-3.5,2.2-4.1
	c0.7-0.2,1.5-0.4,2.3-0.6c0.9-0.1,1.8-0.3,2.7-0.6c3.8-1.3,5.3-0.6,5.2,4c-0.2,9.3,0.1,9.3,9.3,9.3c0.1,0,0.2,0,0.3-0.1
	C189.4,129,189.6,128.8,190.1,128.5z"/>
<path class="st0" d="M436,128.1c-2.5-1.4-2.7-3.8-2.8-6.2c-0.1-3.3-0.1-6.7-0.1-10c0-11.1-3.6-14.4-14.7-13.6
	c-1.3,0.2-2.7,0.4-4,0.7c-2.4,0.5-3.9,0.9-4.6,1.8c-1,1.1-0.8,2.8,0,6.2c1-0.6,2-1.2,3-1.6c0.1-0.1,0.2-0.1,0.4-0.2
	c0.1,0,0.2-0.1,0.3-0.1c0.9-0.4,1.8-0.7,2.6-0.9c1.9-0.5,3.6-0.6,5.3-0.3c1.8,0.3,3.8,0.7,4,3c0,0.5,0,0.9-0.2,1.3
	c-0.6,1.1-2.1,1.5-3.4,1.8c-3.1,0.7-6.3,1-9.4,1.8c-3.3,0.9-5.4,2.5-6.4,4.9c-0.6,1.4-0.8,3-0.6,4.9c0.5,4.9,3.8,7.8,9.3,8.2
	c2.3,0.2,3.9,0.1,5.1-0.4c1.8-0.7,2.7-2.6,3.8-6.5c-0.5,0.1-1,0.3-1.5,0.4c-1.2,0.3-2.5,0.5-3.8,0.7c-2.4,0.2-4.8-0.2-5.3-3.1
	c-0.2-1.4,0.1-2.4,0.8-3.1c0.7-0.7,1.9-1.1,3.1-1.3c2.8-0.6,5.6-1.1,8.6-1.7c0,1.7,0,3,0,4.4c0.1,9.8,0.1,9.8,9.6,9.8
	c0.1,0,0.2-0.1,0.2-0.2C435.5,128.7,435.7,128.4,436,128.1z"/>
<path class="st0" d="M531.9,128.8c-3.6-2.6-3.5-5.6-3.5-8.6c-0.1-3.8,0-7.6-0.1-11.4c-0.2-8.7-7.2-13.2-15.2-9.7
	c-1.6,0.9-3.2,1.8-4.6,2.9c-2.2-5.2-6.8-1.7-9.4-2.7c2.9,9.3,2.4,18.8,0.5,28.3c0.2,0.2,0.2,0.5,0.3,0.8c2.8,0.5,5.7,0.5,8.5,0
	c-0.2-0.5,0-0.7,0.5-0.7c0.5-1.2,0-2.4-0.1-3.6c-0.4-4.8-0.9-9.7,0.4-14.5c0.6-3,3.2-5.1,6.2-5c2.7-0.1,5,1,5.2,3.5
	c0.6,6.9,1.9,14-1.7,20.7H531.9z"/>
<path class="st0" d="M460.2,98.6c-2.6-1.1-5.6-0.7-7.8,1.1c-0.6,0.5-1,1.1-1.6,1.6c-0.3,0.2-0.7,0.4-1.1,0.5c-2-5.6-6.4-1-9-2.7
	c3,9.3,3.2,19.2,0.5,28.6c0.1,0.4,0.1,0.8,0.1,1.2l9.3-0.4c-0.1-0.5,0.1-0.8,0.5-0.8c-1.1-4.7-1-9.3-0.9-14
	c0.2-7.9,3.9-10.2,11.1-6.9c0.1-0.9,0.1-1.9,0-2.8C460.9,102.1,462.5,99.6,460.2,98.6z"/>
<path class="st0" d="M204.7,126.5c-0.3-1.9-0.5-3.8-0.7-5.6c-0.4-5.6-0.3-11.2-0.2-16.9c0-2.5,0.1-5,0-7.5c-0.2-7.8-0.1-9.3-5.8-9.3
	c-1.3,0-3,0.1-5,0.2c0,0,0,0,0,0c0,0,0,0,0,0c3.5,2.4,3.2,5.7,3.2,8.8c0,8.2,0,16.4,0,24.6c0,0.5,0,0.9,0,1.4
	c-0.1,1.8-0.5,3.6-1.2,5.2c-0.1,0.1-0.3,0.2-0.4,0.3c-0.2,0.1-0.3,0.2-0.5,0.3c-0.2,0.2-0.4,0.3-0.4,0.5c-0.1,0.4,0.1,0.6,0.3,0.7
	c0.3,0.1,0.6,0,1,0h12.4h0.1C206.2,127.9,205.4,127.2,204.7,126.5z"/>
<path class="st0" d="M552.4,122.4c-6.5,1.4-6.8,1.1-7-5.6c-0.1-1-0.2-2.1-0.2-3.2c-0.1-1.8-0.1-3.5-0.2-5.3l0.1-2.8
	c1.1-1.1,2.5-0.7,3.8-0.6c1.2,0.1,2-0.1,2.5-0.6c0.5-0.5,0.7-1.3,0.7-2.5c0-2.4-0.9-3-3-2.7c-2.7,0.4-4.3-0.3-3.8-3.6
	c0.3-2.2-0.9-3.1-2.5-1.5c0,0-0.1,0.1-0.1,0.1c0,0,0,0,0,0c-0.4,0.4-0.7,0.7-1.1,1.1c-0.8,0.8-1.6,1.6-2.5,2.4c-2,2-4.1,4.2-5.9,7
	c4.6-0.5,5.1,1.8,4.9,5.1c-0.2,4.4-0.2,8.8,0,13.2c0.2,5.1,2.9,7.1,8.6,6.7c2.6-0.2,4.1-0.4,4.8-1.1
	C552.6,127.7,552.6,126,552.4,122.4z"/>
<path class="st0" d="M494.2,128.3c-2.6-1.6-2.8-4.1-2.8-6.7c0-4.3,0-8.6-0.2-12.8c-0.1-3-0.2-6.1-3.2-8c0,0,0,0,0,0.1c0,0,0,0,0,0
	c-0.2-0.2-0.3-0.4-0.5-0.6c-0.6-0.6-1.4-1-2.2-1c0,0,0,0,0,0c-2.2-0.9-4.3-1.2-6.4-1.1c-2.1,0-4.3,0.5-6.5,1.1
	c-5.4,0.3-5.6,0.8-4.7,7.9l0,0v0l3.4-2.2c0,0,0,0,0,0c2.3-0.4,4.6-1.3,7.1-1.1c2.3,0.2,5,0.3,5.3,3.1c0,0,0,0,0,0
	c0.2,2.9-2.5,2.9-4.5,3.4c-3.6,0.7-7.3,0.7-10.6,2.4c-3.8,1.7-5.8,5.8-4.7,9.8c1,4.7,4.6,7.3,10.1,7.4c4.1,0.1,7.5-0.9,7.7-6
	c-0.4-1.6-1-1.1-1.6-0.5c0,0-0.1,0.1-0.1,0.1c-0.1,0.1-0.2,0.2-0.3,0.3l-6.1,0.1l-1.9-1.8c-0.8-3.2,0.5-5,3.6-5.7
	c0.2,0,0.3-0.1,0.5-0.1c1.3-0.2,2.7-0.3,4-0.8c0.1,0,0.3-0.1,0.4-0.1c0.9-0.3,1.5-0.5,2-0.5c1.5,0,1.7,1.4,1.7,3.7
	c-0.1,5.5,0,7.9,1.7,9.1c1.3,0.9,3.5,1,7.4,1.2c0.1,0,0.3,0,0.4,0c0,0,0,0,0,0c0,0,0.1,0,0.1,0C493.4,128.9,493.7,128.7,494.2,128.3
	z"/>
</svg>
