<?xml version="1.0" encoding="utf-8"?>
<!-- Generator: Adobe Illustrator 22.1.0, SVG Export Plug-In . SVG Version: 6.00 Build 0)  -->
<svg version="1.1" id="Layer_1" xmlns="http://www.w3.org/2000/svg" xmlns:xlink="http://www.w3.org/1999/xlink" x="0px" y="0px"
	 viewBox="0 0 154 30" style="enable-background:new 0 0 154 30;" xml:space="preserve">
<style type="text/css">
	.st0{fill:#00AEEF;}
</style>
<g>
	<path d="M2.5,22C0.8,20.3,0,18.1,0,15.4c0-2.7,0.8-4.9,2.5-6.5c1.7-1.7,4-2.5,6.8-2.5c2.8,0,5.1,0.8,6.8,2.4
		c1.7,1.6,2.5,3.7,2.5,6.3v1c0,0.5-0.3,0.8-0.8,0.8H4.6c0.1,1.2,0.6,2.2,1.5,3c0.9,0.8,2,1.2,3.3,1.2c1.9,0,3.2-0.7,4.1-2
		c0.4-0.5,0.8-0.8,1.1-0.8H17c0.2,0,0.4,0.1,0.6,0.2c0.2,0.2,0.2,0.3,0.2,0.6c-0.3,1.5-1.1,2.7-2.6,3.7c-1.4,1-3.4,1.5-5.9,1.5
		C6.5,24.4,4.2,23.6,2.5,22z M6.2,10.9c-0.9,0.8-1.4,1.7-1.5,2.6h9.2c-0.1-0.9-0.6-1.8-1.5-2.6c-0.9-0.8-1.9-1.2-3.1-1.2
		C8.2,9.7,7.1,10.1,6.2,10.9z"/>
	<path d="M35.9,13.4c0-1.1-0.4-2-1.1-2.7c-0.7-0.7-1.6-1.1-2.7-1.1c-0.9,0-1.8,0.2-2.7,0.6c-0.9,0.4-1.6,0.8-2,1.2l-0.7,0.6V23
		c0,0.5-0.3,0.8-0.8,0.8h-2.8c-0.5,0-0.8-0.3-0.8-0.8V7.9c0-0.5,0.3-0.8,0.8-0.8h2.8c0.5,0,0.8,0.3,0.8,0.8v1h0.2l0.3-0.3
		c0.1-0.1,0.4-0.3,0.7-0.6c0.4-0.3,0.8-0.5,1.2-0.8c0.4-0.2,1-0.4,1.6-0.6c0.7-0.2,1.4-0.3,2.1-0.3c2.3,0,4.1,0.7,5.5,2
		c1.4,1.3,2.1,3,2.1,5.1V23c0,0.2-0.1,0.4-0.3,0.6c-0.2,0.2-0.4,0.3-0.6,0.3h-2.8c-0.5,0-0.8-0.3-0.8-0.8V13.4z"/>
	<path d="M39.8,27c0-0.5,0.3-0.8,0.8-0.8h0.5c0.2,0,0.5,0.1,1,0.2c0.4,0.1,0.8,0.2,1,0.2c0.8,0,1.4-0.3,1.9-0.8
		c0.5-0.6,0.7-1.3,0.7-2.3V7.9C45.7,7.3,46,7,46.6,7h2.8c0.5,0,0.8,0.3,0.8,0.8v15.6c0,2-0.6,3.6-1.9,4.8c-1.3,1.2-3,1.8-5.2,1.8
		c-0.4,0-0.8,0-1.2-0.1c-0.4-0.1-0.7-0.1-0.9-0.2l-0.3-0.1c-0.5-0.2-0.8-0.5-0.8-1V27z M48.9,0c0.9,0,1.3,0.4,1.3,1.3v2.1
		c0,0.9-0.4,1.3-1.3,1.3H47c-0.9,0-1.3-0.4-1.3-1.3V1.3C45.7,0.4,46.2,0,47,0H48.9z"/>
	<path d="M70.7,22c-1.7,1.6-4.1,2.5-7.1,2.5c-3,0-5.4-0.8-7.1-2.5c-1.7-1.6-2.6-3.8-2.6-6.6c0-2.7,0.9-4.9,2.6-6.6
		c1.7-1.6,4.1-2.5,7.1-2.5c3,0,5.4,0.8,7.1,2.5c1.7,1.6,2.6,3.8,2.6,6.6C73.3,18.1,72.4,20.3,70.7,22z M67.4,11.2
		c-1-1-2.2-1.5-3.8-1.5s-2.8,0.5-3.8,1.5c-1,1-1.4,2.4-1.4,4.2c0,1.8,0.5,3.2,1.4,4.2c1,1,2.2,1.5,3.8,1.5s2.8-0.5,3.8-1.5
		c1-1,1.4-2.4,1.4-4.2C68.9,13.6,68.4,12.2,67.4,11.2z"/>
	<path d="M80.8,21.9c-1-1-2-2.6-2.7-4.9L75,7.9c-0.1-0.2-0.1-0.4,0-0.6C75.1,7.1,75.3,7,75.5,7h3.1c0.5,0,0.8,0.3,1,0.8l3,9.2
		c0.3,0.8,0.6,1.5,1.1,2.1c0.5,0.6,1,0.9,1.5,0.9h1l3.4-12.1c0.2-0.5,0.5-0.8,1-0.8h2.8c0.2,0,0.4,0.1,0.5,0.3C94,7.5,94,7.7,94,7.9
		l-4.4,15.6c-0.5,1.9-1.4,3.4-2.7,4.5c-1.3,1.1-2.8,1.7-4.5,1.7h-2.6c-0.5,0-0.8-0.3-0.8-0.8v-2.1c0-0.5,0.3-0.8,0.8-0.8h0.8
		c0.3,0,0.6,0.1,1,0.2c0.4,0.1,0.6,0.2,0.8,0.2c1.3,0,2.2-0.9,2.8-2.8C83.3,23.4,81.9,22.9,80.8,21.9z"/>
	<path class="st0" d="M95.3,20.7c0-0.3,0.1-0.6,0.3-0.8c0.2-0.2,0.5-0.3,0.8-0.3h2.1c0.3,0,0.6,0.1,0.8,0.3c0.2,0.2,0.3,0.5,0.3,0.8
		v2c0,0.3-0.1,0.6-0.3,0.8c-0.2,0.2-0.5,0.3-0.8,0.3h-2.1c-0.3,0-0.6-0.1-0.8-0.3c-0.2-0.2-0.3-0.5-0.3-0.8V20.7z"/>
	<path class="st0" d="M107,0c0.9,0,1.3,0.4,1.3,1.3v2.1c0,0.9-0.4,1.3-1.3,1.3h-1.8c-0.9,0-1.3-0.4-1.3-1.3V1.3
		c0-0.9,0.4-1.3,1.3-1.3H107z M108.3,23c0,0.5-0.3,0.8-0.8,0.8h-2.8c-0.5,0-0.8-0.3-0.8-0.8V7.9c0-0.5,0.3-0.8,0.8-0.8h2.8
		c0.5,0,0.8,0.3,0.8,0.8V23z"/>
	<path class="st0" d="M126.7,13.4c0-1.1-0.4-2-1.1-2.7c-0.7-0.7-1.6-1.1-2.7-1.1c-0.9,0-1.8,0.2-2.7,0.6c-0.9,0.4-1.6,0.8-2,1.2
		l-0.7,0.6V23c0,0.5-0.3,0.8-0.8,0.8h-2.8c-0.5,0-0.8-0.3-0.8-0.8V7.9c0-0.5,0.3-0.8,0.8-0.8h2.8c0.5,0,0.8,0.3,0.8,0.8v1h0.2
		l0.3-0.3c0.1-0.1,0.4-0.3,0.7-0.6c0.4-0.3,0.8-0.5,1.2-0.8c0.4-0.2,1-0.4,1.6-0.6c0.7-0.2,1.4-0.3,2.1-0.3c2.3,0,4.1,0.7,5.5,2
		c1.4,1.3,2.1,3,2.1,5.1V23c0,0.2-0.1,0.4-0.3,0.6c-0.2,0.2-0.4,0.3-0.6,0.3h-2.8c-0.5,0-0.8-0.3-0.8-0.8V13.4z"/>
	<path class="st0" d="M153,22.3c0,2.2-0.8,4-2.5,5.5c-1.7,1.5-4,2.2-6.8,2.2c-2.5,0-4.5-0.5-6-1.5c-1.5-1-2.3-2.1-2.3-3.4
		c0-0.5,0.3-0.8,0.8-0.8h2.3c0.5,0,0.9,0.3,1.3,0.8c0.8,1.1,2.1,1.6,3.9,1.6c1.4,0,2.6-0.4,3.5-1.3c0.9-0.9,1.4-1.9,1.4-3.1v-0.5
		h-0.2c-0.2,0.1-0.4,0.2-0.6,0.4c-0.3,0.2-0.9,0.3-1.7,0.6c-0.9,0.2-1.8,0.4-2.7,0.4c-2.6,0-4.7-0.8-6.4-2.4
		c-1.7-1.6-2.5-3.5-2.5-5.8c0-2.5,0.9-4.6,2.7-6.2c1.8-1.6,4.3-2.4,7.5-2.4c1.1,0,2.3,0.1,3.6,0.4c1.3,0.3,2.2,0.5,2.8,0.8
		c0.6,0.2,1,0.4,1.1,0.5c0.5,0.2,0.8,0.6,0.8,1.1V22.3z M148.6,10.5c-1.2-0.5-2.5-0.8-3.9-0.8c-1.8,0-3.2,0.5-4.2,1.4
		s-1.5,2.2-1.5,3.8c0,1.4,0.5,2.6,1.4,3.5c1,0.9,2.2,1.4,3.6,1.4c0.7,0,1.5-0.1,2.2-0.4c0.8-0.2,1.4-0.5,1.8-0.8l0.6-0.4V10.5z"/>
</g>
</svg>
