<?xml version="1.0" encoding="utf-8"?>
<!-- Generator: Adobe Illustrator 24.1.2, SVG Export Plug-In . SVG Version: 6.00 Build 0)  -->
<svg version="1.1" id="Layer_1" xmlns="http://www.w3.org/2000/svg" xmlns:xlink="http://www.w3.org/1999/xlink" x="0px" y="0px"
	 viewBox="0 0 371.1 78.6" style="enable-background:new 0 0 371.1 78.6;" xml:space="preserve">
<style type="text/css">
	.st0{fill:#484848;}
	.st1{fill:#0063FF;}
</style>
<g>
	<path class="st0" d="M15.3,51c1.8,1.8,4.5,2.7,8,2.7c2.5,0,4.6-0.6,6.4-1.9c1.8-1.2,2.9-2.5,3.3-3.9h10.8c-1.7,5.4-4.4,9.2-8,11.5
		c-3.6,2.3-7.9,3.5-13,3.5c-3.5,0-6.7-0.6-9.5-1.7c-2.8-1.1-5.2-2.7-7.2-4.8c-2-2.1-3.5-4.6-4.5-7.4C0.5,46.1,0,42.9,0,39.4
		c0-3.3,0.5-6.5,1.6-9.3c1.1-2.9,2.7-5.4,4.7-7.5c2-2.1,4.4-3.8,7.2-5c2.8-1.2,5.9-1.8,9.3-1.8c3.8,0,7.1,0.7,9.9,2.2
		c2.8,1.5,5.1,3.4,7,5.9c1.8,2.5,3.1,5.3,3.9,8.5c0.8,3.2,1.1,6.5,0.9,9.9H12.3C12.5,46.3,13.5,49.2,15.3,51 M29.2,27.5
		c-1.5-1.6-3.7-2.4-6.7-2.4c-2,0-3.6,0.3-4.9,1c-1.3,0.7-2.3,1.5-3.1,2.5c-0.8,1-1.3,2-1.6,3.1c-0.3,1.1-0.5,2.1-0.6,2.9h20
		C31.7,31.5,30.7,29.1,29.2,27.5"/>
	<path class="st0" d="M66.9,17v6.2h0.3c1.6-2.6,3.6-4.5,6.1-5.7c2.5-1.2,5-1.8,7.6-1.8c3.3,0,6,0.4,8.1,1.3c2.1,0.9,3.8,2.1,5,3.7
		c1.2,1.6,2.1,3.5,2.6,5.8c0.5,2.3,0.7,4.8,0.7,7.6v27.5H84.9V36.5c0-3.7-0.6-6.4-1.7-8.3C82,26.4,80,25.5,77,25.5
		c-3.3,0-5.8,1-7.3,3c-1.5,2-2.2,5.3-2.2,9.8v23.4H55.3V17H66.9z"/>
	<path class="st0" d="M104.6,67.3c1.3,0,2.4-0.2,3.3-0.7c1-0.5,1.4-1.6,1.4-3.2V17h12.3v46.9c0,2.3-0.2,4.3-0.7,6
		c-0.5,1.7-1.3,3.1-2.5,4.2c-1.2,1.1-2.8,2-4.8,2.5c-2,0.6-4.6,0.8-7.7,0.8c-1.4,0-2.7-0.1-3.9-0.3V66.9
		C102.7,67.2,103.5,67.3,104.6,67.3 M109.4,0h12.3v10.1h-12.3V0z"/>
	<path class="st0" d="M132.6,29.7c1.1-2.9,2.7-5.4,4.7-7.4c2-2,4.4-3.6,7.3-4.8c2.8-1.1,6-1.7,9.5-1.7c3.5,0,6.7,0.6,9.6,1.7
		c2.9,1.1,5.3,2.7,7.3,4.8c2,2,3.6,4.5,4.7,7.4c1.1,2.9,1.6,6.2,1.6,9.7c0,3.6-0.5,6.8-1.6,9.7c-1.1,2.9-2.7,5.4-4.7,7.4
		c-2,2-4.5,3.6-7.3,4.7c-2.9,1.1-6,1.6-9.6,1.6c-3.5,0-6.7-0.5-9.5-1.6c-2.8-1.1-5.2-2.7-7.3-4.7c-2-2-3.6-4.5-4.7-7.4
		c-1.1-2.9-1.6-6.1-1.6-9.7C130.9,35.9,131.5,32.6,132.6,29.7 M143.7,44.7c0.3,1.7,0.9,3.2,1.8,4.6c0.8,1.4,1.9,2.4,3.3,3.2
		c1.4,0.8,3.1,1.2,5.2,1.2c2.1,0,3.8-0.4,5.2-1.2c1.4-0.8,2.5-1.9,3.4-3.2c0.8-1.4,1.4-2.9,1.8-4.6c0.3-1.7,0.5-3.4,0.5-5.2
		c0-1.8-0.2-3.5-0.5-5.3c-0.3-1.7-0.9-3.3-1.8-4.6c-0.8-1.3-2-2.4-3.4-3.2c-1.4-0.8-3.2-1.3-5.2-1.3c-2.1,0-3.8,0.4-5.2,1.3
		c-1.4,0.8-2.5,1.9-3.3,3.2c-0.8,1.3-1.4,2.9-1.8,4.6c-0.3,1.7-0.5,3.5-0.5,5.3C143.2,41.2,143.4,43,143.7,44.7"/>
	<path class="st0" d="M201.7,75.1c-2.4,1.6-5.7,2.3-9.9,2.3c-1.3,0-2.5,0-3.8-0.1c-1.2-0.1-2.5-0.2-3.8-0.3V66.8
		c1.2,0.1,2.3,0.2,3.5,0.3c1.2,0.1,2.4,0.1,3.6,0.1c1.6-0.2,2.8-0.8,3.6-1.9c0.8-1.1,1.2-2.3,1.2-3.6c0-1-0.2-1.9-0.5-2.8L180,17
		h13.1l10.1,30.6h0.2l9.8-30.6h12.7l-18.7,50.2C205.9,70.9,204,73.5,201.7,75.1"/>
	<rect x="225.9" y="48.4" class="st1" width="13.6" height="13.3"/>
	<path class="st0" d="M251.5,0h12.3v10.1h-12.3V0z M263.7,61.7h-12.3V17h12.3V61.7z"/>
	<path class="st0" d="M286.8,17v6.2h0.3c1.6-2.6,3.6-4.5,6.1-5.7c2.5-1.2,5-1.8,7.6-1.8c3.3,0,6,0.4,8.1,1.3c2.1,0.9,3.8,2.1,5,3.7
		c1.2,1.6,2.1,3.5,2.6,5.8c0.5,2.3,0.7,4.8,0.7,7.6v27.5h-12.3V36.5c0-3.7-0.6-6.4-1.7-8.3c-1.2-1.8-3.2-2.7-6.1-2.7
		c-3.3,0-5.8,1-7.3,3c-1.5,2-2.2,5.3-2.2,9.8v23.4h-12.3V17H286.8z"/>
	<path class="st0" d="M370.4,65c-0.5,2.3-1.5,4.5-3.2,6.4c-1.6,2-4,3.7-7,5.1c-3.1,1.4-7.1,2.1-12.3,2.1c-2.2,0-4.4-0.3-6.7-0.8
		c-2.3-0.5-4.4-1.4-6.2-2.5c-1.9-1.2-3.4-2.6-4.7-4.5c-1.2-1.8-1.9-4-2.1-6.5h12.2c0.6,2.3,1.7,3.9,3.4,4.8c1.7,0.9,3.6,1.3,5.8,1.3
		c3.5,0,6-1,7.6-3.1c1.6-2.1,2.3-4.7,2.3-7.9v-5.9h-0.2c-1.3,2.4-3.2,4.1-5.7,5.2c-2.5,1.1-5,1.7-7.7,1.7c-3.3,0-6.2-0.6-8.6-1.8
		c-2.4-1.2-4.4-2.8-6-4.8c-1.6-2-2.7-4.4-3.4-7.2c-0.7-2.7-1.1-5.6-1.1-8.7c0-2.9,0.4-5.7,1.3-8.3c0.8-2.7,2.1-5,3.7-7.1
		c1.6-2,3.6-3.7,6-4.9c2.4-1.2,5.1-1.8,8.3-1.8c2.9,0,5.5,0.5,7.7,1.6c2.2,1.1,4.1,2.9,5.6,5.5h0.2v-6h11.7v41.9
		C371.1,60.7,370.9,62.7,370.4,65 M353.6,50.2c1.3-0.7,2.4-1.6,3.3-2.8c0.9-1.2,1.5-2.5,1.9-3.9c0.4-1.5,0.6-3,0.6-4.6
		c0-1.8-0.2-3.6-0.5-5.2c-0.3-1.6-0.9-3.1-1.7-4.4c-0.8-1.3-1.9-2.3-3.2-3c-1.3-0.8-3-1.1-5-1.1c-1.7,0-3.2,0.3-4.5,1
		c-1.2,0.7-2.3,1.6-3.1,2.8c-0.8,1.2-1.4,2.5-1.8,4.1c-0.4,1.5-0.6,3.1-0.6,4.8c0,1.6,0.2,3.2,0.5,4.8c0.3,1.6,0.9,3,1.6,4.3
		c0.8,1.3,1.8,2.3,3.1,3.1c1.3,0.8,2.9,1.2,4.8,1.2C350.7,51.2,352.3,50.8,353.6,50.2"/>
</g>
</svg>
