<svg id="Layer_1" data-name="Layer 1" xmlns="http://www.w3.org/2000/svg" xmlns:xlink="http://www.w3.org/1999/xlink" viewBox="0 0 640 220"><defs><style>.cls-1{fill:none;}.cls-2{fill:#1eb2e7;}.cls-3{clip-path:url(#clip-path);}.cls-4{fill:url(#linear-gradient);}.cls-5{fill:#044f94;}.cls-6{fill:#fff;}.cls-7{fill:#fdee19;}</style><clipPath id="clip-path"><path class="cls-1" d="M149,67.19c-14.4,0-22.39,6.34-25,19.91l-10.67,55.18h40.29c14.4,0,22.39-6.34,25-19.91l10.68-55.18Z"/></clipPath><linearGradient id="linear-gradient" x1="6739.74" y1="6738.62" x2="6742.11" y2="6738.62" gradientTransform="translate(213993.47 -213810.37) rotate(90) scale(31.73)" gradientUnits="userSpaceOnUse"><stop offset="0" stop-color="#e53d25"/><stop offset="0.53" stop-color="#e43c25"/><stop offset="0.75" stop-color="#dd3a26"/><stop offset="0.92" stop-color="#d03827"/><stop offset="1" stop-color="#c83327"/></linearGradient></defs><title>logo-</title><path class="cls-2" d="M323.58,141.93c-1.58,7.1-2.27,11.44-2.27,11.51a13.31,13.31,0,0,0,2.07-1.72l.75,1.24c-1.17,1-2.89,2.68-4.54,2.68-1,0-1.11-.76-1.11-1.58a18.06,18.06,0,0,1,.28-2.41c-1.24,1.93-3.58,3.85-5.24,3.85-1.37,0-2.47-1.3-2.47-3.44a12,12,0,0,1,1.44-5.51c1.93-3.72,5.44-4.62,8.41-4.62.68-3.23,1.24-5.3,1.24-6l-.35-.21h-.07c-.34,0-1.24.35-1.93.35a1.53,1.53,0,0,0,.21-.62c.21-.41,1.24-.76,1.65-.9h0l2.69-1c1,0,.9.41.9.55-.14.34-.69,3.38-1.66,7.78m-5.16,1.52c-2.69,0-4.34,4.48-4.34,8.13,0,1.1.27,2,.55,2,1,0,3-1.73,3.58-2.83s.89-1.24,2.13-6.61a.63.63,0,0,1,.07-.35,5.6,5.6,0,0,0-2-.34"/><path class="cls-2" d="M328.61,150.61c0,1.11.41,3.1,1.52,3.1,1.37,0,2.68-1.17,3.78-2.41l1.18,1.17a8.44,8.44,0,0,1-6.2,3.17c-2.62,0-3.31-2.34-3.31-4.27,0-3.72,3.1-9.37,7.58-9.37,1.72,0,3.1.9,3.1,2.48,0,3.24-4.89,4.62-7.58,5.24Zm.14-2.13c1.65-.48,4.41-1.72,4.41-3.52,0-.75-.35-1.44-.9-1.44-1.86,0-3.17,2.89-3.51,5"/><path class="cls-2" d="M346.11,141.86c1,0,1.72.49,1.72,1.31a1.77,1.77,0,0,1-1.86,1.59s-.69-.35-1.1-.14-.42.41-.62.62l-1.66,2.69a47.68,47.68,0,0,0-1.51,6.06c-.14.55-.21,1.17-.35,1.58l-3-.27a7.82,7.82,0,0,1,.28-1.1c.62-2.69,2.27-9.24,2.13-9.51.07-.28,0-.41.07-.48a11.29,11.29,0,0,0-2,1.72l-.69-1.17a2.94,2.94,0,0,0,.48-.42c1.1-.82,2.89-2.34,4.06-2.34,1,0,1.17.48,1.17,1.1a11.53,11.53,0,0,1-.41,3c1.17-2,1.59-3.65,3.1-4.07h.21Z"/><path class="cls-2" d="M367.6,137.11s-.21,3.72-.21,4.41l-1.51-.07v-.69c-.21-1.93-.76-3.23-3-3.3-1.59-.07-2.62,1.17-2.62,2.89a4.59,4.59,0,0,0,2.27,3.65c2.69,2,4.2,3.72,4.2,6.13,0,1.45-1.31,5.37-6.4,5.37a6.52,6.52,0,0,1-3-.55l-.35-.2a7.17,7.17,0,0,1-1.93-1.11c.07-.75.35-3,.35-4.2v-.34l1.37.07c0,2.68,1.52,5,4.07,5,1.38-.07,2.89-1,2.89-3.45a4.33,4.33,0,0,0-1.93-3.58c-1.72-1.31-4.34-3-4.34-5.85,0-2.48,2.07-5.17,6-5.17a11.91,11.91,0,0,1,4,.89Z"/><path class="cls-2" d="M373,155.57c-2.89,0-3.86-2.55-3.86-4.82a10.24,10.24,0,0,1,1.31-5h0c1.17-1.93,3.38-3.86,6-3.86,3.1,0,3.85,2.21,3.85,4.62-.06,3.86-2.75,9.09-7.3,9.09m2.62-12.19c-2.62,0-3.44,4.82-3.44,7,0,1.37.06,3.65,1.58,3.65,2.62,0,3.38-5.17,3.38-7.3,0-1.24-.14-3.38-1.52-3.38"/><path class="cls-2" d="M392.67,141.93a1.8,1.8,0,0,1,1.93,1.66c0,2.13-1,5.09-1.51,7.16,0-.07-.28,1.17-.49,2.27-.13.76,1.31-.89,1.8-1.24l.82,1.18c-.82.75-3.17,2.68-4.34,2.68a1.25,1.25,0,0,1-1.31-1.38,11.44,11.44,0,0,1,.69-3.3c.55-2.28,1.93-5.93,1.17-6.13-1.17-.55-3.65,2.27-4.61,3.58a56.84,56.84,0,0,0-1.38,5.58c-.14.55-.21,1.17-.34,1.51l-3-.27a7.82,7.82,0,0,1,.28-1.1c.62-2.69,2.27-9.23,2.14-9.51.06-.28,0-.41.06-.48a11.72,11.72,0,0,0-2,1.72l-.69-1.17a2.91,2.91,0,0,0,.48-.41c1.1-.83,3-2.35,4.2-2.35,1,0,1.17.49,1.17,1.11a9.24,9.24,0,0,1-.41,2.2c-.14.48-.21.34-.28.9,1.52-1.73,3.93-4.21,5.65-4.21"/><path class="cls-2" d="M407.69,141.93a1.8,1.8,0,0,1,1.93,1.66c0,2.13-1,5.09-1.52,7.16,0-.07-.27,1.17-.48,2.27-.14.76,1.31-.89,1.79-1.24l.83,1.18c-.83.75-3.17,2.68-4.34,2.68a1.25,1.25,0,0,1-1.31-1.38,11.12,11.12,0,0,1,.69-3.3c.55-2.28,1.93-5.93,1.17-6.13-1.17-.55-3.65,2.27-4.62,3.58-.27.62-1,3.65-1.37,5.58-.14.55-.21,1.17-.35,1.51l-3-.27a7.82,7.82,0,0,1,.28-1.1c.62-2.69,2.27-9.23,2.13-9.51.07-.28,0-.41.07-.48a12.19,12.19,0,0,0-2,1.72l-.68-1.17a3.39,3.39,0,0,0,.48-.41c1.1-.83,3-2.35,4.2-2.35,1,0,1.1.49,1.1,1.11a9.76,9.76,0,0,1-.41,2.2c-.14.48-.21.34-.28.9,1.59-1.73,4-4.21,5.72-4.21"/><path class="cls-2" d="M414.85,150.61c0,1.11.42,3.1,1.52,3.1,1.38,0,2.69-1.17,3.79-2.41l1.17,1.17a8.42,8.42,0,0,1-6.2,3.17c-2.62,0-3.24-2.34-3.24-4.27,0-3.72,3.1-9.37,7.58-9.37,1.72,0,3.1.9,3.1,2.48,0,3.24-4.89,4.62-7.58,5.24Zm.14-2.13c1.65-.48,4.41-1.72,4.41-3.52,0-.75-.34-1.44-.9-1.44-1.86,0-3.16,2.89-3.51,5"/><path class="cls-2" d="M433.73,150.61c0,1.11.41,3.1,1.51,3.1,1.38,0,2.69-1.17,3.79-2.41l1.17,1.17a8.4,8.4,0,0,1-6.2,3.17c-2.61,0-3.3-2.34-3.3-4.27,0-3.72,3.1-9.37,7.57-9.37,1.73,0,3.1.9,3.1,2.48,0,3.24-4.89,4.62-7.57,5.24Zm.14-2.13c1.65-.48,4.4-1.72,4.4-3.52,0-.75-.34-1.44-.89-1.44-1.86,0-3.24,2.89-3.51,5"/><path class="cls-2" d="M453.43,141.93a1.8,1.8,0,0,1,1.93,1.66c0,2.13-1,5.09-1.52,7.16,0-.07-.27,1.17-.48,2.27-.14.76,1.31-.89,1.79-1.24L456,153c-.83.75-3.17,2.68-4.34,2.68a1.25,1.25,0,0,1-1.31-1.38A11.12,11.12,0,0,1,451,151c.55-2.28,1.93-5.93,1.17-6.13-1.17-.55-3.65,2.27-4.62,3.58-.27.62-1,3.65-1.37,5.58-.14.55-.21,1.17-.35,1.51l-3-.27a7.82,7.82,0,0,1,.28-1.1c.62-2.69,2.27-9.23,2.13-9.51.07-.28,0-.41.07-.48a12.19,12.19,0,0,0-2,1.72l-.69-1.17a3,3,0,0,0,.49-.41c1.1-.83,3-2.35,4.2-2.35,1,0,1.17.49,1.17,1.11a9.76,9.76,0,0,1-.41,2.2c-.14.48-.21.34-.28.9,1.52-1.73,3.93-4.21,5.65-4.21"/><path class="cls-2" d="M465.62,143.79h-2.68c-.56,2.28-1,4.21-1.52,6.82a7,7,0,0,0-.34,2.83c.41.34,1.92-1.31,2.34-1.79l.76,1c-.9,1-3.24,2.89-4.76,2.89-1.17,0-1.24-1.31-1.24-1.86a11.24,11.24,0,0,1,.35-2.68l1.58-7.24h-2l.55-1.17c.9-.07,1.93-.27,1.93-.27.14-.62.28-1.17.49-1.86.27-.28.68-.55,1.17-1h0a2.82,2.82,0,0,0,1-1h1.17l-1,3.65h3Z"/><path class="cls-2" d="M478.57,143.93h-2.75a4.53,4.53,0,0,1,.48,2c0,4.06-3.17,5.44-5,6.27-.76.34-1.1.34-1.1,1,0,1.72,5.37,3,5.37,6,0,2.69-4.27,3.59-6.47,3.59s-6.13-.42-6.13-3.24c0-1.86,3.1-3.58,4.75-4.41a2,2,0,0,1-.83-1.24c0-.62,1.17-1.38,1.86-1.79a3.57,3.57,0,0,1-2.68-3.86,5.78,5.78,0,0,1,.82-2.89c1-1.66,3.45-3.52,5.58-3.52a5.24,5.24,0,0,1,2.55.56c.83-.07,1.79,0,2.55,0,.48,0,1.17-.07,2.07-.14l-.62,1.51Zm-9.57,12c-1.17.55-2.83,1.65-2.83,3.24s2.07,2.27,3.24,2.27,3.31-.35,3.31-1.93-2.48-3-3.72-3.58m2.89-12.68c-2.07,0-2.82,2.9-2.82,4.82,0,1,.27,3,1.24,3,2.13,0,3-3.1,3-5,.07-1.17-.28-2.76-1.45-2.76"/><path class="cls-2" d="M480.78,150.61c0,1.11.41,3.1,1.51,3.1,1.38,0,2.69-1.17,3.79-2.41l1.17,1.17a8.4,8.4,0,0,1-6.2,3.17c-2.62,0-3.3-2.34-3.3-4.27,0-3.72,3.1-9.37,7.57-9.37,1.72,0,3.1.9,3.1,2.48,0,3.24-4.89,4.62-7.57,5.24Zm.13-2.13c1.66-.48,4.41-1.72,4.41-3.52,0-.75-.34-1.44-.89-1.44-1.79,0-3.17,2.89-3.52,5"/><path class="cls-2" d="M502.13,143.93h-2.75a4.53,4.53,0,0,1,.48,2c0,4.06-3.17,5.44-5,6.27-.76.34-1.1.34-1.1,1,0,1.72,5.37,3,5.37,6,0,2.69-4.27,3.59-6.48,3.59s-6.13-.42-6.13-3.24c0-1.86,3.1-3.58,4.76-4.41a2,2,0,0,1-.83-1.24c0-.62,1.17-1.38,1.86-1.79a3.58,3.58,0,0,1-2.69-3.86,5.79,5.79,0,0,1,.83-2.89c1-1.66,3.44-3.52,5.58-3.52a5.24,5.24,0,0,1,2.55.56c.83-.07,1.79,0,2.55,0,.48,0,1.17-.07,2.06-.14l-.62,1.51Zm-9.57,12c-1.18.55-2.83,1.65-2.83,3.24s2.07,2.27,3.24,2.27,3.31-.35,3.31-1.93-2.48-3-3.72-3.58m3-12.68c-2.07,0-2.83,2.9-2.83,4.82,0,1,.28,3,1.24,3,2.14,0,3-3.1,3-5,0-1.17-.34-2.76-1.44-2.76"/><path class="cls-2" d="M504.4,150.61c0,1.11.42,3.1,1.52,3.1,1.38,0,2.69-1.17,3.79-2.41l1.17,1.17a8.42,8.42,0,0,1-6.2,3.17c-2.62,0-3.24-2.34-3.24-4.27,0-3.72,3.1-9.37,7.58-9.37,1.72,0,3.1.9,3.1,2.48,0,3.24-4.89,4.62-7.58,5.24Zm.14-2.13c1.65-.48,4.41-1.72,4.41-3.52,0-.75-.34-1.44-.9-1.44-1.86,0-3.23,2.89-3.51,5"/><path class="cls-2" d="M524.1,141.93a1.8,1.8,0,0,1,1.93,1.66c0,2.13-1,5.09-1.51,7.16,0-.07-.28,1.17-.48,2.27-.14.76,1.3-.89,1.79-1.24l.82,1.18c-.82.75-3.17,2.68-4.34,2.68a1.25,1.25,0,0,1-1.31-1.38,11.44,11.44,0,0,1,.69-3.3c.55-2.28,1.93-5.93,1.17-6.13-1.17-.55-3.65,2.27-4.61,3.58-.28.62-1,3.65-1.38,5.58-.14.55-.2,1.17-.34,1.51l-3-.27a7.35,7.35,0,0,1,.27-1.1c.62-2.69,2.28-9.23,2.14-9.51.07-.28,0-.41.07-.48a11.41,11.41,0,0,0-2,1.72l-.69-1.17a2.91,2.91,0,0,0,.48-.41c1.1-.83,3-2.35,4.2-2.35,1,0,1.17.49,1.17,1.11a9.24,9.24,0,0,1-.41,2.2,3.28,3.28,0,0,0-.27.9c1.51-1.73,3.92-4.21,5.64-4.21"/><g class="cls-3"><rect class="cls-4" x="113.35" y="67.19" width="75.98" height="75.08"/></g><polygon class="cls-5" points="163.08 97.99 163.56 97.3 163.98 96.68 164.32 96.13 164.53 95.64 164.66 95.23 164.87 94.75 165.01 94.27 165.08 93.72 165.08 93.23 165.01 92.68 164.87 92.27 164.6 91.92 164.25 91.65 163.84 91.51 163.36 91.44 162.87 91.44 162.39 91.51 161.91 91.65 161.43 91.86 161.01 91.99 160.53 92.2 159.22 92.96 158.05 93.78 156.88 94.75 156.95 93.78 156.95 92.82 156.95 91.86 156.95 90.82 156.88 89.86 156.81 88.89 156.68 87.93 156.54 86.89 156.33 85.93 156.06 85.03 155.71 84.07 155.37 83.24 154.95 82.42 154.4 81.59 153.85 80.9 153.51 80.63 153.16 80.28 152.75 80.01 152.34 79.87 151.85 79.73 151.44 79.73 151.03 79.87 150.61 80.01 150.27 80.28 149.99 80.63 149.79 80.97 149.58 81.38 149.44 81.8 149.37 82.21 149.37 82.62 149.3 83.8 149.3 84.83 149.3 85.79 149.3 86.69 149.3 87.52 149.3 88.34 149.24 89.1 149.17 89.86 149.03 90.68 148.89 91.51 148.68 92.34 148.48 93.3 148.2 94.27 147.72 93.85 147.24 93.37 146.75 92.89 146.2 92.41 145.65 91.92 145.03 91.44 144.48 91.03 143.86 90.61 143.24 90.2 142.62 89.86 142.07 89.51 141.45 89.31 140.9 89.17 140.35 89.1 139.87 89.1 139.38 89.24 139.04 89.44 138.76 89.65 138.56 89.93 138.42 90.34 138.28 90.68 138.35 91.17 138.49 91.65 138.7 92.13 139.25 92.96 139.8 93.85 140.42 94.89 141.11 95.92 141.8 97.16 141.25 96.95 140.76 96.81 140.21 96.75 139.66 96.75 139.11 96.75 138.63 96.81 138.15 96.88 137.73 96.95 137.11 97.02 136.49 97.16 135.87 97.3 135.25 97.43 134.7 97.5 134.08 97.64 133.6 97.78 133.05 97.85 132.56 97.99 132.15 98.05 131.74 98.12 131.39 98.26 130.98 98.33 130.57 98.4 130.15 98.54 129.67 98.67 129.26 98.74 128.78 98.88 128.29 99.02 127.95 99.16 127.54 99.43 127.19 99.71 126.85 100.12 126.64 100.53 126.57 101.02 126.57 101.5 126.64 101.98 126.85 102.39 127.19 102.74 127.61 103.01 128.02 103.22 128.5 103.43 128.91 103.56 129.47 103.7 129.95 103.84 130.43 103.98 130.84 104.05 131.32 104.19 131.81 104.25 132.7 104.46 133.53 104.74 134.29 104.94 134.98 105.22 135.73 105.49 136.42 105.7 137.11 105.91 137.94 106.11 138.7 106.32 139.52 106.53 138.83 106.8 138.08 107.15 137.39 107.56 136.7 107.91 136.15 108.39 135.6 108.87 135.18 109.42 134.91 109.9 134.84 110.39 134.84 110.87 134.98 111.35 135.18 111.76 135.53 112.11 135.87 112.38 136.35 112.59 136.97 112.73 137.73 112.86 138.56 112.93 139.45 113 140.42 112.93 141.45 112.86 140.76 113.9 140.14 115 139.73 116.17 139.32 117.27 138.97 118.31 138.63 119.13 138.21 120.03 137.73 120.99 137.18 121.96 136.63 122.92 135.94 123.89 135.73 124.23 135.6 124.64 135.6 125.06 135.66 125.47 135.87 125.81 136.08 126.09 136.35 126.3 136.7 126.5 137.11 126.57 137.46 126.64 137.87 126.57 138.21 126.5 138.63 126.44 138.97 126.3 139.38 126.09 141.04 125.26 142.62 124.23 144.14 123.2 145.52 121.96 146.89 120.72 148.13 119.34 149.3 117.89 149.44 118.44 149.58 119.06 149.79 119.68 149.99 120.23 150.34 120.79 150.61 121.06 150.96 121.34 151.37 121.47 151.78 121.54 152.2 121.47 152.61 121.34 152.96 121.13 153.37 120.79 153.3 120.86 153.71 120.23 154.06 119.61 154.26 119 154.47 118.17 155.02 119 155.71 119.82 156.4 120.58 157.16 121.41 157.98 122.16 158.81 122.92 159.71 123.61 160.6 124.23 161.5 124.78 162.39 125.33 163.36 125.75 164.25 126.09 165.15 126.3 165.97 126.44 166.59 126.5 167.15 126.44 167.63 126.3 168.04 126.16 168.38 125.95 168.66 125.68 168.87 125.4 169.07 125.06 169.14 124.71 169.21 124.3 169.21 123.89 169.07 123.47 168.94 122.99 168.73 122.58 168.45 122.16 167.63 121.27 166.94 120.44 166.25 119.61 165.63 118.86 165.08 118.17 164.53 117.48 164.04 116.72 163.56 116.03 163.08 115.21 162.6 114.38 162.19 113.48 162.6 113.69 163.08 113.83 163.56 113.97 164.04 114.04 164.53 114.11 165.01 114.11 165.49 114.11 165.97 114.04 166.46 113.9 166.94 113.76 167.49 113.48 167.83 113.07 168.18 112.66 168.32 112.11 168.38 111.56 168.25 110.94 167.97 110.39 167.83 110.11 167.7 109.9 167.56 109.77 167.49 109.63 167.35 109.42 167.21 109.28 167.08 109.08 166.87 108.94 166.66 108.73 166.53 108.59 166.32 108.39 166.11 108.25 165.91 108.11 165.77 107.97 165.56 107.84 165.42 107.77 165.28 107.63 165.08 107.56 164.94 107.42 164.73 107.35 165.63 107.22 166.59 107.08 167.63 106.87 168.8 106.6 169.49 106.32 170.18 106.11 170.93 105.84 171.76 105.49 172.52 105.15 173.28 104.81 174.03 104.39 174.72 103.98 175.41 103.63 175.96 103.22 176.38 102.81 176.65 102.6 177 102.26 177.27 101.91 177.55 101.5 177.75 101.15 177.89 100.74 177.96 100.33 177.96 99.91 177.89 99.57 177.69 99.22 177.48 98.95 177.2 98.67 176.86 98.47 176.51 98.26 176.1 98.19 175.69 98.19 174.86 98.19 174.03 98.19 173.28 98.12 172.38 98.12 171.55 98.05 170.73 97.99 170.04 97.92 169.35 97.85 168.73 97.78 168.25 97.71 167.76 97.71 167.21 97.64 166.73 97.64 166.18 97.64 165.56 97.64 164.87 97.71 164.04 97.78 163.08 97.99"/><path class="cls-6" d="M156.54,118.72,156,118l-.49-.76-.41-.68-.28-.69a.68.68,0,0,0-.75-.42.85.85,0,0,0-.62.55l-.07.56-.14.62-.14.62-.13.62-.21.55-.21.48-.34.41-.07.07L152,120l-.14.07h-.27l-.14-.07-.14-.14-.07-.14-.13-.2-.07-.21L151,119l-.07-.28-.07-.28-.07-.34-.07-.28-.07-.27-.07-.28-.06-.27-.07-.28-.07-.34-.07-.42a1,1,0,0,0-.55-.62.67.67,0,0,0-.69.28l-1,1.45-1.11,1.37-1.17,1.31L144.48,121l-1.38,1.11-1.37,1-1.52.89-1.58.83-.14.07h-1.38l-.07-.07-.07-.07-.06-.07v-.27l.68-1,.69-1,.55-1,.49-1,.41-1,.34-.9.42-1.1.41-1.17.48-1.17.62-1.1.76-1,.83-.89a.65.65,0,0,0,.07-.83.58.58,0,0,0-.76-.27l-.9.27-.89.14-.9.07h-1.72l-.69-.07-.55.14-.48-.14-.28-.14-.2-.2-.14-.28v-.28l.14-.27.34-.41.41-.42.48-.34.62-.35.62-.34.69-.35.69-.27.69-.28.69-.2.69-.21.62-.14.27.55.35.49.34.41.42.34.48.21.55.14-.21.48-.13.55v.55l.06.55.14.49.21.48.34.48.35.41.41.35.48.34.55.28.56.2.62.14.62.07.62-.07.55-.14.55-.2.48-.28.41-.34.35-.48.41.41.48.34.49.28.55.14.55.07.55-.07.55-.14.55-.21.55-.27.55-.42.48-.48.35-.55.27-.55.14-.62v-.62l-.07-.62-.2-.55.55-.28.55-.34.41-.48.35-.55.27-.56.21-.62.14-.62.07-.55v-.55l-.07-.55-.14-.55-.21-.55-.27-.48-.35-.42-.41-.34-.48-.28-.49-.2.21-.62.07-.62-.07-.62-.21-.62-.27-.55-.41-.49-.49-.41-.62-.34.76-.76.83-.76.89-.69.9-.62,1-.48.14-.07.14-.07.07-.07.14-.07.13-.07.14-.06.21-.07.2-.07.21-.07.21-.07.2-.07h.49l.13.07.07.07.07.07.07.07v.55l-.07.2-.07.21-.07.21-.06.2-.07.21-.07.14-.07.14v.07l-.21.48-.27.55-.35.55-.41.62-.55.62-.69.62-.21.14-.2.2L160,99a.74.74,0,0,0-.14.9.8.8,0,0,0,.83.34l.48-.21.42-.2.48-.07.41-.14.41-.14.42-.14.41-.06.41-.07.42-.07.41-.07h2.21l.48.07h.48l.55.07.55.07.62.06.76.07.83.07.82.07.9.07H176l.14.07.14.07.13.07.07.07.07.06v.56l-.07.13-.07.14-.06.14-.07.07-.07.14-.07.06-.07.07-.07.07-.07.14-.07.07-.13.14-.07.13-.07.07-.07.07-.35.28-.48.34-.55.35-.62.34-.69.35-.76.34-.75.34-.76.35-.76.27-.69.28-.62.21-.82.2-.83.21-.9.14-.82.14-.83.06-.76.07-.69.14-.62.21a.7.7,0,0,0-.41.62.83.83,0,0,0,.35.62l.13.07.28.13.34.14.55.21.56.27.62.35.62.48.62.55.48.55.41.62.07.21.07.21V112l-.07.21-.07.13-.14.21-.27.14-.28.07-.34.07-.35.06h-.69l-.34-.06-.34-.07-.35-.07-.34-.07-.42-.14-.34-.14-.35-.13-.34-.14-.34-.14-.28-.14-.21-.07a.68.68,0,0,0-.89.9l.48,1.17.48,1,.55,1,.49.89.55.83.55.76.55.76.62.75.62.83.69.83.76.89.82,1,.14.2.14.21.07.21.07.2.06.21v.34l-.06.14-.07.14-.14.14-.14.13-.21.07-.2.07h-1l-.75-.14-.83-.2-.83-.35-.82-.41-.9-.48-.83-.55-.82-.62-.83-.69-.83-.69-.75-.76-.69-.76-.62-1"/><path class="cls-6" d="M150.75,82.69v-.27l.07-.28.07-.2.07-.21.07-.14.07-.14.13-.13.14-.07.14-.07h.27l.14.07.21.07.21.13.2.14.21.14.14.14.55.69.48.82.41.9.35,1,.27,1,.21,1.1.21,1.17.13,1.24.07,1.24.07,1.31v1.31l-.07,1.3-.07,1.38H155l-.55.07-.55.14-.48.27-.48.35-.35.41-.34.48-.21-.48-.34-.41-.42-.35-.48-.2-.48-.14-.55-.07-.55.07-.55.14-.49.2-.48.21-.41.28-.48.34-.42.41-.34.49-.28.48-.2.48-.14.55-.07.55.07.49.14.48H145l-.48.14-.41.2-.41.28-.35.34L143,103l-.28.48-.21.55-.13.55-.07.55v.55l-1-.14-1-.13-.9-.14-.82-.21-.76-.2-.76-.21-.69-.21-.69-.2-.68-.21-.69-.21-.76-.27-.83-.21-.89-.21-.9-.2-.83-.21-.68-.21-.62-.2-.49-.21-.34-.21-.28-.2-.07-.07v-.42l.07-.13.07-.14.07-.14.07-.07.14-.07.14-.07.06-.06.28-.07.34-.14.35-.14.34-.07L130,100l.34-.07.28-.06.27-.07.28-.07.27-.07.21-.07.28-.07.27-.07.28-.07.34-.07.35-.06.41-.07.48-.07.48-.14.56-.14.55-.14.55-.13.55-.07.55-.14.48-.07.41-.07.49-.07.55-.07h.62l.62.07.62.21.62.28.55.41.55.55a.69.69,0,0,0,1.17-.69l-.62-1.38-.69-1.31L141.93,95l-.62-1-.62-1-.55-.9-.48-.76-.07-.07-.07-.13-.07-.14v-.28h0l.07-.07.07-.07.14-.06h.69l.41.13.41.14.42.21.41.2.41.28.42.28.41.27.41.28.42.34.41.35.41.34.42.34.41.35.41.34.35.35.34.34.35.35.27.2.35.14h.34l.35-.07.27-.14.28-.2.14-.35.34-1.1.28-1,.2-1,.14-.89.14-.83.07-.83.07-.82.06-.83V83.8Z"/><polygon class="cls-7" points="153.3 111.97 153.09 111.56 153.02 111.14 153.09 110.73 153.23 110.32 153.37 109.97 153.64 109.63 153.92 109.28 154.26 109.08 154.61 108.87 155.02 108.73 155.44 108.66 155.78 108.59 156.19 108.66 156.54 108.8 156.88 109.01 157.16 109.35 157.29 109.7 157.36 110.18 157.36 110.59 157.23 110.94 157.02 111.35 156.81 111.69 156.47 111.97 156.19 112.25 155.78 112.45 155.44 112.59 155.02 112.66 154.61 112.73 154.19 112.66 153.85 112.52 153.57 112.25 153.3 111.97"/><polygon class="cls-7" points="151.09 111.97 150.89 112.31 150.61 112.52 150.34 112.73 149.92 112.86 149.58 112.93 149.17 112.93 148.75 112.86 148.34 112.8 148 112.66 147.65 112.52 147.31 112.25 146.96 112.04 146.75 111.69 146.48 111.42 146.34 111.07 146.27 110.66 146.27 110.32 146.34 109.97 146.55 109.63 146.82 109.35 147.17 109.14 147.51 109.01 147.86 108.94 148.27 108.94 148.68 109.01 149.1 109.08 149.44 109.21 149.79 109.42 150.13 109.63 150.47 109.9 150.75 110.18 150.96 110.52 151.09 110.87 151.16 111.21 151.23 111.56 151.09 111.97"/><polygon class="cls-7" points="145.58 107.77 145.24 107.7 144.96 107.56 144.69 107.35 144.48 107.08 144.28 106.8 144.14 106.53 144 106.18 143.93 105.91 143.86 105.63 143.86 105.42 143.79 105.15 143.86 104.87 143.86 104.6 143.93 104.25 144.07 103.98 144.21 103.63 144.41 103.36 144.62 103.08 144.9 102.94 145.24 102.88 145.52 102.88 145.86 103.01 146.14 103.22 146.34 103.5 146.55 103.77 146.69 104.05 146.82 104.39 146.89 104.67 146.96 104.94 146.96 105.15 146.96 105.42 146.96 105.7 146.89 105.98 146.89 106.32 146.75 106.67 146.62 106.94 146.41 107.22 146.2 107.49 145.93 107.7 145.58 107.77"/><polygon class="cls-7" points="157.43 100.4 157.5 99.98 157.5 99.64 157.43 99.22 157.23 98.88 156.95 98.61 156.68 98.33 156.33 98.05 155.99 97.92 155.57 97.78 155.23 97.71 154.81 97.78 154.4 97.85 154.06 97.99 153.78 98.19 153.51 98.47 153.3 98.81 153.23 99.22 153.23 99.57 153.37 99.98 153.51 100.33 153.78 100.6 154.06 100.88 154.4 101.15 154.81 101.29 155.16 101.43 155.57 101.43 155.99 101.43 156.33 101.36 156.68 101.22 157.02 101.02 157.29 100.74 157.43 100.4"/><polygon class="cls-7" points="157.43 107.63 157.09 107.56 156.81 107.35 156.54 107.08 156.33 106.8 156.19 106.46 156.12 106.05 156.06 105.7 156.06 105.36 156.06 105.01 156.06 104.74 156.12 104.39 156.19 104.12 156.33 103.77 156.54 103.43 156.74 103.08 156.95 102.81 157.23 102.6 157.57 102.46 157.85 102.33 158.26 102.33 158.6 102.46 158.88 102.67 159.09 102.94 159.29 103.22 159.43 103.56 159.57 103.91 159.64 104.32 159.64 104.67 159.64 105.01 159.64 105.29 159.57 105.56 159.43 105.91 159.29 106.25 159.16 106.6 158.95 106.87 158.67 107.15 158.47 107.42 158.12 107.56 157.78 107.63 157.43 107.63"/><polygon class="cls-7" points="150.68 108.25 150.06 107.97 149.51 107.63 149.1 107.22 148.75 106.67 148.48 106.05 148.41 105.42 148.41 104.74 148.55 104.05 148.82 103.43 149.17 102.88 149.58 102.39 150.13 102.05 150.68 101.77 151.3 101.64 151.99 101.64 152.61 101.77 153.23 101.98 153.78 102.39 154.19 102.81 154.54 103.36 154.81 103.98 154.88 104.6 154.88 105.29 154.75 105.98 154.54 106.6 154.13 107.15 153.71 107.56 153.16 107.97 152.61 108.25 151.99 108.39 151.3 108.39 150.68 108.25"/><polygon class="cls-7" points="146.82 100.95 147.03 101.22 147.31 101.36 147.51 101.43 147.86 101.43 148.13 101.43 148.48 101.36 148.75 101.29 149.03 101.15 149.3 101.02 149.51 100.88 149.79 100.67 149.99 100.47 150.2 100.26 150.41 99.98 150.61 99.71 150.75 99.43 150.82 99.16 150.89 98.81 150.82 98.54 150.68 98.19 150.47 97.99 150.27 97.85 149.99 97.78 149.72 97.78 149.37 97.78 149.1 97.85 148.82 97.92 148.55 98.05 148.27 98.19 148 98.33 147.72 98.54 147.51 98.74 147.31 98.95 147.1 99.22 146.96 99.5 146.82 99.78 146.75 100.05 146.69 100.4 146.69 100.67 146.82 100.95"/><path class="cls-5" d="M476.92,104.53c7.3.76,12.74,2.89,12.74,8.47-.07,6.89-8.06,10.4-18.05,10.4-7.23,0-12.88-2-15.36-5.92-.27-.69.14-.83.9-1L462.8,114c.69-.14.89.06,1.1.34,1.17,1.52,4.13,2.41,7.09,2.41,2.69,0,4.69-.83,4.69-2.41s-2-2-5.79-2.34c-.34-.07-.41-.07-1-.14-5.17-.83-12.19-1.79-12.81-8-.69-6.54,6.54-10.68,17.35-10.68,6,0,12.27,1.59,14.33,5.38.28.48.14.68-.48.82L481,102.19c-.41.14-.62.07-1-.28a9.91,9.91,0,0,0-6.54-2.06c-2,0-4.34.75-4.34,2.13s1.86,1.93,6.26,2.34Z"/><path class="cls-5" d="M513.91,104.53c7.37.76,12.74,2.89,12.74,8.47-.07,6.89-8.06,10.4-18,10.4-7.24,0-12.89-2-15.37-5.92-.27-.69.14-.83.9-1l5.65-2.48c.69-.14.89.06,1.1.34,1.17,1.52,4.13,2.41,7.1,2.41,2.68,0,4.68-.83,4.68-2.41s-2-2-5.79-2.34a9.18,9.18,0,0,0-1-.14c-5.17-.83-12.19-1.79-12.81-8-.69-6.54,6.54-10.68,17.36-10.68,6,0,12.26,1.59,14.32,5.38.28.48.14.68-.48.82l-6.33,2.76c-.42.14-.62.07-1-.28a9.78,9.78,0,0,0-6.54-2.06c-2,0-4.34.75-4.34,2.13s1.86,1.93,6.27,2.34Z"/><path class="cls-5" d="M230.66,110c-.07.55-.42.62-1.59.62H206.82c.28,2.48,2.28,3.86,6.55,3.86a24.15,24.15,0,0,0,7.71-1.17c.55-.21.69-.21,1,.2a37.83,37.83,0,0,1,3.72,6.07c.34.62.27.82-.49,1.24a24,24,0,0,1-11.57,2.54c-14.05,0-19.84-6.75-19.84-15.29S201.11,93.23,213,93.23c11,0,18.4,5.65,17.71,16.81m-12.13-4.68c-.13-3.31-2.34-5-5.78-5-3.65,0-5.58,2.13-6,5Z"/><path class="cls-5" d="M314.7,110c-.07.55-.42.62-1.59.62H290.86c.28,2.48,2.28,3.86,6.55,3.86a24.15,24.15,0,0,0,7.71-1.17c.55-.21.69-.21,1,.2a37.83,37.83,0,0,1,3.72,6.07c.34.62.27.82-.49,1.24a24.08,24.08,0,0,1-11.57,2.54c-14.05,0-19.77-6.75-19.77-15.29s7.23-14.88,19.08-14.88c10.95,0,18.32,5.65,17.64,16.81m-12.13-4.68c-.14-3.31-2.34-5-5.78-5-3.65,0-5.58,2.13-6,5Z"/><path class="cls-5" d="M429.94,110c-.07.55-.34.62-1.58.62H406.11c.34,2.48,2.27,3.86,6.54,3.86a24.15,24.15,0,0,0,7.71-1.17c.56-.21.69-.21,1,.2a37.12,37.12,0,0,1,3.72,6.07c.34.62.27.82-.48,1.24A24.12,24.12,0,0,1,413,123.4c-14.05,0-19.77-6.75-19.77-15.29s7.24-14.88,19.09-14.88c10.95,0,18.39,5.65,17.63,16.81m-12.06-4.68c-.13-3.31-2.41-5-5.78-5-3.65,0-5.58,2.13-6,5Z"/><path class="cls-5" d="M260.14,85.66c0-.62.07-.69.62-.69h12.61c.55,0,.62,0,.62.75V122c0,.62,0,.69-.56.69H261.17c-.55,0-.69-.07-.69-.69v-2.28c-2.41,2.9-6.61,3.72-8.88,3.72-9.78,0-17.09-5.16-17.09-14.46,0-8.61,6.82-15.64,16.4-15.64,3.17,0,7.65,1.24,9.23,2.89V85.66ZM248,108.25c0,3.31,3,5.1,6.95,5.1,3.17,0,5.86-2,5.86-5.1,0-2.89-2.83-5-5.86-5-4.27-.07-6.95,2-6.95,5"/><path class="cls-5" d="M334.19,122c0,.48-.14.62-.62.62H319.45c-.55,0-.62,0-.62-.76V85.66c0-.62,0-.69.55-.69H333.5c.55,0,.69.07.69.69Z"/><path class="cls-5" d="M337.22,95.92c-.21-.35-.07-.69.76-.69h14.81c.62,0,.76.14.89.34l5.38,8.68,5.51-8.61c.27-.34.48-.41,1.1-.41s.9,0,1.1.41l5.44,8.34,5.52-8.47c.2-.35.68-.35,1-.35h13.91c.62,0,.76.41.55.76l-17.15,26.86c-.48.83-1.44.83-2.13,0l-8.34-11.36-7.85,11.36a1.29,1.29,0,0,1-2.14,0Z"/><path class="cls-5" d="M450.4,122c0,.48-.14.62-.69.62H435.38c-.55,0-.62,0-.62-.76v-26c0-.62,0-.62.55-.62h14.4c.55,0,.69.07.69.62Zm0-30.73c0,.49-.14.62-.69.62H435.38c-.55,0-.62-.41-.62-.69V85.45c0-.35,0-.69.55-.69h14.4c.55,0,.69.07.69.69Z"/></svg>