<?xml version="1.0" encoding="utf-8"?>
<!-- Generator: Adobe Illustrator 24.0.1, SVG Export Plug-In . SVG Version: 6.00 Build 0)  -->
<svg version="1.1" id="Layer_1" xmlns="http://www.w3.org/2000/svg" xmlns:xlink="http://www.w3.org/1999/xlink" x="0px" y="0px"
	 viewBox="0 0 640 220" style="enable-background:new 0 0 640 220;" xml:space="preserve">
<style type="text/css">
	.st0{fill:#ED1C24;}
	.st1{fill:#484848;}
</style>
<title>logo-</title>
<path class="st0" d="M506.4,84.1l-2.9,5l2.9,5.1h5.8l2.9-5.1l-2.9-5H506.4z M516.4,78.3l-2.9,5l2.9,5h5.8l2.9-5l-2.9-5H516.4z
	 M502.3,78.3h-5.8l-2.9,5l2.9,5h5.8l2.9-5L502.3,78.3z M516.4,76.8h5.8l2.9-5l-2.9-5h-5.8l-2.9,5L516.4,76.8z M502.3,76.8l2.9-5
	l-2.9-5h-5.8l-2.9,5l2.9,5H502.3z M512.3,71.1l2.9-5l-2.9-5h-5.8l-2.9,5l2.9,5H512.3z"/>
<path class="st1" d="M392,78.7c-17.8,0-28,14.6-28,32.4s10.3,32.3,28,32.3s28-14.4,28-32.3S409.8,78.7,392,78.7z M392,136.7
	c-14.1,0-21.2-11.6-21.2-25.6s6.9-25.6,21.2-25.6s21.2,11.5,21.2,25.6S406.2,136.7,392,136.7z"/>
<polygon class="st1" points="341,128.1 292.4,77.2 292.4,142.2 299.3,142.2 299.3,94.2 348,145 348,79.8 341,79.8 "/>
<path class="st1" d="M476.3,142.2h8.7l-19.2-25.6c9.8-1.8,17-7.9,17-18.3v-0.2c0.1-4.6-1.6-9-4.8-12.4c-3.9-3.9-10.1-6.3-17.8-6.3
	h-24.9v62.7h7.1V86.1h17.2c10.1,0,16,4.7,16,12.3v0.2c0,7.9-6.5,12.7-15.6,12.9l0,0l-6.4,0.3L476.3,142.2z"/>
<path class="st1" d="M221.7,142.2h7.6l5-11.9l31.7,0.1l4.9,11.8h7.7l-28-65.3L221.7,142.2z M237.2,124l13.1-30.9l13,30.9H237.2z"/>
<polygon class="st1" points="174.6,133.1 194.3,96.5 203.1,142.2 210.3,142.2 197.5,76.5 174.6,118.9 151.6,76.5 138.8,142.2 
	146,142.2 154.8,96.5 "/>
</svg>
