<?xml version="1.0" encoding="utf-8"?>
<!-- Generator: Adobe Illustrator 24.1.2, SVG Export Plug-In . SVG Version: 6.00 Build 0)  -->
<svg version="1.1" id="Layer_1" xmlns="http://www.w3.org/2000/svg" xmlns:xlink="http://www.w3.org/1999/xlink" x="0px" y="0px"
	 viewBox="0 0 303 150" style="enable-background:new 0 0 303 150;" xml:space="preserve">
<style type="text/css">
	.st0{fill-rule:evenodd;clip-rule:evenodd;fill:url(#SVGID_1_);}
	.st1{fill-rule:evenodd;clip-rule:evenodd;fill:#FFFFFF;}
	.st2{fill:#225FBC;}
</style>
<g>
	<linearGradient id="SVGID_1_" gradientUnits="userSpaceOnUse" x1="151.5" y1="150.1891" x2="151.5" y2="0.2133">
		<stop  offset="0" style="stop-color:#225FBC"/>
		<stop  offset="1" style="stop-color:#1FB2F0"/>
	</linearGradient>
	<polyline class="st0" points="0,150 153.1,150 303,0 0,0 0,150 	"/>
	<path class="st1" d="M179.8,28.2l-29.8,0v70.9l-26.1-70.9H98.1L75.9,87.5c-2.4-15-17.8-20.1-30-24c-8-2.6-16.6-6.4-16.5-10.6
		c0.1-3.4,4.6-6.6,13.5-6.2c6,0.3,11.3,0.8,21.8,5.9l10.4-18.1c-9.6-4.9-22.9-8-33.8-8h-0.1c-12.7,0-23.3,4.1-29.8,10.9
		c-4.6,4.7-7,10.7-7.1,17.4c-0.2,9.2,3.2,15.7,10.3,20.8c5.9,4.4,13.6,7.2,20.3,9.3c8.3,2.6,15,4.8,15,9.5c0,1.7-0.7,3.3-1.9,4.7
		c-2.1,2.1-5.2,2.9-9.6,3c-8.5,0.2-14.7-1.2-24.7-7.1l-9.2,18.3c10,5.7,21.7,9,33.8,9l1.6,0c10.5-0.2,18.9-3.2,25.7-8.6
		c0.4-0.3,0.7-0.6,1.1-0.9l-3,8h27.1l4.6-13.8c4.8,1.6,10.2,2.5,15.9,2.5c5.6,0,10.9-0.9,15.6-2.4l4.4,13.7H175V92.3h9.6
		c23.3,0,37.1-11.9,37.1-31.8C221.7,38.4,208.3,28.2,179.8,28.2z M110.9,88.9c-3.5,0-6.7-0.6-9.6-1.7l9.5-29.8h0.2l9.3,29.9
		C117.5,88.3,114.3,88.9,110.9,88.9z M181.6,71.8H175V47.7h6.6c8.8,0,15.7,2.9,15.7,11.9C197.3,68.9,190.3,71.8,181.6,71.8"/>
	<path class="st2" d="M189.8,140.2c0-4.6,3.5-8.1,7.9-8.1c4.4,0,7.9,3.5,7.9,8.1c0,4.7-3.5,8.1-7.9,8.1
		C193.2,148.4,189.8,144.9,189.8,140.2z M197.7,150c5.3,0,9.8-4.1,9.8-9.8c0-5.6-4.5-9.7-9.8-9.7c-5.4,0-9.9,4.1-9.9,9.7
		C187.8,145.9,192.3,150,197.7,150z M195.6,141h2l3,4.9h1.9l-3.2-4.9c1.6-0.2,2.9-1.1,2.9-3.1c0-2.2-1.3-3.2-4-3.2h-4.3v11.2h1.7
		V141z M195.6,139.6v-3.5h2.3c1.2,0,2.4,0.2,2.4,1.6c0,1.7-1.3,1.8-2.7,1.8H195.6z"/>
</g>
</svg>
