<?xml version="1.0" encoding="utf-8"?>
<!-- Generator: Adobe Illustrator 22.1.0, SVG Export Plug-In . SVG Version: 6.00 Build 0)  -->
<svg version="1.1" id="Layer_1" xmlns="http://www.w3.org/2000/svg" xmlns:xlink="http://www.w3.org/1999/xlink" x="0px" y="0px"
	 viewBox="0 0 640 220" style="enable-background:new 0 0 640 220;" xml:space="preserve">
<style type="text/css">
	.st0{fill:#00AEEF;}
</style>
<title>logo-</title>
<g>
	<path d="M99.5,130.9c-5.1-5.1-7.5-11.6-7.5-19.7s2.4-14.6,7.5-19.4c5.1-5.1,11.9-7.5,20.3-7.5s15.2,2.4,20.3,7.2
		c5.1,4.8,7.5,11,7.5,18.8v3c0,1.5-0.9,2.4-2.4,2.4h-39.4c0.3,3.6,1.8,6.6,4.5,9s6,3.6,9.9,3.6c5.7,0,9.6-2.1,12.2-6
		c1.2-1.5,2.4-2.4,3.3-2.4h7.2c0.6,0,1.2,0.3,1.8,0.6c0.6,0.6,0.6,0.9,0.6,1.8c-0.9,4.5-3.3,8.1-7.8,11c-4.2,3-10.2,4.5-17.6,4.5
		C111.5,138.1,104.6,135.7,99.5,130.9z M110.6,97.8c-2.7,2.4-4.2,5.1-4.5,7.8h27.5c-0.3-2.7-1.8-5.4-4.5-7.8
		c-2.7-2.4-5.7-3.6-9.3-3.6C116.6,94.2,113.3,95.4,110.6,97.8z"/>
	<path d="M199.3,105.2c0-3.3-1.2-6-3.3-8.1c-2.1-2.1-4.8-3.3-8.1-3.3c-2.7,0-5.4,0.6-8.1,1.8c-2.7,1.2-4.8,2.4-6,3.6l-2.1,1.8v32.8
		c0,1.5-0.9,2.4-2.4,2.4H161c-1.5,0-2.4-0.9-2.4-2.4V88.8c0-1.5,0.9-2.4,2.4-2.4h8.4c1.5,0,2.4,0.9,2.4,2.4v3h0.6l0.9-0.9
		c0.3-0.3,1.2-0.9,2.1-1.8c1.2-0.9,2.4-1.5,3.6-2.4c1.2-0.6,3-1.2,4.8-1.8c2.1-0.6,4.2-0.9,6.3-0.9c6.9,0,12.2,2.1,16.4,6
		c4.2,3.9,6.3,9,6.3,15.2v28.7c0,0.6-0.3,1.2-0.9,1.8s-1.2,0.9-1.8,0.9h-8.4c-1.5,0-2.4-0.9-2.4-2.4
		C199.3,134.2,199.3,105.2,199.3,105.2z"/>
	<path d="M210.9,145.8c0-1.5,0.9-2.4,2.4-2.4h1.5c0.6,0,1.5,0.3,3,0.6c1.2,0.3,2.4,0.6,3,0.6c2.4,0,4.2-0.9,5.7-2.4
		c1.5-1.8,2.1-3.9,2.1-6.9V88.8c0-1.8,0.9-2.7,2.7-2.7h8.4c1.5,0,2.4,0.9,2.4,2.4v46.6c0,6-1.8,10.7-5.7,14.3
		c-3.9,3.6-9,5.4-15.5,5.4c-1.2,0-2.4,0-3.6-0.3s-2.1-0.3-2.7-0.6l-0.9-0.3c-1.5-0.6-2.4-1.5-2.4-3v-4.8H210.9z M238.1,65.2
		c2.7,0,3.9,1.2,3.9,3.9v6.3c0,2.7-1.2,3.9-3.9,3.9h-5.7c-2.7,0-3.9-1.2-3.9-3.9v-6.3c0-2.7,1.5-3.9,3.9-3.9H238.1z"/>
	<path d="M303.2,130.9c-5.1,4.8-12.2,7.5-21.2,7.5c-9,0-16.1-2.4-21.2-7.5c-5.1-4.8-7.8-11.3-7.8-19.7c0-8.1,2.7-14.6,7.8-19.7
		C265.9,86.7,273,84,282,84c9,0,16.1,2.4,21.2,7.5c5.1,4.8,7.8,11.3,7.8,19.7C310.9,119.3,308.3,125.8,303.2,130.9z M293.3,98.7
		c-3-3-6.6-4.5-11.3-4.5s-8.4,1.5-11.3,4.5s-4.2,7.2-4.2,12.5c0,5.4,1.5,9.6,4.2,12.5c3,3,6.6,4.5,11.3,4.5c4.8,0,8.4-1.5,11.3-4.5
		c3-3,4.2-7.2,4.2-12.5C297.8,105.8,296.3,101.6,293.3,98.7z"/>
	<path d="M333.3,130.6c-3-3-6-7.8-8.1-14.6L316,88.8c-0.3-0.6-0.3-1.2,0-1.8c0.3-0.6,0.9-0.9,1.5-0.9h9.3c1.5,0,2.4,0.9,3,2.4
		l9,27.5c0.9,2.4,1.8,4.5,3.3,6.3c1.5,1.8,3,2.7,4.5,2.7h3l10.2-36.1c0.6-1.5,1.5-2.4,3-2.4h8.4c0.6,0,1.2,0.3,1.5,0.9
		c0.3,0.3,0.3,0.9,0.3,1.5l-13.1,46.6c-1.5,5.7-4.2,10.2-8.1,13.4c-3.9,3.3-8.4,5.1-13.4,5.1h-7.8c-1.5,0-2.4-0.9-2.4-2.4v-6.3
		c0-1.5,0.9-2.4,2.4-2.4h2.4c0.9,0,1.8,0.3,3,0.6s1.8,0.6,2.4,0.6c3.9,0,6.6-2.7,8.4-8.4C340.8,135.1,336.6,133.6,333.3,130.6z"/>
	<path class="st0" d="M376.6,127c0-0.9,0.3-1.8,0.9-2.4s1.5-0.9,2.4-0.9h6.3c0.9,0,1.8,0.3,2.4,0.9c0.6,0.6,0.9,1.5,0.9,2.4v6
		c0,0.9-0.3,1.8-0.9,2.4c-0.6,0.6-1.5,0.9-2.4,0.9h-6.3c-0.9,0-1.8-0.3-2.4-0.9c-0.6-0.6-0.9-1.5-0.9-2.4V127z"/>
	<path class="st0" d="M411.6,65.2c2.7,0,3.9,1.2,3.9,3.9v6.3c0,2.7-1.2,3.9-3.9,3.9h-5.4c-2.7,0-3.9-1.2-3.9-3.9v-6.3
		c0-2.7,1.2-3.9,3.9-3.9H411.6z M415.5,133.9c0,1.5-0.9,2.4-2.4,2.4h-8.4c-1.5,0-2.4-0.9-2.4-2.4V88.8c0-1.5,0.9-2.4,2.4-2.4h8.4
		c1.5,0,2.4,0.9,2.4,2.4V133.9z"/>
	<path class="st0" d="M470.4,105.2c0-3.3-1.2-6-3.3-8.1s-4.8-3.3-8.1-3.3c-2.7,0-5.4,0.6-8.1,1.8s-4.8,2.4-6,3.6l-2.1,1.8v32.8
		c0,1.5-0.9,2.4-2.4,2.4h-8.4c-1.5,0-2.4-0.9-2.4-2.4V88.8c0-1.5,0.9-2.4,2.4-2.4h8.4c1.5,0,2.4,0.9,2.4,2.4v3h0.6l0.9-0.9
		c0.3-0.3,1.2-0.9,2.1-1.8c1.2-0.9,2.4-1.5,3.6-2.4c1.2-0.6,3-1.2,4.8-1.8c2.1-0.6,4.2-0.9,6.3-0.9c6.9,0,12.2,2.1,16.4,6
		c4.2,3.9,6.3,9,6.3,15.2v28.7c0,0.6-0.3,1.2-0.9,1.8c-0.6,0.6-1.2,0.9-1.8,0.9h-8.4c-1.5,0-2.4-0.9-2.4-2.4V105.2z"/>
	<path class="st0" d="M548.9,131.8c0,6.6-2.4,11.9-7.5,16.4c-5.1,4.5-11.9,6.6-20.3,6.6c-7.5,0-13.4-1.5-17.9-4.5
		c-4.5-3-6.9-6.3-6.9-10.2c0-1.5,0.9-2.4,2.4-2.4h6.9c1.5,0,2.7,0.9,3.9,2.4c2.4,3.3,6.3,4.8,11.6,4.8c4.2,0,7.8-1.2,10.5-3.9
		c2.7-2.7,4.2-5.7,4.2-9.3v-1.5h-0.6c-0.6,0.3-1.2,0.6-1.8,1.2c-0.9,0.6-2.7,0.9-5.1,1.8c-2.7,0.6-5.4,1.2-8.1,1.2
		c-7.8,0-14-2.4-19.1-7.2c-5.1-4.8-7.5-10.5-7.5-17.3c0-7.5,2.7-13.7,8.1-18.5c5.4-4.8,12.8-7.2,22.4-7.2c3.3,0,6.9,0.3,10.7,1.2
		c3.9,0.9,6.6,1.5,8.4,2.4c1.8,0.6,3,1.2,3.3,1.5c1.5,0.6,2.4,1.8,2.4,3.3L548.9,131.8L548.9,131.8z M535.8,96.6
		c-3.6-1.5-7.5-2.4-11.6-2.4c-5.4,0-9.6,1.5-12.5,4.2c-3,2.7-4.5,6.6-4.5,11.3c0,4.2,1.5,7.8,4.2,10.5c3,2.7,6.6,4.2,10.7,4.2
		c2.1,0,4.5-0.3,6.6-1.2c2.4-0.6,4.2-1.5,5.4-2.4l1.8-1.2L535.8,96.6L535.8,96.6z"/>
</g>
</svg>
