<?xml version="1.0" encoding="utf-8"?>
<!-- Generator: Adobe Illustrator 24.0.3, SVG Export Plug-In . SVG Version: 6.00 Build 0)  -->
<svg version="1.1" id="Layer_1" xmlns="http://www.w3.org/2000/svg" xmlns:xlink="http://www.w3.org/1999/xlink" x="0px" y="0px"
	 viewBox="0 0 634.4 151.2" style="enable-background:new 0 0 634.4 151.2;" xml:space="preserve">
<style type="text/css">
	.st0{fill:#B33932;}
	.st1{fill:#484848;}
	.st2{fill:#362A1F;}
</style>
<title>logo-</title>
<path class="st0" d="M87.3,150.8c1.3-2.9,2.3-5.9,3.5-8.8c1.5-3.8,2.9-7.6,4.4-11.4c0.4-1.2,0.4-1.2-0.8-1.1
	c-4,0.3-7.9,0.7-11.9,1.1c-0.7,0-1.4,0.4-1.8,1.1c-1.3,1.9-2.7,3.8-4,5.7c-0.2,0.4-0.7,0.7-1.2,0.7c-1.4,0-2.7,0-4.1,0
	c1.1-2.6,2.2-5.1,3.4-7.6c0.4-0.7,0.4-1.6-0.1-2.4c-1.2-2.3-2.4-4.6-3.5-6.9c-0.1-0.3-0.3-0.6-0.4-1c1.8,0.2,3.4,0.4,5.1,0.6
	c0.4,0,0.6,0.4,0.8,0.7c1,1.5,2.1,3,3.1,4.5c0.2,0.4,0.7,0.6,1.2,0.6c4.3-0.4,8.7-0.8,13-1.2c1.2-0.1,1.2-0.2,0.7-1.2
	c-3.2-6.1-6.3-12.3-9.5-18.4c-0.4-0.8-0.3-0.9,0.6-1.2c2-0.7,3.2-0.1,4.6,1.4c5.2,5.6,10.6,10.9,15.9,16.4c1.1,1.3,2.8,2,4.4,1.8
	c3.3-0.3,6.7-0.3,10-0.1c0.3,0,0.7,0.1,1,0.2c0.6,0.2,1.5,0.4,1.5,1.2s-0.8,1-1.4,1.3c-2,0.7-4.1,1.2-6.2,1.4
	c-2.1,0.3-4.3,0.6-6.4,0.9c-0.6,0-1.2,0.4-1.6,0.9c-4.6,6.2-9.2,12.4-13.8,18.7c-0.5,0.7-1.2,1.2-2.1,1.4c-1.1,0.2-2.2,0.5-3.4,0.8
	c-0.2,0-0.4,0-0.3,0.3L87.3,150.8z"/>
<path class="st1" d="M293.8,12.5c-0.2,0.1-0.4,0-0.5-0.1v-0.1c-0.4,0.1-1.1-0.4-1,0.5h-0.6c-0.5-0.3-1-0.7-1.2,0.2h-0.8
	c-0.4-0.5-0.9-0.5-1.2,0c-0.8,0.5-1.5,0-2.3,0c-3.9-0.2-7.7,0.6-11.5,1.2l-2.2,0.3c-0.4,0-0.7,0-0.6,0.5h-0.6c0-0.1,0.1-0.3-0.1-0.3
	s-0.2,0.1-0.1,0.3c-3.5,0.5-7,0.7-10.5,1c-7.2,0.6-14.4,1.7-21.5,2.8c-8.1,1.3-16.2,2.5-24.4,3.6c-11.3,1.6-22.6,3.4-33.9,5.4
	c-18.2,3.3-36.3,7.1-54.3,11.3c-16.8,4-33.6,7.9-50,13.2c-12,3.8-23.8,8-35.1,13.5c-0.2,0.1-0.7,0.1-0.7,0.5l0,0
	c-0.7,0.1-1.4,0.3-1.9,0.8c-3.4,1.7-6.7,3.4-10,5.3c-5.4,3-10.4,6.7-15,10.8c-3.1,2.7-5.6,6.1-7.4,9.9c-1.4,3-1.5,6.3-0.5,9.4
	c1.2,2.9,3,5.4,5.4,7.4c0.2,0.2,0.4,0.4,0.6,0.1l0.1,0.1c-0.2,0.3,0,0.3,0.3,0.3l0,0c0,0.1,0.1,0.2,0.2,0.2l0,0
	c0,0.1,0.1,0.2,0.2,0.2l0,0c0,0.1,0.1,0.2,0.2,0.2l0,0c0,0.1,0.1,0.2,0.2,0.2l0,0c3.6,2.9,7.6,5.1,12,6.5c0.1,0,0.3,0,0.4,0l0,0
	c0.9,0.6,2,0.9,3.1,0.9c0.5,0,0.9,0.1,1.3,0.4c9.4,3.6,19.2,5.9,29.2,6.9c3.5,0.4,7,1,10.4,1.7c0.7,0.2,1.4,0.4,2,0.7
	c0.3,0.1,0.8,0.3,0.7,0.8s-0.4,0.5-0.8,0.6c-1.2,0.3-2.4,0.5-3.7,0.6c-7.4,0.8-14.6-0.2-21.8-1.5c-8.4-1.3-16.6-3.6-24.4-6.9
	c-5.3-2.2-10.2-5.3-14.5-9.2c-3.7-3.5-6.3-7.6-6.9-12.7c-0.5-4.3,0.5-8.6,2.9-12.3c2.8-4.5,6.5-8.5,10.8-11.8
	c6.3-5,13.3-8.9,20.5-12.5C48.9,56.3,64,50.4,79.6,46c18-5.3,36.4-9.5,54.8-13.4c11.8-2.5,23.6-4.9,35.5-7c10.9-2,21.9-3.8,32.9-5.4
	c10-1.5,20-2.8,30-4c7.3-0.9,14.6-1.8,22-2.3c2-0.2,4.1-0.1,6.2-0.2c0.5,0,1.1-0.1,1.6-0.3c-0.4-0.2-0.8,0-1.1-0.3
	c7.8-0.9,15.7-1.6,23.5-2.1c6-0.4,11.9-1.2,17.9-1.5c4-0.2,7.9-0.5,11.9-0.8c3.8-0.2,7.6-0.7,11.4-1c5.1-0.4,10.2-0.8,15.4-1.1
	l6-0.4c0.2,0,0.5-0.1,0.8,0.1L345,6.7v0.1h6.7V6.4c-0.8-0.6-1.9,0.3-2.7-0.3c2.4-0.3,4.8-0.4,7.2-0.2l0,0L355.4,6
	c-0.4,0.1-1.1-0.4-1,0.5c-8.6,0.9-17.3,1.9-25.9,2.8c-3.7,0.4-7.5,0.4-11.2,0.6c-4.3,0.2-8.4,1.1-12.6,1.7c-1.4,0.2-2.8-0.1-4.1,0
	c-1.8,0.2-3.6,0.4-5.4,0.7C294.5,12.2,293.9,11.8,293.8,12.5z M342,6.8c0.7,0.2,1.5,0.1,2.1-0.2C343.4,6.5,342.7,6.6,342,6.8z"/>
<path class="st0" d="M11.8,110c-0.2,0.2-0.4,0.1-0.6-0.1c-2.4-2-4.2-4.5-5.4-7.4c-1-3.1-0.9-6.4,0.5-9.4c1.7-3.8,4.3-7.2,7.4-9.9
	c4.6-4.2,9.6-7.8,15-10.8c3.2-1.9,6.6-3.6,10-5.3c0.7-0.1,1.4-0.3,1.9-0.8l0,0c1.7-0.6,3.4-1.2,5.1-2c7.1-2.9,14.3-5.5,21.6-7.8
	c7.6-2.5,15.4-4.6,23.2-6.5c7.4-1.8,14.8-3.6,22.3-5.2c8.2-1.8,16.5-3.5,24.8-5.1c5.1-1,10.3-2.1,15.4-3c6-1.1,12.1-2.1,18.2-3.1
	c5-0.8,10.1-1.6,15.1-2.4c3.7-0.6,7.4-1,11.1-1.5s7.4-1,11-1.5c2.7-0.3,5.5-0.7,8.2-1c3.7-0.4,7.4-0.9,11.1-1.3
	c2.4-0.3,4.7-0.4,7.1-0.7s4.9-0.5,7.3-0.8c0.5,0,1.1,0.1,1.6,0.2c1.7,0.1,3.4,0,5-0.5c1.4-0.4,2.9-0.6,4.4-0.7
	c3.5-0.4,6.9-0.6,10.4-0.9c3.3-0.2,6.6-0.4,9.8-0.7c4.3-0.4,8.6-0.8,12.9-1.1s8.3-0.5,12.5-0.9c7.6-0.7,15.2-1.1,22.7-1.7
	c1.9-0.2,3.8-0.2,5.9-0.4c-0.4,0.3-0.9,0.4-1.4,0.3h8.1v0.1l-3.7,0.4c-6.2,0.7-12.5,1.4-18.8,2c-3.5,0.3-7.1,0.4-10.6,0.5
	s-6.8,0.8-10.1,1.3c-1.7,0.3-3.5,0.5-5.2,0.3c-1.9-0.2-3.9,0.4-5.9,0.8l1.7,0.1v-0.1l-12.1,1.4c1-0.6,2-0.2,2.9-0.7
	c-2.7-0.4-8.7,0.2-13.5,1.4c2,0.1,4-0.4,6-0.3l-5.2,0.5l-10.7,1c-2.4,0.2-4.8,0.4-7.1,0.6c-3.4,0.3-6.7,0.8-10,1.3
	c-3,0.4-5.9,0.9-8.9,1.3c-4.5,0.7-9,1.4-13.6,2c-2.8,0.4-5.5,0.7-8.3,1.1c-3.1,0.4-6.2,0.9-9.4,1.3c-3.6,0.6-7.2,1.1-10.9,1.7
	c-5.4,0.9-10.7,1.7-16.1,2.7c-7.2,1.3-14.4,2.8-21.7,4.2c-5.5,1.1-11,2.3-16.5,3.5c-6.5,1.4-13,2.9-19.4,4.5
	c-8.6,2.2-17.1,4-25.5,6.5c-4.8,1.4-9.6,2.9-14.3,4.3c-5.6,1.7-11.1,3.7-16.6,5.9c-3.2,1.3-6.4,2.8-9.6,4.2
	c-2.2,1.1-4.5,2.1-6.7,3.3c-5.5,2.8-10.8,6.1-15.7,9.8c-3.8,3-7.5,6.3-9.6,10.9c-2,4.3-1.6,8.4,1.4,12.1L11.8,110z"/>
<path class="st1" d="M435.2,100.3c-2.4,3.8-6.2,3.8-9.7,3.8c-7.2,0.1-14.4,0.1-21.4,0.1c-1.2,0-2.2-0.1-3.4-0.3
	c-4.7-0.9-7.1-3.2-7.8-8.1c-0.4-2.8-0.4-5.6,0-8.4c0.6-4.1,3.2-6.3,8.2-7.1c2.6-0.4,5.3-0.6,7.9-0.6c6,0.1,12-0.3,18.1,0.3
	c3.2,0.3,6.2,1.2,8.2,4.6c0-2.9,0.1-5.3,0-7.8c-0.3-4.6-1.9-6.6-6.5-7.1c-7.5-0.7-15.1-0.9-22.6-0.1c-3.7,0.3-4.7,1.6-5,5.3
	c0,0.7-0.3,0.9-1,0.9c-1.5,0-3.1,0-4.6,0c-0.9,0-1-0.3-1-1.2c-0.1-6.3,2.6-9.5,9.3-10.4c2.9-0.4,5.9-0.6,9-0.4
	c5.7,0.1,11.3-0.3,17,0.4c0.9,0.1,1.6,0.3,2.5,0.4c6.8,1.6,9.8,5.4,9.8,12.3c0,8.4,0,16.7,0,25.1c0,1.2-0.3,1.5-1.5,1.3
	c-1.3-0.1-2.6-0.1-4,0c-1,0.1-1.5-0.3-1.3-1.3C435.2,101.8,435.2,101,435.2,100.3z M416.7,98.8c4.4,0.1,9-0.1,13.4-0.7
	c4.4-0.9,5.4-2.6,5.1-7.1c0-2.4-1.6-4.3-3.8-4.8c-0.7-0.3-1.5-0.4-2.4-0.4c-7.6-0.6-15.1-0.7-22.8-0.3c-5.4,0.1-6.9,1.8-6.9,7.2
	c0,3.5,1.2,5,4.6,5.6C408.2,99.3,412.6,98.8,416.7,98.8L416.7,98.8z"/>
<path class="st1" d="M302.6,100.5c-2.4,3.7-6,3.8-9.5,3.8c-7.3,0.1-14.7,0.1-21.9,0.1c-1,0-1.9-0.1-2.9-0.3
	c-4.8-0.9-7.3-3.5-7.9-8.5c-0.3-2.2-0.3-4.6-0.1-6.9c0.3-4.8,2.9-7.3,8.4-8.1c1.8-0.3,3.7-0.4,5.4-0.4c6.5-0.1,13.1-0.3,19.5,0.1
	c3.5,0.1,6.8,0.9,9.1,4.1c0-3.2,0.6-6.6-0.3-9.8c-0.9-3.2-3.7-4.4-6.6-4.7c-5.4-0.7-10.9-0.3-16.2-0.3c-1.9-0.1-4,0-5.9,0.3
	c-0.4,0.1-1,0.1-1.5,0.3c-2.2,0.3-3.7,2.4-3.4,4.6c0,1.2-0.3,1.5-1.5,1.5c-1.3-0.1-2.8-0.1-4.1,0c-0.9,0-1.2-0.1-1.2-1.2
	c-0.1-6.3,2.6-9.4,9.3-10.4c2.2-0.3,4.4-0.4,6.5-0.4c6.5,0.1,13.1-0.3,19.5,0.4c1.5,0.1,3.1,0.6,4.6,1c4.6,1.3,7.8,5.4,7.6,10.3
	c0.1,9.1,0,18.2,0.1,27.3c0,0.7-0.3,0.9-0.9,0.9c-1.5,0-3.1-0.1-4.6,0c-1,0-1.2-0.3-1.2-1.2C303,102.1,302.6,101.2,302.6,100.5z
	 M283.5,85.3c-3.8,0.1-8.1-0.3-12.2,0.4c-3.2,0.6-4.3,1.9-4.6,5c-0.4,5.4,1.2,7.3,6.6,7.8c6.2,0.3,12.3,0.3,18.7,0
	c2.5,0,4.8-0.3,7.2-1c1.8-0.4,3.2-1.9,3.4-3.7c0.1-1.3,0.1-2.6,0-3.8c-0.3-1.6-1.3-2.9-2.9-3.5c-1-0.4-2.1-0.7-3.1-0.9
	C292.1,85.3,287.9,85.2,283.5,85.3L283.5,85.3z"/>
<path class="st1" d="M545.1,104.4c-5.3,0-10.6,0.1-15.7-1.2c-6.6-1.8-10.1-5.9-10.6-12.5c-0.3-4.4-0.3-8.8,0-13.1
	c0.6-7.2,4.7-11.5,12.2-12.9c2.6-0.6,5.4-0.7,8.1-0.7c6,0.1,12-0.3,17.9,0.4c1.9,0.3,4,0.7,5.7,1.5c4.6,1.5,7.8,5.6,8.2,10.4
	c0.6,5.1,0.6,10.3,0,15.4c-0.6,6.2-4.4,9.8-10.3,11.5c-4.3,1-8.7,1.5-13.2,1.2C546.9,104.4,546,104.4,545.1,104.4z M543.9,99
	c3.5,0,6.3,0,9.1,0c0.9,0,1.8-0.1,2.6-0.1c5.1-0.4,8.2-3.2,8.8-7.8c0.6-4.6,0.6-9.1,0-13.7c-0.3-3.5-2.8-6.5-6.3-7.2
	c-1.6-0.4-3.4-0.7-5.1-0.6h-16c-1.3,0-2.6,0.1-4,0.3c-4.3,0.4-7.5,4-7.6,8.2c-0.4,4.1-0.4,8.2,0,12.3c0.1,4.1,3.2,7.6,7.3,8.1
	C536.5,99,540.1,99.1,543.9,99L543.9,99z"/>
<path class="st0" d="M174,70.5c2.6-4.7,6.9-6.2,11.8-6.5c5.7-0.3,11.5-0.3,17.3,0c2.6,0.1,5.3,1,7.5,2.5c3.2,2.1,5.1,5.7,5,9.7
	c0,8.8,0,17.6,0,26.4c0,0.9-0.3,1.2-1.2,1.2c-1.3-0.1-2.6-0.1-3.8,0c-1.3,0.1-1.6-0.1-1.6-1.6c0.1-7.8,0-15.6,0-23.2
	c0-0.7-0.1-1.6-0.1-2.4c-0.1-3.1-2.5-5.6-5.4-6.2c-1.5-0.4-2.9-0.7-4.4-0.7c-5.7-0.3-11.5-0.4-17.2,0.7c-5.1,1.2-7.6,4.1-7.6,9.3
	c-0.1,7.5-0.1,15,0,22.5c0,1.3-0.3,1.8-1.6,1.6c-1.6-0.1-3.8,0.7-4.8-0.3c-1-1-0.3-3.1-0.3-4.7c0-16.3,0-32.6,0-48.9
	c0-1.5,0.4-1.9,1.8-1.8c1.2,0.1,2.4,0.1,3.5,0c1.2-0.1,1.5,0.3,1.5,1.5c0,6.5,0,12.9,0,19.4L174,70.5z"/>
<path class="st0" d="M132.7,104.4c-3.8-0.1-7.9,0.3-11.9-0.3c-6.8-0.6-11.9-6.2-12.2-12.9c-0.3-4.6-0.3-9.3,0-13.8
	c0.6-7.3,4.4-11.8,11.8-12.8c8.4-1.2,16.9-1.2,25.3,0c6.2,0.9,9.7,4.4,10.6,10c0.6,3.8,0.6,3.8-3.2,3.8h-0.1c-2.5,0-2.5,0-2.8-2.5
	c-0.1-2.6-1.9-5-4.6-5.7c-1.3-0.4-2.8-0.7-4.3-0.7c-5.4,0-10.9,0-16.5,0c-1,0-2.1,0.1-3.1,0.4c-4.3,0.9-6.2,3.8-6.5,7.8
	c-0.4,4.1-0.4,8.4,0,12.5c0.6,5.3,3.7,8.1,9.3,8.5c6,0.4,12,0.4,18.1,0c4.3-0.3,7.1-2.4,7.9-5.6c0.1-0.9,0.3-1.9,0.1-2.8
	c0-0.6,0.1-0.9,0.9-0.9c1.6,0,3.1,0,4.6,0c0.7,0,0.9,0.3,0.9,1c0.4,7.8-3.8,12.9-11.6,13.7C141.4,104.6,137.1,104.3,132.7,104.4z"/>
<path class="st1" d="M476.8,64.5c4,0,7.8,0,11.8,0c0.9,0,1.5,0.1,1.3,1.3c-0.1,1.2,0.6,3.2-0.3,4s-2.5,0.3-3.8,0.3
	c-6.9,0-13.8,0-20.7,0c-1,0-1.3,0.3-1.3,1.3c0,6.5,0,12.8,0,19.2c0,1,0.1,2.1,0.3,3.1c0.4,2.6,2.6,4.7,5.3,5
	c3.8,0.6,7.8,0.6,11.6-0.1c2.2-0.3,4-2.2,4.3-4.4s0.4-4.6,0.3-6.9c0-0.9,0.1-1.5,1.2-1.3c1.3,0.1,3.2-0.6,4,0.3s0.3,2.6,0.3,4
	c0.1,2.1,0,4.1-0.4,6c-0.4,3.2-2.8,5.9-5.9,6.9c-1.6,0.6-3.4,0.9-5.1,1c-4.4,0.4-8.8,0.3-13.1-0.4c-6.5-1.3-9.5-5.1-9.5-11.8
	c0-6.9,0-13.7,0-20.6c0-1.2-0.3-1.6-1.5-1.5c-2.1,0.1-4.1,0-6.2,0c-0.7,0-1-0.3-0.9-0.9c0-1.2,0-2.4,0-3.5c0-0.9,0.3-1,1-1
	c2.1,0,4,0,6,0c1.2,0,1.6-0.3,1.6-1.5c-0.1-2.2,0-4.4,0-6.8c0-0.9,0.3-1.2,1.2-1.2c1.5,0,2.9,0,4.4,0c0.9,0,1.2,0.1,1.2,1
	c0,2.4,0,4.7,0,7.2c0,0.9,0.3,1.2,1.2,1.2C468.9,64.5,472.8,64.5,476.8,64.5z"/>
<path class="st1" d="M588.8,70.8c2.8-5.6,7.9-6.6,13.4-6.8c5.4-0.1,10.4-0.3,15.6,0.1c1.8,0.1,3.5,0.4,5.1,1.2
	c4.8,1.6,7.9,6.2,7.9,11.2c0,8.8,0,17.5,0,26.3c0,1-0.3,1.2-1.3,1.2c-1.3,0-2.8,0-4.1,0c-1,0-1.2-0.3-1.2-1.2c0-7.6,0-15.4,0-23.1
	c0-0.4,0-0.7,0-1.2c-0.1-4.8-2.1-7.2-6.8-8.2c-5.3-1.2-10.6-0.7-15.9-0.4c-1.6,0.1-3.2,0.3-4.8,0.7c-4.8,1.2-7.2,4-7.3,9
	c-0.1,3.7-0.1,7.5-0.1,11.2c0,4.1,0,8.1,0,12.2c0,0.9-0.3,1.2-1,1c-1.5,0-2.9-0.1-4.4,0c-0.9,0-1.2-0.3-1.2-1.2c0-2.5,0-5,0-7.5
	c0-9.7,0-19.5,0-29.2c0-1.2,0.3-1.5,1.3-1.5c1.3,0.1,2.6,0.1,3.8,0c0.7,0,1,0.3,1,1C588.8,67.3,588.8,69,588.8,70.8z"/>
<path class="st1" d="M341.2,98.3l9.7-17.3c2.9-5.1,5.7-10.1,8.7-15.3c0.3-0.7,1-1.3,1.9-1.2c1.8,0.1,3.7,0,5.4,0
	c0.3,0.6-0.1,1-0.4,1.3c-6.9,12.2-13.8,24.5-20.7,36.7c-0.3,0.9-1.2,1.3-2.1,1.2c-1.2-0.1-2.5-0.1-3.7,0c-2.1,0.3-3.2-0.6-4.3-2.4
	c-6.6-11.9-13.4-23.7-20-35.6c-0.1-0.4-0.4-0.7-0.7-1.3h6.5c0.9,0,0.9,0.7,1.3,1.3c5.7,10.1,11.5,20.1,17.2,30.4
	C340.3,96.8,340.8,97.4,341.2,98.3z"/>
<path class="st1" d="M500,84.1c0-6,0-11.9,0-17.9c0-1.5,0.4-1.8,1.8-1.6c1.2,0.1,2.4,0.1,3.5,0s1.5,0.3,1.5,1.5c0,7.1,0,14,0,21
	c0,5.1,0,10.3,0,15.6c0,1-0.1,1.5-1.3,1.3c-1.3-0.1-2.6-0.1-4,0c-1.2,0.1-1.5-0.1-1.5-1.3C500,96.3,500,90.2,500,84.1z"/>
<path class="st1" d="M374.7,84.1c0-6.2,0-12.2,0-18.4c0-1,0.1-1.5,1.3-1.3c1.3,0.1,2.6,0.1,4,0c1,0,1.5,0.1,1.5,1.3
	c0,6.5,0,12.9,0,19.4c0,5.7,0,11.5,0,17.3c0,0.9-0.1,1.3-1.2,1.3c-1.5-0.1-2.9-0.1-4.3,0c-1,0.1-1.2-0.3-1.2-1.3
	C374.9,96.3,374.7,90.3,374.7,84.1z"/>
<path class="st1" d="M506.6,51.8c0,3.5,0,3.5-3.7,3.5c-3.1,0-3.1,0-3.1-3.1c0-1,0-2.1,0-3.1c0-1,0.3-1.2,1.2-1.2c1.5,0,2.9,0,4.4,0
	c0.9,0,1.3,0.3,1.2,1.2C506.6,50.1,506.6,50.9,506.6,51.8z"/>
<path class="st1" d="M381.5,51.8c0,3.5,0,3.5-3.7,3.5c-3.1,0-3.1,0-3.1-3.1c0-1.3-0.4-3.1,0.3-4c0.7-0.9,2.5-0.3,3.8-0.3
	c2.6,0,2.6,0,2.6,2.6L381.5,51.8L381.5,51.8z"/>
<path class="st1" d="M377.2,5.6L346,8.2V7.8c4.7-0.5,9.4-1.5,14.2-1.3c3.5,0,7-0.3,10.5-0.8c1.5-0.2,3-0.3,4.4-0.5
	C375.8,5,376.6,5.2,377.2,5.6z"/>
<path class="st0" d="M361.4,16.8c-11.6,1.5-23.3,2.3-35,3.1c1.7-0.5,3.4-0.8,5.1-1c3.4-0.5,6.9-0.7,10.4-0.7c3.8,0,7.6-0.7,11.4-1.1
	c0.9-0.2,1.7-0.1,2.6,0.1c1.1,0.3,2.1-0.2,3.2-0.2C359.9,17.1,360.7,17,361.4,16.8z"/>
<path class="st0" d="M408.2,12.7l-15.9,0.9c5.2-1,10.6-0.8,15.8-1.3L408.2,12.7z"/>
<path class="st1" d="M432.8,0c-5.2,0.8-10.5,0.6-15.7,1.1C422.3,0.2,427.5,0.5,432.8,0z"/>
<path class="st0" d="M362.4,16.8c4.1-0.8,8.2-1.2,12.4-1C370.6,16,366.5,16.6,362.4,16.8z"/>
<path class="st0" d="M339.5,17.6c-3.8,0.8-7.7-0.1-11.6,0.4C331.8,17.4,335.7,17.2,339.5,17.6z"/>
<path class="st1" d="M392.2,4l-4.6,0.5c-1.7,0.2-3.4,0.3-5.1,0.4C385.9,4.6,389.2,3.3,392.2,4z"/>
<path class="st2" d="M356,5.7L356,5.7c0.6-0.1,1.2-0.1,1.7,0c0,0,0,0.1,0,0.2l0,0c-1.1,0.6-2.4,0.3-3.5,0.5c-0.1-0.9,0.7-0.4,1-0.5
	c0.5,0.4,1,0.2,1.6,0.1C356.6,5.4,356.2,5.8,356,5.7z"/>
<path class="st0" d="M365.5,14.7c1.3-0.3,2.7-0.1,4.1-0.3C368.3,15,366.8,14.7,365.5,14.7z"/>
<path class="st1" d="M397.7,3.6c-1.5,0-2.9,0.1-4.4,0.2C394.8,3.6,396.3,3.5,397.7,3.6z"/>
<path class="st0" d="M261.2,12.9c0.3,0.3,0.7,0.1,1.1,0.3c-0.5,0.2-1.1,0.3-1.6,0.3c-0.7-0.4-1.5,0-2.4-0.3L261.2,12.9z"/>
<path class="st0" d="M293.8,12.5c0.1-0.8,0.6-0.4,1-0.5c0.8,0.6,1.7,0.2,2.5,0.1C296.2,12.4,295,12.5,293.8,12.5z"/>
<path class="st0" d="M271.8,15c-0.1-0.5,0.2-0.5,0.6-0.5c0.9,0.5,1.8,0,2.8,0C274.1,14.8,272.9,15,271.8,15z"/>
<path class="st0" d="M278.8,14.2c-1.1,0.5-2.3,0.2-3.4,0.5C276.6,14.4,277.7,14.2,278.8,14.2z"/>
<path class="st0" d="M25.3,117.7c0.2,0-0.5-0.8,0.3-0.4c0.5,0.1,1,0.4,1.4,0.7C26.3,118.1,25.8,117.5,25.3,117.7L25.3,117.7z"/>
<path class="st2" d="M357.7,5.8c0,0,0-0.1,0-0.2l0,0c0.7-0.1,1.4-0.1,2.1,0C359.1,5.6,358.5,6.1,357.7,5.8z"/>
<path class="st0" d="M288.4,13c0.4-0.5,0.8-0.5,1.2,0C289.2,13.5,288.8,13.1,288.4,13z"/>
<path class="st0" d="M290.4,13c0.3-1,0.8-0.6,1.2-0.2C291.3,13,290.9,13,290.4,13z"/>
<path class="st0" d="M292.3,12.8c0-0.9,0.7-0.4,1-0.5C293.2,12.9,292.7,12.8,292.3,12.8z"/>
<path class="st0" d="M246.3,24.2c0.4-0.2,0.9-0.2,1.4-0.1C247.3,24.3,246.8,24.3,246.3,24.2z"/>
<path class="st0" d="M270.9,15.1c-0.1-0.2,0-0.3,0.1-0.3s0.1,0.2,0.1,0.3H270.9z"/>
<path class="st0" d="M24.8,117h-0.2h-0.1H24.8C24.7,117,24.8,117,24.8,117z"/>
<path class="st0" d="M12.1,110.4c-0.2,0-0.4,0-0.3-0.3C12,110.1,12.1,110.2,12.1,110.4z"/>
<path class="st2" d="M255.4,13.5l0.2,0.1c-0.1,0.1-0.2,0.1-0.2,0.1l-0.1-0.1L255.4,13.5z"/>
<path class="st0" d="M12.9,111.2c-0.1,0-0.2-0.1-0.2-0.2l0,0C12.8,111,12.9,111,12.9,111.2L12.9,111.2z"/>
<path class="st0" d="M12.7,111c-0.1,0-0.2-0.1-0.2-0.2S12.7,110.8,12.7,111z"/>
<path class="st0" d="M12.5,110.8c-0.1,0-0.2-0.1-0.2-0.2S12.5,110.6,12.5,110.8z"/>
<path class="st0" d="M12.3,110.6c-0.1,0-0.2-0.1-0.2-0.2S12.3,110.4,12.3,110.6z"/>
<path class="st2" d="M342,6.8c0.7-0.2,1.4-0.3,2.1-0.2C343.5,6.9,342.7,7,342,6.8z"/>
<path class="st2" d="M40.5,66.3c-0.5,0.5-1.2,0.8-1.9,0.8C39.2,66.6,39.9,66.3,40.5,66.3z"/>
<path class="st2" d="M356,5.7c0.2,0.1,0.6-0.3,0.8,0.2c-0.6,0-1.1,0.3-1.6-0.1L356,5.7z"/>
</svg>
