<svg id="Layer_1" data-name="Layer 1" xmlns="http://www.w3.org/2000/svg" viewBox="0 0 640 220"><defs><style>.cls-1{fill:#231f20;}.cls-2{fill:#e95298;}.cls-3{fill:#4fade1;}.cls-4{fill:#d3d827;}</style></defs><title>logo-</title><path class="cls-1" d="M193.25,157.2a3.75,3.75,0,0,1,1.12-1.39A4.75,4.75,0,0,1,196,155a8.18,8.18,0,0,1,2.11-.26,9.54,9.54,0,0,1,1.76.17,4.25,4.25,0,0,1,1.57.63,3.43,3.43,0,0,1,1.13,1.3A4.75,4.75,0,0,1,203,159v7.06a.86.86,0,0,0,1,1,1.46,1.46,0,0,0,.52-.1v1.36l-.5.08a4.53,4.53,0,0,1-.56,0,2.5,2.5,0,0,1-1-.16,1.38,1.38,0,0,1-.58-.48,1.73,1.73,0,0,1-.27-.73,6.91,6.91,0,0,1-.06-.95h-.06a9.16,9.16,0,0,1-.89,1.15,4.18,4.18,0,0,1-1,.84,4.75,4.75,0,0,1-1.26.51,7,7,0,0,1-1.69.18,6.91,6.91,0,0,1-1.74-.21,4,4,0,0,1-1.42-.7,3.35,3.35,0,0,1-1-1.21,4.06,4.06,0,0,1-.35-1.74,3.47,3.47,0,0,1,.62-2.18,4,4,0,0,1,1.64-1.2,9.83,9.83,0,0,1,2.29-.58l2.59-.32a8.8,8.8,0,0,0,.9-.13,1.6,1.6,0,0,0,.65-.27,1.19,1.19,0,0,0,.39-.53,2.12,2.12,0,0,0,.15-.87,3,3,0,0,0-.27-1.35,2,2,0,0,0-.75-.84,3,3,0,0,0-1.11-.43,8.2,8.2,0,0,0-1.35-.11,4.12,4.12,0,0,0-2.53.73,2.91,2.91,0,0,0-1,2.36h-1.62A5.31,5.31,0,0,1,193.25,157.2Zm8.11,4a.93.93,0,0,1-.59.41,4.88,4.88,0,0,1-.77.18c-.69.12-1.4.23-2.13.32a12,12,0,0,0-2,.43,4,4,0,0,0-1.49.81,2,2,0,0,0-.57,1.51,2.39,2.39,0,0,0,.24,1.09,2.63,2.63,0,0,0,.66.83,2.82,2.82,0,0,0,.95.52,3.49,3.49,0,0,0,1.11.18,5.57,5.57,0,0,0,1.78-.28,4.45,4.45,0,0,0,1.48-.82,4,4,0,0,0,1.38-3.07v-2.11Z"/><path class="cls-1" d="M207.78,155.14v3.12h.05a4.88,4.88,0,0,1,5-3.3v1.62a5,5,0,0,0-2,.3,4.52,4.52,0,0,0-1.56,1,4.46,4.46,0,0,0-1,1.53,5.17,5.17,0,0,0-.36,1.95v7.08h-1.62V155.14Z"/><path class="cls-1" d="M219.68,155.14v1.36H217v9a2.86,2.86,0,0,0,.22,1.25c.14.3.51.47,1.09.5a12.81,12.81,0,0,0,1.39-.07v1.36l-.72,0-.72,0a3.23,3.23,0,0,1-2.27-.63,3.17,3.17,0,0,1-.61-2.33v-9.1H213v-1.36h2.32v-4H217v4Z"/><path class="cls-1" d="M222.42,155.14l3.4,11.39h.05l3.24-11.39h1.83l3.25,11.39h.05l3.4-11.39h1.73l-4.28,13.29h-1.78L230,157.25h0l-3.25,11.18H225l-4.28-13.29Z"/><path class="cls-1" d="M249.43,155.32a5.82,5.82,0,0,1,2,1.52,6.33,6.33,0,0,1,1.21,2.23,9,9,0,0,1,0,5.43,6.33,6.33,0,0,1-1.21,2.23,5.67,5.67,0,0,1-2,1.51,6.85,6.85,0,0,1-5.38,0,5.58,5.58,0,0,1-2-1.51,6.51,6.51,0,0,1-1.22-2.23,9.19,9.19,0,0,1,0-5.43,6.51,6.51,0,0,1,1.22-2.23,5.73,5.73,0,0,1,2-1.52,6.63,6.63,0,0,1,5.38,0Zm-4.73,1.29a4.28,4.28,0,0,0-1.45,1.29,5.75,5.75,0,0,0-.88,1.81,7.57,7.57,0,0,0,0,4.15,5.91,5.91,0,0,0,.88,1.82A4.5,4.5,0,0,0,244.7,167a4.21,4.21,0,0,0,2,.48,4.14,4.14,0,0,0,2-.48,4.53,4.53,0,0,0,1.46-1.29,5.91,5.91,0,0,0,.88-1.82,7.57,7.57,0,0,0,0-4.15,5.75,5.75,0,0,0-.88-1.81,4.31,4.31,0,0,0-1.46-1.29,4,4,0,0,0-2-.49A4.11,4.11,0,0,0,244.7,156.61Z"/><path class="cls-1" d="M256.94,155.14v3.12H257a5.14,5.14,0,0,1,1.92-2.5A5,5,0,0,1,262,155v1.62a5,5,0,0,0-2,.3,4.52,4.52,0,0,0-1.56,1,4.46,4.46,0,0,0-1,1.53,5.17,5.17,0,0,0-.36,1.95v7.08h-1.62V155.14Z"/><path class="cls-1" d="M265.19,150v11.54l7.37-6.44h2.16l-5.67,4.92,6.06,8.37h-2l-5.25-7.24-2.63,2.19v5.05h-1.63V150Z"/><path class="cls-1" d="M285.26,150v18.39h-1.62V150Z"/><path class="cls-1" d="M290,150v2.6H288.4V150Zm0,5.1v13.29H288.4V155.14Z"/><path class="cls-1" d="M295.64,156.5v11.93H294V156.5h-2.27v-1.36H294v-1.21a8.52,8.52,0,0,1,.13-1.57,3.07,3.07,0,0,1,.49-1.24,2.32,2.32,0,0,1,1-.8,3.94,3.94,0,0,1,1.61-.28l.67,0,.7.08v1.39l-.62-.09a3.64,3.64,0,0,0-.57,0,2.08,2.08,0,0,0-1,.21,1.27,1.27,0,0,0-.53.55,2.19,2.19,0,0,0-.19.81c0,.31,0,.65,0,1v1.16h2.63v1.36Z"/><path class="cls-1" d="M301,164a4.94,4.94,0,0,0,.78,1.69,4.54,4.54,0,0,0,1.37,1.24,3.87,3.87,0,0,0,2,.48,3.92,3.92,0,0,0,2.78-.92,4.94,4.94,0,0,0,1.4-2.48H311a6.52,6.52,0,0,1-1.89,3.51,5.69,5.69,0,0,1-3.91,1.23,6.2,6.2,0,0,1-2.72-.55,5.05,5.05,0,0,1-1.86-1.52,6.38,6.38,0,0,1-1.07-2.24,9.87,9.87,0,0,1-.35-2.69,9.34,9.34,0,0,1,.35-2.58,6.83,6.83,0,0,1,1.07-2.26,5.33,5.33,0,0,1,1.86-1.59,5.69,5.69,0,0,1,2.72-.61,5.41,5.41,0,0,1,2.73.65,5.54,5.54,0,0,1,1.85,1.68,7,7,0,0,1,1,2.4,10.53,10.53,0,0,1,.26,2.74H300.77A6.93,6.93,0,0,0,301,164Zm8-5a4.94,4.94,0,0,0-.84-1.51,4,4,0,0,0-1.32-1,3.7,3.7,0,0,0-1.75-.4,3.8,3.8,0,0,0-1.78.4,4.05,4.05,0,0,0-1.31,1,5.26,5.26,0,0,0-.86,1.52,7.38,7.38,0,0,0-.43,1.77h8.61A6.22,6.22,0,0,0,309.06,159.08Z"/><path class="cls-1" d="M321.33,157a3.51,3.51,0,0,0-2.52-.85,4.08,4.08,0,0,0-2,.49,4.28,4.28,0,0,0-1.45,1.29,5.75,5.75,0,0,0-.88,1.81,7.33,7.33,0,0,0,0,4.15,5.91,5.91,0,0,0,.88,1.82,4.5,4.5,0,0,0,1.45,1.29,4.18,4.18,0,0,0,2,.48,3.6,3.6,0,0,0,1.42-.28,3.91,3.91,0,0,0,1.18-.78,4.34,4.34,0,0,0,.85-1.2,4.5,4.5,0,0,0,.41-1.52h1.63a6.18,6.18,0,0,1-1.78,3.77,5.21,5.21,0,0,1-3.71,1.35,6.19,6.19,0,0,1-2.69-.55,5.71,5.71,0,0,1-2-1.51,6.67,6.67,0,0,1-1.21-2.23,9.19,9.19,0,0,1,0-5.43,6.67,6.67,0,0,1,1.21-2.23,5.86,5.86,0,0,1,2-1.52,6,6,0,0,1,2.69-.57,5.78,5.78,0,0,1,3.62,1.14,4.8,4.8,0,0,1,1.76,3.42h-1.62A4.44,4.44,0,0,0,321.33,157Z"/><path class="cls-1" d="M326.8,155.14l4.38,11.34,4.09-11.34h1.63l-5.78,15.3a13.72,13.72,0,0,1-.67,1.41,3,3,0,0,1-.68.87,2.3,2.3,0,0,1-.87.47,5,5,0,0,1-1.28.14l-.76,0a1.71,1.71,0,0,1-.48-.09v-1.37l.56.1a4.93,4.93,0,0,0,.55,0,2.26,2.26,0,0,0,.89-.15,2,2,0,0,0,.61-.43,2.53,2.53,0,0,0,.43-.65l.39-.85.57-1.5-5.31-13.24Z"/><path class="cls-1" d="M346.64,157a3.55,3.55,0,0,0-2.53-.85,4,4,0,0,0-2,.49,4.31,4.31,0,0,0-1.46,1.29,5.75,5.75,0,0,0-.88,1.81,7.57,7.57,0,0,0,0,4.15,5.91,5.91,0,0,0,.88,1.82,4.53,4.53,0,0,0,1.46,1.29,4.14,4.14,0,0,0,2,.48,3.6,3.6,0,0,0,1.42-.28,3.91,3.91,0,0,0,1.18-.78,4.14,4.14,0,0,0,.85-1.2,4.51,4.51,0,0,0,.42-1.52h1.62a6.12,6.12,0,0,1-1.78,3.77,5.21,5.21,0,0,1-3.71,1.35,6.22,6.22,0,0,1-2.69-.55,5.67,5.67,0,0,1-2-1.51,6.33,6.33,0,0,1-1.21-2.23,9,9,0,0,1,0-5.43,6.33,6.33,0,0,1,1.21-2.23,5.82,5.82,0,0,1,2-1.52,6.08,6.08,0,0,1,2.69-.57,5.76,5.76,0,0,1,3.62,1.14,4.81,4.81,0,0,1,1.77,3.42h-1.63A4.43,4.43,0,0,0,346.64,157Z"/><path class="cls-1" d="M353.52,150v18.39h-1.63V150Z"/><path class="cls-1" d="M357.83,164a5,5,0,0,0,.79,1.69A4.5,4.5,0,0,0,360,167a3.88,3.88,0,0,0,2,.48,3.94,3.94,0,0,0,2.78-.92,4.92,4.92,0,0,0,1.39-2.48h1.62a6.46,6.46,0,0,1-1.89,3.51,5.67,5.67,0,0,1-3.9,1.23,6.17,6.17,0,0,1-2.72-.55,5,5,0,0,1-1.87-1.52,6.55,6.55,0,0,1-1.07-2.24,10.28,10.28,0,0,1-.35-2.69,9.73,9.73,0,0,1,.35-2.58,7,7,0,0,1,1.07-2.26,5.27,5.27,0,0,1,1.87-1.59,5.66,5.66,0,0,1,2.72-.61,5.29,5.29,0,0,1,4.57,2.33,7.19,7.19,0,0,1,1,2.4,11,11,0,0,1,.26,2.74H357.59A7.35,7.35,0,0,0,357.83,164Zm8-5a4.94,4.94,0,0,0-.84-1.51,4.05,4.05,0,0,0-1.31-1,3.73,3.73,0,0,0-1.75-.4,3.77,3.77,0,0,0-1.78.4,4,4,0,0,0-1.31,1,5.28,5.28,0,0,0-.87,1.52,7.86,7.86,0,0,0-.42,1.77h8.6A5.6,5.6,0,0,0,365.87,159.08Z"/><path class="cls-1" d="M378.66,155.14v2.24h.08a5.06,5.06,0,0,1,1.69-1.93,4.65,4.65,0,0,1,2.67-.7,4.53,4.53,0,0,1,2.38.65,3.17,3.17,0,0,1,1.43,1.95,4.07,4.07,0,0,1,1.75-1.95,5,5,0,0,1,2.47-.65q4.41,0,4.41,4.67v9h-1.62v-8.94a3.89,3.89,0,0,0-.7-2.51,3,3,0,0,0-2.45-.86,3.46,3.46,0,0,0-1.75.4,3.08,3.08,0,0,0-1.11,1.07,4.73,4.73,0,0,0-.58,1.53,9.46,9.46,0,0,0-.16,1.79v7.52h-1.63v-9a5.29,5.29,0,0,0-.14-1.28,3,3,0,0,0-.46-1.06,2.27,2.27,0,0,0-.87-.71,3,3,0,0,0-1.31-.25,4,4,0,0,0-1.79.37,3.29,3.29,0,0,0-1.24,1,4.6,4.6,0,0,0-.71,1.55,7.88,7.88,0,0,0-.23,1.94v7.42h-1.62V155.14Z"/><path class="cls-1" d="M399,157.2a3.75,3.75,0,0,1,1.12-1.39,4.66,4.66,0,0,1,1.66-.8,8.18,8.18,0,0,1,2.11-.26,9.54,9.54,0,0,1,1.76.17,4.25,4.25,0,0,1,1.57.63,3.43,3.43,0,0,1,1.13,1.3,4.75,4.75,0,0,1,.44,2.18v7.06a.86.86,0,0,0,.95,1,1.46,1.46,0,0,0,.52-.1v1.36l-.5.08a4.62,4.62,0,0,1-.56,0,2.5,2.5,0,0,1-1-.16,1.38,1.38,0,0,1-.58-.48,1.73,1.73,0,0,1-.27-.73,6.82,6.82,0,0,1-.07-.95h-.05a10.2,10.2,0,0,1-.89,1.15,4.18,4.18,0,0,1-1,.84,4.75,4.75,0,0,1-1.26.51,7,7,0,0,1-1.69.18,6.91,6.91,0,0,1-1.74-.21,4,4,0,0,1-1.42-.7,3.35,3.35,0,0,1-.95-1.21,4.06,4.06,0,0,1-.35-1.74,3.47,3.47,0,0,1,.62-2.18,4,4,0,0,1,1.64-1.2,9.83,9.83,0,0,1,2.29-.58l2.59-.32a8.8,8.8,0,0,0,.9-.13,1.5,1.5,0,0,0,.64-.27,1.14,1.14,0,0,0,.4-.53,2.12,2.12,0,0,0,.15-.87,3,3,0,0,0-.27-1.35,2.11,2.11,0,0,0-.75-.84,3,3,0,0,0-1.11-.43,8.2,8.2,0,0,0-1.35-.11,4.1,4.1,0,0,0-2.53.73,2.91,2.91,0,0,0-1,2.36h-1.62A5.31,5.31,0,0,1,399,157.2Zm8.11,4a.93.93,0,0,1-.59.41,4.88,4.88,0,0,1-.77.18c-.69.12-1.4.23-2.13.32a12,12,0,0,0-2,.43,3.94,3.94,0,0,0-1.49.81,2,2,0,0,0-.58,1.51,2.4,2.4,0,0,0,.25,1.09,2.63,2.63,0,0,0,.66.83,2.82,2.82,0,0,0,.95.52,3.49,3.49,0,0,0,1.11.18,5.57,5.57,0,0,0,1.78-.28,4.45,4.45,0,0,0,1.48-.82,4,4,0,0,0,1.38-3.07v-2.11Z"/><path class="cls-1" d="M413.6,155.14v2.29h0a3.88,3.88,0,0,1,1.65-1.94,4.86,4.86,0,0,1,2.61-.74,6.59,6.59,0,0,1,2.33.36,3.74,3.74,0,0,1,1.51,1,3.86,3.86,0,0,1,.79,1.61,8.81,8.81,0,0,1,.24,2.14v8.55h-1.63v-8.29a8,8,0,0,0-.15-1.59,3.39,3.39,0,0,0-.54-1.27,2.6,2.6,0,0,0-1-.85,3.73,3.73,0,0,0-1.63-.31,4.13,4.13,0,0,0-1.74.34,3.76,3.76,0,0,0-1.29,1,4.23,4.23,0,0,0-.82,1.44,5.94,5.94,0,0,0-.33,1.82v7.75H412V155.14Z"/><path class="cls-1" d="M426.18,157.2a3.75,3.75,0,0,1,1.12-1.39A4.66,4.66,0,0,1,429,155a8.13,8.13,0,0,1,2.11-.26,9.35,9.35,0,0,1,1.75.17,4.23,4.23,0,0,1,1.58.63,3.43,3.43,0,0,1,1.13,1.3A4.75,4.75,0,0,1,436,159v7.06a.86.86,0,0,0,.95,1,1.46,1.46,0,0,0,.52-.1v1.36c-.19,0-.36.06-.51.08a4.36,4.36,0,0,1-.55,0,2.5,2.5,0,0,1-1-.16,1.38,1.38,0,0,1-.58-.48,1.73,1.73,0,0,1-.27-.73,6.82,6.82,0,0,1-.07-.95h-.05a10.2,10.2,0,0,1-.89,1.15,4.18,4.18,0,0,1-1,.84,4.75,4.75,0,0,1-1.26.51,7,7,0,0,1-1.69.18,6.91,6.91,0,0,1-1.74-.21,4,4,0,0,1-1.42-.7,3.35,3.35,0,0,1-.95-1.21,4.06,4.06,0,0,1-.35-1.74,3.47,3.47,0,0,1,.62-2.18,4,4,0,0,1,1.64-1.2,9.83,9.83,0,0,1,2.29-.58l2.59-.32a8.8,8.8,0,0,0,.9-.13,1.5,1.5,0,0,0,.64-.27,1.14,1.14,0,0,0,.4-.53,2.14,2.14,0,0,0,.14-.87,3,3,0,0,0-.27-1.35,2.09,2.09,0,0,0-.74-.84,3,3,0,0,0-1.11-.43,8.2,8.2,0,0,0-1.35-.11,4.1,4.1,0,0,0-2.53.73,2.88,2.88,0,0,0-1,2.36h-1.62A5.31,5.31,0,0,1,426.18,157.2Zm8.11,4a.93.93,0,0,1-.59.41,4.88,4.88,0,0,1-.77.18c-.69.12-1.4.23-2.13.32a12,12,0,0,0-2,.43,3.94,3.94,0,0,0-1.49.81,2,2,0,0,0-.58,1.51,2.4,2.4,0,0,0,.25,1.09,2.63,2.63,0,0,0,.66.83,2.82,2.82,0,0,0,1,.52,3.49,3.49,0,0,0,1.11.18,5.47,5.47,0,0,0,1.77-.28,4.4,4.4,0,0,0,1.49-.82,3.95,3.95,0,0,0,1.37-3.07v-2.11Z"/><path class="cls-1" d="M450.13,170a5.3,5.3,0,0,1-1,2,4.47,4.47,0,0,1-1.82,1.26,7.56,7.56,0,0,1-2.74.44,8,8,0,0,1-2-.24,5.25,5.25,0,0,1-1.71-.72,4.2,4.2,0,0,1-1.27-1.25,3.84,3.84,0,0,1-.58-1.81h1.63a2.86,2.86,0,0,0,.5,1.25,3.16,3.16,0,0,0,.9.81,4.31,4.31,0,0,0,1.17.45,6.43,6.43,0,0,0,1.32.14,3.89,3.89,0,0,0,3.27-1.29,5.92,5.92,0,0,0,1-3.71v-1.8h-.06a4.71,4.71,0,0,1-1.66,2,4.41,4.41,0,0,1-2.56.75,6.42,6.42,0,0,1-2.73-.53A5.1,5.1,0,0,1,440,166.3a5.93,5.93,0,0,1-1.07-2.18,10.44,10.44,0,0,1-.34-2.67,8.51,8.51,0,0,1,.4-2.59,6.69,6.69,0,0,1,1.16-2.14,5.46,5.46,0,0,1,1.88-1.44,6,6,0,0,1,2.57-.53,4.56,4.56,0,0,1,1.4.21,4.45,4.45,0,0,1,1.2.58,5.29,5.29,0,0,1,1,.86,4,4,0,0,1,.65,1h.06v-2.29h1.62v12.21A10.37,10.37,0,0,1,450.13,170Zm-3.73-3.55a4.11,4.11,0,0,0,1.34-1.18,5.42,5.42,0,0,0,.82-1.69,7.19,7.19,0,0,0,.27-2,8.28,8.28,0,0,0-.24-2,5.58,5.58,0,0,0-.74-1.77,4,4,0,0,0-1.33-1.29,3.72,3.72,0,0,0-2-.49,4,4,0,0,0-2,.47,4.29,4.29,0,0,0-1.36,1.25,5.47,5.47,0,0,0-.79,1.77,8.52,8.52,0,0,0-.24,2,7.18,7.18,0,0,0,.26,2,5,5,0,0,0,.79,1.69,4.22,4.22,0,0,0,1.37,1.18,4,4,0,0,0,2,.45A3.7,3.7,0,0,0,446.4,166.46Z"/><path class="cls-1" d="M454.74,164a4.77,4.77,0,0,0,.79,1.69,4.5,4.5,0,0,0,1.36,1.24,3.87,3.87,0,0,0,2,.48,4,4,0,0,0,2.79-.92,4.92,4.92,0,0,0,1.39-2.48h1.62a6.46,6.46,0,0,1-1.89,3.51,5.68,5.68,0,0,1-3.91,1.23,6.15,6.15,0,0,1-2.71-.55,5,5,0,0,1-1.87-1.52,6.55,6.55,0,0,1-1.07-2.24,10.28,10.28,0,0,1-.35-2.69,9.73,9.73,0,0,1,.35-2.58,7,7,0,0,1,1.07-2.26,5.27,5.27,0,0,1,1.87-1.59,5.65,5.65,0,0,1,2.71-.61,5.29,5.29,0,0,1,4.58,2.33,7.19,7.19,0,0,1,1,2.4,10.52,10.52,0,0,1,.25,2.74H454.49A7.37,7.37,0,0,0,454.74,164Zm8-5a4.94,4.94,0,0,0-.84-1.51,4.05,4.05,0,0,0-1.31-1,4.09,4.09,0,0,0-3.53,0,4,4,0,0,0-1.32,1,5.26,5.26,0,0,0-.86,1.52,7.38,7.38,0,0,0-.43,1.77h8.61A5.9,5.9,0,0,0,462.78,159.08Z"/><path class="cls-1" d="M468.41,155.14v2.24h.08a5,5,0,0,1,1.68-1.93,4.69,4.69,0,0,1,2.67-.7,4.5,4.5,0,0,1,2.38.65,3.13,3.13,0,0,1,1.43,1.95,4.09,4.09,0,0,1,1.76-1.95,5,5,0,0,1,2.47-.65q4.41,0,4.41,4.67v9h-1.63v-8.94A4,4,0,0,0,483,157a3,3,0,0,0-2.45-.86,3.41,3.41,0,0,0-1.75.4,2.93,2.93,0,0,0-1.11,1.07,4.31,4.31,0,0,0-.58,1.53,9.45,9.45,0,0,0-.17,1.79v7.52h-1.62v-9a5.84,5.84,0,0,0-.14-1.28,3,3,0,0,0-.47-1.06,2.24,2.24,0,0,0-.86-.71,3.06,3.06,0,0,0-1.31-.25,4,4,0,0,0-1.8.37,3.33,3.33,0,0,0-1.23,1,4.42,4.42,0,0,0-.71,1.55,7.43,7.43,0,0,0-.23,1.94v7.42h-1.63V155.14Z"/><path class="cls-1" d="M489.58,164a4.94,4.94,0,0,0,.78,1.69,4.54,4.54,0,0,0,1.37,1.24,3.87,3.87,0,0,0,2,.48,3.92,3.92,0,0,0,2.78-.92,4.94,4.94,0,0,0,1.4-2.48h1.62a6.53,6.53,0,0,1-1.9,3.51,5.65,5.65,0,0,1-3.9,1.23,6.2,6.2,0,0,1-2.72-.55,5.17,5.17,0,0,1-1.87-1.52,6.54,6.54,0,0,1-1.06-2.24,9.87,9.87,0,0,1-.35-2.69,9.34,9.34,0,0,1,.35-2.58,7,7,0,0,1,1.06-2.26,5.45,5.45,0,0,1,1.87-1.59,5.69,5.69,0,0,1,2.72-.61,5.29,5.29,0,0,1,4.57,2.33,6.81,6.81,0,0,1,1,2.4,10.53,10.53,0,0,1,.26,2.74H489.33A6.93,6.93,0,0,0,489.58,164Zm8-5a4.72,4.72,0,0,0-.83-1.51,4,4,0,0,0-1.32-1,3.7,3.7,0,0,0-1.75-.4,3.8,3.8,0,0,0-1.78.4,4.05,4.05,0,0,0-1.31,1,5.26,5.26,0,0,0-.86,1.52,7.38,7.38,0,0,0-.43,1.77h8.61A5.9,5.9,0,0,0,497.61,159.08Z"/><path class="cls-1" d="M503.35,155.14v2.29h0a3.88,3.88,0,0,1,1.65-1.94,4.85,4.85,0,0,1,2.6-.74,6.52,6.52,0,0,1,2.33.36,3.67,3.67,0,0,1,1.51,1,3.88,3.88,0,0,1,.8,1.61,9.36,9.36,0,0,1,.23,2.14v8.55H510.9v-8.29a7.26,7.26,0,0,0-.16-1.59,3.24,3.24,0,0,0-.54-1.27,2.57,2.57,0,0,0-1-.85,3.81,3.81,0,0,0-1.64-.31,4.19,4.19,0,0,0-1.74.34,4,4,0,0,0-1.29,1,4.4,4.4,0,0,0-.82,1.44,5.65,5.65,0,0,0-.32,1.82v7.75h-1.63V155.14Z"/><path class="cls-1" d="M520.87,155.14v1.36h-2.71v9a3,3,0,0,0,.22,1.25c.15.3.51.47,1.1.5a12.94,12.94,0,0,0,1.39-.07v1.36l-.72,0-.72,0a3.21,3.21,0,0,1-2.27-.63,3.16,3.16,0,0,1-.62-2.33v-9.1h-2.32v-1.36h2.32v-4h1.62v4Z"/><path class="cls-1" d="M144.9,73.64A23.62,23.62,0,0,1,154,75.21a17,17,0,0,1,6.12,4.12,15.66,15.66,0,0,1,3.44,5.84,21.82,21.82,0,0,1,0,13.56,15.58,15.58,0,0,1-3.44,5.88,17.11,17.11,0,0,1-6.12,4.13,23.81,23.81,0,0,1-9.12,1.56H131.69v20.48H119.13V73.64Zm-3.44,26.89a25.6,25.6,0,0,0,4.16-.32A9.5,9.5,0,0,0,149.14,99a6.73,6.73,0,0,0,2.44-2.6,11,11,0,0,0,0-8.8,6.73,6.73,0,0,0-2.44-2.6,9.68,9.68,0,0,0-3.52-1.24,26.77,26.77,0,0,0-4.16-.32h-9.77v17.12Z"/><path class="cls-1" d="M195.07,73.64l21.37,57.14h-13l-4.32-12.72H177.71l-4.48,12.72H160.58l21.61-57.14Zm.72,35.06-7.2-21h-.16l-7.44,21Z"/><path class="cls-1" d="M231,116.7a9.08,9.08,0,0,0,2.76,3.24,11.8,11.8,0,0,0,4,1.84,19,19,0,0,0,4.8.6,24.55,24.55,0,0,0,3.6-.28,12.74,12.74,0,0,0,3.6-1.08,7.88,7.88,0,0,0,2.8-2.2,5.49,5.49,0,0,0,1.12-3.56,5,5,0,0,0-1.48-3.76,11.77,11.77,0,0,0-3.88-2.4,39.9,39.9,0,0,0-5.44-1.69q-3-.72-6.16-1.6a52.73,52.73,0,0,1-6.25-2,21.35,21.35,0,0,1-5.44-3,14.1,14.1,0,0,1-3.88-4.6,13.94,13.94,0,0,1-1.48-6.68,15,15,0,0,1,1.88-7.64,17.19,17.19,0,0,1,4.92-5.4,21.69,21.69,0,0,1,6.89-3.21,29.41,29.41,0,0,1,7.68-1,36.69,36.69,0,0,1,8.6,1A21.35,21.35,0,0,1,257,76.53a16.26,16.26,0,0,1,5.08,5.72A17.46,17.46,0,0,1,264,90.69H251.81a10.19,10.19,0,0,0-1.08-4.24,7.07,7.07,0,0,0-2.44-2.64,10.13,10.13,0,0,0-3.48-1.36,21.25,21.25,0,0,0-4.28-.4,14.21,14.21,0,0,0-3,.32,8,8,0,0,0-2.76,1.12,6.83,6.83,0,0,0-2,2,5.31,5.31,0,0,0-.8,3,5.09,5.09,0,0,0,.64,2.72,5.68,5.68,0,0,0,2.52,1.92,31.86,31.86,0,0,0,5.2,1.76c2.21.59,5.11,1.34,8.68,2.24,1.07.22,2.55.6,4.44,1.16A21.44,21.44,0,0,1,259,101a17.24,17.24,0,0,1,4.85,4.92,14.05,14.05,0,0,1,2,7.89,17.52,17.52,0,0,1-1.52,7.28,15.94,15.94,0,0,1-4.53,5.8,21.56,21.56,0,0,1-7.44,3.8,35.07,35.07,0,0,1-10.28,1.36A36.22,36.22,0,0,1,233,130.9a22.84,22.84,0,0,1-7.85-3.64,18,18,0,0,1-5.4-6.32,18.94,18.94,0,0,1-1.92-9.12H230A10.41,10.41,0,0,0,231,116.7Z"/><path class="cls-1" d="M298.3,73.64h5.05l22.32,53.22h.16l22.09-53.22h5v57.14h-3.52V78h-.16l-21.77,52.81H324L302,78h-.16v52.81H298.3Z"/><path class="cls-1" d="M363,73.64h38.42v3h-34.9V99.57h32.81v3H366.56v25.13h35.3v3H363Z"/><path class="cls-1" d="M407.86,73.64h18.72a29.75,29.75,0,0,1,12.77,2.41,21.56,21.56,0,0,1,8.12,6.4,24.41,24.41,0,0,1,4.28,9.12A44.55,44.55,0,0,1,453,102.13a39.58,39.58,0,0,1-1.56,11.33,24.56,24.56,0,0,1-4.84,9.08,22.84,22.84,0,0,1-8.28,6,29.35,29.35,0,0,1-11.89,2.2H407.86Zm18.88,54.1a27.26,27.26,0,0,0,8.05-1.24,19.58,19.58,0,0,0,7.32-4.16,21.21,21.21,0,0,0,5.32-7.84,32.5,32.5,0,0,0,2-12.37,37.74,37.74,0,0,0-1.16-10,24.61,24.61,0,0,0-3-7A15.85,15.85,0,0,0,441,80.65a20.85,20.85,0,0,0-5-2.52A23.8,23.8,0,0,0,430.7,77a43.16,43.16,0,0,0-4.68-.28H411.38v51.05Z"/><path class="cls-1" d="M461.23,73.64h3.52v57.14h-3.52Z"/><path class="cls-1" d="M491.8,73.64h3.84l22.57,57.14h-3.76l-7.2-18.32H479.88l-7.28,18.32h-3.77Zm14.33,35.78L493.88,77.09h-.16L481,109.42Z"/><rect class="cls-2" x="276.57" y="72.28" width="8.69" height="19.69"/><rect class="cls-3" x="276.57" y="91.97" width="8.69" height="19.69"/><rect class="cls-4" x="276.57" y="111.66" width="8.69" height="19.69"/></svg>