<?xml version="1.0" encoding="utf-8"?>
<!-- Generator: Adobe Illustrator 24.0.3, SVG Export Plug-In . SVG Version: 6.00 Build 0)  -->
<svg version="1.1" id="Layer_1" xmlns="http://www.w3.org/2000/svg" xmlns:xlink="http://www.w3.org/1999/xlink" x="0px" y="0px"
	 viewBox="0 0 174.3 157.2" style="enable-background:new 0 0 174.3 157.2;" xml:space="preserve">
<style type="text/css">
	.st0{fill:#E51E25;}
	.st1{fill-rule:evenodd;clip-rule:evenodd;fill:#FFFFFF;}
</style>
<title>logo-</title>
<path id="_Path_" class="st0" d="M139.4,0H0v157.2h174.3V34.9C174.3,15.6,158.6,0,139.4,0C139.4,0,139.4,0,139.4,0z"/>
<g id="_Group_">
	<path id="_Path_2" class="st1" d="M49.3,106.2v-9.9c0,0-12.8-2.2-14.4,7.6c-0.2,1.6-0.3,3.2-0.3,4.9H32v9h2.6v22H45v-31.1
		C45,108.7,44.7,106.2,49.3,106.2z"/>
	<polygon id="_Path_3" class="st1" points="17.5,139.7 27.8,139.7 27.8,108.8 17.5,108.8 	"/>
	<path id="_Path_4" class="st1" d="M17.5,104.8h10.4v-8.7c0,0-4.6,0.1-7.6,2.7C18.5,100.3,17.5,102.5,17.5,104.8z"/>
	<path id="_Path_5" class="st1" d="M155.9,130c-2.9,0-5.2,2.4-5.2,5.3c0,2.9,2.4,5.2,5.3,5.2l0,0c2.9,0,5.2-2.4,5.2-5.3
		C161.2,132.3,158.8,130,155.9,130z"/>
	<path id="_Path_6" class="st1" d="M150.8,108.4c-6.2-0.6-10.5,0.6-12.6,3.1c-2.7,3.2-2.3,7.9-2.3,7.9v20.3h10.4v-19
		c0,0,0-1.4,0.9-2c1.2-0.4,2.4-0.6,3.6-0.5V108.4z"/>
	<path id="_Path_7" class="st1" d="M94.5,128.7V96.1H84.1v34c0,5.5,2.4,8.5,5.9,9.8c3.8,1.3,8.9-0.1,8.9-0.1v-9.3c0,0-1.5-0.1-2-0.1
		C95.8,130.4,94.8,129.7,94.5,128.7z"/>
	<path id="_Compound_Path_" class="st1" d="M64.3,108.1c-10.1,0-16,8.6-16,16.2c-0.1,8.9,7,16.2,15.9,16.3c8.9,0.1,16.2-7,16.3-15.9
		C80.5,114.9,73.1,108.1,64.3,108.1z M64.3,130.1c-3.1,0-5.7-2.4-5.8-5.5c-0.2-3.1,2.1-5.8,5.2-6c0.2,0,0.3,0,0.5,0
		c3.1,0,5.7,2.4,5.8,5.6c0.2,3.1-2.2,5.8-5.3,6C64.6,130.1,64.5,130.1,64.3,130.1L64.3,130.1z"/>
	<path id="_Compound_Path_2" class="st1" d="M116.1,108.1c-10.1,0-16.1,8.6-16.1,16.2c-0.1,8.9,7,16.2,15.9,16.3
		c8.9,0.1,16.2-7,16.3-15.9C132.3,114.9,125,108.1,116.1,108.1z M116.3,130.1c-3.1,0-5.7-2.4-5.8-5.5c-0.2-3.1,2.1-5.8,5.2-6
		c0.1,0,0.3,0,0.4,0c3.2,0,5.8,2.5,5.8,5.7C122,127.4,119.5,130,116.3,130.1L116.3,130.1L116.3,130.1z"/>
</g>
</svg>
