<?xml version="1.0" encoding="utf-8"?>
<!-- Generator: Adobe Illustrator 24.0.3, SVG Export Plug-In . SVG Version: 6.00 Build 0)  -->
<svg version="1.1" id="Layer_1" xmlns="http://www.w3.org/2000/svg" xmlns:xlink="http://www.w3.org/1999/xlink" x="0px" y="0px"
	 viewBox="0 0 323.4 60" style="enable-background:new 0 0 323.4 60;" xml:space="preserve">
<style type="text/css">
	.st0{fill:#484848;}
</style>
<title>logo-</title>
<path class="st0" d="M30.2,59H20L0,1h11.5l13.4,43.1L38.8,1h11.1L30.2,59z"/>
<path class="st0" d="M81.5,18.2c3.2,1.8,5.7,4.5,7.4,7.7c1.9,3.7,2.8,7.7,2.7,11.8c0.1,4.1-0.8,8.2-2.7,11.8
	c-1.7,3.2-4.3,5.9-7.4,7.7c-6.7,3.6-14.7,3.6-21.4,0c-3.2-1.8-5.7-4.5-7.4-7.7c-1.9-3.7-2.8-7.7-2.7-11.8c-0.1-4.1,0.8-8.2,2.7-11.8
	c1.7-3.2,4.3-5.9,7.4-7.7C66.7,14.6,74.8,14.6,81.5,18.2z M63.2,28.5c-1.8,2.3-2.8,5.3-2.8,9.2c0,4.1,1,7.3,2.9,9.4s4.7,3.3,7.5,3.2
	c2.9,0.1,5.6-1.1,7.4-3.4c1.9-2.2,2.8-5.3,2.8-9.2c0-4.1-1-7.3-2.9-9.4s-4.6-3.3-7.5-3.2C67.8,25,65,26.3,63.2,28.5z"/>
<path class="st0" d="M132.9,19.6c2.4,2.7,3.6,6.7,3.5,11.9V59h-10.3V32.4c0.1-2.1-0.6-4.1-2-5.7c-1.5-1.4-3.5-2.1-5.5-2
	c-2.6-0.1-5.2,1-6.9,3c-1.7,2-2.5,4.7-2.5,8.2v23H98.9V16.3h10.2v6.2c1.2-2.1,2.9-3.9,5-5.1c2.5-1.3,5.2-2,8-1.8
	C127,15.5,130.6,16.9,132.9,19.6z"/>
<path class="st0" d="M168,59h-6.7c-2.4,0.1-4.9-0.3-7.2-1.2c-1.9-0.8-3.5-2.3-4.4-4.2c-1.2-2.7-1.7-5.6-1.5-8.6V25.5h-7.8v-9.3h7.8
	V6.6l10.3-2.9v12.5h8.5v9.3h-8.5v20c-0.1,1.2,0.2,2.3,0.9,3.2c0.6,0.7,1.7,1.1,3.4,1.1h5.2L168,59z"/>
<path class="st0" d="M201.9,18.2c3.2,1.8,5.7,4.5,7.4,7.7c3.6,7.5,3.6,16.2,0,23.7c-1.7,3.2-4.3,5.9-7.4,7.7
	c-6.7,3.6-14.7,3.6-21.4,0c-3.2-1.8-5.8-4.5-7.4-7.7c-1.9-3.7-2.8-7.7-2.7-11.8c-0.1-4.1,0.8-8.2,2.7-11.8c1.7-3.2,4.3-5.9,7.4-7.7
	C187.2,14.6,195.2,14.6,201.9,18.2z M183.6,28.5c-1.9,2.3-2.8,5.3-2.8,9.2c0,4.1,1,7.3,2.9,9.4s4.7,3.3,7.5,3.2
	c2.9,0.1,5.6-1.1,7.4-3.4c1.8-2.2,2.8-5.3,2.8-9.2c0-4.1-1-7.3-2.9-9.4s-4.7-3.3-7.5-3.2C188.2,25,185.4,26.3,183.6,28.5z"/>
<path class="st0" d="M252.1,18c2.9,1.8,5.3,4.4,6.7,7.5c1.8,3.7,2.6,7.9,2.5,12c0.1,4.3-0.8,8.5-2.6,12.3c-1.5,3.1-4,5.8-7,7.6
	c-2.9,1.7-6.2,2.5-9.6,2.5c-2.6,0-5.1-0.5-7.5-1.5c-2.1-0.9-4-2.5-5.2-4.5v5.2h-10.1V0h10.4v22.5c1.2-2.2,3-4.1,5.2-5.2
	c2.4-1.2,5.1-1.9,7.9-1.8C246.1,15.5,249.3,16.3,252.1,18z M247.8,47.4c2.1-2.2,3.1-5.4,3.1-9.6c0-4.1-1-7.3-3.1-9.6
	c-1.9-2.2-4.7-3.4-7.6-3.4c-1.9,0-3.7,0.5-5.3,1.5c-1.7,1-3.1,2.6-4,4.4c-2,4.5-2,9.7,0,14.2c0.9,1.8,2.3,3.3,4,4.4
	c1.6,1,3.5,1.5,5.3,1.5C243.1,50.8,245.9,49.6,247.8,47.4L247.8,47.4z"/>
<path class="st0" d="M276,40.8c-0.1,2.9,1.1,5.7,3.3,7.6c3.9,3,9.2,3.5,13.5,1.2c1.7-0.9,2.9-2.5,3.4-4.3h9.4
	c-0.5,2.9-1.8,5.6-3.7,7.9c-1.8,2.2-4.2,3.9-6.8,5c-6,2.5-12.8,2.2-18.5-0.7c-3.2-1.7-5.8-4.3-7.6-7.4c-2-3.8-3-8-2.9-12.3
	c-0.1-4.2,0.8-8.4,2.8-12.1c1.7-3.2,4.3-5.9,7.5-7.6s6.7-2.6,10.3-2.6c3.4,0,6.7,0.8,9.7,2.4s5.4,4.1,6.9,7.1
	c1.8,3.6,2.7,7.6,2.5,11.6v4.2H276z M279.7,26.6c-2,1.6-3.3,4-3.5,6.6h19.4c0.1-2.4-0.8-4.8-2.5-6.5c-1.8-1.6-4.2-2.5-6.7-2.4
	C284,24.4,281.6,25.2,279.7,26.6z"/>
<path class="st0" d="M323.4,59h-10.3V0h10.3V59z"/>
</svg>
