<svg id="Layer_1" data-name="Layer 1" xmlns="http://www.w3.org/2000/svg" viewBox="0 0 640 220"><defs><style>.cls-1{fill:#fff;}.cls-2{fill:#395b93;}.cls-3{fill:#bc334b;}.cls-4{fill:#2c2a29;}.cls-5{fill:#2e2d2b;}.cls-6{fill:#414040;}</style></defs><title>logo-</title><path class="cls-1" d="M441.18,127.71c-.63,0-1.34,0-1.25.8s.7.82,1.31.4l9.33-.39c.93.75,2.23,1.32,2.6-.12.29-1.17-1.14-.76-1.93-.73-1.12-4.6-1-9.28-.91-14,.17-7.86,3.89-10.22,11.08-6.91a16.22,16.22,0,0,0,0-2.8c-.35-1.83,1.19-4.4-1.09-5.37a7.72,7.72,0,0,0-7.8,1.07c-.6.45-1.06,1.09-1.65,1.56a4.48,4.48,0,0,1-1.15.47c-2.06-5.54-6.45-.93-9-2.65A48.38,48.38,0,0,1,441.18,127.71Zm-246-.26c-.45.35-1.2.64-1.29,1.07-.19.87.63.74,1.19.74h12.53c-1.43-1.32-2.17-2-2.9-2.69-1.59-10-.59-20-.77-30-.17-9.64,0-9.65-10.75-9.1,3.58,2.35,3.22,5.63,3.24,8.75,0,8.2,0,16.4,0,24.6A14.08,14.08,0,0,1,195.13,127.45ZM545,108.34l.1-2.75c1.09-1.24,2.58-.82,3.86-.71,2.38.2,3.12-.62,3.1-3s-.94-3-3-2.68c-2.74.38-4.33-.32-3.85-3.55.33-2.23-.93-3.14-2.54-1.5-3.14,3.2-6.62,6.14-9.51,10.53,4.54-.47,5.07,1.78,4.86,5.12A126.92,126.92,0,0,0,538,123c.21,5.16,2.86,7.13,8.64,6.73s5.91-.71,5.59-7.12c-6.46,1.41-6.8,1.13-7-5.62C545.19,114.09,545.05,111.21,545,108.34ZM471,104.88c2.36-.48,4.65-1.38,7.14-1.14,2.27.22,5.06.17,5.27,3.11s-2.49,2.92-4.55,3.36c-3.54.74-7.26.78-10.58,2.43a8.41,8.41,0,0,0-4.73,9.8c1,4.65,4.62,7.3,10.1,7.4,4.15.08,7.55-.86,7.72-6-.56-1.95-1.27-.67-2-.09l-6.18.12-1.92-1.82c-.75-3.13.52-5,3.6-5.66,1.63-.35,3.39-.34,4.91-1,3.52-1.41,3.87.12,3.84,3.21-.09,9.84,0,9.84,9.51,10.26.21,0,.42-.25,1-.6-2.62-1.56-2.76-4.09-2.8-6.67-.06-4.25-.06-8.51-.23-12.76-.12-3-.14-6.15-3.19-8a3.43,3.43,0,0,0-2.8-1.64c-4.26-1.73-8.52-1.35-12.79,0-5.36.33-5.63.75-4.7,7.88Zm28.65,23.59a23.41,23.41,0,0,0,8.47,0c.58,1,1.45.74,2.3.5l-1.76-1.23c.52-1.22,0-2.39-.12-3.58-.49-4.86-.93-9.74.35-14.53a6.19,6.19,0,0,1,6.22-5c2.63-.08,4.94,1,5.18,3.48.66,7,2,14.06-1.68,20.74h13c-3.54-2.5-3.4-5.57-3.45-8.55-.08-3.81,0-7.62-.06-11.42C528,100.17,521,95.66,513,99.12a34.21,34.21,0,0,0-4.58,2.87c-2.19-5.24-6.71-1.74-9.35-2.72,2.87,9.34,2.38,18.81.51,28.34-.72,0-1.77-.07-1.46,1S499.21,129.3,499.69,128.47ZM311.44,94.77C302.7,86,294.1,77.39,285.63,68.68c-2.05-2.11-2.84-.26-3.91.8-8.87,8.79-17.75,17.57-26.51,26.46a8,8,0,0,1-6.4,2.63c-7.61-.16-15.23.07-22.84-.11-2.83-.07-3.65.81-3.59,3.61q.26,12.09,0,24.21c0,2.69.92,3.27,3.43,3.25,11.72-.12,23.45-.09,35.17,0a6.63,6.63,0,0,0,5.17-2.25c7.27-7.37,15-14.31,21.85-22.06,6.19-7,12.75-11.89,22.61-9.94C310.71,95.3,310.84,95.15,311.44,94.77Zm-55.21,38.52c8.66,8.77,17.18,17.24,25.5,25.89,2.09,2.18,3,.68,4.32-.59,8.85-8.82,17.75-17.58,26.49-26.5a8.37,8.37,0,0,1,6.81-2.75c7.15.17,14.32-.07,21.47.12,3,.09,4.34-.49,4.22-3.9-.25-7.76-.21-15.54,0-23.3.08-3-.78-3.89-3.83-3.85-11.27.19-22.54.15-33.81,0a7.63,7.63,0,0,0-6,2.51c-7.27,7.38-15.06,14.28-21.87,22-6.19,7-12.75,11.87-22.6,10C256.79,132.94,256.65,133.08,256.23,133.29ZM87.73,129h13.68a9.33,9.33,0,0,1-2.89-6.8c0-8.67,0-17.35,0-26,0-.88-.29-1.85.58-2.54,2-1.57,9.15.16,10.9,2.63,2.19,3.08,1,7.33-2.47,9.38-2.09,1.23-4.42.77-7.14,1.28,3.55,5.9,6.9,11.63,10.4,17.28s6.16,6.6,13,4.5c-4.59-5.69-8.21-12.07-12.15-18.24,6.62-4.17,8.82-8.4,7.46-14-1.27-5.2-5.46-8.56-12.33-9-6.24-.38-12.53-.08-19.07-.08C91.47,92.42,91.44,124.1,87.73,129Zm300-21.13c4.79,4.08,3,8.75,3.23,13,.09,1.34-1.32,1.56-2.28,1.85-5.65,1.71-11,1.16-15.21-3.25-5-5.3-5.44-11.75-2.88-18.3,2.13-5.44,6.31-8.35,12.3-8.59,4.51-.18,8.56,1.26,12.51,3.52.79-8,.79-8-6.14-9.46C378,84.33,368.38,88.09,363.7,97c-4.23,8-4.2,16.23.83,23.84,5.29,8,13.47,10,22.46,9,12.1-1.31,12.09-1.46,12.11-13.23,0-8.82,0-8.82-8.76-8.73C389.78,107.89,389.21,107.88,387.69,107.88ZM177.13,123c-1.28.4-2.36.85-3.49,1.08-2.83.55-5.84.69-6.62-2.84s2-4.31,4.67-4.82a18.09,18.09,0,0,0,2.67-.57c3.8-1.31,5.32-.56,5.21,4-.23,9.32.06,9.33,9.34,9.34.2,0,.4-.24,1-.62-3-1.87-2.83-4.81-2.87-7.67,0-4,.05-7.91-.09-11.86-.25-7.09-3.7-10.31-10.85-10.74-3.87-.23-7.48,1.2-11.27,1.21-1.32,0-1.41.85-1.48,1.78-.16,1.91-.31,3.81-.53,6.47,4.12-3,8.05-4.32,12.42-3.71,1.81.25,3.87.74,4,3s-1.95,2.78-3.75,3.17c-3.55.77-7.23,1.15-10.65,2.31-4.42,1.49-6.39,5.38-5.59,9.73.9,4.89,4.63,7.74,10.24,7.86C174,130.23,177.23,128.77,177.13,123Zm-24.73-2.24c-1.84,1-3.24,1.85-4.76,2.46-5.88,2.35-11.42.8-13.57-3.67-1.19-2.47-1.23-3.87,2.28-3.72,5.17.24,10.37-.15,15.53.1,3.05.15,3.5-1.09,3.38-3.69-.36-7.68-5.57-13.31-13.1-13.88-8.06-.61-14.56,4.09-16.18,11.7-2.69,12.61,5.62,21.52,18.69,20.06C151.78,129.32,152.3,128.73,152.4,120.76Zm271.23,2.18a46,46,0,0,1-5.26,1.11c-2.41.21-4.78-.24-5.31-3.09s1.49-4,4-4.54c2.78-.57,5.57-1.1,8.59-1.7,0,1.7,0,3.06,0,4.43,0,9.73,0,9.74,9.57,9.75.19,0,.38-.38.76-.79-2.46-1.37-2.73-3.78-2.78-6.23-.08-3.35-.11-6.7-.12-10,0-11.12-3.56-14.42-14.67-13.55a34.79,34.79,0,0,0-4,.69c-5.52,1.12-5.94,1.86-4.54,7.9,4.62-2.7,8.12-3.64,11.62-3.05,1.85.31,3.88.81,4,3s-1.91,2.85-3.71,3.23c-3.13.66-6.33,1-9.4,1.83-5.24,1.45-7.45,4.73-6.92,9.71s3.86,7.81,9.34,8.21C420.63,130.23,421.75,129.4,423.63,122.94Z"/><path class="cls-2" d="M311.44,94.77c-.6.38-.73.53-.83.51-9.86-2-16.42,2.92-22.61,9.94-6.83,7.75-14.58,14.69-21.85,22.06a6.63,6.63,0,0,1-5.17,2.25c-11.72-.09-23.45-.12-35.17,0-2.51,0-3.48-.56-3.43-3.25q.24-12.11,0-24.21c-.06-2.8.76-3.68,3.59-3.61,7.61.18,15.23,0,22.84.11a8,8,0,0,0,6.4-2.63c8.76-8.89,17.64-17.67,26.51-26.46,1.07-1.06,1.86-2.91,3.91-.8C294.1,77.39,302.7,86,311.44,94.77Z"/><path class="cls-3" d="M256.23,133.29c.42-.21.56-.35.67-.33,9.85,1.9,16.41-2.92,22.6-10,6.81-7.77,14.6-14.67,21.87-22a7.63,7.63,0,0,1,6-2.51c11.27.13,22.54.17,33.81,0,3.05,0,3.91.84,3.83,3.85-.19,7.76-.23,15.54,0,23.3.12,3.41-1.21,4-4.22,3.9-7.15-.19-14.32,0-21.47-.12a8.37,8.37,0,0,0-6.81,2.75c-8.74,8.92-17.64,17.68-26.49,26.5-1.28,1.27-2.23,2.77-4.32.59C273.41,150.53,264.89,142.06,256.23,133.29Z"/><path class="cls-4" d="M87.73,129c3.71-4.91,3.74-36.59,0-41.53,6.54,0,12.83-.3,19.07.08,6.87.41,11.06,3.77,12.33,9,1.36,5.55-.84,9.78-7.46,14,3.94,6.17,7.56,12.55,12.15,18.24-6.82,2.1-9.41,1.28-13-4.5s-6.85-11.38-10.4-17.28c2.72-.51,5,0,7.14-1.28,3.48-2,4.66-6.3,2.47-9.38-1.75-2.47-8.92-4.2-10.9-2.63-.87.69-.58,1.66-.58,2.54,0,8.67,0,17.35,0,26a9.33,9.33,0,0,0,2.89,6.8Z"/><path class="cls-4" d="M387.69,107.88c1.52,0,2.09,0,2.65,0,8.78-.09,8.78-.09,8.76,8.73,0,11.77,0,11.92-12.11,13.23-9,1-17.17-1-22.46-9-5-7.61-5.06-15.82-.83-23.84,4.68-8.89,14.29-12.65,25.52-10.36,6.93,1.41,6.93,1.41,6.14,9.46-3.95-2.26-8-3.7-12.51-3.52-6,.24-10.17,3.15-12.3,8.59-2.56,6.55-2.12,13,2.88,18.3,4.17,4.41,9.56,5,15.21,3.25,1-.29,2.37-.51,2.28-1.85C390.65,116.63,392.48,112,387.69,107.88Z"/><path class="cls-5" d="M177.13,123c.1,5.77-3.1,7.23-7.65,7.13-5.61-.12-9.34-3-10.24-7.86-.8-4.35,1.17-8.24,5.59-9.73,3.42-1.16,7.1-1.54,10.65-2.31,1.8-.39,3.87-.78,3.75-3.17s-2.18-2.77-4-3c-4.37-.61-8.3.76-12.42,3.71.22-2.66.37-4.56.53-6.47.07-.93.16-1.77,1.48-1.78,3.79,0,7.4-1.44,11.27-1.21,7.15.43,10.6,3.65,10.85,10.74.14,4,0,7.91.09,11.86,0,2.86-.1,5.8,2.87,7.67-.6.38-.8.62-1,.62-9.28,0-9.57,0-9.34-9.34.11-4.55-1.41-5.3-5.21-4a18.09,18.09,0,0,1-2.67.57c-2.71.51-5.43,1.38-4.67,4.82s3.79,3.39,6.62,2.84C174.77,123.85,175.85,123.4,177.13,123Z"/><path class="cls-5" d="M152.4,120.76c-.1,8-.62,8.56-7.73,9.36-13.07,1.46-21.38-7.45-18.69-20.06,1.62-7.61,8.12-12.31,16.18-11.7,7.53.57,12.74,6.2,13.1,13.88.12,2.6-.33,3.84-3.38,3.69-5.16-.25-10.36.14-15.53-.1-3.51-.15-3.47,1.25-2.28,3.72,2.15,4.47,7.69,6,13.57,3.67C149.16,122.61,150.56,121.72,152.4,120.76Zm-11.93-10.32a10,10,0,0,0,2.26,0c1.48-.34,3.84,1.1,4.28-1s-1.43-3.54-3.23-4.5a6.6,6.6,0,0,0-6.9.28c-1.58,1-3.3,2.54-2.94,4.24.44,2.12,2.8.69,4.27,1A10.65,10.65,0,0,0,140.47,110.44Z"/><path class="cls-4" d="M423.63,122.94c-1.88,6.46-3,7.29-8.88,6.86-5.48-.4-8.83-3.34-9.34-8.21s1.68-8.26,6.92-9.71c3.07-.84,6.27-1.17,9.4-1.83,1.8-.38,3.88-.91,3.71-3.23s-2.18-2.69-4-3c-3.5-.59-7,.35-11.62,3.05-1.4-6-1-6.78,4.54-7.9a34.79,34.79,0,0,1,4-.69c11.11-.87,14.65,2.43,14.67,13.55,0,3.35,0,6.7.12,10,0,2.45.32,4.86,2.78,6.23-.38.41-.57.79-.76.79-9.53,0-9.53,0-9.57-9.75,0-1.37,0-2.73,0-4.43-3,.6-5.81,1.13-8.59,1.7-2.47.51-4.5,1.62-4,4.54s2.9,3.3,5.31,3.09A46,46,0,0,0,423.63,122.94Z"/><path class="cls-4" d="M499.6,127.61c1.87-9.53,2.36-19-.51-28.34,2.64,1,7.16-2.52,9.35,2.72A34.21,34.21,0,0,1,513,99.12c8-3.46,15,1,15.16,9.68.07,3.8,0,7.61.06,11.42,0,3-.09,6,3.45,8.55h-13c3.64-6.68,2.34-13.78,1.68-20.74-.24-2.47-2.55-3.56-5.18-3.48a6.19,6.19,0,0,0-6.22,5c-1.28,4.79-.84,9.67-.35,14.53.12,1.19.64,2.36.12,3.58-.51,0-.68.25-.54.73a23.41,23.41,0,0,1-8.47,0A.84.84,0,0,0,499.6,127.61Z"/><path class="cls-4" d="M481.41,123.88c-.17,5.1-3.57,6-7.72,6-5.48-.1-9.07-2.75-10.1-7.4a8.41,8.41,0,0,1,4.73-9.8c3.32-1.65,7-1.69,10.58-2.43,2.06-.44,4.76-.57,4.55-3.36s-3-2.89-5.27-3.11c-2.49-.24-4.78.66-7.14,1.14-1.27-.54-1.42-1.36-.55-2.37s1.93-1.83,1.89-3.31c4.27-1.32,8.53-1.7,12.79,0-.92.88-1.58,1.54.13,2.5,1.47.84,2.39,1.39,2.67-.86,3,1.9,3.07,5,3.19,8,.17,4.25.17,8.51.23,12.76,0,2.58.18,5.11,2.8,6.67-.55.35-.76.61-1,.6-9.49-.42-9.6-.42-9.51-10.26,0-3.09-.32-4.62-3.84-3.21-1.52.61-3.28.6-4.91,1-3.08.67-4.35,2.53-3.6,5.66-.93.76-.63,1.49.12,2.12a1.1,1.1,0,0,0,1.8-.3l6.18-.12Zm5.6-1.51c-.34-.31-.63-.77-.9-.76a1.09,1.09,0,0,0-.73.77c-.08.57.13,1.2.9,1C486.56,123.32,486.72,122.79,487,122.37Zm-.35-6.47c-.1-.26-.14-.65-.32-.73s-.49.16-.75.26c.1.26.14.65.32.73S486.4,116,486.66,115.9Z"/><path class="cls-5" d="M545,108.34c.1,2.87.24,5.75.31,8.63.17,6.75.51,7,7,5.62.32,6.41.07,6.74-5.59,7.12s-8.43-1.57-8.64-6.73a126.92,126.92,0,0,1,0-13.23c.21-3.34-.32-5.59-4.86-5.12,2.89-4.39,6.37-7.33,9.51-10.53,1.61-1.64,2.87-.73,2.54,1.5-.48,3.23,1.11,3.93,3.85,3.55,2-.28,3,.34,3,2.68s-.72,3.25-3.1,3c-1.28-.11-2.77-.53-3.86.71C543.12,106.44,543.09,107.35,545,108.34Z"/><path class="cls-4" d="M195.13,127.45a14.08,14.08,0,0,0,1.24-6.64c0-8.2,0-16.4,0-24.6,0-3.12.34-6.4-3.24-8.75,10.72-.55,10.58-.54,10.75,9.1.18,10-.82,20,.77,30C201.61,128.32,198.33,127.47,195.13,127.45Z"/><path class="cls-4" d="M450.57,128.52l-9.32.38c0-.4-.05-.8-.07-1.19a48.38,48.38,0,0,0-.5-28.62c2.56,1.72,6.95-2.89,9,2.65a4.48,4.48,0,0,0,1.15-.47c.59-.47,1.05-1.11,1.65-1.56a7.72,7.72,0,0,1,7.8-1.07c2.28,1,.74,3.54,1.09,5.37a16.22,16.22,0,0,1,0,2.8c-7.19-3.31-10.91-1-11.08,6.91-.1,4.67-.21,9.35.91,14C450.67,127.68,450.46,128,450.57,128.52Z"/><path class="cls-5" d="M472.38,99.2c0,1.48-1,2.33-1.89,3.31s-.72,1.83.55,2.37l-3.36,2.2C466.75,100,467,99.53,472.38,99.2Z"/><path class="cls-6" d="M195.13,127.45c3.2,0,6.48.87,9.53-.88.73.69,1.47,1.37,2.9,2.69H195c-.56,0-1.38.13-1.19-.74C193.93,128.09,194.68,127.8,195.13,127.45Z"/><path class="cls-5" d="M488,100.87c-.28,2.25-1.2,1.7-2.67.86-1.71-1-1.05-1.62-.13-2.5A3.43,3.43,0,0,1,488,100.87Z"/><path class="cls-2" d="M450.57,128.52c-.11-.54.1-.84.67-.85.79,0,2.22-.44,1.93.73C452.8,129.84,451.5,129.27,450.57,128.52Z"/><path class="cls-5" d="M473.28,123.91a1.1,1.1,0,0,1-1.8.3c-.75-.63-1.05-1.36-.12-2.12Z"/><path class="cls-4" d="M545,108.34c-1.86-1-1.83-1.9.1-2.75Z"/><path class="cls-2" d="M508.16,128.43c-.14-.48,0-.73.54-.73l1.76,1.23C509.61,129.17,508.74,129.47,508.16,128.43Z"/><path class="cls-2" d="M441.18,127.71c0,.39.05.79.07,1.19-.62.43-1.24.35-1.32-.39S440.55,127.66,441.18,127.71Z"/><path class="cls-2" d="M499.6,127.61a.84.84,0,0,1,.09.86c-.48.83-1.28,1-1.55.11S498.88,127.61,499.6,127.61Z"/><path class="cls-5" d="M481.41,123.88l-2-.09C480.14,123.21,480.85,121.93,481.41,123.88Z"/><path class="cls-1" d="M140.47,110.44a10.65,10.65,0,0,1-2.26,0c-1.47-.33-3.83,1.1-4.27-1-.36-1.7,1.36-3.26,2.94-4.24a6.6,6.6,0,0,1,6.9-.28c1.8,1,3.64,2.49,3.23,4.5s-2.8.7-4.28,1A10,10,0,0,1,140.47,110.44Z"/><path class="cls-5" d="M487,122.37c-.29.42-.45.95-.73,1-.77.19-1-.44-.9-1a1.09,1.09,0,0,1,.73-.77C486.38,121.6,486.67,122.06,487,122.37Z"/><path class="cls-5" d="M486.66,115.9c-.26.1-.57.34-.75.26s-.22-.47-.32-.73c.26-.1.58-.34.75-.26S486.56,115.64,486.66,115.9Z"/></svg>