<?xml version="1.0" encoding="utf-8"?>
<!-- Generator: Adobe Illustrator 22.1.0, SVG Export Plug-In . SVG Version: 6.00 Build 0)  -->
<svg version="1.1" id="Layer_1" xmlns="http://www.w3.org/2000/svg" xmlns:xlink="http://www.w3.org/1999/xlink" x="0px" y="0px"
	 viewBox="0 0 640 220" style="enable-background:new 0 0 640 220;" xml:space="preserve">
<style type="text/css">
	.st0{fill:#C9C9C9;}
</style>
<title>logo-</title>
<g>
	<g>
		<path class="st0" d="M223.4,118H222c-1.4,0-2.5-0.1-3.5-0.4s-1.8-0.9-2.6-1.8c-0.7-1-1.2-2.1-1.4-3.4c-0.2-1.3-0.3-3.3-0.3-5.8
			c0-2.6-0.1-4.4-0.3-5.7s-0.6-2.3-1.4-3.1c-0.7-0.8-1.9-1.3-3.4-1.3v-4c1.6,0,2.7-0.5,3.4-1.3c0.7-0.8,1.2-1.9,1.4-3.1
			s0.3-3.1,0.3-5.7c0-2.6,0.1-4.5,0.3-5.8c0.2-1.3,0.6-2.5,1.4-3.4c0.7-1,1.6-1.6,2.6-1.8c1-0.3,2.2-0.4,3.5-0.4h1.3v3.8h-0.8
			c-1.7,0-2.7,0.5-3.1,1.3c-0.4,0.9-0.6,3.3-0.6,7.3c0,3.5-0.5,6.1-1.4,7.8s-2.3,2.7-4.2,3.3c1.9,0.6,3.3,1.7,4.2,3.3
			c0.9,1.6,1.4,4.2,1.4,7.8c0,4,0.2,6.4,0.6,7.3c0.4,0.9,1.4,1.3,3.1,1.3h0.8V118z"/>
		<path class="st0" d="M246,84.7c2.3-2.6,4.9-3.9,7.8-3.9c5.9,0,8.8,3.2,8.8,9.6v17h-4.6V90.6c0-2.1-0.4-3.7-1.1-4.6
			c-0.8-0.9-2-1.4-3.7-1.4c-2.4,0-4.7,1.4-7.1,4.2v18.6h-4.6v-26h4.6V84.7z"/>
		<path class="st0" d="M279.9,80.8c3.7,0,6.7,1.2,8.9,3.6c2.2,2.4,3.3,5.7,3.3,10.1c0,4.3-1.1,7.7-3.3,10c-2.2,2.4-5.2,3.6-8.9,3.6
			c-3.7,0-6.7-1.2-8.9-3.6c-2.2-2.4-3.3-5.7-3.3-10c0-4.3,1.1-7.7,3.3-10.1C273.2,82,276.2,80.8,279.9,80.8z M279.9,104.4
			c2.2,0,4-0.8,5.4-2.5c1.4-1.7,2.1-4.2,2.1-7.5c0-3.3-0.7-5.8-2.1-7.5c-1.4-1.7-3.2-2.5-5.4-2.5c-2.2,0-4,0.8-5.4,2.5
			c-1.4,1.7-2.1,4.2-2.1,7.5c0,3.3,0.7,5.8,2.1,7.5C275.9,103.6,277.6,104.4,279.9,104.4z"/>
		<path class="st0" d="M315.2,107.5h-4.6v-36h4.6V107.5z"/>
		<path class="st0" d="M332.6,80.8c3.7,0,6.7,1.2,8.9,3.6c2.2,2.4,3.3,5.7,3.3,10.1c0,4.3-1.1,7.7-3.3,10c-2.2,2.4-5.2,3.6-8.9,3.6
			c-3.7,0-6.7-1.2-8.9-3.6c-2.2-2.4-3.3-5.7-3.3-10c0-4.3,1.1-7.7,3.3-10.1C326,82,328.9,80.8,332.6,80.8z M332.6,104.4
			c2.2,0,4-0.8,5.4-2.5c1.4-1.7,2.1-4.2,2.1-7.5c0-3.3-0.7-5.8-2.1-7.5c-1.4-1.7-3.2-2.5-5.4-2.5c-2.2,0-4,0.8-5.4,2.5
			c-1.4,1.7-2.1,4.2-2.1,7.5c0,3.3,0.7,5.8,2.1,7.5C328.6,103.6,330.4,104.4,332.6,104.4z"/>
		<path class="st0" d="M371.1,105.5c0,8.4-3.8,12.6-11.3,12.6c-3.3,0-5.9-0.7-7.7-2.1c-1.9-1.4-2.8-3.3-2.8-5.7h4.8
			c0,2.8,1.9,4.3,5.7,4.3c2.2,0,3.8-0.6,5-1.8c1.2-1.2,1.8-3.5,1.8-7v-1.3c-2.1,2.5-4.5,3.7-7.4,3.7c-3.4,0-6-1.2-7.9-3.6
			c-1.9-2.4-2.8-5.7-2.8-9.8c0-4.3,1-7.6,3.1-10.1c2.1-2.5,4.7-3.7,7.9-3.7c2.8,0,5.2,0.9,7.1,2.6v-2h4.6V105.5z M366.5,100V87.6
			c-2-2.1-4.3-3.2-6.8-3.2c-2,0-3.6,0.9-4.7,2.6c-1.2,1.7-1.8,4.3-1.8,7.6c0,3.2,0.6,5.6,1.7,7.3c1.1,1.7,2.7,2.5,4.6,2.5
			C362,104.4,364.4,103,366.5,100z"/>
		<path class="st0" d="M388.5,80.8c3.7,0,6.7,1.2,8.9,3.6c2.2,2.4,3.3,5.7,3.3,10.1c0,4.3-1.1,7.7-3.3,10c-2.2,2.4-5.2,3.6-8.9,3.6
			c-3.7,0-6.7-1.2-8.9-3.6c-2.2-2.4-3.3-5.7-3.3-10c0-4.3,1.1-7.7,3.3-10.1C381.8,82,384.8,80.8,388.5,80.8z M388.5,104.4
			c2.2,0,4-0.8,5.4-2.5c1.4-1.7,2.1-4.2,2.1-7.5c0-3.3-0.7-5.8-2.1-7.5c-1.4-1.7-3.2-2.5-5.4-2.5c-2.2,0-4,0.8-5.4,2.5
			c-1.4,1.7-2.1,4.2-2.1,7.5c0,3.3,0.7,5.8,2.1,7.5C384.5,103.6,386.3,104.4,388.5,104.4z"/>
		<path class="st0" d="M417,70.9h1.3c1.4,0,2.5,0.1,3.5,0.4c1,0.3,1.8,0.9,2.6,1.8c0.7,1,1.2,2.1,1.4,3.4c0.2,1.3,0.3,3.3,0.3,5.8
			c0,2.6,0.1,4.4,0.3,5.7c0.2,1.2,0.6,2.3,1.4,3.1c0.7,0.8,1.9,1.3,3.4,1.3v4c-1.6,0-2.7,0.5-3.4,1.3c-0.7,0.8-1.2,1.9-1.4,3.1
			c-0.2,1.2-0.3,3.1-0.3,5.7c0,2.6-0.1,4.5-0.3,5.8c-0.2,1.3-0.6,2.5-1.4,3.4c-0.7,1-1.6,1.6-2.6,1.8c-1,0.3-2.2,0.4-3.5,0.4H417
			v-3.8h0.8c1.7,0,2.7-0.5,3.1-1.3c0.4-0.9,0.6-3.3,0.6-7.3c0-3.5,0.5-6.1,1.4-7.8c0.9-1.6,2.3-2.7,4.2-3.3
			c-1.9-0.6-3.3-1.7-4.2-3.3c-0.9-1.6-1.4-4.2-1.4-7.8c0-4-0.2-6.4-0.6-7.3c-0.4-0.9-1.4-1.3-3.1-1.3H417V70.9z"/>
	</g>
	<g>
		<path class="st0" d="M183,155.8c-2,0-3.5-0.6-4.7-1.9c-1.2-1.3-1.8-3-1.8-5.3c0-2.3,0.6-4.1,1.8-5.3c1.2-1.3,2.7-1.9,4.7-1.9
			c1.5,0,2.8,0.4,3.8,1.1c1,0.8,1.6,1.9,1.8,3.3H186c0-0.8-0.3-1.5-0.9-1.9c-0.6-0.4-1.3-0.7-2.1-0.7c-1.2,0-2.1,0.4-2.9,1.3
			c-0.7,0.9-1.1,2.2-1.1,4c0,1.8,0.4,3.1,1.1,4c0.7,0.9,1.7,1.3,2.9,1.3c0.8,0,1.5-0.2,2.1-0.7c0.6-0.4,0.9-1.1,0.9-1.9h2.5
			c-0.2,1.4-0.8,2.5-1.8,3.3S184.5,155.8,183,155.8z"/>
		<path class="st0" d="M210.2,141.4c2,0,3.5,0.6,4.7,1.9s1.8,3,1.8,5.3c0,2.3-0.6,4.1-1.8,5.3c-1.2,1.3-2.8,1.9-4.7,1.9
			c-2,0-3.5-0.6-4.7-1.9c-1.2-1.3-1.8-3-1.8-5.3c0-2.3,0.6-4.1,1.8-5.3C206.6,142,208.2,141.4,210.2,141.4z M210.2,153.9
			c1.2,0,2.1-0.4,2.9-1.3c0.7-0.9,1.1-2.2,1.1-4c0-1.8-0.4-3.1-1.1-4c-0.7-0.9-1.7-1.3-2.9-1.3c-1.2,0-2.1,0.4-2.9,1.3
			c-0.7,0.9-1.1,2.2-1.1,4c0,1.8,0.4,3.1,1.1,4C208,153.5,209,153.9,210.2,153.9z"/>
		<path class="st0" d="M251.9,155.5h-2.5v-8.9c0-1.1-0.2-2-0.5-2.4c-0.3-0.5-0.9-0.7-1.7-0.7c-1.2,0-2.4,0.7-3.5,2.2v9.9h-2.4v-8.9
			c0-1.1-0.2-2-0.5-2.4s-0.9-0.7-1.7-0.7c-1.2,0-2.4,0.7-3.5,2.2v9.9h-2.5v-13.8h2.5v1.8c1.2-1.4,2.5-2.1,3.9-2.1
			c2,0,3.3,0.8,3.9,2.5c0.9-1.1,1.7-1.8,2.3-2.1s1.3-0.4,1.9-0.4c2.8,0,4.2,1.7,4.2,5.1V155.5z"/>
		<path class="st0" d="M271.8,139.1h-2.5v-2.7h2.5V139.1z M271.8,155.5h-2.5v-13.8h2.5V155.5z"/>
		<path class="st0" d="M291.8,143.5c1.2-1.4,2.6-2.1,4.1-2.1c3.1,0,4.7,1.7,4.7,5.1v9h-2.5v-8.9c0-1.1-0.2-1.9-0.6-2.4
			s-1.1-0.7-2-0.7c-1.2,0-2.5,0.7-3.8,2.2v9.9h-2.5v-13.8h2.5V143.5z"/>
		<path class="st0" d="M329.2,154.5c0,4.4-2,6.7-6,6.7c-1.7,0-3.1-0.4-4.1-1.1c-1-0.8-1.5-1.8-1.5-3h2.5c0,1.5,1,2.3,3,2.3
			c1.1,0,2-0.3,2.7-0.9c0.6-0.6,0.9-1.9,0.9-3.7v-0.7c-1.1,1.3-2.4,2-3.9,2c-1.8,0-3.2-0.6-4.2-1.9c-1-1.3-1.5-3-1.5-5.2
			c0-2.3,0.6-4,1.7-5.4c1.1-1.3,2.5-2,4.2-2c1.5,0,2.8,0.5,3.8,1.4v-1.1h2.4V154.5z M326.7,151.5V145c-1.1-1.1-2.3-1.7-3.6-1.7
			c-1.1,0-1.9,0.5-2.5,1.4s-0.9,2.3-0.9,4.1c0,1.7,0.3,3,0.9,3.9c0.6,0.9,1.4,1.3,2.5,1.3C324.4,153.9,325.6,153.1,326.7,151.5z"/>
		<path class="st0" d="M372.6,155.8c-3.8,0-5.8-1.5-5.9-4.5h2.5c0,1.7,1.2,2.5,3.4,2.5c1,0,1.8-0.2,2.3-0.6s0.8-0.9,0.8-1.6
			c0-0.6-0.3-1.1-0.8-1.3c-0.5-0.3-1.6-0.6-3.2-1c-1.6-0.4-2.8-0.9-3.6-1.4c-0.8-0.5-1.1-1.4-1.1-2.7c0-1.1,0.5-2.1,1.4-2.8
			c0.9-0.8,2.2-1.1,3.7-1.1c3.6,0,5.5,1.3,5.5,3.9h-2.4c-0.1-1.3-1.1-2-2.9-2c-0.8,0-1.5,0.2-2.1,0.5c-0.5,0.3-0.8,0.8-0.8,1.4
			c0,0.5,0.2,0.9,0.6,1.2c0.4,0.2,1.5,0.6,3.1,1c1.7,0.4,2.9,0.9,3.7,1.4c0.8,0.5,1.2,1.5,1.2,2.8c0,1.3-0.5,2.3-1.5,3.1
			C375.6,155.4,374.3,155.8,372.6,155.8z"/>
		<path class="st0" d="M400.4,141.4c2,0,3.5,0.6,4.7,1.9s1.8,3,1.8,5.3c0,2.3-0.6,4.1-1.8,5.3c-1.2,1.3-2.8,1.9-4.7,1.9
			c-2,0-3.5-0.6-4.7-1.9c-1.2-1.3-1.8-3-1.8-5.3c0-2.3,0.6-4.1,1.8-5.3C396.9,142,398.5,141.4,400.4,141.4z M400.4,153.9
			c1.2,0,2.1-0.4,2.9-1.3c0.7-0.9,1.1-2.2,1.1-4c0-1.8-0.4-3.1-1.1-4c-0.7-0.9-1.7-1.3-2.9-1.3s-2.1,0.4-2.9,1.3s-1.1,2.2-1.1,4
			c0,1.8,0.4,3.1,1.1,4S399.3,153.9,400.4,153.9z"/>
		<path class="st0" d="M429.1,141.4c2,0,3.5,0.6,4.7,1.9s1.8,3,1.8,5.3c0,2.3-0.6,4.1-1.8,5.3c-1.2,1.3-2.8,1.9-4.7,1.9
			c-2,0-3.5-0.6-4.7-1.9c-1.2-1.3-1.8-3-1.8-5.3c0-2.3,0.6-4.1,1.8-5.3C425.6,142,427.2,141.4,429.1,141.4z M429.1,153.9
			c1.2,0,2.1-0.4,2.9-1.3c0.7-0.9,1.1-2.2,1.1-4c0-1.8-0.4-3.1-1.1-4c-0.7-0.9-1.7-1.3-2.9-1.3s-2.1,0.4-2.9,1.3s-1.1,2.2-1.1,4
			c0,1.8,0.4,3.1,1.1,4S428,153.9,429.1,153.9z"/>
		<path class="st0" d="M454.7,143.5c1.2-1.4,2.6-2.1,4.1-2.1c3.1,0,4.7,1.7,4.7,5.1v9h-2.5v-8.9c0-1.1-0.2-1.9-0.6-2.4
			c-0.4-0.5-1.1-0.7-2-0.7c-1.2,0-2.5,0.7-3.8,2.2v9.9h-2.5v-13.8h2.5V143.5z"/>
	</g>
</g>
</svg>
