<?xml version="1.0" encoding="utf-8"?>
<!-- Generator: Adobe Illustrator 24.0.3, SVG Export Plug-In . SVG Version: 6.00 Build 0)  -->
<svg version="1.1" id="Layer_1" xmlns="http://www.w3.org/2000/svg" xmlns:xlink="http://www.w3.org/1999/xlink" x="0px" y="0px"
	 viewBox="0 0 386.3 83.9" style="enable-background:new 0 0 386.3 83.9;" xml:space="preserve">
<style type="text/css">
	.st0{fill:#ED1C24;}
	.st1{fill:#484848;}
</style>
<title>logo-</title>
<path class="st0" d="M367.6,23l-2.9,5l2.9,5.1h5.8l2.9-5.1l-2.9-5H367.6z M377.6,17.2l-2.9,5l2.9,5h5.8l2.9-5l-2.9-5H377.6z
	 M363.5,17.2h-5.8l-2.9,5l2.9,5h5.8l2.9-5L363.5,17.2z M377.6,15.7h5.8l2.9-5l-2.9-5h-5.8l-2.9,5L377.6,15.7z M363.5,15.7l2.9-5
	l-2.9-5h-5.8l-2.9,5l2.9,5H363.5z M373.5,10l2.9-5l-2.9-5h-5.8l-2.9,5l2.9,5H373.5z"/>
<path class="st1" d="M253.2,17.6c-17.8,0-28,14.6-28,32.4s10.3,32.3,28,32.3s28-14.4,28-32.3S271,17.6,253.2,17.6z M253.2,75.6
	C239.1,75.6,232,64,232,50s6.9-25.6,21.2-25.6c14.3,0,21.2,11.5,21.2,25.6S267.4,75.6,253.2,75.6z"/>
<polygon class="st1" points="202.2,67 153.6,16.1 153.6,81.1 160.5,81.1 160.5,33.1 209.2,83.9 209.2,18.7 202.2,18.7 "/>
<path class="st1" d="M337.5,81.1h8.7L327,55.5c9.8-1.8,17-7.9,17-18.3V37c0.1-4.6-1.6-9-4.8-12.4c-3.9-3.9-10.1-6.3-17.8-6.3h-24.9
	V81h7.1V25h17.2c10.1,0,16,4.7,16,12.3v0.2c0,7.9-6.5,12.7-15.6,12.9l0,0l-6.4,0.3L337.5,81.1z"/>
<path class="st1" d="M82.9,81.1h7.6l5-11.9l31.7,0.1l4.9,11.8h7.7l-28-65.3L82.9,81.1z M98.4,62.9L111.5,32l13,30.9H98.4z"/>
<polygon class="st1" points="35.8,72 55.5,35.4 64.3,81.1 71.5,81.1 58.7,15.4 35.8,57.8 12.8,15.4 0,81.1 7.2,81.1 16,35.4 "/>
</svg>
