<?xml version="1.0" encoding="utf-8"?>
<!-- Generator: Adobe Illustrator 24.0.3, SVG Export Plug-In . SVG Version: 6.00 Build 0)  -->
<svg version="1.1" id="Layer_1" xmlns="http://www.w3.org/2000/svg" xmlns:xlink="http://www.w3.org/1999/xlink" x="0px" y="0px"
	 viewBox="0 0 464.9 109.6" style="enable-background:new 0 0 464.9 109.6;" xml:space="preserve">
<style type="text/css">
	.st0{fill:#4481C2;}
	.st1{fill:#7CA7D4;}
	.st2{fill:#A1C0E0;}
	.st3{fill:#C7D9ED;}
	.st4{fill:#FFFFFF;}
</style>
<title>logo-</title>
<g>
	<g>
		<path class="st0" d="M200.9,104.4V85.6c0-2,0.8-2.5,2.6-2.5h9c4.1,0,5.5,1.9,5.5,6.3c0,4.8-1.5,6.4-5.5,6.4h-10v8.7L200.9,104.4
			L200.9,104.4z M212.5,94.2c3.3,0,3.8-1.7,3.8-4.9c0-3.1-0.6-4.8-3.8-4.8h-8.7c-1.2,0-1.2,0.6-1.2,1.3v8.4H212.5z"/>
		<path class="st0" d="M228.5,88.2c2.7,0,3.9,1.5,3.9,4.1v10c0,1.4-0.4,2.1-2.4,2.1h-6.2c-3.2,0-4.4-1.5-4.4-4.9s1.2-4.8,4.4-4.8h7
			V92c0-1.2-0.6-2.4-2.3-2.4h-7.8v-1.4L228.5,88.2L228.5,88.2z M223.4,96.1c-2,0-2.3,1.4-2.3,3.4s0.3,3.5,2.3,3.5h6.7
			c0.5,0,0.8-0.4,0.8-0.7v-6.1L223.4,96.1L223.4,96.1z"/>
		<path class="st0" d="M235.1,103h9.3c1.9,0,2.3-1,2.3-2.6c0-1.9-1.2-2.2-4.5-3l-2.8-0.6c-2.7-0.6-4.6-1.5-4.6-4.6
			c0-2.5,1.6-3.9,4.1-3.9h8.4v1.4h-8.4c-1.8,0-2.4,0.8-2.4,2.5c0,2.2,1.1,2.7,3.5,3.2l2.9,0.7c3.6,0.8,5.4,1.3,5.4,4.3
			c0,2.5-0.9,4.1-4,4.1H235V103H235.1z"/>
		<path class="st0" d="M250.2,103h9.3c1.9,0,2.3-1,2.3-2.6c0-1.9-1.2-2.2-4.5-3l-2.8-0.6c-2.7-0.6-4.6-1.5-4.6-4.6
			c0-2.5,1.6-3.9,4.1-3.9h8.4v1.4H254c-1.8,0-2.4,0.8-2.4,2.5c0,2.2,1.1,2.7,3.5,3.2l2.9,0.7c3.6,0.8,5.4,1.3,5.4,4.3
			c0,2.5-0.9,4.1-4,4.1h-9.3V103H250.2z"/>
		<path class="st0" d="M270.9,104.4c-4.5,0-5.6-3.4-5.6-8c0-5.5,1.5-8.4,6.9-8.4c4,0,7,1.6,7,6.2c0,1.9-0.5,2.7-2.3,2.7H267
			c0,2.8,0.5,6.1,3.9,6.1h7.9v1.4H270.9z M276.9,95.4c0.5,0,0.7-0.4,0.7-0.7v-0.2c0-4-2-5-5.3-5c-3.6,0-5.3,1.3-5.3,6h9.9V95.4z"/>
		<path class="st0" d="M282,90.8c0-1.6,0.5-2.6,2.2-2.6h6c3.4,0,4.7,1.8,4.7,5v11.2h-1.6V93.2c0-2-0.6-3.5-3.1-3.5h-5.6
			c-0.6,0-1,0.1-1,1.2v13.6H282V90.8z"/>
		<path class="st0" d="M304.4,104.4c-5.5,0-6.8-2.6-6.8-8.1c0-5.2,1.3-8.1,6.8-8.1h3.5c2.1,0,3.4,0.7,3.4,2.8v11.5
			c0,4.4-1.2,7.1-6.4,7.1h-6.2v-1.4h6.2c2.8,0,4.6-0.9,4.8-3.8H304.4z M309.7,91c0-0.8-0.4-1.3-1.4-1.3h-3.9c-4.3,0-5.2,2.1-5.2,6.7
			c0,4.9,0.9,6.7,5.2,6.7h5.3V91z"/>
		<path class="st0" d="M319.7,104.4c-4.5,0-5.6-3.4-5.6-8c0-5.5,1.5-8.4,6.9-8.4c4,0,7,1.6,7,6.2c0,1.9-0.5,2.7-2.3,2.7h-9.9
			c0,2.8,0.5,6.1,3.9,6.1h7.9v1.4H319.7z M325.6,95.4c0.5,0,0.7-0.4,0.7-0.7v-0.2c0-4-2-5-5.3-5c-3.6,0-5.3,1.3-5.3,6h9.9V95.4z"/>
		<path class="st0" d="M330.7,93.8c0-3.7,1.7-5.6,5.4-5.6h1.1v1.4h-1.1c-2.7,0-3.8,1.4-3.8,4.5v10.3h-1.6V93.8z"/>
		<path class="st0" d="M345.9,102.9H358c1.3,0,2.5-0.7,2.5-3.7c0-1.4-0.3-2.7-2.7-3.5l-8.5-2.9c-2.3-0.8-3.7-2-3.7-5
			c0-3.1,1.5-4.8,4.8-4.8h10.8v1.5h-10.8c-2.2,0-3.1,0.9-3.1,3.4c0,1.4,0.1,2.7,2.2,3.4l8.3,2.9c2.6,0.9,4.4,1.7,4.4,5.1
			c0,2.6-1,5.1-4.3,5.1h-12.1v-1.5H345.9z"/>
		<path class="st0" d="M380.6,96.3c0,5.8-2.2,8.3-8,8.3s-8-2.5-8-8.3s2.2-8.2,8-8.2C378.4,88,380.6,90.5,380.6,96.3z M372.6,103.1
			c4.6,0,6.4-1.7,6.4-6.9s-1.8-6.8-6.4-6.8s-6.4,1.6-6.4,6.8C366.2,101.5,368,103.1,372.6,103.1z"/>
		<path class="st0" d="M383.3,83h1.6v21.4h-1.6V83z"/>
		<path class="st0" d="M401.2,101.8c0,1.6-0.5,2.6-2.2,2.6h-6.1c-3.4,0-4.7-1.8-4.7-5V88.2h1.6v11.2c0,2,0.6,3.5,3.1,3.5h5.7
			c0.6,0,1-0.1,1-1.2V88.1h1.6V101.8z"/>
		<path class="st0" d="M409.7,104.4c-4.4,0-4.4-2.6-4.4-5.1v-9.6h-2.5v-1.4h2.5v-5.2h1.6v5.2h4.3v1.4h-4.3v10.1
			c0,2.5,0.7,3.2,3.2,3.2h1.2v1.4L409.7,104.4L409.7,104.4z"/>
		<path class="st0" d="M412.9,85.4V83h1.7v2.4H412.9z M413,88.2h1.6v16.2H413V88.2z"/>
		<path class="st0" d="M433.4,96.3c0,5.8-2.2,8.3-8,8.3s-8-2.5-8-8.3s2.2-8.2,8-8.2C431.2,88,433.4,90.5,433.4,96.3z M425.4,103.1
			c4.6,0,6.4-1.7,6.4-6.9s-1.8-6.8-6.4-6.8S419,91,419,96.2C419,101.5,420.8,103.1,425.4,103.1z"/>
		<path class="st0" d="M436.1,90.8c0-1.6,0.5-2.6,2.2-2.6h6c3.4,0,4.7,1.8,4.7,5v11.2h-1.6V93.2c0-2-0.6-3.5-3.1-3.5h-5.6
			c-0.6,0-1,0.1-1,1.2v13.6h-1.6L436.1,90.8L436.1,90.8z"/>
		<path class="st0" d="M451.6,103h9.3c1.9,0,2.3-1,2.3-2.6c0-1.9-1.2-2.2-4.5-3l-2.8-0.6c-2.7-0.6-4.6-1.5-4.6-4.6
			c0-2.5,1.6-3.9,4.1-3.9h8.4v1.4h-8.3c-1.8,0-2.4,0.8-2.4,2.5c0,2.2,1.1,2.7,3.5,3.2l2.9,0.7c3.6,0.8,5.4,1.3,5.4,4.3
			c0,2.5-0.9,4.1-4,4.1h-9.3L451.6,103L451.6,103z"/>
	</g>
	<path class="st0" d="M226,41.5c0,10.7-8.8,19.5-19.5,19.5h-7.7c-10.7,0-19.5-8.8-19.5-19.5v-22c0-10.7,8.8-19.5,19.5-19.5h7.7
		C217.2,0,226,8.8,226,19.5V41.5z"/>
	<path class="st0" d="M285.7,41.5c0,10.7-8.8,19.5-19.5,19.5h-7.7c-10.7,0-19.5-8.8-19.5-19.5v-22C239,8.8,247.8,0,258.5,0h7.7
		c10.7,0,19.5,8.8,19.5,19.5V41.5z"/>
	<path class="st0" d="M345.4,41.5c0,10.7-8.8,19.5-19.5,19.5h-7.7c-10.7,0-19.5-8.8-19.5-19.5v-22c0-10.7,8.8-19.5,19.5-19.5h7.7
		c10.7,0,19.5,8.8,19.5,19.5V41.5z"/>
	<path class="st0" d="M405.2,41.5c0,10.7-8.8,19.5-19.5,19.5H378c-10.7,0-19.5-8.8-19.5-19.5v-22C358.5,8.8,367.3,0,378,0h7.7
		c10.7,0,19.5,8.8,19.5,19.5V41.5z"/>
	<path class="st0" d="M464.9,41.5c0,10.7-8.8,19.5-19.5,19.5h-7.7c-10.7,0-19.5-8.8-19.5-19.5v-22C418.2,8.8,427,0,437.7,0h7.7
		c10.7,0,19.5,8.8,19.5,19.5V41.5z"/>
	<path class="st1" d="M166.2,41.5c0,10.7-8.8,19.5-19.5,19.5H139c-10.7,0-19.5-8.8-19.5-19.5v-22C119.5,8.8,128.3,0,139,0h7.7
		c10.7,0,19.5,8.8,19.5,19.5V41.5z"/>
	<path class="st2" d="M106.5,41.5C106.5,52.2,97.7,61,87,61h-7.7c-10.7,0-19.5-8.8-19.5-19.5v-22C59.8,8.8,68.6,0,79.3,0H87
		c10.7,0,19.5,8.8,19.5,19.5V41.5z"/>
	<path class="st3" d="M46.7,41.5c0,10.7-8.8,19.5-19.5,19.5h-7.7C8.8,61,0,52.2,0,41.5v-22C0,8.8,8.8,0,19.5,0h7.7
		c10.7,0,19.5,8.8,19.5,19.5V41.5z"/>
	<path class="st4" d="M216.5,37.5c0,4.8-1.3,8.6-7.2,8.6h-16c-2.7,0-4.6-1.1-4.6-4.7V19.5c0-3.6,1.9-4.7,4.6-4.7h16
		c4.5,0,6.8,3,6.8,8.6c0,3.4-1,6.2-4.4,6.7v0.2C215.3,30.6,216.5,33.5,216.5,37.5z M194.6,28h11.9c2.6,0,3.4-1.2,3.4-4.3
		c0-2.7-0.8-4.2-3.5-4.2h-9.6c-1.8,0-2.2,0.4-2.2,2.2L194.6,28L194.6,28z M194.6,39.2c0,1.8,0.4,2.2,2.2,2.2h9.3
		c3.1,0,4.2-1.2,4.2-4.3c0-3.1-1.2-4.5-3.8-4.5h-12L194.6,39.2L194.6,39.2z"/>
	<path class="st4" d="M248,46.1V19.5c0-3.6,1.9-4.7,4.6-4.7h15.8c5.8,0,7.8,3.6,7.8,9.9c0,6.4-2,10.5-7.2,10.5h-3.1v0.2l11,10.7
		h-7.6L259.2,36c-0.7-0.7-1.5-1.7-1.5-2.6v-0.7c0-1.3,0.9-2.1,2.6-2.1h6.1c3.3,0,3.8-2.2,3.8-5.8s-0.7-5.2-4.4-5.2h-9.5
		c-1.8,0-2.2,0.4-2.2,2.2v24.4H248V46.1z"/>
	<path class="st4" d="M317,18c1.1-2.6,2.3-3.5,5.1-3.5c2.7,0,4,0.9,5.1,3.5L339,46.1h-6.2l-3.2-7.9h-15.1l-3.2,7.9h-6.2L317,18z
		 M316.1,34h12L323,21.3c-0.2-0.5-0.5-1.3-0.9-1.3s-0.7,0.8-0.9,1.3L316.1,34z"/>
	<path class="st4" d="M381.2,40.1c0.1,0.2,0.3,0.7,0.7,0.7c0.4,0,0.5-0.4,0.7-0.7l9.3-25.3h6.4l-11.4,28.3c-0.7,1.7-1.9,3.4-5.1,3.4
		c-3.1,0-4.4-1.7-5.1-3.4l-11.4-28.3h6.4L381.2,40.1z"/>
	<path class="st4" d="M457.6,30.5c0,12.7-4.4,16-16.1,16c-11.6,0-16-3.4-16-16c0-12.7,4.5-16,16-16
		C453.2,14.5,457.6,17.8,457.6,30.5z M441.6,41.8c7.7,0,10-2.4,10-11.3s-2.3-11.3-10-11.3s-10,2.4-10,11.3S433.9,41.8,441.6,41.8z"
		/>
</g>
</svg>
