<?xml version="1.0" encoding="utf-8"?>
<!-- Generator: Adobe Illustrator 25.0.0, SVG Export Plug-In . SVG Version: 6.00 Build 0)  -->
<svg version="1.1" id="Ebene_1" xmlns="http://www.w3.org/2000/svg" xmlns:xlink="http://www.w3.org/1999/xlink" x="0px" y="0px"
	 viewBox="0 0 371.4 77.8" style="enable-background:new 0 0 371.4 77.8;" xml:space="preserve">
<style type="text/css">
	.st0{clip-path:url(#SVGID_2_);fill:url(#SVGID_3_);}
	.st1{fill:#484848;}
	.st2{clip-path:url(#SVGID_5_);fill:#484848;}
	.st3{clip-path:url(#SVGID_7_);fill:#484848;}
	.st4{clip-path:url(#SVGID_9_);fill:#484848;}
	.st5{clip-path:url(#SVGID_11_);fill:#484848;}
	.st6{fill:#FFEC00;}
</style>
<g>
	<g>
		<defs>
			<polygon id="SVGID_1_" points="25.5,19.7 20.8,47.1 3.9,22 -0.7,23 -0.7,37.4 17.1,61.8 20.5,77.8 33.5,77.8 29.6,59.1 
				38.1,20.7 50.2,77.8 54.3,77.8 82.7,71.8 80.3,60.6 60.3,64.9 50.7,19.7 			"/>
		</defs>
		<clipPath id="SVGID_2_">
			<use xlink:href="#SVGID_1_"  style="overflow:visible;"/>
		</clipPath>
		
			<linearGradient id="SVGID_3_" gradientUnits="userSpaceOnUse" x1="-929.8019" y1="245.2004" x2="-927.4698" y2="245.2004" gradientTransform="matrix(40.6509 0 0 40.6509 37799.418 -9918.8672)">
			<stop  offset="0" style="stop-color:#0097A0"/>
			<stop  offset="0.5" style="stop-color:#94C054"/>
			<stop  offset="1" style="stop-color:#FCE917"/>
		</linearGradient>
		<rect x="-0.7" y="19.7" class="st0" width="83.4" height="58.2"/>
	</g>
</g>
<polygon class="st1" points="124.3,56.5 124.3,77.8 118.6,77.8 118.6,56.4 100.1,19.7 106.6,19.7 121.5,49.9 136.5,19.7 142.8,19.7 
	"/>
<path class="st1" d="M144.1,33.9h5.6v43.9h-5.6V33.9z M149.8,28.8h-5.6v-9.1h5.6V28.8z"/>
<g>
	<g>
		<defs>
			<rect id="SVGID_4_" x="-0.7" y="1.1" width="372.1" height="78"/>
		</defs>
		<clipPath id="SVGID_5_">
			<use xlink:href="#SVGID_4_"  style="overflow:visible;"/>
		</clipPath>
		<path class="st2" d="M193.3,52.8c-1.1-4.9-3-8.6-5.9-11c-2.8-2.5-6.6-3.7-11.1-3.7c-4.3,0-7.9,1.3-10.8,4c-3,2.7-4.8,6.2-5.4,10.8
			H193.3z M199.5,57.7h-39.7c0.3,4.8,2.1,8.6,5.2,11.6c3.1,2.9,7,4.4,11.7,4.4c3.3,0,6.3-0.9,8.9-2.6c2.6-1.7,4.7-4.1,6.1-7.1h6.4
			c-2,4.9-4.9,8.6-8.5,11.2c-3.7,2.6-7.9,3.9-12.7,3.9c-6.4,0-11.8-2.3-16.2-6.8c-4.4-4.6-6.6-10-6.6-16.4c0-6.7,2.2-12.2,6.5-16.6
			c4.3-4.4,9.9-6.6,16.6-6.6c6.6,0,12,2.3,16.2,6.8c4.2,4.5,6.3,10.5,6.3,17.7L199.5,57.7L199.5,57.7z"/>
	</g>
</g>
<rect x="203.7" y="19.7" class="st1" width="5.6" height="58.1"/>
<g>
	<g>
		<defs>
			<rect id="SVGID_6_" x="-0.7" y="1.1" width="372.1" height="78"/>
		</defs>
		<clipPath id="SVGID_7_">
			<use xlink:href="#SVGID_6_"  style="overflow:visible;"/>
		</clipPath>
		<path class="st3" d="M253.1,56.3c0-5-1.7-9.3-5-12.8c-3.3-3.5-7.2-5.3-11.7-5.3c-4.6,0-8.6,1.7-11.9,5.1c-3.3,3.4-5,7.5-5,12.4
			c0,5.1,1.7,9.5,5,12.9c3.3,3.5,7.3,5.2,12,5.2c4.3,0,8.2-1.7,11.5-5.2C251.4,65,253.1,61,253.1,56.3 M252.9,40.9v-9.8V19.7h5.7
			v58.1h-5.7v-6.6c-2,2.5-4.4,4.4-7.3,5.7c-2.9,1.4-6,2.1-9.3,2.1c-6.3,0-11.7-2.2-16-6.7c-4.3-4.5-6.5-10-6.5-16.5
			c0-6.4,2.1-11.9,6.4-16.3c4.3-4.4,9.7-6.6,16.1-6.6c3.5,0,6.6,0.7,9.4,2C248.6,36.3,251,38.3,252.9,40.9"/>
	</g>
</g>
<rect x="265.2" y="19.7" class="st1" width="5.6" height="58.1"/>
<g>
	<g>
		<defs>
			<rect id="SVGID_8_" x="-0.7" y="1.1" width="372.1" height="78"/>
		</defs>
		<clipPath id="SVGID_9_">
			<use xlink:href="#SVGID_8_"  style="overflow:visible;"/>
		</clipPath>
		<path class="st4" d="M314.6,55.6c0-4.7-1.7-8.7-5-12.2s-7.2-5.2-11.5-5.2c-4.7,0-8.7,1.7-12,5.2c-3.3,3.5-5,7.8-5,12.9
			c0,4.9,1.7,9,5,12.4c3.3,3.4,7.3,5.1,11.9,5.1c4.5,0,8.4-1.8,11.7-5.3C312.9,64.9,314.6,60.6,314.6,55.6 M314.6,70.9
			c-1.8,2.5-4.1,4.5-7.1,6c-3,1.4-6.2,2.2-9.7,2.2c-6.4,0-11.8-2.2-16.1-6.6c-4.3-4.4-6.4-9.8-6.4-16.3c0-6.6,2.2-12.1,6.6-16.5
			c4.4-4.4,9.9-6.6,16.4-6.6c3.4,0,6.5,0.7,9.3,2.1c2.8,1.4,5.2,3.3,7,5.9v-7h5.5v43.9h-5.5V70.9z"/>
	</g>
	<g>
		<defs>
			<rect id="SVGID_10_" x="-0.7" y="1.1" width="372.1" height="78"/>
		</defs>
		<clipPath id="SVGID_11_">
			<use xlink:href="#SVGID_10_"  style="overflow:visible;"/>
		</clipPath>
		<path class="st5" d="M332,56.3c0,4.7,1.7,8.8,5,12.2c3.3,3.5,7.1,5.2,11.4,5.2c4.7,0,8.7-1.7,12-5.2c3.3-3.5,5-7.8,5-12.9
			c0-4.9-1.7-9-5-12.4c-3.3-3.4-7.3-5.1-11.9-5.1c-4.6,0-8.5,1.8-11.8,5.3C333.7,47,332,51.2,332,56.3 M332,19.7V38v3.3
			c2.4-2.8,5-5,7.8-6.3c2.8-1.4,6-2,9.5-2c6.2,0,11.4,2.2,15.7,6.7c4.3,4.4,6.4,9.9,6.4,16.2c0,6.6-2.2,12.1-6.6,16.5
			c-4.4,4.4-9.9,6.6-16.5,6.6c-3.2,0-6.2-0.6-8.9-1.9c-2.7-1.3-5.2-3.2-7.4-5.9v6.6h-5.6V19.7H332z"/>
	</g>
</g>
<polygon class="st6" points="83.8,1.1 83.8,12.9 95.2,12.9 95.2,19.7 83.8,19.7 83.8,31.5 76.8,31.5 76.8,19.7 65.3,19.7 65.3,12.9 
	76.8,12.9 76.8,1.1 "/>
</svg>
