<?xml version="1.0" encoding="utf-8"?>
<!-- Generator: Adobe Illustrator 24.0.1, SVG Export Plug-In . SVG Version: 6.00 Build 0)  -->
<svg version="1.1" id="Layer_1" xmlns="http://www.w3.org/2000/svg" xmlns:xlink="http://www.w3.org/1999/xlink" x="0px" y="0px"
	 viewBox="0 0 640 220" style="enable-background:new 0 0 640 220;" xml:space="preserve">
<style type="text/css">
	.st0{fill:#484848;}
	.st1{fill:#E95298;}
	.st2{fill:#4FADE1;}
	.st3{fill:#D3D827;}
</style>
<title>logo-</title>
<path class="st0" d="M193.2,157.2c0.3-0.5,0.6-1,1.1-1.4c0.5-0.4,1-0.6,1.6-0.8c0.7-0.2,1.4-0.3,2.1-0.3c0.6,0,1.2,0.1,1.8,0.2
	c0.6,0.1,1.1,0.3,1.6,0.6c0.5,0.3,0.9,0.8,1.1,1.3c0.3,0.7,0.5,1.4,0.4,2.2v7.1c-0.1,0.5,0.2,0.9,0.7,1c0.1,0,0.2,0,0.3,0
	c0.2,0,0.4,0,0.5-0.1v1.4l-0.5,0.1c-0.2,0-0.4,0-0.6,0c-0.3,0-0.7,0-1-0.2c-0.2-0.1-0.4-0.3-0.6-0.5c-0.1-0.2-0.2-0.5-0.3-0.7
	c0-0.3-0.1-0.6-0.1-0.9h-0.1c-0.3,0.4-0.6,0.8-0.9,1.1c-0.3,0.3-0.6,0.6-1,0.8c-0.4,0.2-0.8,0.4-1.3,0.5c-0.6,0.1-1.1,0.2-1.7,0.2
	c-0.6,0-1.2-0.1-1.7-0.2c-0.5-0.1-1-0.4-1.4-0.7c-0.4-0.3-0.8-0.7-1-1.2c-0.2-0.5-0.4-1.1-0.4-1.7c0-0.8,0.2-1.5,0.6-2.2
	c0.4-0.5,1-0.9,1.6-1.2c0.7-0.3,1.5-0.5,2.3-0.6l2.6-0.3c0.3,0,0.6-0.1,0.9-0.1c0.2,0,0.5-0.1,0.6-0.3c0.2-0.1,0.3-0.3,0.4-0.5
	c0.1-0.3,0.2-0.6,0.1-0.9c0-0.5-0.1-0.9-0.3-1.4c-0.2-0.3-0.4-0.6-0.8-0.8c-0.3-0.2-0.7-0.4-1.1-0.4c-0.4-0.1-0.9-0.1-1.4-0.1
	c-0.9,0-1.8,0.2-2.5,0.7c-0.7,0.6-1,1.5-1,2.4h-1.6C192.8,158.5,193,157.8,193.2,157.2z M201.4,161.2c-0.1,0.2-0.3,0.4-0.6,0.4
	c-0.3,0.1-0.5,0.1-0.8,0.2c-0.7,0.1-1.4,0.2-2.1,0.3c-0.7,0.1-1.3,0.2-2,0.4c-0.5,0.2-1.1,0.4-1.5,0.8c-0.4,0.4-0.6,0.9-0.6,1.5
	c0,0.4,0.1,0.8,0.2,1.1c0.2,0.3,0.4,0.6,0.7,0.8c0.3,0.2,0.6,0.4,0.9,0.5c0.4,0.1,0.7,0.2,1.1,0.2c0.6,0,1.2-0.1,1.8-0.3
	c0.5-0.2,1-0.5,1.5-0.8c0.9-0.8,1.4-1.9,1.4-3.1L201.4,161.2L201.4,161.2z"/>
<path class="st0" d="M207.8,155.1v3.1h0.1c0.7-2.1,2.8-3.5,5-3.3v1.6c-0.7,0-1.4,0.1-2,0.3c-0.6,0.2-1.1,0.6-1.6,1
	c-0.4,0.4-0.8,1-1,1.5c-0.2,0.6-0.4,1.3-0.4,1.9v7.1h-1.6v-13.3H207.8z"/>
<path class="st0" d="M219.7,155.1v1.4H217v9c0,0.4,0.1,0.9,0.2,1.2c0.1,0.3,0.5,0.5,1.1,0.5c0.5,0,0.9,0,1.4-0.1v1.4H219h-0.7
	c-0.8,0.1-1.6-0.1-2.3-0.6c-0.5-0.7-0.7-1.5-0.6-2.3v-9.1H213v-1.4h2.3v-4h1.7v4L219.7,155.1z"/>
<path class="st0" d="M222.4,155.1l3.4,11.4h0.1l3.2-11.4h1.8l3.2,11.4h0.1l3.4-11.4h1.7l-4.3,13.3h-1.8l-3.3-11.2l0,0l-3.2,11.2H225
	l-4.3-13.3H222.4z"/>
<path class="st0" d="M249.4,155.3c0.8,0.4,1.5,0.9,2,1.5c0.5,0.7,1,1.4,1.2,2.2c0.6,1.8,0.6,3.7,0,5.4c-0.2,0.8-0.7,1.6-1.2,2.2
	c-0.5,0.6-1.2,1.2-2,1.5c-1.7,0.7-3.7,0.7-5.4,0c-0.8-0.3-1.5-0.9-2-1.5c-0.5-0.7-1-1.4-1.2-2.2c-0.5-1.8-0.5-3.7,0-5.4
	c0.3-0.8,0.7-1.6,1.2-2.2c0.5-0.6,1.2-1.2,2-1.5C245.8,154.6,247.7,154.6,249.4,155.3z M244.7,156.6c-0.6,0.3-1.1,0.8-1.4,1.3
	c-0.4,0.5-0.7,1.2-0.9,1.8c-0.4,1.4-0.4,2.8,0,4.1c0.2,0.7,0.5,1.3,0.9,1.8c0.4,0.5,0.9,1,1.4,1.3c0.6,0.3,1.3,0.5,2,0.5
	c0.7,0,1.4-0.2,2-0.5c0.6-0.3,1.1-0.8,1.5-1.3c0.4-0.6,0.7-1.2,0.9-1.8c0.4-1.4,0.4-2.8,0-4.1c-0.2-0.7-0.5-1.3-0.9-1.8
	c-0.4-0.5-0.9-1-1.5-1.3c-0.6-0.3-1.3-0.5-2-0.5C246,156.1,245.3,156.3,244.7,156.6z"/>
<path class="st0" d="M256.9,155.1v3.1h0.1c0.4-1,1-1.9,1.9-2.5c0.9-0.6,2-0.8,3.1-0.8v1.6c-0.7,0-1.4,0.1-2,0.3
	c-0.6,0.2-1.1,0.6-1.6,1c-0.4,0.4-0.8,1-1,1.5c-0.2,0.6-0.4,1.3-0.4,1.9v7.1h-1.6v-13.3H256.9z"/>
<path class="st0" d="M265.2,150v11.5l7.4-6.4h2.2L269,160l6.1,8.4h-2l-5.2-7.2l-2.6,2.2v5.1h-1.6V150H265.2z"/>
<path class="st0" d="M285.3,150v18.4h-1.6V150H285.3z"/>
<path class="st0" d="M290,150v2.6h-1.6V150H290z M290,155.1v13.3h-1.6v-13.2L290,155.1z"/>
<path class="st0" d="M295.6,156.5v11.9H294v-11.9h-2.3v-1.4h2.3v-1.2c0-0.5,0-1.1,0.1-1.6c0.1-0.4,0.2-0.9,0.5-1.2
	c0.3-0.4,0.6-0.6,1-0.8c0.5-0.2,1.1-0.3,1.6-0.3h0.7l0.7,0.1v1.4l-0.6-0.1c-0.2,0-0.4,0-0.6,0c-0.3,0-0.7,0.1-1,0.2
	c-0.2,0.1-0.4,0.3-0.5,0.6c-0.1,0.3-0.2,0.5-0.2,0.8c0,0.3,0,0.6,0,1v1.2h2.6v1.4L295.6,156.5z"/>
<path class="st0" d="M301,164c0.2,0.6,0.4,1.2,0.8,1.7c0.4,0.5,0.8,0.9,1.4,1.2c0.6,0.3,1.3,0.5,2,0.5c1,0.1,2-0.3,2.8-0.9
	c0.7-0.7,1.2-1.5,1.4-2.5h1.7c-0.2,1.3-0.9,2.6-1.9,3.5c-1.1,0.9-2.5,1.3-3.9,1.2c-0.9,0-1.9-0.2-2.7-0.6c-0.7-0.3-1.4-0.9-1.9-1.5
	c-0.5-0.7-0.9-1.4-1.1-2.2c-0.2-0.9-0.4-1.8-0.4-2.7c0-0.9,0.1-1.7,0.4-2.6c0.2-0.8,0.6-1.6,1.1-2.3c0.5-0.7,1.1-1.2,1.9-1.6
	c0.8-0.4,1.8-0.6,2.7-0.6c1,0,1.9,0.2,2.7,0.6c0.7,0.4,1.4,1,1.9,1.7c0.5,0.7,0.8,1.5,1,2.4c0.2,0.9,0.3,1.8,0.3,2.7h-10.3
	C300.8,162.8,300.8,163.4,301,164z M309,159c-0.2-0.5-0.5-1.1-0.8-1.5c-0.4-0.4-0.8-0.8-1.3-1c-0.5-0.3-1.1-0.4-1.8-0.4
	c-0.6,0-1.2,0.1-1.8,0.4c-0.5,0.2-0.9,0.6-1.3,1c-0.4,0.5-0.7,1-0.9,1.5c-0.2,0.6-0.4,1.2-0.4,1.8h8.6
	C309.3,160.2,309.2,159.6,309,159L309,159z"/>
<path class="st0" d="M321.3,157c-0.7-0.6-1.6-0.9-2.5-0.9c-0.7,0-1.4,0.2-2,0.5c-0.6,0.3-1.1,0.8-1.5,1.3c-0.4,0.5-0.7,1.2-0.9,1.8
	c-0.4,1.4-0.4,2.8,0,4.1c0.2,0.7,0.5,1.3,0.9,1.8c0.4,0.5,0.9,1,1.5,1.3c0.6,0.3,1.3,0.5,2,0.5c0.5,0,1-0.1,1.4-0.3
	c0.4-0.2,0.8-0.5,1.2-0.8c0.3-0.3,0.6-0.8,0.9-1.2c0.2-0.5,0.4-1,0.4-1.5h1.6c-0.1,1.4-0.8,2.8-1.8,3.8c-1,0.9-2.3,1.4-3.7,1.4
	c-0.9,0-1.8-0.2-2.7-0.6c-0.8-0.3-1.5-0.9-2-1.5c-0.5-0.7-1-1.4-1.2-2.2c-0.5-1.8-0.5-3.7,0-5.4c0.3-0.8,0.7-1.6,1.2-2.2
	c0.5-0.6,1.2-1.2,2-1.5c0.8-0.4,1.8-0.6,2.7-0.6c1.3,0,2.6,0.4,3.6,1.1c1,0.8,1.7,2.1,1.8,3.4h-1.6C322.4,158.5,322,157.6,321.3,157
	z"/>
<path class="st0" d="M326.8,155.1l4.4,11.3l4.1-11.3h1.6l-5.8,15.3c-0.2,0.5-0.4,1-0.7,1.4c-0.2,0.3-0.4,0.6-0.7,0.9
	c-0.3,0.2-0.5,0.4-0.9,0.5c-0.4,0.1-0.8,0.1-1.3,0.1h-0.8c-0.2,0-0.3,0-0.5-0.1v-1.4l0.6,0.1c0.2,0,0.4,0,0.5,0c0.3,0,0.6,0,0.9-0.1
	c0.2-0.1,0.4-0.2,0.6-0.4c0.2-0.2,0.3-0.4,0.4-0.6l0.4-0.9l0.6-1.5l-5.3-13.2L326.8,155.1z"/>
<path class="st0" d="M346.6,157c-0.7-0.6-1.6-0.9-2.5-0.9c-0.7,0-1.4,0.2-2,0.5c-0.6,0.3-1.1,0.8-1.5,1.3c-0.4,0.5-0.7,1.2-0.9,1.8
	c-0.4,1.4-0.4,2.8,0,4.1c0.2,0.7,0.5,1.3,0.9,1.8c0.4,0.5,0.9,1,1.5,1.3c0.6,0.3,1.3,0.5,2,0.5c0.5,0,1-0.1,1.4-0.3
	c0.4-0.2,0.8-0.5,1.2-0.8c0.4-0.3,0.6-0.8,0.9-1.2c0.2-0.5,0.4-1,0.4-1.5h1.6c-0.1,1.4-0.8,2.8-1.8,3.8c-1,0.9-2.3,1.4-3.7,1.4
	c-0.9,0-1.8-0.2-2.7-0.6c-0.8-0.3-1.5-0.9-2-1.5c-0.5-0.7-1-1.4-1.2-2.2c-0.6-1.8-0.6-3.7,0-5.4c0.2-0.8,0.7-1.6,1.2-2.2
	c0.5-0.6,1.2-1.2,2-1.5c0.8-0.4,1.8-0.6,2.7-0.6c1.3,0,2.6,0.4,3.6,1.1c1,0.8,1.7,2.1,1.8,3.4h-1.6
	C347.7,158.5,347.3,157.6,346.6,157z"/>
<path class="st0" d="M353.5,150v18.4h-1.6V150H353.5z"/>
<path class="st0" d="M357.8,164c0.2,0.6,0.4,1.2,0.8,1.7c0.4,0.5,0.8,1,1.4,1.3c0.6,0.3,1.3,0.5,2,0.5c1,0.1,2-0.3,2.8-0.9
	c0.7-0.7,1.2-1.5,1.4-2.5h1.6c-0.2,1.3-0.9,2.6-1.9,3.5c-1.1,0.9-2.5,1.3-3.9,1.2c-0.9,0-1.9-0.2-2.7-0.6c-0.7-0.3-1.4-0.9-1.9-1.5
	c-0.5-0.7-0.9-1.4-1.1-2.2c-0.2-0.9-0.4-1.8-0.4-2.7c0-0.9,0.1-1.7,0.4-2.6c0.2-0.8,0.6-1.6,1.1-2.3c0.5-0.7,1.1-1.2,1.9-1.6
	c0.8-0.4,1.8-0.6,2.7-0.6c1.8-0.1,3.6,0.8,4.6,2.3c0.5,0.7,0.8,1.5,1,2.4c0.2,0.9,0.3,1.8,0.3,2.7h-10.2
	C357.6,162.8,357.7,163.4,357.8,164z M365.8,159c-0.2-0.5-0.5-1.1-0.8-1.5c-0.4-0.4-0.8-0.8-1.3-1c-0.5-0.3-1.1-0.4-1.8-0.4
	c-0.6,0-1.2,0.1-1.8,0.4c-0.5,0.2-0.9,0.6-1.3,1c-0.4,0.5-0.7,1-0.9,1.5c-0.2,0.6-0.3,1.2-0.4,1.8h8.6
	C366.1,160.2,366.1,159.6,365.8,159L365.8,159z"/>
<path class="st0" d="M378.7,155.1v2.2h0.1c0.4-0.8,1-1.4,1.7-1.9c0.8-0.5,1.7-0.7,2.7-0.7c0.8,0,1.7,0.2,2.4,0.6
	c0.7,0.4,1.2,1.1,1.4,1.9c0.4-0.8,1-1.5,1.8-1.9c0.8-0.4,1.6-0.7,2.5-0.6c2.9,0,4.4,1.6,4.4,4.7v9h-1.6v-8.9
	c0.1-0.9-0.2-1.8-0.7-2.5c-0.6-0.6-1.5-1-2.5-0.9c-0.6,0-1.2,0.1-1.8,0.4c-0.5,0.3-0.8,0.6-1.1,1.1c-0.3,0.5-0.5,1-0.6,1.5
	c-0.1,0.6-0.2,1.2-0.2,1.8v7.5h-1.6v-9c0-0.4,0-0.9-0.1-1.3c-0.1-0.4-0.2-0.7-0.5-1.1c-0.2-0.3-0.5-0.5-0.9-0.7
	c-0.4-0.2-0.9-0.3-1.3-0.2c-0.6,0-1.2,0.1-1.8,0.4c-0.5,0.2-0.9,0.6-1.2,1c-0.3,0.5-0.6,1-0.7,1.6c-0.2,0.6-0.2,1.3-0.2,1.9v7.4
	h-1.6v-13.3H378.7z"/>
<path class="st0" d="M399,157.2c0.3-0.5,0.6-1,1.1-1.4c0.5-0.4,1.1-0.6,1.7-0.8c0.7-0.2,1.4-0.3,2.1-0.3c0.6,0,1.2,0.1,1.8,0.2
	c0.6,0.1,1.1,0.3,1.6,0.6c0.5,0.3,0.9,0.8,1.1,1.3c0.3,0.7,0.5,1.4,0.4,2.2v7.1c-0.1,0.5,0.2,0.9,0.7,1c0.1,0,0.2,0,0.2,0
	c0.2,0,0.4,0,0.5-0.1v1.4l-0.5,0.1c-0.2,0-0.4,0-0.6,0c-0.3,0-0.7,0-1-0.2c-0.2-0.1-0.4-0.3-0.6-0.5c-0.1-0.2-0.2-0.5-0.3-0.7
	c0-0.3-0.1-0.6-0.1-0.9h0c-0.3,0.4-0.6,0.8-0.9,1.1c-0.3,0.3-0.6,0.6-1,0.8c-0.4,0.2-0.8,0.4-1.3,0.5c-0.6,0.1-1.1,0.2-1.7,0.2
	c-0.6,0-1.2-0.1-1.7-0.2c-0.5-0.1-1-0.4-1.4-0.7c-0.4-0.3-0.7-0.7-1-1.2c-0.2-0.5-0.4-1.1-0.4-1.7c0-0.8,0.2-1.5,0.6-2.2
	c0.4-0.5,1-0.9,1.6-1.2c0.7-0.3,1.5-0.5,2.3-0.6l2.6-0.3c0.3,0,0.6-0.1,0.9-0.1c0.2,0,0.5-0.1,0.6-0.3c0.2-0.1,0.3-0.3,0.4-0.5
	c0.1-0.3,0.2-0.6,0.1-0.9c0-0.5-0.1-0.9-0.3-1.4c-0.2-0.3-0.4-0.6-0.8-0.8c-0.3-0.2-0.7-0.4-1.1-0.4c-0.4-0.1-0.9-0.1-1.4-0.1
	c-0.9,0-1.8,0.2-2.5,0.7c-0.7,0.6-1,1.5-1,2.4h-1.6C398.6,158.5,398.7,157.8,399,157.2z M407.1,161.2c-0.1,0.2-0.3,0.4-0.6,0.4
	c-0.3,0.1-0.5,0.1-0.8,0.2c-0.7,0.1-1.4,0.2-2.1,0.3c-0.7,0.1-1.3,0.2-2,0.4c-0.5,0.2-1.1,0.4-1.5,0.8c-0.4,0.4-0.6,0.9-0.6,1.5
	c0,0.4,0.1,0.8,0.2,1.1c0.2,0.3,0.4,0.6,0.7,0.8c0.3,0.2,0.6,0.4,1,0.5c0.4,0.1,0.7,0.2,1.1,0.2c0.6,0,1.2-0.1,1.8-0.3
	c0.5-0.2,1-0.5,1.5-0.8c0.9-0.8,1.4-1.9,1.4-3.1L407.1,161.2L407.1,161.2z"/>
<path class="st0" d="M413.6,155.1v2.3l0,0c0.3-0.8,0.9-1.5,1.6-1.9c0.8-0.5,1.7-0.7,2.6-0.7c0.8,0,1.6,0.1,2.3,0.4
	c0.6,0.2,1.1,0.5,1.5,1c0.4,0.5,0.7,1,0.8,1.6c0.2,0.7,0.2,1.4,0.2,2.1v8.6h-1.6v-8.3c0-0.5,0-1.1-0.1-1.6c-0.1-0.5-0.3-0.9-0.5-1.3
	c-0.3-0.4-0.6-0.7-1-0.9c-0.5-0.2-1.1-0.3-1.6-0.3c-0.6,0-1.2,0.1-1.7,0.3c-0.5,0.2-0.9,0.6-1.3,1c-0.4,0.4-0.6,0.9-0.8,1.4
	c-0.2,0.6-0.3,1.2-0.3,1.8v7.8H412v-13.3H413.6z"/>
<path class="st0" d="M426.2,157.2c0.3-0.5,0.6-1,1.1-1.4c0.5-0.4,1.1-0.7,1.7-0.8c0.7-0.2,1.4-0.3,2.1-0.3c0.6,0,1.2,0.1,1.8,0.2
	c0.6,0.1,1.1,0.3,1.6,0.6c0.5,0.3,0.9,0.8,1.1,1.3c0.3,0.7,0.5,1.4,0.4,2.2v7.1c-0.1,0.5,0.2,0.9,0.7,1c0.1,0,0.2,0,0.2,0
	c0.2,0,0.4,0,0.5-0.1v1.4c-0.2,0-0.4,0.1-0.5,0.1c-0.2,0-0.4,0-0.5,0c-0.3,0-0.7,0-1-0.2c-0.2-0.1-0.4-0.3-0.6-0.5
	c-0.1-0.2-0.2-0.5-0.3-0.7c0-0.3-0.1-0.6-0.1-0.9h0c-0.3,0.4-0.6,0.8-0.9,1.1c-0.3,0.3-0.6,0.6-1,0.8c-0.4,0.2-0.8,0.4-1.3,0.5
	c-0.6,0.1-1.1,0.2-1.7,0.2c-0.6,0-1.2-0.1-1.7-0.2c-0.5-0.1-1-0.4-1.4-0.7c-0.4-0.3-0.7-0.7-1-1.2c-0.2-0.5-0.4-1.1-0.4-1.7
	c0-0.8,0.2-1.5,0.6-2.2c0.4-0.5,1-0.9,1.6-1.2c0.7-0.3,1.5-0.5,2.3-0.6l2.6-0.3c0.3,0,0.6-0.1,0.9-0.1c0.2,0,0.5-0.1,0.6-0.3
	c0.2-0.1,0.3-0.3,0.4-0.5c0.1-0.3,0.2-0.6,0.1-0.9c0-0.5-0.1-0.9-0.3-1.4c-0.2-0.3-0.4-0.6-0.7-0.8c-0.3-0.2-0.7-0.4-1.1-0.4
	c-0.4-0.1-0.9-0.1-1.4-0.1c-0.9,0-1.8,0.2-2.5,0.7c-0.7,0.6-1.1,1.5-1,2.4h-1.6C425.8,158.5,425.9,157.8,426.2,157.2z M434.3,161.2
	c-0.1,0.2-0.3,0.4-0.6,0.4c-0.3,0.1-0.5,0.1-0.8,0.2c-0.7,0.1-1.4,0.2-2.1,0.3c-0.7,0.1-1.3,0.2-2,0.4c-0.5,0.2-1.1,0.4-1.5,0.8
	c-0.4,0.4-0.6,0.9-0.6,1.5c0,0.4,0.1,0.8,0.2,1.1c0.2,0.3,0.4,0.6,0.7,0.8c0.3,0.2,0.6,0.4,1,0.5c0.4,0.1,0.7,0.2,1.1,0.2
	c0.6,0,1.2-0.1,1.8-0.3c0.5-0.2,1.1-0.5,1.5-0.8c0.9-0.8,1.4-1.9,1.4-3.1L434.3,161.2L434.3,161.2z"/>
<path class="st0" d="M450.1,170c-0.2,0.7-0.5,1.4-1,2c-0.5,0.6-1.1,1-1.8,1.3c-0.9,0.3-1.8,0.5-2.7,0.4c-0.7,0-1.3-0.1-2-0.2
	c-0.6-0.1-1.2-0.4-1.7-0.7c-0.5-0.3-0.9-0.7-1.3-1.2c-0.3-0.5-0.5-1.2-0.6-1.8h1.6c0.1,0.5,0.2,0.9,0.5,1.2c0.2,0.3,0.6,0.6,0.9,0.8
	c0.4,0.2,0.8,0.4,1.2,0.4c0.4,0.1,0.9,0.1,1.3,0.1c1.2,0.1,2.4-0.4,3.3-1.3c0.7-1.1,1.1-2.4,1-3.7v-1.8h-0.1c-0.4,0.8-0.9,1.5-1.7,2
	c-0.8,0.5-1.6,0.8-2.6,0.8c-0.9,0-1.9-0.2-2.7-0.5c-0.7-0.3-1.3-0.8-1.8-1.4c-0.5-0.6-0.9-1.4-1.1-2.2c-0.2-0.9-0.3-1.8-0.3-2.7
	c0-0.9,0.1-1.8,0.4-2.6c0.3-0.8,0.6-1.5,1.2-2.1c0.5-0.6,1.2-1.1,1.9-1.4c0.8-0.4,1.7-0.5,2.6-0.5c0.5,0,0.9,0.1,1.4,0.2
	c0.4,0.1,0.8,0.3,1.2,0.6c0.4,0.2,0.7,0.5,1,0.9c0.3,0.3,0.5,0.6,0.6,1h0.1v-2.3h1.6v12.2C450.5,168.2,450.4,169.1,450.1,170z
	 M446.4,166.4c0.5-0.3,1-0.7,1.3-1.2c0.4-0.5,0.6-1.1,0.8-1.7c0.2-0.7,0.3-1.3,0.3-2c0-0.7-0.1-1.3-0.2-2c-0.1-0.6-0.4-1.2-0.7-1.8
	c-0.3-0.5-0.8-1-1.3-1.3c-0.6-0.3-1.3-0.5-2-0.5c-0.7,0-1.4,0.1-2,0.5c-0.5,0.3-1,0.7-1.4,1.2c-0.4,0.5-0.6,1.1-0.8,1.8
	c-0.2,0.7-0.2,1.3-0.2,2c0,0.7,0.1,1.3,0.3,2c0.2,0.6,0.4,1.2,0.8,1.7c0.4,0.5,0.8,0.9,1.4,1.2c0.6,0.3,1.3,0.5,2,0.4
	C445.2,166.9,445.8,166.7,446.4,166.4L446.4,166.4z"/>
<path class="st0" d="M454.7,164c0.1,0.6,0.4,1.2,0.8,1.7c0.4,0.5,0.8,0.9,1.4,1.2c0.6,0.3,1.3,0.5,2,0.5c1,0.1,2-0.3,2.8-0.9
	c0.7-0.7,1.2-1.5,1.4-2.5h1.6c-0.2,1.3-0.9,2.6-1.9,3.5c-1.1,0.9-2.5,1.3-3.9,1.2c-0.9,0-1.9-0.2-2.7-0.6c-0.7-0.3-1.4-0.9-1.9-1.5
	c-0.5-0.7-0.9-1.4-1.1-2.2c-0.2-0.9-0.4-1.8-0.4-2.7c0-0.9,0.1-1.7,0.4-2.6c0.2-0.8,0.6-1.6,1.1-2.3c0.5-0.7,1.1-1.2,1.9-1.6
	c0.8-0.4,1.8-0.6,2.7-0.6c1.8-0.1,3.6,0.8,4.6,2.3c0.5,0.7,0.8,1.5,1,2.4c0.2,0.9,0.3,1.8,0.2,2.7h-10.2
	C454.5,162.8,454.6,163.4,454.7,164z M462.7,159c-0.2-0.5-0.5-1.1-0.8-1.5c-0.4-0.4-0.8-0.8-1.3-1c-1.1-0.5-2.4-0.5-3.5,0
	c-0.5,0.2-1,0.6-1.3,1c-0.4,0.5-0.7,1-0.9,1.5c-0.2,0.6-0.4,1.2-0.4,1.8h8.6C463.1,160.2,463,159.6,462.7,159L462.7,159z"/>
<path class="st0" d="M468.4,155.1v2.2h0.1c0.4-0.8,1-1.4,1.7-1.9c0.8-0.5,1.7-0.7,2.7-0.7c0.8,0,1.7,0.2,2.4,0.6
	c0.7,0.4,1.2,1.1,1.4,1.9c0.4-0.8,1-1.5,1.8-1.9c0.8-0.4,1.6-0.7,2.5-0.6c2.9,0,4.4,1.6,4.4,4.7v9h-1.6v-8.9
	c0.1-0.9-0.2-1.7-0.7-2.5c-0.6-0.6-1.5-1-2.5-0.9c-0.6,0-1.2,0.1-1.8,0.4c-0.5,0.3-0.8,0.6-1.1,1.1c-0.3,0.5-0.5,1-0.6,1.5
	c-0.1,0.6-0.2,1.2-0.2,1.8v7.5h-1.6v-9c0-0.4,0-0.9-0.1-1.3c-0.1-0.4-0.2-0.7-0.5-1.1c-0.2-0.3-0.5-0.5-0.9-0.7
	c-0.4-0.2-0.9-0.3-1.3-0.2c-0.6,0-1.2,0.1-1.8,0.4c-0.5,0.2-0.9,0.6-1.2,1c-0.3,0.5-0.6,1-0.7,1.6c-0.2,0.6-0.2,1.3-0.2,1.9v7.4
	h-1.6v-13.3H468.4z"/>
<path class="st0" d="M489.6,164c0.2,0.6,0.4,1.2,0.8,1.7c0.4,0.5,0.8,0.9,1.4,1.2c0.6,0.3,1.3,0.5,2,0.5c1,0.1,2-0.3,2.8-0.9
	c0.7-0.7,1.2-1.5,1.4-2.5h1.6c-0.3,1.3-0.9,2.6-1.9,3.5c-1.1,0.9-2.5,1.3-3.9,1.2c-0.9,0-1.9-0.2-2.7-0.6c-0.7-0.4-1.4-0.9-1.9-1.5
	c-0.5-0.7-0.9-1.4-1.1-2.2c-0.2-0.9-0.4-1.8-0.4-2.7c0-0.9,0.1-1.7,0.4-2.6c0.2-0.8,0.6-1.6,1.1-2.3c0.5-0.7,1.1-1.2,1.9-1.6
	c0.8-0.4,1.8-0.6,2.7-0.6c1.8-0.1,3.6,0.8,4.6,2.3c0.5,0.7,0.8,1.5,1,2.4c0.2,0.9,0.3,1.8,0.3,2.7h-10.2
	C489.3,162.8,489.4,163.4,489.6,164z M497.6,159c-0.2-0.5-0.5-1.1-0.8-1.5c-0.4-0.4-0.8-0.8-1.3-1c-0.5-0.3-1.1-0.4-1.8-0.4
	c-0.6,0-1.2,0.1-1.8,0.4c-0.5,0.2-0.9,0.6-1.3,1c-0.4,0.5-0.7,1-0.9,1.5c-0.2,0.6-0.4,1.2-0.4,1.8h8.6
	C497.9,160.2,497.8,159.6,497.6,159L497.6,159z"/>
<path class="st0" d="M503.4,155.1v2.3l0,0c0.3-0.8,0.9-1.5,1.6-1.9c0.8-0.5,1.7-0.7,2.6-0.7c0.8,0,1.6,0.1,2.3,0.4
	c0.6,0.2,1.1,0.5,1.5,1c0.4,0.5,0.7,1,0.8,1.6c0.2,0.7,0.2,1.4,0.2,2.1v8.6h-1.6v-8.3c0-0.5,0-1.1-0.2-1.6c-0.1-0.5-0.3-0.9-0.5-1.3
	c-0.3-0.4-0.6-0.7-1-0.9c-0.5-0.2-1.1-0.3-1.6-0.3c-0.6,0-1.2,0.1-1.7,0.3c-0.5,0.2-0.9,0.6-1.3,1c-0.4,0.4-0.6,0.9-0.8,1.4
	c-0.2,0.6-0.3,1.2-0.3,1.8v7.8h-1.6v-13.3H503.4z"/>
<path class="st0" d="M520.9,155.1v1.4h-2.7v9c0,0.4,0.1,0.9,0.2,1.2c0.2,0.3,0.5,0.5,1.1,0.5c0.5,0,0.9,0,1.4-0.1v1.4h-0.7h-0.7
	c-0.8,0.1-1.6-0.1-2.3-0.6c-0.5-0.7-0.7-1.5-0.6-2.3v-9.1h-2.3v-1.4h2.3v-4h1.6v4L520.9,155.1z"/>
<path class="st0" d="M144.9,73.6c3.1-0.1,6.2,0.5,9.1,1.6c2.3,0.9,4.4,2.3,6.1,4.1c1.6,1.7,2.7,3.7,3.4,5.8c1.4,4.4,1.4,9.2,0,13.6
	c-0.7,2.2-1.9,4.2-3.4,5.9c-1.7,1.8-3.8,3.2-6.1,4.1c-2.9,1.1-6,1.6-9.1,1.6h-13.2v20.5h-12.6V73.6H144.9z M141.5,100.5
	c1.4,0,2.8-0.1,4.2-0.3c1.2-0.2,2.4-0.6,3.5-1.2c1-0.6,1.9-1.5,2.4-2.6c1.2-2.8,1.2-6,0-8.8c-0.6-1.1-1.4-2-2.4-2.6
	c-1.1-0.6-2.3-1.1-3.5-1.2c-1.4-0.2-2.8-0.3-4.2-0.3h-9.8v17.1L141.5,100.5z"/>
<path class="st0" d="M195.1,73.6l21.4,57.1h-13l-4.3-12.7h-21.4l-4.5,12.7h-12.7l21.6-57.1H195.1z M195.8,108.7l-7.2-21h-0.2
	l-7.4,21H195.8z"/>
<path class="st0" d="M231,116.7c0.7,1.3,1.6,2.4,2.8,3.2c1.2,0.9,2.6,1.5,4,1.8c1.6,0.4,3.2,0.6,4.8,0.6c1.2,0,2.4-0.1,3.6-0.3
	c1.2-0.2,2.5-0.5,3.6-1.1c1.1-0.5,2-1.3,2.8-2.2c0.8-1,1.2-2.3,1.1-3.6c0.1-1.4-0.5-2.8-1.5-3.8c-1.1-1-2.4-1.9-3.9-2.4
	c-1.8-0.7-3.6-1.3-5.4-1.7c-2-0.5-4.1-1-6.2-1.6c-2.1-0.5-4.2-1.2-6.2-2c-1.9-0.7-3.8-1.7-5.4-3c-1.6-1.2-2.9-2.8-3.9-4.6
	c-1-2.1-1.5-4.4-1.5-6.7c-0.1-2.7,0.6-5.3,1.9-7.6c1.2-2.1,2.9-4,4.9-5.4c2.1-1.5,4.4-2.6,6.9-3.2c2.5-0.7,5.1-1,7.7-1
	c2.9,0,5.8,0.3,8.6,1c2.6,0.6,5.1,1.7,7.4,3.3c2.1,1.5,3.9,3.4,5.1,5.7c1.3,2.6,2,5.5,1.9,8.4h-12.2c0-1.5-0.4-2.9-1.1-4.2
	c-0.6-1.1-1.4-2-2.4-2.6c-1.1-0.7-2.2-1.1-3.5-1.4c-1.4-0.3-2.8-0.4-4.3-0.4c-1,0-2,0.1-3,0.3c-1,0.2-1.9,0.6-2.8,1.1
	c-0.8,0.5-1.5,1.2-2,2c-0.6,0.9-0.8,1.9-0.8,3c0,0.9,0.2,1.9,0.6,2.7c0.6,0.9,1.5,1.5,2.5,1.9c1.7,0.7,3.4,1.3,5.2,1.8
	c2.2,0.6,5.1,1.3,8.7,2.2c1.1,0.2,2.6,0.6,4.4,1.2c2,0.6,3.8,1.5,5.5,2.7c1.9,1.3,3.6,3,4.9,4.9c1.4,2.4,2.1,5.1,2,7.9
	c0,2.5-0.5,5-1.5,7.3c-1,2.3-2.6,4.2-4.5,5.8c-2.2,1.7-4.7,3-7.4,3.8c-3.3,1-6.8,1.4-10.3,1.4c-3.1,0-6.1-0.4-9.1-1.2
	c-2.8-0.7-5.5-1.9-7.9-3.6c-2.3-1.7-4.1-3.8-5.4-6.3c-1.4-2.8-2-6-1.9-9.1H230C229.9,113.5,230.3,115.2,231,116.7z"/>
<path class="st0" d="M298.3,73.6h5l22.3,53.2h0.2l22.1-53.2h5v57.1h-3.5V78h-0.2l-21.8,52.8H324L302,78h-0.2v52.8h-3.5V73.6z"/>
<path class="st0" d="M363,73.6h38.4v3h-34.9v22.9h32.8v3h-32.8v25.1h35.3v3H363V73.6z"/>
<path class="st0" d="M407.9,73.6h18.7c4.4-0.1,8.7,0.7,12.8,2.4c3.2,1.4,6,3.6,8.1,6.4c2,2.7,3.5,5.8,4.3,9.1
	c0.8,3.5,1.3,7,1.3,10.6c0,3.8-0.5,7.6-1.6,11.3c-1,3.3-2.6,6.4-4.8,9.1c-2.3,2.6-5.1,4.7-8.3,6c-3.8,1.6-7.8,2.3-11.9,2.2h-18.6
	V73.6z M426.7,127.7c2.7,0,5.4-0.4,8-1.2c2.7-0.8,5.2-2.3,7.3-4.2c2.3-2.2,4.2-4.9,5.3-7.8c1.5-4,2.1-8.2,2-12.4
	c0.1-3.4-0.3-6.7-1.2-10c-0.6-2.5-1.6-4.8-3-7c-1.1-1.8-2.6-3.3-4.3-4.5c-1.5-1.1-3.2-1.9-5-2.5c-1.7-0.6-3.5-1-5.3-1.1
	c-1.6-0.2-3.1-0.3-4.7-0.3h-14.6v51.1L426.7,127.7z"/>
<path class="st0" d="M461.2,73.6h3.5v57.1h-3.5V73.6z"/>
<path class="st0" d="M491.8,73.6h3.8l22.6,57.1h-3.8l-7.2-18.3h-27.4l-7.3,18.3h-3.8L491.8,73.6z M506.1,109.4l-12.2-32.3h-0.2
	L481,109.4H506.1z"/>
<rect x="276.6" y="72.3" class="st1" width="8.7" height="19.7"/>
<rect x="276.6" y="92" class="st2" width="8.7" height="19.7"/>
<rect x="276.6" y="111.7" class="st3" width="8.7" height="19.7"/>
</svg>
