<?xml version="1.0" encoding="utf-8"?>
<!-- Generator: Adobe Illustrator 24.0.3, SVG Export Plug-In . SVG Version: 6.00 Build 0)  -->
<svg version="1.1" id="Layer_1" xmlns="http://www.w3.org/2000/svg" xmlns:xlink="http://www.w3.org/1999/xlink" x="0px" y="0px"
	 viewBox="0 0 414.7 114.6" style="enable-background:new 0 0 414.7 114.6;" xml:space="preserve">
<style type="text/css">
	.st0{fill:#484848;}
	.st1{fill:#0A80A3;}
	.st2{fill:#FFFFFF;}
</style>
<title>logo-</title>
<path id="_Compound_Path_" class="st0" d="M256.7,83.5c-0.2-0.4-0.6-0.6-1-0.6h-0.1c-1,0.3-2,0.2-2.9-0.3c-1-0.6-1.4-2.1-1.4-4.5
	V56.7c0-8.4-5-12.6-14.8-12.6c-8.8,0-15.7,4.2-15.7,9.5c-0.2,2.5,1.6,4.7,4.1,5c1.6,0.1,3.2-0.5,4.3-1.7c2.2-2.3,1.9-5-0.8-7.9
	c1.6-1.6,4.3-2.6,7.5-2.6c5.1,0,7.3,3,7.3,10.1v5.4c-1.2,0.4-2.3,0.7-4.4,1.2c-4.1,1-9.8,2.3-14.1,4.6c-3.4,1.7-5.5,5.3-5.3,9.1
	c0,4.5,2.9,9.7,11.2,9.7c4.6,0,8.8-2.2,13-6.9c0.4,4.9,2.2,6.7,6.7,6.7c2.1,0,4.1-0.5,6-1.5C256.7,84.7,256.9,84.1,256.7,83.5z
	 M243.1,77c-1,1.4-4.3,5.6-8.4,5.6c-5.5,0-6.7-3.9-6.7-7.1c0-5.3,4.1-7.8,15-10.5L243.1,77z"/>
<path id="_Compound_Path_2" class="st0" d="M348.9,86.9c-11.7,0-20.5-9.2-20.5-21.3c0-11.9,9.2-21.6,20.5-21.6s20.4,9.3,20.4,21.2
	C369.3,78.6,358.7,86.9,348.9,86.9z M348.4,46.2c-5,0-10.9,2.2-10.9,19.1c0,12.9,3.8,19.2,11.6,19.2c7.5,0,10.9-5.9,10.9-19.2
	C360.1,52.5,356.2,46.2,348.4,46.2z"/>
<path class="st0" d="M128.9,29.3c0-0.6,0-1.1,0-1.7c9.3,0,18.6,0,27.9,0c0.3,0.1,0.5,0.2,0.8,0.3c2.8,0.5,5.7,0.8,8.4,1.5
	c4,1.1,7.5,3.1,9.8,6.7c1.8,2.8,2.2,5.9,2.2,9.2c0,7-4.2,11.7-9.6,14.3c-4.7,2.3-9.7,2.8-14.9,3c-2.3,0.1-4.7,0-7.1,0
	c0,5.4-0.1,10.6,0,15.9c0,1.5,0.6,3,2.2,3.6c1.8,0.7,3.7,1.2,5.6,1.5c0.9,0.2,1.3,0.4,1.3,1.3c0,1.1-0.8,0.8-1.4,0.8
	c-8,0-16.1,0-24.1,0c-0.4,0-0.8-0.1-1.3-0.2c0-0.6,0-1.1,0-1.7c1.2-0.2,2.5-0.4,3.7-0.7c2.9-0.7,4.8-2.1,4.8-5.9
	c-0.1-13.9-0.1-27.8,0-41.7c0-3.1-1.6-4.7-4.5-5.2C131.5,30.2,130,30.5,128.9,29.3z M146.6,59.9c4.3-0.2,8.5-0.2,12.7-0.8
	c3.9-0.6,6.6-3.1,7.6-7c1.1-4.2,1.2-8.5,0.3-12.8c-0.9-4.3-3.5-7-7.7-8.1c-1.4-0.4-2.9-0.6-4.4-0.6c-2.8-0.1-5.7,0-8.5,0
	C146.6,40.1,146.6,49.8,146.6,59.9z"/>
<path id="_Compound_Path_3" class="st0" d="M197.1,43.9c-10.8,0-19.6,9.8-19.6,21.8s8.2,21,19.6,21c9.5,0,14.2-5.7,16.9-10
	c0.2-0.4,0.1-1-0.3-1.3l-0.1-0.1c-0.4-0.3-1-0.2-1.3,0.2c-3.5,4.4-6.6,7-11.9,7c-6.7,0-13.9-4.6-13.9-17.6v-0.1c0-0.6,0-1.4,0-2.1
	H214c0.1,0,0.1-0.1,0.1-0.1v-0.2c0.4-5.3-1.1-10.1-4.2-13.5S202.5,43.9,197.1,43.9z M186.7,60c0.9-8.9,4.4-13.7,9.8-13.7
	c2.7,0,4.8,0.8,6.2,2.3c2,2.1,2.8,6,2.5,11.4L186.7,60z"/>
<path id="_Path_" class="st0" d="M311,60.5L311,60.5c-7.5-2.1-10.4-4.2-10.4-7.6c0-3.8,3-6.6,7.2-6.6c4.9,0,7,2.3,12.3,11.1l0.1,0.1
	l0.1,0.1h0.7c0.5,0,1-0.4,1-0.9V44.1c0-0.1-0.1-0.1-0.1-0.1l0,0h-1c-0.3,0-0.6,0.1-0.7,0.3l-1.7,2c-2.8-1.5-5.8-2.3-9-2.3
	c-8.6,0-14.7,5.3-14.7,13c0,7.2,4.8,9.9,13,12.1c8,2.2,10.8,4.4,10.8,8.7c0,4.7-4.5,6.8-7.8,6.8c-6,0-8.5-2.2-14.3-12.6l-0.1-0.1
	l-0.1-0.1h-0.7c-0.5,0-1,0.4-1,0.9v14c0,0.1,0.1,0.1,0.1,0.1l0,0h1c0.3,0,0.5-0.1,0.7-0.3l2.6-2.6c3.3,1.8,6.9,2.8,10.7,2.9
	c4.5,0,8.2-1.4,10.7-4.1c2.3-2.6,3.5-6.1,3.5-9.6C323.9,66.6,320.4,63.2,311,60.5z"/>
<path id="_Path_2" class="st0" d="M265.5,81.1c0,2.2-0.5,2.9-4,3.1c-0.5,0.2-0.8,0.8-0.6,1.3c0.1,0.3,0.4,0.5,0.7,0.6h17
	c0.5,0,0.9-0.4,0.9-0.9s-0.4-0.9-0.9-1c-3.9-0.2-5-0.8-5-3.1V56.2c2.8-4.7,4.8-7.1,8.2-7.8c-0.2,0.6-0.3,1.2-0.3,1.9
	c0,2.8,2.3,5.1,5.1,5.1s5.1-2.3,5.1-5.1l0,0c0-2.9-1.8-6.2-6.8-6.2c-4.1,0-8.1,2.4-11.5,8v-6.4c0-0.6-0.5-1.2-1.2-1.2l0,0l-10.7,0.3
	c-0.5,0-0.9,0.4-0.9,1l0,0v0.1c0,0.5,0.3,0.9,0.8,0.9c3.6,0.5,4.1,2.2,4.1,4V81.1z"/>
<path id="_Path_3" class="st0" d="M383.1,44.5c0.2,0,0.5,0.1,0.7,0.3c0.2,0.2,0.3,0.4,0.3,0.7v7.1c0,0,3.5-8.3,14.8-8.3h0.1
	c7.1,0,11.1,4.5,11.1,12.3v24.5c0,2.2,0.5,2.9,4,3.1c0.5,0.2,0.8,0.8,0.6,1.3c-0.1,0.3-0.4,0.5-0.7,0.6h-15.2c-0.5,0-0.9-0.4-1-0.9
	c0-0.5,0.4-0.9,0.9-1c2.8-0.2,3.2-0.9,3.2-3.1V59c0-7.3-2.1-10.2-7.4-10.2c-3.6,0-6.6,3.2-8.4,5.8c-0.8,1.1-1.5,2.2-2,3.4l0.1,23.1
	c0,2.1,0.4,2.8,3.1,3.1c0.5,0.1,0.8,0.5,0.9,0.9c0,0.6-0.4,1-1,1h-15.1c-0.5-0.2-0.8-0.7-0.7-1.2c0.1-0.3,0.3-0.6,0.6-0.7
	c3.4-0.2,4-0.9,4-3.1V50.8c0-1.8-0.5-3.5-4.1-4c-0.5-0.1-0.8-0.5-0.8-0.9v-0.1c0-0.5,0.4-1,0.9-1L383.1,44.5z"/>
<path id="_Path_4" class="st1" d="M81.8,7.4c24.2,13.8,29.9,44.7,13,76c-14.8,27.5-47.1,39.3-71.2,25.2S-5.2,55.5,5.2,33
	C20.2,0.4,55.1-7.9,81.8,7.4"/>
<path id="_Compound_Path_4" class="st2" d="M81.3,31.1c4.7,5.1,6.2,12.7,5.4,19c-0.9,7.2-5.3,13.8-12.5,18.2
	c-5.7,3.5-13.3,4.9-20.7,5c-0.1,1.2-0.3,5.2-0.4,5.9c-0.1,0.7-0.4,1.4-0.9,2c-0.9,1.1-2.2,1.8-3.6,2.1c-1,0.3-1.9,0.4-2.9,0.4
	c-0.1,0-0.3,0-0.4,0c-0.9-0.1-1.6-0.5-2.2-1.1c-0.6-0.6-0.9-1.4-0.9-2.3l-0.1-0.8c-0.2-0.7-1-35.6-0.9-35c0.1-4.2,6.9-4.9,10.5-4.2
	s2.7,5.2,2.6,10.7c0,0-0.2,7.2-0.5,14.8c4.1-0.2,8.2-1.3,11.9-3.2c7-3.5,10.7-8.8,10.7-16.7s-7.6-16.7-21.8-16.7s-20.2,3.6-27,9.2
	c-1.5,1.3-2.7,2.6-3.8,3.4s-4.1,1-4.9-1c-1-2.4,0.8-5,1.9-6.3c2.9-3.4,6.4-6.3,10.3-8.4c5.2-2.7,11.6-5.6,20.4-5.9
	C59.4,20.1,72.1,20.8,81.3,31.1 M50.7,88.9c-0.7-0.6-1.5-0.9-2.4-1.1c-2-0.4-4,0.5-5,2.2c-0.8,1.2-1.2,2.6-1,4.1
	c0.1,0.8,0.5,1.6,1,2.2c0.7,0.7,1.5,1.2,2.5,1.4c0.6,0.2,1.2,0.3,1.9,0.3l0,0c1.3,0,2.5-0.4,3.5-1.2c1.1-0.9,1.7-2.2,1.7-3.6
	C52.8,91.5,52,90,50.7,88.9"/>
</svg>
