<?xml version="1.0" encoding="utf-8"?>
<!-- Generator: Adobe Illustrator 24.0.3, SVG Export Plug-In . SVG Version: 6.00 Build 0)  -->
<svg version="1.1" id="Layer_1" xmlns="http://www.w3.org/2000/svg" xmlns:xlink="http://www.w3.org/1999/xlink" x="0px" y="0px"
	 viewBox="0 0 457.1 96.4" style="enable-background:new 0 0 457.1 96.4;" xml:space="preserve">
<style type="text/css">
	.st0{fill:#484848;}
	.st1{fill:#1189CA;}
</style>
<title>logo-</title>
<path class="st0" d="M18.9,62.3c2.3,2.2,5.5,3.3,9.7,3.3c3,0,5.6-0.8,7.8-2.3c2.2-1.5,3.5-3.1,4-4.8h13.2
	c-2.1,6.6-5.4,11.2-9.7,14.1c-4.4,2.8-9.7,4.2-15.9,4.2c-4.3,0-8.2-0.7-11.6-2.1c-3.5-1.4-6.4-3.3-8.8-5.9c-2.4-2.5-4.3-5.6-5.6-9.1
	c-1.3-3.5-2-7.4-2-11.6c0-4.1,0.7-7.9,2-11.4s3.2-6.6,5.7-9.1c2.5-2.6,5.4-4.6,8.8-6.1s7.2-2.2,11.4-2.2c4.7,0,8.7,0.9,12.2,2.7
	c3.5,1.8,6.3,4.2,8.5,7.2s3.8,6.5,4.8,10.4s1.3,7.9,1.1,12.2H15C15.4,56.6,16.6,60.1,18.9,62.3 M35.8,33.6c-1.8-2-4.5-3-8.2-3
	c-2.4,0-4.4,0.4-6,1.2c-1.6,0.8-2.9,1.8-3.8,3c-1,1.2-1.6,2.5-2,3.8s-0.6,2.5-0.7,3.6h24.5C38.9,38.4,37.6,35.6,35.8,33.6"/>
<path class="st0" d="M81.1,20.8v7.6h0.3c1.9-3.2,4.4-5.5,7.4-6.9s6.1-2.2,9.3-2.2c4,0,7.3,0.5,9.9,1.6c2.6,1.1,4.6,2.6,6.1,4.5
	s2.5,4.3,3.1,7.1c0.6,2.8,0.9,5.9,0.9,9.2v33.6h-15V44.4c0-4.5-0.7-7.9-2.1-10.1c-1.4-2.2-3.9-3.3-7.5-3.3c-4.1,0-7.1,1.2-8.9,3.6
	c-1.8,2.4-2.7,6.4-2.7,12v28.6h-15V20.8H81.1z"/>
<path class="st0" d="M128.3,82.2c1.5,0,2.9-0.3,4.1-0.9c1.2-0.6,1.7-1.9,1.7-4V20.8h15v57.3c0,2.8-0.3,5.2-0.9,7.3
	c-0.6,2-1.6,3.8-3.1,5.1c-1.4,1.4-3.4,2.4-5.9,3.1c-2.5,0.7-5.6,1-9.4,1c-1.8,0-3.3-0.1-4.8-0.4V81.8C125.9,82,127,82.2,128.3,82.2
	 M134.2,0h15v12.4h-15V0z"/>
<path class="st0" d="M161.5,36.3c1.3-3.6,3.2-6.6,5.7-9.1s5.4-4.4,8.9-5.8s7.3-2.1,11.6-2.1c4.3,0,8.2,0.7,11.7,2.1s6.5,3.3,8.9,5.8
	c2.5,2.5,4.4,5.5,5.7,9.1c1.3,3.6,2,7.5,2,11.9s-0.7,8.3-2,11.8s-3.2,6.5-5.7,9s-5.4,4.4-8.9,5.8c-3.5,1.3-7.4,2-11.7,2
	c-4.3,0-8.2-0.7-11.6-2c-3.5-1.3-6.4-3.3-8.9-5.8s-4.4-5.5-5.7-9c-1.3-3.5-2-7.5-2-11.8C159.5,43.8,160.2,39.8,161.5,36.3
	 M175.2,54.6c0.4,2.1,1.1,3.9,2.2,5.6c1,1.7,2.4,3,4.1,4s3.8,1.5,6.3,1.5s4.7-0.5,6.4-1.5c1.7-1,3.1-2.3,4.1-4s1.7-3.5,2.2-5.6
	c0.4-2.1,0.6-4.2,0.6-6.4c0-2.2-0.2-4.3-0.6-6.4s-1.1-4-2.2-5.6c-1-1.6-2.4-2.9-4.1-4c-1.7-1-3.9-1.5-6.4-1.5s-4.7,0.5-6.3,1.5
	c-1.7,1-3.1,2.3-4.1,4c-1,1.6-1.7,3.5-2.2,5.6c-0.4,2.1-0.6,4.3-0.6,6.4C174.6,50.3,174.8,52.5,175.2,54.6"/>
<path class="st0" d="M249.3,91.7c-2.9,1.9-6.9,2.9-12.1,2.9c-1.5,0-3.1-0.1-4.6-0.2c-1.5-0.1-3-0.2-4.6-0.4V81.6
	c1.4,0.1,2.9,0.3,4.3,0.4c1.5,0.1,3,0.2,4.4,0.1c2-0.2,3.4-1,4.4-2.3s1.4-2.8,1.4-4.4c0-1.2-0.2-2.3-0.6-3.4l-19.1-51.2h16
	l12.4,37.4h0.2l12-37.4h15.5l-22.8,61.4C254.5,86.6,252.2,89.8,249.3,91.7"/>
<rect x="280.1" y="59.1" class="st1" width="16.6" height="16.3"/>
<path class="st0" d="M308.3,0h15v12.4h-15V0z M323.4,75.4h-15V20.8h15V75.4z"/>
<path class="st0" d="M352.8,20.8v7.6h0.3c1.9-3.2,4.4-5.5,7.4-6.9s6.1-2.2,9.3-2.2c4,0,7.3,0.5,9.9,1.6s4.6,2.6,6.1,4.5
	s2.5,4.3,3.1,7.1c0.6,2.8,0.9,5.9,0.9,9.2v33.6h-15V44.4c0-4.5-0.7-7.9-2.1-10.1s-3.9-3.3-7.5-3.3c-4.1,0-7.1,1.2-8.9,3.6
	s-2.7,6.4-2.7,12v28.6h-15V20.8H352.8z"/>
<path class="st0" d="M456.2,79.4c-0.6,2.8-1.9,5.4-3.9,7.9c-2,2.4-4.8,4.5-8.6,6.2c-3.7,1.7-8.7,2.5-15,2.5c-2.7,0-5.4-0.3-8.2-1
	s-5.3-1.7-7.6-3.1c-2.3-1.4-4.2-3.2-5.7-5.4s-2.4-4.9-2.6-8h14.9c0.7,2.8,2.1,4.8,4.1,5.9c2,1.1,4.4,1.6,7.1,1.6
	c4.2,0,7.3-1.3,9.3-3.8c1.9-2.5,2.9-5.7,2.8-9.6v-7.2h-0.2c-1.6,2.9-3.9,5-6.9,6.4s-6.2,2.1-9.5,2.1c-4.1,0-7.6-0.7-10.6-2.2
	c-3-1.4-5.4-3.4-7.3-5.9c-1.9-2.5-3.3-5.4-4.2-8.8c-0.9-3.3-1.3-6.9-1.3-10.6c0-3.5,0.5-6.9,1.5-10.2c1-3.3,2.5-6.2,4.5-8.7
	s4.4-4.5,7.4-6c2.9-1.5,6.3-2.2,10.1-2.2c3.6,0,6.8,0.7,9.5,2s5,3.6,6.8,6.8h0.2v-7.3h14.3v51.1C457.1,74.1,456.7,76.6,456.2,79.4
	 M435.6,61.3c1.6-0.8,3-2,4-3.4c1.1-1.4,1.8-3,2.4-4.8c0.5-1.8,0.8-3.7,0.8-5.7c0-2.3-0.2-4.4-0.6-6.4c-0.4-2-1.1-3.8-2.1-5.3
	s-2.3-2.8-3.9-3.7c-1.6-0.9-3.7-1.4-6.1-1.4c-2.1,0-3.9,0.4-5.4,1.3c-1.5,0.8-2.8,2-3.8,3.4s-1.8,3.1-2.2,5
	c-0.5,1.9-0.7,3.8-0.7,5.9c0,2,0.2,3.9,0.6,5.9c0.4,1.9,1.1,3.7,2,5.2c1,1.6,2.2,2.8,3.8,3.8s3.5,1.5,5.8,1.5
	C432.1,62.5,434,62.1,435.6,61.3"/>
</svg>
