<?xml version="1.0" encoding="utf-8"?>
<!-- Generator: Adobe Illustrator 24.0.3, SVG Export Plug-In . SVG Version: 6.00 Build 0)  -->
<svg version="1.1" id="Layer_1" xmlns="http://www.w3.org/2000/svg" xmlns:xlink="http://www.w3.org/1999/xlink" x="0px" y="0px"
	 viewBox="0 0 363.6 97" style="enable-background:new 0 0 363.6 97;" xml:space="preserve">
<style type="text/css">
	.st0{fill:#18467E;}
	.st1{fill:#006BB1;}
	.st2{fill:#FFFFFF;}
</style>
<title>logo-</title>
<path class="st0" d="M133.5,31h-0.2c-1.8-2.6-4.2-4.7-7.1-6c-2.9-1.4-6.1-2.1-9.3-2.1c-3.4-0.1-6.8,0.6-9.9,1.9
	c-2.9,1.2-5.4,3.1-7.5,5.4c-2.1,2.4-3.7,5.1-4.8,8.1c-1.1,3.2-1.7,6.6-1.7,10c0,3.4,0.6,6.7,1.8,9.8c1.1,2.9,2.8,5.6,5,7.9
	c2.1,2.2,4.7,4,7.6,5.2c3,1.3,6.3,1.9,9.6,1.9c3.2,0,6.4-0.7,9.3-2.1c2.9-1.4,5.4-3.7,7-6.5h0.3v7.1c0,2.1-0.3,4.1-0.8,6.1
	c-0.5,2-1.4,3.8-2.7,5.4c-1.4,1.7-3.2,3-5.2,3.8c-2.6,1.1-5.4,1.6-8.2,1.5c-3.2,0-6.3-0.6-9.2-2c-2.9-1.5-5.4-3.4-7.5-5.9l-6.1,7.8
	c3,3,6.7,5.3,10.7,6.7c4,1.3,8.1,2,12.3,1.9c3.6,0,7.2-0.6,10.5-1.8c3-1.1,5.8-2.9,8.1-5.1c2.3-2.2,4-4.9,5.2-7.9
	c1.3-3.2,1.9-6.6,1.8-10.1v-48h-8.9L133.5,31z M129.3,60.1c-2.8,3-6.5,4.4-11.3,4.4c-4.8,0-8.5-1.5-11.3-4.4
	c-2.8-3-4.2-6.9-4.2-11.8c0-2.3,0.3-4.6,1.1-6.8c0.7-2,1.7-3.8,3.1-5.3c1.4-1.5,3-2.7,4.9-3.5c4.1-1.7,8.8-1.7,12.9,0
	c1.8,0.8,3.5,2,4.9,3.5c1.4,1.5,2.4,3.4,3.1,5.3c0.7,2.2,1.1,4.5,1.1,6.8C133.5,53.2,132.1,57.1,129.3,60.1L129.3,60.1z"/>
<path class="st0" d="M188.6,49c0,2.5-0.3,4.9-1,7.2c-0.6,1.8-1.5,3.5-2.8,5c-1.1,1.3-2.6,2.3-4.2,2.9c-1.6,0.6-3.4,0.9-5.2,0.9
	c-1.4,0-2.7-0.2-4-0.7c-1.3-0.4-2.5-1.2-3.4-2.1c-1.1-1.1-1.9-2.4-2.4-3.8c-0.6-1.9-0.9-3.8-0.9-5.8V24.1h-8.9v31.1
	c-0.1,2.8,0.4,5.7,1.4,8.3c0.8,2.2,2.1,4.1,3.7,5.8c1.5,1.5,3.4,2.6,5.4,3.3c2.1,0.7,4.3,1.1,6.5,1.1c3.4,0.1,6.7-0.8,9.6-2.4
	c2.6-1.4,4.6-3.6,5.9-6.3h0.2v7.5h8.9V24.1h-8.9V49z"/>
<rect x="213.7" y="24.1" class="st0" width="8.9" height="48.4"/>
<path class="st0" d="M218.1,0c-1.8,0-3.4,0.7-4.6,2c-2.6,2.6-2.6,6.9,0,9.5c2.4,2.6,6.4,2.7,8.9,0.3c0.1-0.1,0.2-0.2,0.3-0.3
	c2.6-2.6,2.6-6.8,0-9.5C221.6,0.7,219.9,0,218.1,0z"/>
<path class="st0" d="M273,31h-0.2c-1.7-2.6-4-4.7-6.8-6c-3-1.5-6.2-2.2-9.5-2.2c-3.4-0.1-6.8,0.6-9.9,1.9c-2.9,1.2-5.4,3.1-7.5,5.4
	c-2.1,2.3-3.8,5.1-4.8,8.1c-1.2,3.2-1.7,6.6-1.7,10.1c0,3.4,0.5,6.8,1.7,10c1.1,3,2.7,5.7,4.8,8.1c2.1,2.3,4.7,4.2,7.5,5.4
	c3.1,1.3,6.5,2,9.9,1.9c3.2,0,6.4-0.7,9.3-2.1c2.9-1.3,5.3-3.4,7.1-6h0.2v7h8.9V3.8H273L273,31z M271.9,55c-0.7,2-1.7,3.8-3.1,5.3
	c-1.4,1.5-3,2.7-4.9,3.5c-4.1,1.7-8.8,1.7-12.9,0c-1.8-0.8-3.5-2-4.9-3.5c-1.4-1.5-2.4-3.4-3.1-5.3c-1.5-4.4-1.5-9.2,0-13.6
	c0.7-2,1.7-3.8,3.1-5.3c1.4-1.5,3-2.7,4.9-3.5c4.1-1.7,8.8-1.7,12.9,0c1.8,0.8,3.5,2,4.8,3.5c1.4,1.5,2.4,3.4,3.1,5.3
	C273.3,45.9,273.3,50.7,271.9,55L271.9,55z"/>
<rect x="296.1" y="3.8" class="st0" width="8.9" height="68.7"/>
<path class="st0" d="M363.6,48.4c0-3.1-0.4-6.2-1.2-9.2c-0.8-3-2.1-5.7-4-8.2c-1.9-2.5-4.3-4.5-7.1-5.9c-3.3-1.6-6.9-2.4-10.6-2.2
	c-3.3,0-6.7,0.6-9.7,1.9c-2.9,1.2-5.5,3.1-7.7,5.4c-2.2,2.3-3.9,5.1-5.1,8.1c-1.2,3.2-1.9,6.6-1.8,10.1c0,3.4,0.5,6.8,1.7,10
	c1.1,3,2.7,5.7,4.8,8.1c2.1,2.3,4.7,4.1,7.6,5.4c3.2,1.3,6.6,2,10.1,1.9c8.9,0,15.9-3.3,20.8-9.9l-6.8-5.3c-1.6,2.1-3.5,3.8-5.6,5.3
	c-2.2,1.4-4.7,2.1-7.2,2c-2,0-4.1-0.3-6-1c-1.8-0.6-3.5-1.6-5-2.9c-1.5-1.2-2.7-2.7-3.5-4.4c-0.9-1.8-1.4-3.8-1.3-5.8h37.7V48.4z
	 M325.9,44.3c0-1.7,0.3-3.4,1-5c0.7-1.7,1.7-3.2,2.9-4.5c1.3-1.4,2.9-2.5,4.6-3.3c1.9-0.9,3.9-1.3,6-1.3c2,0,4,0.3,5.9,1.1
	c1.6,0.7,3.1,1.7,4.2,3c1.1,1.3,2,2.8,2.5,4.4c0.6,1.8,0.9,3.7,0.9,5.6L325.9,44.3z"/>
<polygon class="st1" points="70.1,80.3 0,86.8 0,2.4 70.1,15 "/>
<polygon class="st1" points="30.2,84 37.6,95.6 44.4,82.7 "/>
<polygon class="st2" points="57.5,22.6 13.5,17.1 13.6,25.1 57.6,29.2 "/>
<polygon class="st2" points="13.9,47.8 14,56 44.4,55.3 44.4,48.1 "/>
<polygon class="st2" points="57.8,35.3 13.7,32.4 13.8,40.4 58,42 "/>
</svg>
