<?xml version="1.0" encoding="utf-8"?>
<!-- Generator: Adobe Illustrator 24.0.3, SVG Export Plug-In . SVG Version: 6.00 Build 0)  -->
<svg version="1.1" id="Layer_1" xmlns="http://www.w3.org/2000/svg" xmlns:xlink="http://www.w3.org/1999/xlink" x="0px" y="0px"
	 viewBox="0 0 330.6 78.6" style="enable-background:new 0 0 330.6 78.6;" xml:space="preserve">
<style type="text/css">
	.st0{fill:#C91648;}
</style>
<title>logo-</title>
<path class="st0" d="M116.6,4.5H133v73.2h-16.4V4.5z"/>
<path class="st0" d="M141.8,9.3c0-5.1,4.2-9.3,9.3-9.3c0.1,0,0.2,0,0.3,0c5.7,0,9.7,4.2,9.7,9.3c0,5.3-4.3,9.6-9.6,9.6
	C146.1,19,141.8,14.7,141.8,9.3z M143.1,24.7h16.6v53h-16.6L143.1,24.7z"/>
<path class="st0" d="M170.1,74.9V4.5h16.5v23.9c3.5-3,7.9-4.6,12.5-4.5c15.3,0,21.3,12,21.3,26.6c0,15-9.2,28.1-28.3,28.1
	C184.6,78.6,177.2,77.3,170.1,74.9z M203.1,51.1c0-8.8-2.6-14.5-10-14.5c-2.4,0-4.6,0.8-6.5,2.3v26.5c1.9,0.5,3.8,0.7,5.7,0.8
	C199.6,66.1,203.1,60.6,203.1,51.1z"/>
<path class="st0" d="M226.7,24.7h16.1v5.6c3.7-4.3,8.1-6.5,13.1-6.5c1.5,0,3,0.1,4.4,0.5v14.3c-1.9-0.4-3.9-0.7-5.8-0.6
	c-4,0-8,1.2-11.4,3.3v36.3h-16.5V24.7z"/>
<path class="st0" d="M265.5,9.3c0.2-5.3,4.6-9.5,9.9-9.3c5.1,0.2,9.2,4.2,9.3,9.3c-0.2,5.3-4.6,9.5-9.9,9.3
	C269.8,18.5,265.7,14.4,265.5,9.3z M266.8,24.7h16.6v53h-16.6L266.8,24.7z"/>
<path class="st0" d="M291.7,75.6v-12c4.9,2,10.1,3,15.4,3.1c5.6,0,7.8-1.6,7.8-4.5c0-3.4-5-3.9-11.4-6c-6.8-2.1-12.2-6.5-12.2-15.8
	c0-11.5,8.7-16.5,21.4-16.5c4.7,0,9.4,0.7,14,2v12.1c-4.2-1.4-8.7-2.2-13.1-2.3c-5.1,0-6.9,1.3-6.9,3.7c0,2.7,2.3,3.3,9.3,5.3
	c7.4,2.2,14.7,6.1,14.7,16.8c0,11.2-8.5,17.1-21.1,17.1C301.4,78.6,295.8,77.4,291.7,75.6z"/>
<path class="st0" d="M0,51.2c0-14.7,8.6-27.4,25.7-27.4c17.8,0,23.5,12,23.5,25.1c0,1.8-0.1,3.6-0.3,5.4h-32
	c0.2,7.4,3,12.1,12.5,12.1c5.5,0,10.9-1.1,16-3.2v12.4c-5.5,2-11.3,3.1-17.2,3C8.1,78.6,0,67.3,0,51.2z M33.1,45.1v-0.6
	c0-4.4-2.3-8.7-7.3-8.7s-8,3.8-8.5,9.4H33.1z"/>
<polygon class="st0" points="48.6,77.7 65.9,51.2 48.6,24.7 65.9,24.7 74.5,38 83.2,24.7 100.4,24.7 83.2,51.2 100.4,77.7 
	83.2,77.7 74.5,64.5 65.9,77.7 "/>
</svg>
