<svg id="Layer_1" data-name="Layer 1" xmlns="http://www.w3.org/2000/svg" viewBox="0 0 640 220"><defs><style>.cls-1{fill:#ed1c24;}.cls-2{fill:#231f20;}</style></defs><title>logo-</title><path class="cls-1" d="M506.43,84.06l-2.92,5,2.92,5.05h5.83l2.91-5.05-2.91-5Zm10-5.77-2.91,5,2.91,5h5.83l2.91-5-2.91-5Zm-14.15,0h-5.83l-2.92,5,2.92,5h5.83l2.91-5Zm14.15-1.45h5.83l2.91-5-2.91-5h-5.83l-2.91,5Zm-14.15,0,2.91-5-2.91-5h-5.83l-2.92,5,2.92,5Zm10-5.77,2.91-5-2.91-5h-5.83l-2.92,5,2.92,5Z"/><path class="cls-2" d="M392.05,78.66c-17.77,0-28,14.59-28,32.45s10.26,32.3,28,32.3,28-14.35,28-32.3S409.83,78.66,392.05,78.66Zm0,58c-14.14,0-21.21-11.57-21.21-25.63s6.91-25.63,21.21-25.63S413.26,96.89,413.26,111,406.19,136.66,392.05,136.66Z"/><polygon class="cls-2" points="341 128.15 292.38 77.2 292.38 142.22 299.33 142.22 299.33 94.16 347.95 145.03 347.95 79.85 341 79.85 341 128.15"/><path class="cls-2" d="M476.26,142.22h8.68L465.7,116.61c9.84-1.79,17-7.88,17-18.27v-.17a17.33,17.33,0,0,0-4.83-12.36c-3.94-3.94-10.12-6.27-17.82-6.27H435.2v62.68h7.07V86.08h17.25c10.12,0,16,4.65,16,12.35v.18c0,7.92-6.49,12.72-15.63,12.88h0l-6.36.26Z"/><path class="cls-2" d="M221.7,142.22h7.6l5-11.88,31.67.06,4.86,11.82h7.69l-28-65.35ZM237.16,124l13.15-30.92,13,30.92Z"/><polygon class="cls-2" points="174.58 133.08 194.33 96.49 203.14 142.22 210.33 142.22 197.54 76.5 174.58 118.9 151.63 76.5 138.84 142.22 146.03 142.22 154.84 96.49 174.58 133.08"/></svg>