<svg id="Layer_1" data-name="Layer 1" xmlns="http://www.w3.org/2000/svg" viewBox="0 0 640 220"><defs><style>.cls-1{fill:#c91648;}</style></defs><title>logo-</title><path class="cls-1" d="M271.36,75.16h16.37v73.23H271.36Z"/><path class="cls-1" d="M296.51,80a9.27,9.27,0,0,1,9.58-9.26c5.71,0,9.7,4.2,9.7,9.26a9.64,9.64,0,0,1-19.28,0Zm1.29,15.4h16.59v53H297.8Z"/><path class="cls-1" d="M324.82,145.59V75.16h16.46V99.07a18.3,18.3,0,0,1,12.5-4.52c15.28,0,21.32,12,21.32,26.6,0,15-9.16,28.1-28.33,28.1A67.88,67.88,0,0,1,324.82,145.59Zm32.94-23.8c0-8.83-2.59-14.54-10-14.54a10.36,10.36,0,0,0-6.47,2.26V136a24.44,24.44,0,0,0,5.71.75C354.31,136.76,357.76,131.27,357.76,121.79Z"/><path class="cls-1" d="M381.41,95.41h16.14V101c3.67-4.31,8.07-6.46,13.13-6.46a15.38,15.38,0,0,1,4.41.53V109.4a24.18,24.18,0,0,0-5.81-.64,21,21,0,0,0-11.4,3.34v36.29H381.41Z"/><path class="cls-1" d="M420.26,80a9.64,9.64,0,0,1,19.27,0,9.64,9.64,0,0,1-19.27,0Zm1.29,15.4h16.59v53H421.55Z"/><path class="cls-1" d="M446.41,146.24v-12a43.16,43.16,0,0,0,15.4,3.12c5.6,0,7.76-1.62,7.76-4.52,0-3.45-5-3.88-11.42-6C451.37,124.7,446,120.29,446,111c0-11.52,8.73-16.47,21.43-16.47a51.44,51.44,0,0,1,14,2v12.06a43,43,0,0,0-13.14-2.26c-5.06,0-6.89,1.29-6.89,3.66,0,2.69,2.26,3.34,9.26,5.28,7.43,2.16,14.65,6.14,14.65,16.8,0,11.2-8.51,17.12-21.11,17.12C456.1,149.25,450.5,148.07,446.41,146.24Z"/><path class="cls-1" d="M154.71,121.9c0-14.65,8.62-27.36,25.74-27.36,17.77,0,23.47,12,23.47,25.1a45.47,45.47,0,0,1-.32,5.38h-32c.22,7.43,3,12.06,12.49,12.06a40,40,0,0,0,16-3.23v12.39a48.26,48.26,0,0,1-17.22,3C162.79,149.25,154.71,137.94,154.71,121.9Zm33.06-6.14v-.64c0-4.42-2.26-8.73-7.32-8.73s-8,3.77-8.51,9.37Z"/><polygon class="cls-1" points="203.31 148.39 220.59 121.9 203.31 95.41 220.59 95.41 229.23 108.65 237.88 95.41 255.16 95.41 237.88 121.9 255.16 148.39 237.88 148.39 229.24 135.14 220.59 148.39 203.31 148.39"/></svg>