<?xml version="1.0" encoding="utf-8"?>
<!-- Generator: Adobe Illustrator 24.0.1, SVG Export Plug-In . SVG Version: 6.00 Build 0)  -->
<svg version="1.1" id="Layer_1" xmlns="http://www.w3.org/2000/svg" xmlns:xlink="http://www.w3.org/1999/xlink" x="0px" y="0px"
	 viewBox="0 0 640 220" style="enable-background:new 0 0 640 220;" xml:space="preserve">
<style type="text/css">
	.st0{fill:#484848;}
</style>
<title>logo-</title>
<path class="st0" d="M188.5,139h-10.2l-20-58h11.5l13.4,43.1L197.1,81h11.1L188.5,139z"/>
<path class="st0" d="M239.8,98.2c3.2,1.8,5.7,4.5,7.4,7.7c1.9,3.7,2.8,7.7,2.7,11.8c0.1,4.1-0.8,8.2-2.7,11.8
	c-1.7,3.2-4.3,5.9-7.4,7.7c-6.7,3.6-14.7,3.6-21.4,0c-3.2-1.8-5.7-4.5-7.4-7.7c-1.9-3.7-2.8-7.7-2.7-11.8c-0.1-4.1,0.8-8.2,2.7-11.8
	c1.7-3.2,4.3-5.9,7.4-7.7C225,94.6,233.1,94.6,239.8,98.2z M221.5,108.5c-1.8,2.3-2.8,5.3-2.8,9.2c0,4.1,1,7.3,2.9,9.4
	c1.9,2.1,4.7,3.3,7.5,3.2c2.9,0.1,5.6-1.1,7.4-3.4c1.9-2.2,2.8-5.3,2.8-9.2c0-4.1-1-7.3-2.9-9.4c-1.9-2.1-4.6-3.3-7.5-3.2
	C226.1,105,223.3,106.3,221.5,108.5z"/>
<path class="st0" d="M291.2,99.6c2.4,2.7,3.6,6.7,3.5,11.9V139h-10.3v-26.6c0.1-2.1-0.6-4.1-2-5.7c-1.5-1.4-3.5-2.1-5.5-2
	c-2.6-0.1-5.2,1-6.9,3c-1.7,2-2.5,4.7-2.5,8.2v23h-10.3V96.3h10.2v6.2c1.2-2.1,2.9-3.9,5-5.1c2.5-1.3,5.2-2,8-1.8
	C285.3,95.5,288.9,96.9,291.2,99.6z"/>
<path class="st0" d="M326.3,139h-6.7c-2.4,0.1-4.9-0.3-7.2-1.2c-1.9-0.8-3.5-2.3-4.4-4.2c-1.2-2.7-1.7-5.6-1.5-8.6v-19.5h-7.8v-9.3
	h7.8v-9.6l10.3-2.9v12.5h8.5v9.3h-8.5v20c-0.1,1.2,0.2,2.3,0.9,3.2c0.6,0.7,1.7,1.1,3.4,1.1h5.2L326.3,139z"/>
<path class="st0" d="M360.2,98.2c3.2,1.8,5.7,4.5,7.4,7.7c3.6,7.5,3.6,16.2,0,23.7c-1.7,3.2-4.3,5.9-7.4,7.7
	c-6.7,3.6-14.7,3.6-21.4,0c-3.2-1.8-5.8-4.5-7.4-7.7c-1.9-3.7-2.8-7.7-2.7-11.8c-0.1-4.1,0.8-8.2,2.7-11.8c1.7-3.2,4.3-5.9,7.4-7.7
	C345.5,94.6,353.5,94.6,360.2,98.2z M341.9,108.5c-1.9,2.3-2.8,5.3-2.8,9.2c0,4.1,1,7.3,2.9,9.4c1.9,2.1,4.7,3.3,7.5,3.2
	c2.9,0.1,5.6-1.1,7.4-3.4c1.8-2.2,2.8-5.3,2.8-9.2c0-4.1-1-7.3-2.9-9.4c-1.9-2.1-4.7-3.3-7.5-3.2C346.5,105,343.7,106.3,341.9,108.5
	z"/>
<path class="st0" d="M410.4,98c2.9,1.8,5.3,4.4,6.7,7.5c1.8,3.7,2.6,7.9,2.5,12c0.1,4.3-0.8,8.5-2.6,12.3c-1.5,3.1-4,5.8-7,7.6
	c-2.9,1.7-6.2,2.5-9.6,2.5c-2.6,0-5.1-0.5-7.5-1.5c-2.1-0.9-4-2.5-5.2-4.5v5.2h-10.1V80H388v22.5c1.2-2.2,3-4.1,5.2-5.2
	c2.4-1.2,5.1-1.9,7.9-1.8C404.4,95.5,407.6,96.3,410.4,98z M406.1,127.4c2.1-2.2,3.1-5.4,3.1-9.6c0-4.1-1-7.3-3.1-9.6
	c-1.9-2.2-4.7-3.4-7.6-3.4c-1.9,0-3.7,0.5-5.3,1.5c-1.7,1-3.1,2.6-4,4.4c-2,4.5-2,9.7,0,14.2c0.9,1.8,2.3,3.3,4,4.4
	c1.6,1,3.5,1.5,5.3,1.5C401.4,130.8,404.2,129.6,406.1,127.4L406.1,127.4z"/>
<path class="st0" d="M434.3,120.8c-0.1,2.9,1.1,5.7,3.3,7.6c3.9,3,9.2,3.5,13.5,1.2c1.7-0.9,2.9-2.5,3.4-4.3h9.4
	c-0.5,2.9-1.8,5.6-3.7,7.9c-1.8,2.2-4.2,3.9-6.8,5c-6,2.5-12.8,2.2-18.5-0.7c-3.2-1.7-5.8-4.3-7.6-7.4c-2-3.8-3-8-2.9-12.3
	c-0.1-4.2,0.8-8.4,2.8-12.1c1.7-3.2,4.3-5.9,7.5-7.6c3.2-1.7,6.7-2.6,10.3-2.6c3.4,0,6.7,0.8,9.7,2.4c3,1.6,5.4,4.1,6.9,7.1
	c1.8,3.6,2.7,7.6,2.5,11.6v4.2H434.3z M438,106.6c-2,1.6-3.3,4-3.5,6.6h19.4c0.1-2.4-0.8-4.8-2.5-6.5c-1.8-1.6-4.2-2.5-6.7-2.4
	C442.3,104.4,439.9,105.2,438,106.6z"/>
<path class="st0" d="M481.7,139h-10.3V80h10.3V139z"/>
</svg>
