<?xml version="1.0" encoding="utf-8"?>
<!-- Generator: Adobe Illustrator 24.0.1, SVG Export Plug-In . SVG Version: 6.00 Build 0)  -->
<svg version="1.1" id="Layer_1" xmlns="http://www.w3.org/2000/svg" xmlns:xlink="http://www.w3.org/1999/xlink" x="0px" y="0px"
	 viewBox="0 0 640 220" style="enable-background:new 0 0 640 220;" xml:space="preserve">
<style type="text/css">
	.st0{fill:#231F20;}
	.st1{fill:#1189CA;}
</style>
<title>logo-</title>
<g>
	<path class="st0" d="M110.3,124.3c2.3,2.2,5.5,3.3,9.7,3.3c3,0,5.6-0.8,7.8-2.3c2.2-1.5,3.5-3.1,4-4.8h13.2
		c-2.1,6.6-5.4,11.2-9.7,14.1c-4.4,2.8-9.7,4.2-15.9,4.2c-4.3,0-8.2-0.7-11.6-2.1c-3.5-1.4-6.4-3.3-8.8-5.9
		c-2.4-2.5-4.3-5.6-5.6-9.1c-1.3-3.5-2-7.4-2-11.6c0-4.1,0.7-7.9,2-11.4c1.3-3.5,3.2-6.6,5.7-9.1c2.5-2.6,5.4-4.6,8.8-6.1
		c3.4-1.5,7.2-2.2,11.4-2.2c4.7,0,8.7,0.9,12.2,2.7c3.5,1.8,6.3,4.2,8.5,7.2c2.2,3,3.8,6.5,4.8,10.4c1,3.9,1.3,7.9,1.1,12.2h-39.5
		C106.8,118.6,108,122.1,110.3,124.3 M127.2,95.6c-1.8-2-4.5-3-8.2-3c-2.4,0-4.4,0.4-6,1.2c-1.6,0.8-2.9,1.8-3.8,3
		c-1,1.2-1.6,2.5-2,3.8c-0.4,1.3-0.6,2.5-0.7,3.6H131C130.3,100.4,129,97.6,127.2,95.6"/>
	<path class="st0" d="M172.5,82.8v7.6h0.3c1.9-3.2,4.4-5.5,7.4-6.9c3-1.4,6.1-2.2,9.3-2.2c4,0,7.3,0.5,9.9,1.6
		c2.6,1.1,4.6,2.6,6.1,4.5c1.5,1.9,2.5,4.3,3.1,7.1c0.6,2.8,0.9,5.9,0.9,9.2v33.6h-15v-30.9c0-4.5-0.7-7.9-2.1-10.1
		c-1.4-2.2-3.9-3.3-7.5-3.3c-4.1,0-7.1,1.2-8.9,3.6c-1.8,2.4-2.7,6.4-2.7,12v28.6h-15V82.8H172.5z"/>
	<path class="st0" d="M219.7,144.2c1.5,0,2.9-0.3,4.1-0.9c1.2-0.6,1.7-1.9,1.7-4V82.8h15v57.3c0,2.8-0.3,5.2-0.9,7.3
		c-0.6,2-1.6,3.8-3.1,5.1c-1.4,1.4-3.4,2.4-5.9,3.1c-2.5,0.7-5.6,1-9.4,1c-1.8,0-3.3-0.1-4.8-0.4v-12.4
		C217.3,144,218.4,144.2,219.7,144.2 M225.6,62h15v12.4h-15V62z"/>
	<path class="st0" d="M252.9,98.3c1.3-3.6,3.2-6.6,5.7-9.1c2.5-2.5,5.4-4.4,8.9-5.8c3.5-1.4,7.3-2.1,11.6-2.1
		c4.3,0,8.2,0.7,11.7,2.1c3.5,1.4,6.5,3.3,8.9,5.8c2.5,2.5,4.4,5.5,5.7,9.1c1.3,3.6,2,7.5,2,11.9c0,4.4-0.7,8.3-2,11.8
		c-1.3,3.5-3.2,6.5-5.7,9c-2.5,2.5-5.4,4.4-8.9,5.8c-3.5,1.3-7.4,2-11.7,2c-4.3,0-8.2-0.7-11.6-2c-3.5-1.3-6.4-3.3-8.9-5.8
		c-2.5-2.5-4.4-5.5-5.7-9c-1.3-3.5-2-7.5-2-11.8C250.9,105.8,251.6,101.8,252.9,98.3 M266.6,116.6c0.4,2.1,1.1,3.9,2.2,5.6
		c1,1.7,2.4,3,4.1,4c1.7,1,3.8,1.5,6.3,1.5c2.5,0,4.7-0.5,6.4-1.5c1.7-1,3.1-2.3,4.1-4c1-1.7,1.7-3.5,2.2-5.6
		c0.4-2.1,0.6-4.2,0.6-6.4c0-2.2-0.2-4.3-0.6-6.4c-0.4-2.1-1.1-4-2.2-5.6c-1-1.6-2.4-2.9-4.1-4c-1.7-1-3.9-1.5-6.4-1.5
		c-2.5,0-4.7,0.5-6.3,1.5c-1.7,1-3.1,2.3-4.1,4c-1,1.6-1.7,3.5-2.2,5.6c-0.4,2.1-0.6,4.3-0.6,6.4C266,112.3,266.2,114.5,266.6,116.6
		"/>
	<path class="st0" d="M340.7,153.7c-2.9,1.9-6.9,2.9-12.1,2.9c-1.5,0-3.1-0.1-4.6-0.2c-1.5-0.1-3-0.2-4.6-0.4v-12.4
		c1.4,0.1,2.9,0.3,4.3,0.4c1.5,0.1,3,0.2,4.4,0.1c2-0.2,3.4-1,4.4-2.3c1-1.3,1.4-2.8,1.4-4.4c0-1.2-0.2-2.3-0.6-3.4l-19.1-51.2h16
		l12.4,37.4h0.2l12-37.4h15.5l-22.8,61.4C345.9,148.6,343.6,151.8,340.7,153.7"/>
	<rect x="371.5" y="121.1" class="st1" width="16.6" height="16.3"/>
	<path class="st0" d="M399.7,62h15v12.4h-15V62z M414.8,137.4h-15V82.8h15V137.4z"/>
	<path class="st0" d="M444.2,82.8v7.6h0.3c1.9-3.2,4.4-5.5,7.4-6.9c3-1.4,6.1-2.2,9.3-2.2c4,0,7.3,0.5,9.9,1.6
		c2.6,1.1,4.6,2.6,6.1,4.5c1.5,1.9,2.5,4.3,3.1,7.1c0.6,2.8,0.9,5.9,0.9,9.2v33.6h-15v-30.9c0-4.5-0.7-7.9-2.1-10.1
		c-1.4-2.2-3.9-3.3-7.5-3.3c-4.1,0-7.1,1.2-8.9,3.6c-1.8,2.4-2.7,6.4-2.7,12v28.6h-15V82.8H444.2z"/>
	<path class="st0" d="M547.6,141.4c-0.6,2.8-1.9,5.4-3.9,7.9c-2,2.4-4.8,4.5-8.6,6.2c-3.7,1.7-8.7,2.5-15,2.5c-2.7,0-5.4-0.3-8.2-1
		c-2.8-0.7-5.3-1.7-7.6-3.1c-2.3-1.4-4.2-3.2-5.7-5.4c-1.5-2.2-2.4-4.9-2.6-8h14.9c0.7,2.8,2.1,4.8,4.1,5.9c2,1.1,4.4,1.6,7.1,1.6
		c4.2,0,7.3-1.3,9.3-3.8c1.9-2.5,2.9-5.7,2.8-9.6v-7.2H534c-1.6,2.9-3.9,5-6.9,6.4c-3,1.4-6.2,2.1-9.5,2.1c-4.1,0-7.6-0.7-10.6-2.2
		c-3-1.4-5.4-3.4-7.3-5.9c-1.9-2.5-3.3-5.4-4.2-8.8c-0.9-3.3-1.3-6.9-1.3-10.6c0-3.5,0.5-6.9,1.5-10.2c1-3.3,2.5-6.2,4.5-8.7
		c2-2.5,4.4-4.5,7.4-6c2.9-1.5,6.3-2.2,10.1-2.2c3.6,0,6.8,0.7,9.5,2c2.7,1.3,5,3.6,6.8,6.8h0.2v-7.3h14.3v51.1
		C548.5,136.1,548.1,138.6,547.6,141.4 M527,123.3c1.6-0.8,3-2,4-3.4c1.1-1.4,1.8-3,2.4-4.8c0.5-1.8,0.8-3.7,0.8-5.7
		c0-2.3-0.2-4.4-0.6-6.4c-0.4-2-1.1-3.8-2.1-5.3c-1-1.5-2.3-2.8-3.9-3.7c-1.6-0.9-3.7-1.4-6.1-1.4c-2.1,0-3.9,0.4-5.4,1.3
		c-1.5,0.8-2.8,2-3.8,3.4c-1,1.4-1.8,3.1-2.2,5c-0.5,1.9-0.7,3.8-0.7,5.9c0,2,0.2,3.9,0.6,5.9c0.4,1.9,1.1,3.7,2,5.2
		c1,1.6,2.2,2.8,3.8,3.8c1.6,1,3.5,1.5,5.8,1.5C523.5,124.5,525.4,124.1,527,123.3"/>
</g>
</svg>
