<svg id="Layer_1" data-name="Layer 1" xmlns="http://www.w3.org/2000/svg" viewBox="0 0 640 220"><defs><style>.cls-1{fill:#010101;}</style></defs><title>logo-</title><path class="cls-1" d="M188.53,139H178.31L158.34,81h11.54l13.39,43.12L197.05,81h11.14Z"/><path class="cls-1" d="M239.77,98.2a18.9,18.9,0,0,1,7.43,7.7,24.56,24.56,0,0,1,2.71,11.84,24.56,24.56,0,0,1-2.71,11.84,18.83,18.83,0,0,1-7.43,7.7,22.86,22.86,0,0,1-21.44,0,18.9,18.9,0,0,1-7.43-7.7,24.56,24.56,0,0,1-2.71-11.84,24.56,24.56,0,0,1,2.71-11.84,19,19,0,0,1,7.43-7.7,22.86,22.86,0,0,1,21.44,0ZM221.5,108.49q-2.77,3.38-2.78,9.25,0,6.2,2.94,9.41a9.73,9.73,0,0,0,7.51,3.21A9.15,9.15,0,0,0,236.6,127q2.79-3.36,2.78-9.25,0-6.19-2.94-9.4a9.73,9.73,0,0,0-7.5-3.22A9.19,9.19,0,0,0,221.5,108.49Z"/><path class="cls-1" d="M291.25,99.59q3.56,4.06,3.55,11.88V139H284.51V112.4a7.75,7.75,0,0,0-2-5.65,7.41,7.41,0,0,0-5.54-2,8.55,8.55,0,0,0-6.92,3c-1.68,2-2.52,4.73-2.52,8.24V139h-10.3V96.3h10.22v6.19a14.84,14.84,0,0,1,5-5.14,15.27,15.27,0,0,1,8-1.82Q287.68,95.53,291.25,99.59Z"/><path class="cls-1" d="M326.31,139h-6.74a19.08,19.08,0,0,1-7.16-1.16,8.49,8.49,0,0,1-4.37-4.22,19.29,19.29,0,0,1-1.55-8.55V105.59h-7.82V96.3h7.82V86.7l10.3-2.86V96.3h8.51v9.29h-8.51v20a5,5,0,0,0,.89,3.25c.59.73,1.74,1.08,3.44,1.08h5.19Z"/><path class="cls-1" d="M360.21,98.2a19,19,0,0,1,7.43,7.7,27.22,27.22,0,0,1,0,23.68,18.9,18.9,0,0,1-7.43,7.7,22.86,22.86,0,0,1-21.44,0,18.83,18.83,0,0,1-7.43-7.7,24.56,24.56,0,0,1-2.71-11.84,24.56,24.56,0,0,1,2.71-11.84,18.9,18.9,0,0,1,7.43-7.7,22.86,22.86,0,0,1,21.44,0Zm-18.27,10.29q-2.78,3.38-2.78,9.25,0,6.2,2.94,9.41a9.72,9.72,0,0,0,7.5,3.21A9.16,9.16,0,0,0,357,127q2.77-3.36,2.78-9.25,0-6.19-2.94-9.4a9.73,9.73,0,0,0-7.51-3.22A9.17,9.17,0,0,0,341.94,108.49Z"/><path class="cls-1" d="M410.41,98a17.79,17.79,0,0,1,6.73,7.51,26.6,26.6,0,0,1,2.52,12,26.19,26.19,0,0,1-2.64,12.3,18,18,0,0,1-7,7.55,18.81,18.81,0,0,1-9.56,2.51,17.7,17.7,0,0,1-7.47-1.54,11.87,11.87,0,0,1-5.23-4.49V139H377.7v-59H388v22.52a12.07,12.07,0,0,1,5.22-5.22,16.51,16.51,0,0,1,7.86-1.82A18,18,0,0,1,410.41,98Zm-4.3,29.41q3.09-3.36,3.1-9.55t-3.1-9.56a9.92,9.92,0,0,0-7.59-3.37,10.28,10.28,0,0,0-5.34,1.47,10.59,10.59,0,0,0-4,4.37,17.38,17.38,0,0,0,0,14.17,10.59,10.59,0,0,0,4,4.37,10.28,10.28,0,0,0,5.34,1.47A9.92,9.92,0,0,0,406.11,127.45Z"/><path class="cls-1" d="M434.28,120.76a10,10,0,0,0,3.26,7.63,12.42,12.42,0,0,0,13.5,1.23,7.07,7.07,0,0,0,3.37-4.29h9.44a17.35,17.35,0,0,1-3.71,7.93,18,18,0,0,1-6.81,5,22,22,0,0,1-18.54-.73,18.68,18.68,0,0,1-7.59-7.43,24.11,24.11,0,0,1-2.9-12.27,24.74,24.74,0,0,1,2.79-12.11,18.48,18.48,0,0,1,7.51-7.63,21.27,21.27,0,0,1,10.29-2.55,19.81,19.81,0,0,1,9.67,2.36,17,17,0,0,1,6.89,7.12A24.21,24.21,0,0,1,464,116.58v4.18ZM438,106.63a9.64,9.64,0,0,0-3.48,6.62h19.42a8.37,8.37,0,0,0-2.55-6.46,9.43,9.43,0,0,0-6.66-2.36A10.69,10.69,0,0,0,438,106.63Z"/><path class="cls-1" d="M481.66,139h-10.3v-59h10.3Z"/></svg>