<?xml version="1.0" encoding="utf-8"?>
<!-- Generator: Adobe Illustrator 24.0.3, SVG Export Plug-In . SVG Version: 6.00 Build 0)  -->
<svg version="1.1" id="Layer_1" xmlns="http://www.w3.org/2000/svg" xmlns:xlink="http://www.w3.org/1999/xlink" x="0px" y="0px"
	 viewBox="0 0 488.6 90.4" style="enable-background:new 0 0 488.6 90.4;" xml:space="preserve">
<style type="text/css">
	.st0{fill:#7DC146;}
</style>
<title>logo-</title>
<g>
	<path class="st0" d="M488.6,70.5c-1.9,0-3.8-0.1-5.7,0c-1.4,0.1-1.8-0.3-1.8-1.8c0.1-8.6,0-17.2,0-25.7c0-2.4,0-4.8,0-7.2
		c0-6.7-4.3-8.4-9.8-7.4c-4.6,0.9-8.1,3.8-11.1,7.3c-0.6,0.7-0.5,1.4-0.5,2.1c0,10.2,0,20.5,0,30.7c0,1.5-0.3,2.2-2,2
		c-1.3-0.1-2.6-0.1-3.8,0c-1.6,0.2-1.9-0.5-1.9-1.9c0-18.7,0-37.4,0-56c0-3.4,0-6.7-1-10c-0.3-1,0.2-1.2,0.9-1.4
		c1.7-0.5,3.6-0.4,5.3-1.2c0.4,0,0.8,0,1.1,0c2.1,9.4,0.8,19,1.2,28.7c0.6-0.5,1-0.9,1.5-1.2c3.5-2.7,7.1-5.1,11.6-5.8
		c5-0.8,9.4,0.4,13.1,4c1.6,1.6,1.9,3.8,2.8,5.7C488.6,44.3,488.6,57.4,488.6,70.5z"/>
	<path class="st0" d="M107.9,7.4c-0.1,0.7-0.7,1-1.1,1.4c-5.8,5.5-11.4,11.3-16.6,17.3c-0.9,1-0.9,1.5,0,2.6
		c6.6,8.6,8.2,18.1,4.2,28.2c-4.1,10.2-11.9,16.2-22.9,17.5C55.7,76.3,42,65.2,40.1,49.1c-1.7-14.7,9.5-28.8,24.6-30.7
		c6.8-0.8,13.3,0.5,19.1,4.5c1.4,1,2.2,0.7,3.3-0.3c5.5-5.1,11.4-9.7,17.5-14.2C105.5,7.6,106.5,7.1,107.9,7.4z M68.2,60.6
		c-0.3-0.5-0.5-0.7-0.6-1c-3.3-7.6-7.9-14.5-13.2-20.9c-0.4-0.4-1.2-0.8-0.7-1.6c0.5-0.9,1.3-0.3,1.9-0.1c4,1.4,7.7,3.2,11.2,5.5
		c0.8,0.5,1.3,0.8,2-0.2c3.3-4.8,7.1-9.2,11.2-13.2c0.9-0.9,0.6-1.2-0.3-1.8C72.2,23,64.6,22.7,57,27c-7.5,4.3-11.4,11.1-11.3,19.6
		c0.2,14.8,14.2,25,28.4,21.1c14.5-4,20.9-21.9,12.2-34.1c-0.9-1.2-1.4-1.5-2.3-0.1c-1.8,2.7-3.8,5.2-5.6,7.9
		C74.5,47.4,71.1,53.7,68.2,60.6z"/>
	<path class="st0" d="M116.3,28.2c2.1-2.2,4.3-3.7,6.6-5c7.7-4.3,14.7-2.2,18.7,5.7c2.8-2.7,5.8-5.1,9.5-6.6c4.7-1.9,9.3-2,13.5,1.3
		c3.1,2.5,4.5,5.9,4.5,9.7c0.1,12,0.1,23.9,0.1,35.9c0,1-0.3,1.4-1.3,1.3c-0.1,0-0.1,0-0.2,0c-2,0-4.7,0.7-5.9-0.3
		c-1.3-1.1-0.4-3.8-0.4-5.8c0-9.1,0-18.2,0-27.3c0-0.6,0-1.1,0-1.7c-0.1-6.6-4.1-9.3-10.3-6.6c-3.2,1.4-5.6,3.9-8.2,6.1
		c-0.7,0.6-0.4,1.4-0.4,2.2c0,10.5,0,21,0,31.5c0,1.5-0.3,2.2-2,2c-1.1-0.1-2.3-0.1-3.4,0c-1.8,0.2-2.4-0.3-2.3-2.2
		c0.1-10.1,0.1-20.2,0-30.3c0-1.5-0.1-3.1-0.1-4.6c-0.2-3.1-2.2-5.1-5.4-5.2c-3.6-0.2-6.5,1.4-9.3,3.2c-2.7,1.8-3.9,3.8-3.8,7.3
		c0.3,10,0.1,20,0.1,29.9c0,1.5-0.3,2.1-1.9,1.9c-1.7-0.2-4,0.7-5.1-0.4c-1-1-0.3-3.3-0.3-5c0-10.9,0-21.7,0-32.6
		c0-2.9-0.2-5.7-1.3-8.4c-0.4-1-0.1-1.4,0.8-1.6c1.2-0.2,2.5-0.5,3.7-0.8c2.5-0.6,2.5-0.6,3.3,2C116,25,116.3,26.4,116.3,28.2z"/>
	<path class="st0" d="M192.5,66.3c0,6.9-0.1,13.4,0,19.9c0,1.7-0.4,2.5-2.1,2.8c-1.5,0.3-2.9,0.9-4.4,1.3c-0.8,0.2-1.2,0-1.1-0.9
		c0-0.5,0-1,0-1.5c0-18.2,0-36.5,0-54.7c0-3.3-0.2-6.5-0.9-9.7c-0.2-0.9-0.1-1.3,0.9-1.4c1.8-0.3,3.7-0.5,5.4-0.9
		c1.2-0.3,1.3,0.2,1.5,1.2c0.2,1.8,0.3,3.6,0.3,5.8c1.7-1.7,3.2-3.1,5-4.2c9.2-5.6,20.3-2.1,24.7,7.8c2.7,6,2.9,12.3,2.5,18.7
		c-0.3,4.3-1.3,8.4-3.5,12.1c-5.7,9.8-17.4,12.1-26.4,5.3C193.9,67.4,193.4,67,192.5,66.3z M216.6,47.8c0-3.4-0.2-6.5-0.8-9.5
		c-0.8-4.7-2.8-8.6-7.9-9.9c-5-1.2-12.6,1.9-15.1,6.2c-0.3,0.5-0.2,1-0.2,1.5c0,7.3,0,14.6,0,21.9c0,0.7,0.1,1.3,0.7,1.9
		c2.2,2.2,4.6,4,7.6,5c6,1.9,12.2-1,14.3-7C216.3,54.5,216.4,50.9,216.6,47.8z"/>
	<path class="st0" d="M270.8,47.7c0.2,4.1-0.4,8.4-0.1,12.7c0.2,2.4,0.7,4.7,3,6c0.7,0.4,0.6,0.8,0.2,1.4c-0.9,1.2-1.8,2.5-2.6,3.7
		c-0.6,0.9-1.3,0.6-2,0.3c-2.2-1.1-3.8-2.8-4.7-5c-0.5-1.2-0.8-1.3-1.7-0.4c-4.7,4.7-10.4,6.1-16.8,5.1c-5.2-0.8-9-3.5-10.6-8.6
		c-1.8-5.6-1-10.8,3.1-15.2c3.8-4.1,9-5.6,14.3-6.4c3-0.5,6.1-0.5,9.1-0.4c1.1,0,1.6-0.2,1.5-1.4c-0.1-1.8,0-3.6-0.1-5.3
		c-0.3-3.9-2.8-6.4-6.7-6.7c-5.6-0.3-10.6,1.5-15.2,4.6c-1.2,0.8-1.6,0.7-2.5-0.4c-2.9-4.2-3-4.2,1.7-6.6c5.1-2.6,10.5-4,16.3-4
		c8.7,0.1,13.7,4.9,14,13.6C271.2,38.9,270.9,43.2,270.8,47.7z M263.1,52.4h0.1c0-1.7-0.1-3.3,0-5c0.1-0.9-0.1-1.4-1.1-1.5
		c-4.5-0.3-8.9-0.2-13.1,1.5c-5.7,2.4-8,10.4-4.6,15.5c1.2,1.8,2.9,2.7,4.9,2.9c1.3,0.1,2.5,0.1,3.8,0c5.8-0.6,9.9-5.2,10-10.9
		C263.1,54.2,263.1,53.3,263.1,52.4z"/>
	<path class="st0" d="M354.1,71.8c-5.6-0.1-10.8-1.5-15.8-3.9c-1.1-0.6-1.5-1.1-0.8-2.3c0.8-1.2,1.1-3.1,2.1-3.7
		c1.2-0.7,2.5,1,3.8,1.5c4.7,1.9,9.5,3.2,14.7,2.2c4.9-1,7.6-5.3,6.4-10.2c-0.6-2.3-2.2-3.8-4.4-4.7c-3-1.2-6.3-1.6-9.4-2.3
		c-5.6-1.3-10.1-4-11.6-9.9c-1.8-6.9,1.8-13.8,8.6-16.6c7.6-3,14.8-1.5,21.9,1.8c0.7,0.3,0.9,0.8,0.4,1.5c0,0.1-0.1,0.1-0.1,0.2
		c-0.7,1.4-1.1,3.4-2.3,4c-1.1,0.6-2.7-0.9-4.1-1.4c-3.4-1.2-6.8-2.1-10.4-1.4c-4.6,0.9-7.2,4.6-6.4,9.2c0.5,2.8,2.3,4.3,4.9,4.9
		c2.9,0.7,5.8,1.3,8.7,2c3,0.7,6,1.8,8.4,3.9c5.9,5.2,5.2,15.8-1.3,21.1C363.5,70.9,359,71.9,354.1,71.8z"/>
	<path class="st0" d="M8.6,49c-0.1,1.9,0.2,4.8,0.9,7.5c2.8,10.7,13.2,10.6,18.6,6.3c0.6-0.5,1.2-0.9,1.7-1.5c0.8-1,1.4-0.9,2,0.1
		c0.2,0.4,0.6,0.7,0.9,1c2.5,2.9,2.5,2.9-0.5,5.2C21.6,76,6,71.2,1.8,58.1c-2.5-7.7-2.4-15.6,0.3-23.2c3.1-8.7,11-14.3,19.4-13.9
		c4.2,0.2,7.9,1.7,11.2,4.4c0.9,0.7,0.9,1.2,0.2,2c-0.1,0.1-0.2,0.2-0.2,0.3c-1,1.2-1.7,2.9-3,3.4s-2.3-1.4-3.6-2.1
		c-6-3.3-13.1-0.7-15.5,5.8C8.9,39,8.7,43.5,8.6,49z"/>
	<path class="st0" d="M408.4,47.2c-0.1-4.4,0.4-8.6,2-12.7c3.1-8.2,10.9-13.7,18.9-13.5c4.3,0.1,8.1,1.7,11.5,4.4
		c0.9,0.7,0.9,1.2,0.2,2c-0.1,0.1-0.2,0.2-0.2,0.3c-1,1.2-1.7,2.9-3,3.4c-1.2,0.5-2.3-1.3-3.6-2c-5.7-3.2-13-0.9-15.3,5.2
		c-2.8,7.6-3.2,15.5-0.9,23.2c2.6,8.8,12.4,11,19.5,4.4c1.4-1.3,2.1-1.2,3,0.2c0.2,0.3,0.5,0.6,0.7,0.9c2.1,2.4,2.1,2.4-0.4,4.4
		c-11.7,9.4-28.2,3.4-31.5-11.4C408.6,53,408.3,50,408.4,47.2z"/>
	<path class="st0" d="M294.8,28.7c2.6-3.2,5.2-5.6,8.7-6.9c1.9-0.7,3.9-1,6-0.8c1,0.1,1.6,0.4,1,1.6c-0.4,0.8-0.8,1.7-1,2.7
		c-0.7,2.7-1.6,4.4-5.2,4.3c-5.1-0.1-9.4,4.9-9.4,10.1c0,9.7-0.1,19.3,0,29c0,1.6-0.4,2.2-2,2c-1.3-0.1-2.6-0.1-3.8,0
		c-1.6,0.2-1.9-0.5-1.9-1.9c0-12.3,0-24.5,0-36.8c0-2.6-0.2-5.2-1.3-7.7c-0.4-0.9-0.2-1.2,0.7-1.4c1.4-0.3,2.9-0.6,4.2-1.2
		c1.8-0.7,2.6-0.2,3.1,1.6C294.4,24.8,294.7,26.5,294.8,28.7z"/>
	<path class="st0" d="M325.9,45.9c0,7.6,0,15.1,0,22.7c0,1.4-0.2,2.1-1.9,1.9c-1.5-0.2-3.1-0.1-4.6,0s-1.8-0.5-1.8-1.8
		c0.1-7.3,0-14.6,0-21.9c0-7.5,0.1-15,0-22.5c0-1.5,0.5-2,1.9-2.1c1.6-0.2,3.2-0.4,4.7-0.7c1.3-0.3,1.6,0.2,1.6,1.4
		C325.9,30.5,325.9,38.2,325.9,45.9z"/>
	<path class="st0" d="M383.6,65.1c0-3.7,2.7-6.4,6.4-6.4c3.6,0,6.5,2.8,6.6,6.3c0.1,3.6-2.9,6.7-6.4,6.7
		C386.5,71.7,383.6,68.9,383.6,65.1z"/>
	<path class="st0" d="M316.1,7.4c0-3.3,2.6-5.9,5.9-5.9s5.9,2.8,5.9,6c-0.1,3.2-2.8,5.9-6.1,5.8C318.5,13.2,316,10.6,316.1,7.4z"/>
</g>
</svg>
